<?xml version="1.0" encoding="utf-8"?>
<!DOCTYPE svg>
<svg version="1.1" baseProfile="full" xmlns="http://www.w3.org/2000/svg" xmlns:xlink="http://www.w3.org/1999/xlink" x="0px" y="0px" width="24px" height="48px" viewBox="0 0 24 48" enable-background="new 0 0 24 48" xml:space="preserve">
<path opacity="0.5" d="M13,15l-2.172-1.448C11.561,12.557,12,11.331,12,10c0-3.313-2.688-6-6-6c-3.314,0-6,2.687-6,6s2.686,6,6,6c1.331,0,2.557-0.439,3.552-1.172L11,17l3,3c0,0,1,0,1.5-0.5S16,18,16,18L13,15z M6,14c-2.209,0-4-1.791-4-4s1.791-4,4-4s4,1.791,4,4S8.209,14,6,14z"/>
<path opacity="0.5" d="M13,39l-2.172-1.448C11.561,36.557,12,35.331,12,34c0-3.313-2.688-6-6-6c-3.314,0-6,2.687-6,6s2.686,6,6,6c1.331,0,2.557-0.439,3.552-1.172L11,41l3,3c0,0,1,0,1.5-0.5S16,42,16,42L13,39z M6,38c-2.209,0-4-1.791-4-4s1.791-4,4-4s4,1.791,4,4S8.209,38,6,38z"/>
<polygon opacity="0.5" points="14,10 19,15 24,10"/>
<polygon fill="#333333" points="14,34 19,39 24,34"/>
</svg>
