<?xml version="1.0" encoding="utf-8"?>
<!DOCTYPE svg>
<svg version="1.1" baseProfile="full" xmlns="http://www.w3.org/2000/svg" xmlns:xlink="http://www.w3.org/1999/xlink" x="0px" y="0px" width="26px" height="26px" viewBox="0 0 26 26" enable-background="new 0 0 26 26" xml:space="preserve">
<path d="M24.904,24.904c-0.908,0.903-1.852,1.328-2.218,0.958c-0.138-0.136,0,0,0,0c-0.068-0.063-2.43-2.666-5.113-5.354l0,0c-2.43-2.429-5.28-4.895-7.038-6.641C8.779,12.102,5.861,8.823,5.858,8.82l0,0l-0.195-0.22l1.415-1.538l1.52-1.396l0.219,0.194c0.002,0.002,3.282,2.923,5.046,4.677c1.75,1.756,4.211,4.61,6.641,7.04l0,0c2.688,2.681,5.261,5.013,5.375,5.134C26.197,23.024,25.85,23.954,24.904,24.904z"/>
<linearGradient id="SVGID_2_" gradientUnits="userSpaceOnUse" x1="14.5591" y1="17.4131" x2="17.41" y2="14.5621">
	<stop offset="0.1484" style="stop-color:#7B6C35"/>
	<stop offset="0.8352" style="stop-color:#B9AA69"/>
</linearGradient>
<path fill-rule="evenodd" clip-rule="evenodd" fill="url(#SVGID_2_)" d="M13.615,10.768C11.88,9.026,8.601,6.104,8.601,6.104L7.299,7.301L6.103,8.604c0,0,2.92,3.28,4.663,5.016c1.741,1.745,4.594,4.217,7.039,6.659c2.683,2.683,5.068,5.313,5.108,5.354c0.042,0.042,0.544,0.252,1.759-0.959c1.213-1.208,0.999-1.716,0.972-1.747c-0.028-0.025-2.682-2.432-5.367-5.121C17.831,15.36,15.361,12.511,13.615,10.768z"/>
<linearGradient id="SVGID_4_" gradientUnits="userSpaceOnUse" x1="14.5576" y1="17.4121" x2="17.3657" y2="14.604">
	<stop offset="0.0934" style="stop-color:#2B2414"/>
	<stop offset="0.7363" style="stop-color:#624E22"/>
</linearGradient>
<path fill-rule="evenodd" clip-rule="evenodd" fill="url(#SVGID_4_)" d="M24.423,24.914c-0.087-0.01-0.173-0.08-0.286-0.188c-0.121-0.127-2.62-2.662-5.304-5.348c-0.999-0.999-2.969-2.816-3.24-3.056c-0.485-0.423-0.442-0.854-0.19-1.273c0.262-0.426,0.893-0.957,1.316-0.997c-0.41-0.442-0.808-0.872-1.191-1.286c-1.172,0.662-2.527,1.44-2.721,1.231c-0.936-0.917-3.309-3.305-4.314-4.307c-0.44-0.44-0.381-0.912-0.132-1.379c0.273-0.51,0.97-1.067,1.383-1.18l0,0C9.068,6.521,8.601,6.104,8.601,6.104L7.299,7.301L6.103,8.604c0,0,2.92,3.28,4.663,5.016c1.741,1.745,4.594,4.217,7.039,6.659c2.683,2.683,5.068,5.313,5.108,5.354C22.95,25.672,23.391,25.856,24.423,24.914z"/>
<path fill-rule="evenodd" clip-rule="evenodd" fill="#6B5600" d="M19.67,18.242c0,0-0.334-0.404-0.738-0.804c-0.404-0.408-0.847-0.823-0.847-0.823s0.493,0.562,0.751,0.825C19.097,17.703,19.67,18.242,19.67,18.242z M13.556,11.869c-0.368-0.384-1.024-1.01-1.024-1.01s0.597,0.741,0.942,1.09C13.816,12.302,13.939,12.252,13.556,11.869z M12.676,13.386c-0.62-0.619-1.618-1.563-3.229-3.174C8.2,8.966,7.203,8.033,6.891,7.744L6.819,7.822c0.431,0.417,2.291,2.199,3.312,3.22c1.16,1.159,3.131,2.996,3.652,3.43c0.531,0.43,1.534,1.304,2.302,2.071c0.771,0.772,1.579,1.49,1.579,1.49s-1.312-1.358-1.896-1.938C15.194,15.52,13.38,14.095,12.676,13.386z M12.289,10.658c0,0-0.807-0.806-2.026-2.024C9.33,7.7,8.398,6.771,8.149,6.52L8.145,6.523c0.248,0.277,1.198,1.338,2.05,2.19C11.185,9.704,12.289,10.658,12.289,10.658z M9.809,9.199c0.162,0.16,0.601,0.592,0.925,0.916c0.323,0.321,1,1.057,1.167,1.225c0.671,0.672,1.135,1.091,1.939,1.886c0.785,0.785,2.736,2.822,3.128,3.216c0.662,0.658,1.566,1.61,2.031,2.074c0.461,0.463,1.513,1.469,2.047,2c0.531,0.535,1.238,1.221,1.708,1.688c0.477,0.472,1.748,1.551,1.748,1.551s-2.031-1.998-2.757-2.726c-0.726-0.729-1.651-1.547-2.102-1.993c-0.626-0.631-1.659-1.737-2.19-2.271c-0.533-0.533-0.694-0.629-0.809-0.74c-0.116-0.11-1.229-1.278-1.521-1.579c-0.294-0.288-2.889-2.927-3.366-3.403c-0.478-0.478-0.982-0.969-1.184-1.171c-0.204-0.203-0.551-0.618-0.768-0.835C9.588,8.822,9.225,8.498,8.97,8.242C8.728,8,8.071,7.368,7.666,6.964L7.524,7.093c0.693,0.68,1.126,0.965,1.392,1.23C9.193,8.6,9.646,9.037,9.809,9.199z M11.388,11.926c0.494,0.495,2.568,2.362,2.568,2.362s-1.421-1.347-2.135-2.065c-0.714-0.716-1.593-1.632-2.448-2.486C8.662,9.022,7.501,7.849,7.135,7.48L7.028,7.595c0.481,0.455,2.059,1.954,2.517,2.416C10.089,10.552,10.893,11.43,11.388,11.926z M21.854,21.584c-0.512-0.51-1.018-0.959-1.469-1.409c-0.453-0.451-1.75-1.806-1.75-1.806s1.327,1.514,1.82,2.002c0.489,0.493,0.842,0.734,1.424,1.32c0.584,0.589,1.473,1.511,1.822,1.858c0.284,0.281,0.906,0.776,1.134,0.954c0.017-0.023,0.042-0.044,0.063-0.065c-0.292-0.258-1.212-1.064-1.617-1.469C22.8,22.483,22.366,22.098,21.854,21.584z M23.615,22.098c-0.313-0.317-1.208-1.219-1.396-1.402c-0.187-0.19-0.868-0.72-0.868-0.72s0.47,0.512,0.599,0.639c0.127,0.127,0.842,0.722,1.372,1.255c0.457,0.455,1.674,1.693,2.008,2.034c0.046-0.062,0.083-0.123,0.119-0.181C25.099,23.423,23.886,22.369,23.615,22.098z M10.87,10.688c-0.56-0.571-1.235-1.325-1.475-1.563C8.843,8.57,7.753,7.626,7.364,7.241l-0.065,0.06l-0.011,0.01C7.687,7.696,8.88,8.822,9.63,9.568C10.114,10.055,10.87,10.688,10.87,10.688z M10.415,10.468c0.605,0.605,5.065,4.973,5.639,5.547c0.569,0.566,1.226,1.277,1.562,1.614c0.332,0.334,1.261,1.291,1.261,1.291s-1.249-1.416-1.977-2.142c-0.728-0.728-2.506-2.559-3.318-3.384C12.976,12.781,10.415,10.468,10.415,10.468z M11.171,11.183"/>
<linearGradient id="SVGID_7_" gradientUnits="userSpaceOnUse" x1="16.7949" y1="15.165" x2="14.8297" y2="17.1303">
	<stop offset="0.5165" style="stop-color:#2D2400"/>
	<stop offset="0.8626" style="stop-color:#211700"/>
</linearGradient>
<path fill-rule="evenodd" clip-rule="evenodd" fill="url(#SVGID_7_)" d="M17.655,19.499c-0.83-0.825-2.429-2.334-3.124-3.025c-0.119-0.116-1.527-1.494-1.818-1.788c-0.294-0.299-2.884-2.647-3.362-3.123c-0.477-0.48-1.015-1.13-1.218-1.331c-0.203-0.203-0.585-0.652-0.8-0.869c-0.216-0.215-0.546-0.57-0.802-0.825C6.444,8.449,6.378,8.4,6.342,8.384L6.311,8.41C6.328,8.449,6.379,8.52,6.478,8.616c0.277,0.275,0.631,0.716,0.795,0.876c0.161,0.161,0.699,0.69,1.023,1.012c0.322,0.324,0.934,1.026,1.103,1.195c0.671,0.67,1.199,1.024,1.993,1.833c0.795,0.783,2.678,2.673,3.072,3.064c0.667,0.664,1.634,1.489,2.097,1.953c0.466,0.465,1.516,1.569,2.047,2.099c0.531,0.535,1.233,1.264,1.708,1.735c0.47,0.47,1.75,1.665,1.75,1.665c-1.956-1.986-1.892-2.046-2.576-2.726C18.767,20.596,18.102,19.954,17.655,19.499z M21.979,22.979c-0.669-0.662-1.166-1.196-1.871-1.898c-0.703-0.698-1.492-1.443-2.11-2.059c-0.622-0.616-2.404-2.334-2.404-2.334s1.758,1.85,2.434,2.514c0.675,0.677,1.215,1.223,2.023,2.027c0.808,0.8,2.025,2.065,2.508,2.539c0.402,0.404,1.536,1.422,1.536,1.422l0.176-0.144C24.271,25.046,22.976,23.971,21.979,22.979z M8.584,10.357c0.579,0.618,4.231,3.991,4.744,4.555c0.557,0.566,2.903,2.764,2.903,2.764s-1.591-1.59-2.343-2.404c-0.751-0.812-3.667-3.346-4.575-4.318c-0.911-0.974-2.51-2.561-2.51-2.561l-0.14,0.112C6.663,8.505,8.006,9.737,8.584,10.357z M23.13,25.073c-0.444-0.466-0.887-0.832-0.887-0.832s0.519,0.682,0.764,0.897c0.169,0.15,0.347,0.332,0.455,0.442c0.047-0.021,0.095-0.04,0.144-0.065C23.509,25.443,23.353,25.314,23.13,25.073z M13.566,13.917c-0.004,0.002-0.008,0.005-0.013,0.005c0.225,0.211,0.402,0.366,0.402,0.366S13.789,14.131,13.566,13.917z M15.234,15.727c-0.008-0.042-0.008-0.083-0.008-0.125c-0.548-0.474-1.289-1.096-1.917-1.616c-0.019,0.004-0.034,0.01-0.049,0.017c0.241,0.223,0.402,0.377,0.523,0.47C14.121,14.751,14.678,15.225,15.234,15.727z M15.332,15.189c-0.495-0.515-1.001-1.031-1.395-1.443c-0.042,0.023-0.081,0.044-0.129,0.067c0.554,0.535,1.081,1.05,1.488,1.452C15.309,15.244,15.319,15.212,15.332,15.189z M9.114,7.484C8.658,7.027,8.293,6.663,8.149,6.52L8.145,6.523C8.28,6.676,8.631,7.067,9.059,7.529C9.079,7.512,9.096,7.5,9.114,7.484z M15.535,14.869c-0.18-0.178-0.326-0.336-0.413-0.423c-0.097-0.089-0.43-0.44-0.847-0.867c-0.019,0.008-0.04,0.017-0.059,0.027c0.366,0.379,0.83,0.854,1.276,1.316C15.507,14.905,15.52,14.887,15.535,14.869z M8.24,8.594C7.778,8.13,7.352,7.698,7.148,7.493C7.113,7.535,7.081,7.577,7.049,7.615c0.234,0.223,0.688,0.652,1.155,1.099C8.214,8.675,8.226,8.634,8.24,8.594z M8.643,7.92c-0.3-0.292-0.697-0.677-0.977-0.956L7.528,7.09L7.524,7.093c0.447,0.437,0.785,0.712,1.04,0.923C8.591,7.983,8.614,7.951,8.643,7.92z M8.172,8.959C7.578,8.386,7.136,7.973,6.926,7.778C6.901,7.811,6.88,7.84,6.862,7.864C7.094,8.088,7.604,8.576,8.187,9.14C8.176,9.08,8.171,9.021,8.172,8.959z M8.361,8.312c0.018-0.031,0.041-0.066,0.061-0.098C7.996,7.826,7.575,7.45,7.364,7.241l-0.045,0.04c-0.01,0.012-0.017,0.021-0.026,0.034c0.203,0.196,0.611,0.582,1.061,1.014C8.356,8.323,8.358,8.318,8.361,8.312z"/>
<path d="M8.365,0c0,0,0.68,0.482,1.767,1.569l0,0c1.086,1.084,1.569,1.767,1.569,1.767v0.607L3.94,11.699H3.335l0,0c0,0-0.906-0.706-1.768-1.569l0,0C0.481,9.046,0,8.365,0,8.365V7.759L7.758,0H8.365z"/>
<linearGradient id="SVGID_10_" gradientUnits="userSpaceOnUse" x1="4.1089" y1="4.1084" x2="7.5912" y2="7.5908">
	<stop offset="0" style="stop-color:#FFFFFF"/>
	<stop offset="1" style="stop-color:#666666"/>
</linearGradient>
<path fill-rule="evenodd" clip-rule="evenodd" fill="url(#SVGID_10_)" d="M8.261,0.324H7.894L0.324,7.894v0.368c0,0,0.4,0.566,1.473,1.64c1.075,1.073,1.641,1.474,1.641,1.474h0.367l7.57-7.568V3.438c0,0-0.397-0.564-1.473-1.64C8.828,0.726,8.261,0.324,8.261,0.324z"/>
<linearGradient id="SVGID_12_" gradientUnits="userSpaceOnUse" x1="4.1089" y1="4.1084" x2="7.5912" y2="7.5908">
	<stop offset="0" style="stop-color:#FFFFFF"/>
	<stop offset="1" style="stop-color:#666666"/>
</linearGradient>
<path fill-rule="evenodd" clip-rule="evenodd" fill="url(#SVGID_12_)" d="M8.261,0.324H7.894L0.324,7.894v0.368c0,0,0.4,0.566,1.473,1.64c1.075,1.073,1.641,1.474,1.641,1.474h0.367l7.57-7.568V3.438c0,0-0.397-0.564-1.473-1.64C8.828,0.726,8.261,0.324,8.261,0.324z"/>
<linearGradient id="SVGID_14_" gradientUnits="userSpaceOnUse" x1="1.958" y1="9.7432" x2="9.7117" y2="1.9895">
	<stop offset="0.0769" style="stop-color:#0A0A0A"/>
	<stop offset="0.533" style="stop-color:#0F0F0F"/>
	<stop offset="0.9121" style="stop-color:#1A1A1A"/>
</linearGradient>
<path fill-rule="evenodd" clip-rule="evenodd" fill="url(#SVGID_14_)" d="M11.098,3.709c0,0-2.126,2.263-3.626,3.763c-1.5,1.498-3.765,3.624-3.765,3.624s-0.831-0.431-1.75-1.354C1.036,8.823,0.603,7.994,0.603,7.994s2.125-2.265,3.626-3.766c1.5-1.497,3.763-3.625,3.763-3.625s0.799,0.465,1.72,1.387C10.632,2.909,11.098,3.709,11.098,3.709z"/>
<linearGradient id="SVGID_16_" gradientUnits="userSpaceOnUse" x1="0.2354" y1="7.9824" x2="3.717" y2="11.4641">
	<stop offset="0" style="stop-color:#999999"/>
	<stop offset="1" style="stop-color:#1A1A1A"/>
</linearGradient>
<path fill-rule="evenodd" clip-rule="evenodd" fill="url(#SVGID_16_)" d="M3.707,11.096c0,0-0.831-0.431-1.75-1.354C1.036,8.823,0.603,7.994,0.603,7.994L0.324,7.894v0.368c0,0,0.4,0.566,1.473,1.64c1.075,1.073,1.641,1.474,1.641,1.474h0.367L3.707,11.096z"/>
<linearGradient id="SVGID_18_" gradientUnits="userSpaceOnUse" x1="7.9819" y1="0.2354" x2="11.4643" y2="3.7177">
	<stop offset="0" style="stop-color:#CCCCCC"/>
	<stop offset="1" style="stop-color:#333333"/>
</linearGradient>
<path fill-rule="evenodd" clip-rule="evenodd" fill="url(#SVGID_18_)" d="M11.375,3.807V3.438c0,0-0.397-0.564-1.473-1.64C8.828,0.726,8.261,0.324,8.261,0.324H7.894l0.099,0.279c0,0,0.799,0.465,1.72,1.387c0.919,0.919,1.385,1.719,1.385,1.719L11.375,3.807z"/>
<path fill="#494949" d="M5.439,6.124L5.351,6.212L5.279,6.141l0.251-0.25l0.072,0.07L5.514,6.049l0.459,0.459L5.897,6.583L5.439,6.124z"/>
<path fill="#494949" d="M5.903,6.023L5.549,5.87L5.63,5.789l0.215,0.102L5.746,5.674l0.081-0.079l0.151,0.353l0.386,0.168L6.283,6.196L6.039,6.084l0.113,0.244L6.071,6.409L5.903,6.023z"/>
<path fill="#494949" d="M5.869,5.553l0.114-0.114c0.042-0.043,0.083-0.063,0.135-0.062c0.054,0,0.095,0.027,0.159,0.091c0.046,0.045,0.073,0.08,0.084,0.127c0.015,0.055,0,0.109-0.053,0.165L6.269,5.799l0.207,0.207L6.399,6.082L5.869,5.553z M6.197,5.726L6.233,5.69c0.061-0.062,0.024-0.1-0.027-0.151c-0.051-0.05-0.091-0.09-0.15-0.031l-0.041,0.04L6.197,5.726z"/>
<path fill="#191919" d="M5.439,6.061L5.351,6.147L5.279,6.076L5.53,5.824l0.072,0.071L5.514,5.984l0.459,0.458L5.897,6.518L5.439,6.061z"/>
<path fill="#191919" d="M5.903,5.96L5.549,5.805L5.63,5.726l0.215,0.099L5.746,5.609l0.081-0.08l0.151,0.354l0.386,0.168L6.283,6.133L6.039,6.019l0.113,0.243L6.071,6.343L5.903,5.96z"/>
<path fill="#191919" d="M5.869,5.487l0.114-0.114c0.042-0.041,0.083-0.062,0.135-0.062c0.054,0.002,0.095,0.027,0.159,0.091c0.046,0.047,0.073,0.08,0.084,0.127c0.015,0.055,0,0.11-0.053,0.165L6.269,5.733L6.476,5.94L6.399,6.016L5.869,5.487z M6.197,5.661l0.036-0.037c0.061-0.06,0.024-0.098-0.027-0.149c-0.051-0.05-0.091-0.092-0.15-0.032l-0.041,0.04L6.197,5.661z"/>
<path fill="#2D2D2D" d="M5.439,6.092L5.351,6.179L5.279,6.107l0.251-0.25l0.072,0.071L5.514,6.016l0.459,0.46L5.897,6.549L5.439,6.092z"/>
<path fill="#2D2D2D" d="M5.903,5.991L5.549,5.837L5.63,5.758l0.215,0.1L5.746,5.642l0.081-0.081l0.151,0.354l0.386,0.169L6.283,6.164L6.039,6.052l0.113,0.243L6.071,6.376L5.903,5.991z"/>
<path fill="#2D2D2D" d="M5.869,5.519l0.114-0.113c0.042-0.041,0.083-0.062,0.135-0.062c0.054,0.001,0.095,0.028,0.159,0.09C6.322,5.48,6.349,5.516,6.36,5.562c0.015,0.056,0,0.109-0.053,0.165L6.269,5.767l0.207,0.207L6.399,6.049L5.869,5.519z M6.197,5.694l0.036-0.036C6.293,5.598,6.257,5.56,6.206,5.506c-0.051-0.05-0.091-0.09-0.15-0.031l-0.041,0.04L6.197,5.694z"/>
<path d="M2.583,24.642L2.583,24.642c-0.718-0.718-1.281-1.608-1.281-1.608l0.701-0.702c0,0,0.734-0.199,1.177-0.646l0,0L17.634,7.234c0.918-0.921,1.877-2.945,1.877-2.945l2.542-2.542l0.665-0.449L26,4.584l-0.451,0.662l-2.54,2.541c0,0-2.023,0.961-2.944,1.88l0,0L5.616,24.119c-0.445,0.448-0.646,1.176-0.646,1.176L4.266,26C4.266,26,3.3,25.356,2.583,24.642z"/>
<linearGradient id="SVGID_30_" gradientUnits="userSpaceOnUse" x1="17.8164" y1="5.7422" x2="25.3018" y2="5.7422">
	<stop offset="0.125" style="stop-color:#CDCDCB"/>
	<stop offset="0.875" style="stop-color:#A09EA1"/>
</linearGradient>
<path fill-rule="evenodd" clip-rule="evenodd" fill="url(#SVGID_30_)" d="M22.265,2L22.265,2l-2.451,2.446c0,0-0.578,2.53-1.509,3.461l-0.489,0.491l1.085,1.086l0.491-0.491c0.929-0.93,3.456-1.509,3.456-1.509l2.453-2.446l0,0L22.265,2z"/>
<path fill-rule="evenodd" clip-rule="evenodd" fill="#616161" d="M18.902,9.484l0.442,0.444l0.489-0.49c0.933-0.933,3.016-1.954,3.016-1.954s-2.527,0.579-3.456,1.509L18.902,9.484z"/>
<path fill-rule="evenodd" clip-rule="evenodd" fill="#EBE9E9" d="M17.372,7.954l0.445,0.444l0.489-0.491c0.931-0.931,1.509-3.461,1.509-3.461s-1.022,2.086-1.951,3.019L17.372,7.954z"/>
<path fill-rule="evenodd" clip-rule="evenodd" fill="#FFCC33" d="M17.846,8.365L3.854,22.362c-0.532,0.529-1.151,0.8-1.151,0.8l1.44,1.435l0,0c0,0,0.267-0.62,0.798-1.148L18.934,9.452L17.846,8.365z"/>
<path fill-rule="evenodd" clip-rule="evenodd" fill="#BFBFBF" d="M1.726,23.067c0,0,0.596,0.854,1.089,1.344c0.49,0.493,1.417,1.163,1.417,1.163L1.726,23.067z"/>
<polygon fill-rule="evenodd" clip-rule="evenodd" fill="#EBE9E9" points="25.302,5.038 25.581,4.626 22.677,1.721 22.265,2"/>
<path fill="#BA9C0A" d="M5.025,22.041l-0.066,0.062l-0.055-0.049l0.191-0.19l0.054,0.053l-0.067,0.063l0.349,0.352l-0.058,0.055L5.025,22.041z"/>
<path fill="#BA9C0A" d="M5.154,21.802l0.171-0.174l0.055,0.058l-0.113,0.112l0.117,0.118l0.1-0.098l0.054,0.051l-0.099,0.096l0.117,0.123l0.114-0.119l0.058,0.062l-0.172,0.172L5.154,21.802z"/>
<path fill="#BA9C0A" d="M5.641,21.696l-0.267-0.119l0.062-0.057l0.163,0.074l-0.077-0.161l0.062-0.063l0.115,0.271l0.294,0.127l-0.062,0.062l-0.185-0.087l0.086,0.183L5.771,21.99L5.641,21.696z"/>
<path fill="#BA9C0A" d="M5.743,21.321l-0.068,0.065l-0.054-0.053l0.191-0.19l0.054,0.051L5.8,21.262l0.348,0.348L6.09,21.666L5.743,21.321z"/>
<path fill="#BA9C0A" d="M5.871,21.08l0.089-0.082c0.03-0.032,0.061-0.049,0.101-0.047c0.042,0,0.073,0.021,0.119,0.067c0.037,0.036,0.058,0.062,0.065,0.098c0.01,0.04,0,0.082-0.04,0.125l-0.031,0.027l0.158,0.161l-0.057,0.055L5.871,21.08z M6.12,21.218l0.028-0.029c0.046-0.045,0.021-0.074-0.02-0.114c-0.039-0.038-0.069-0.07-0.114-0.023l-0.03,0.029L6.12,21.218z"/>
<path fill="#BA9C0A" d="M6.177,20.773l0.049-0.049l0.492,0.315l-0.057,0.057l-0.104-0.067l-0.079,0.078l0.069,0.102L6.49,21.267L6.177,20.773z M6.319,20.866H6.317l0.119,0.176l0.057-0.057L6.319,20.866z"/>
<path fill="#BA9C0A" d="M6.441,20.623l-0.066,0.065l-0.056-0.051l0.191-0.196l0.054,0.057l-0.067,0.068l0.348,0.347l-0.057,0.062L6.441,20.623z"/>
<path fill="#BA9C0A" d="M6.662,20.398l-0.067,0.07l-0.053-0.06l0.19-0.184l0.053,0.053l-0.066,0.065l0.349,0.352L7.01,20.748L6.662,20.398z"/>
<path fill="#BA9C0A" d="M6.79,20.164l0.171-0.172l0.054,0.054l-0.114,0.118l0.118,0.114l0.099-0.1l0.055,0.058l-0.099,0.095l0.118,0.121l0.115-0.117l0.057,0.058l-0.172,0.176L6.79,20.164z"/>
<path fill="#BA9C0A" d="M7.033,19.923l0.093-0.096c0.067-0.067,0.14-0.063,0.219,0.015c0.047,0.049,0.066,0.096,0.05,0.152l0.247,0.123l-0.062,0.062l-0.225-0.12l-0.034,0.035l0.171,0.172L7.435,20.32L7.033,19.923z M7.27,20.041l0.034-0.029c0.038-0.043,0.022-0.07-0.018-0.112c-0.04-0.038-0.068-0.055-0.112-0.011l-0.029,0.027L7.27,20.041z"/>
<path fill="#BA9C0A" d="M7.307,19.649l0.054-0.057l0.329,0.154h0.001l-0.243-0.245l0.058-0.056l0.402,0.402l-0.055,0.055l-0.329-0.154l-0.001,0.004l0.242,0.241l-0.058,0.058L7.307,19.649z"/>
<path fill="#ECD74C" d="M5.025,22.092l-0.066,0.065l-0.055-0.057l0.191-0.187l0.054,0.051l-0.067,0.067l0.349,0.348l-0.058,0.059L5.025,22.092z"/>
<path fill="#ECD74C" d="M5.154,21.856l0.171-0.173l0.055,0.055l-0.113,0.112l0.117,0.114l0.1-0.096l0.054,0.051l-0.099,0.1l0.117,0.121l0.114-0.116l0.058,0.061l-0.172,0.17L5.154,21.856z"/>
<path fill="#ECD74C" d="M5.641,21.747l-0.267-0.114l0.062-0.063l0.163,0.076l-0.077-0.161l0.062-0.06l0.115,0.267l0.294,0.129l-0.062,0.056l-0.185-0.083l0.086,0.185l-0.062,0.063L5.641,21.747z"/>
<path fill="#ECD74C" d="M5.743,21.374l-0.068,0.065l-0.054-0.053l0.191-0.194l0.054,0.055L5.8,21.315l0.348,0.345L6.09,21.726L5.743,21.374z"/>
<path fill="#ECD74C" d="M5.871,21.138l0.089-0.087C5.99,21.019,6.021,21,6.061,21.002c0.042,0,0.073,0.023,0.119,0.069c0.037,0.034,0.058,0.062,0.065,0.096c0.01,0.042,0,0.082-0.04,0.127l-0.031,0.029l0.158,0.159l-0.057,0.057L5.871,21.138z M6.12,21.267l0.028-0.025c0.046-0.049,0.021-0.078-0.02-0.116c-0.039-0.038-0.069-0.068-0.114-0.021l-0.03,0.029L6.12,21.267z"/>
<path fill="#ECD74C" d="M6.177,20.826l0.049-0.047l0.492,0.313L6.662,21.15l-0.104-0.07l-0.079,0.078l0.069,0.104l-0.058,0.06L6.177,20.826z M6.319,20.919H6.317l0.119,0.176l0.057-0.055L6.319,20.919z"/>
<path fill="#ECD74C" d="M6.441,20.674l-0.066,0.067l-0.056-0.057l0.191-0.188l0.054,0.055l-0.067,0.068l0.348,0.347l-0.057,0.062L6.441,20.674z"/>
<path fill="#ECD74C" d="M6.662,20.454L6.595,20.52l-0.053-0.053l0.19-0.192l0.053,0.053l-0.066,0.067l0.349,0.35L7.01,20.801L6.662,20.454z"/>
<path fill="#ECD74C" d="M6.79,20.219l0.171-0.176l0.054,0.058l-0.114,0.114l0.118,0.114l0.099-0.093l0.055,0.048l-0.099,0.098l0.118,0.121l0.115-0.117l0.057,0.058l-0.172,0.176L6.79,20.219z"/>
<path fill="#ECD74C" d="M7.033,19.974l0.093-0.094c0.067-0.067,0.14-0.061,0.219,0.018c0.047,0.046,0.066,0.093,0.05,0.15l0.247,0.122l-0.062,0.063l-0.225-0.12l-0.034,0.034l0.171,0.169l-0.057,0.06L7.033,19.974z M7.27,20.097l0.034-0.034c0.038-0.04,0.022-0.068-0.018-0.11c-0.04-0.038-0.068-0.055-0.112-0.013l-0.029,0.029L7.27,20.097z"/>
<path fill="#ECD74C" d="M7.307,19.702l0.054-0.055l0.329,0.15h0.001l-0.243-0.241l0.058-0.062l0.402,0.404l-0.055,0.06L7.524,19.8l-0.001,0.002l0.242,0.244l-0.058,0.057L7.307,19.702z"/>
<path fill="#FCC332" d="M5.025,22.064l-0.066,0.067l-0.055-0.053l0.191-0.197l0.054,0.06l-0.067,0.065l0.349,0.35l-0.058,0.059L5.025,22.064z"/>
<path fill="#FCC332" d="M5.154,21.829l0.171-0.176l0.055,0.053l-0.113,0.119l0.117,0.118l0.1-0.102l0.054,0.053l-0.099,0.102l0.117,0.117l0.114-0.112l0.058,0.055l-0.172,0.174L5.154,21.829z"/>
<path fill="#FCC332" d="M5.641,21.726l-0.267-0.121l0.062-0.061l0.163,0.076l-0.077-0.161l0.062-0.062l0.115,0.263l0.294,0.131l-0.062,0.065L5.746,21.77l0.086,0.187l-0.062,0.053L5.641,21.726z"/>
<path fill="#FCC332" d="M5.743,21.349l-0.068,0.065l-0.054-0.057l0.191-0.19l0.054,0.055L5.8,21.29l0.348,0.349L6.09,21.696L5.743,21.349z"/>
<path fill="#FCC332" d="M5.871,21.107l0.089-0.082c0.03-0.034,0.061-0.049,0.101-0.047c0.042,0,0.073,0.021,0.119,0.065c0.037,0.036,0.058,0.062,0.065,0.1c0.01,0.04,0,0.08-0.04,0.123l-0.031,0.031l0.158,0.157l-0.057,0.057L5.871,21.107z M6.12,21.241l0.028-0.025c0.046-0.051,0.021-0.076-0.02-0.114c-0.039-0.04-0.069-0.07-0.114-0.025l-0.03,0.029L6.12,21.241z"/>
<path fill="#FCC332" d="M6.177,20.801l0.049-0.049l0.492,0.313l-0.057,0.057l-0.104-0.065l-0.079,0.078l0.069,0.1L6.49,21.296L6.177,20.801z M6.319,20.896H6.317l0.119,0.173l0.057-0.059L6.319,20.896z"/>
<path fill="#FCC332" d="M6.441,20.648l-0.066,0.067l-0.056-0.053l0.191-0.192l0.054,0.055l-0.067,0.066l0.348,0.351L6.788,21L6.441,20.648z"/>
<path fill="#FCC332" d="M6.662,20.424l-0.067,0.07l-0.053-0.058l0.19-0.188l0.053,0.053l-0.066,0.065l0.349,0.352L7.01,20.773L6.662,20.424z"/>
<path fill="#FCC332" d="M6.79,20.191l0.171-0.171l0.054,0.051l-0.114,0.116l0.118,0.118l0.099-0.098l0.055,0.051l-0.099,0.1l0.118,0.116l0.115-0.111l0.057,0.055l-0.172,0.176L6.79,20.191z"/>
<path fill="#FCC332" d="M7.033,19.948l0.093-0.091c0.067-0.072,0.14-0.063,0.219,0.013c0.047,0.046,0.066,0.095,0.05,0.15l0.247,0.122l-0.062,0.063l-0.225-0.12l-0.034,0.036l0.171,0.169l-0.057,0.055L7.033,19.948z M7.27,20.066l0.034-0.031c0.038-0.041,0.022-0.068-0.018-0.108c-0.04-0.038-0.068-0.055-0.112-0.013l-0.029,0.032L7.27,20.066z"/>
<path fill="#FCC332" d="M7.307,19.677l0.054-0.057l0.329,0.154h0.001l-0.243-0.247l0.058-0.056l0.402,0.404l-0.055,0.053l-0.329-0.152l-0.001,0.002l0.242,0.242l-0.058,0.055L7.307,19.677z"/>
<rect x="3.876" y="24.708" transform="matrix(-0.7048 0.7094 -0.7094 -0.7048 24.9361 39.7898)" fill-rule="evenodd" clip-rule="evenodd" fill="#3D2812" width="0.626" height="0.751"/>
<rect x="1.837" y="22.799" transform="matrix(0.7048 0.7094 -0.7094 0.7048 17.0489 5.2516)" fill-rule="evenodd" clip-rule="evenodd" fill="#E2D9AC" width="0.754" height="0.628"/>
<rect x="2.887" y="23.081" transform="matrix(0.7048 -0.7094 0.7094 0.7048 -16.1524 9.3856)" fill-rule="evenodd" clip-rule="evenodd" fill="#FCC332" width="0.626" height="2.038"/>
<path fill-rule="evenodd" clip-rule="evenodd" fill="#473015" d="M19.376,9.895l-0.442-0.44L4.941,23.448c-0.532,0.528-0.798,1.148-0.798,1.148l0.533,0.529c0,0,0.177-0.709,0.71-1.238L19.376,9.895z"/>
<path fill-rule="evenodd" clip-rule="evenodd" fill="#EDE5B2" d="M17.406,7.922L3.414,21.916c-0.536,0.533-1.244,0.707-1.244,0.707l0.532,0.539c0,0,0.62-0.271,1.152-0.8L17.846,8.365L17.406,7.922z"/>
</svg>
