<svg height="32" width="208" xmlns="http://www.w3.org/2000/svg" xmlns:xlink="http://www.w3.org/1999/xlink"><linearGradient id="a" gradientUnits="userSpaceOnUse" x1="30.232" x2="36.166" y1="36.172" y2="30.238"><stop offset=".125" stop-color="#7b6c35"/><stop offset=".875" stop-color="#b9aa69"/></linearGradient><linearGradient id="b" gradientUnits="userSpaceOnUse" x1="30.226" x2="36.061" y1="36.166" y2="30.33"><stop offset="0" stop-color="#2b2414"/><stop offset=".75" stop-color="#624e22"/></linearGradient><linearGradient id="c" gradientUnits="userSpaceOnUse" x1="34.88" x2="30.798" y1="31.496" y2="35.578"><stop offset=".5" stop-color="#2d2400"/><stop offset=".875" stop-color="#211700"/></linearGradient><linearGradient id="d" gradientUnits="userSpaceOnUse" x1="8.535" x2="15.765" y1="8.535" y2="15.765"><stop offset="0" stop-color="#fff"/><stop offset="1" stop-color="#666"/></linearGradient><linearGradient id="e" gradientUnits="userSpaceOnUse" x1="4.065" x2="20.169" y1="20.234" y2="4.13"><stop offset="0" stop-color="#0a0a0a"/><stop offset=".5" stop-color="#0f0f0f"/><stop offset="1" stop-color="#1a1a1a"/></linearGradient><linearGradient id="f" gradientUnits="userSpaceOnUse" x1=".491" x2="7.721" y1="16.579" y2="23.809"><stop offset="0" stop-color="#999"/><stop offset="1" stop-color="#1a1a1a"/></linearGradient><linearGradient id="g" gradientUnits="userSpaceOnUse" x1="16.578" x2="23.808" y1=".491" y2="7.721"><stop offset="0" stop-color="#ccc"/><stop offset="1" stop-color="#333"/></linearGradient><linearGradient id="h" gradientUnits="userSpaceOnUse" x1="37.001" x2="52.55" y1="11.924" y2="11.924"><stop offset=".125" stop-color="#cdcdcb"/><stop offset=".875" stop-color="#a09ea1"/></linearGradient><path d="m24.9 27.9c-.9.9-1.8 1.3-2.2 1-.1-.1 0 0 0 0-.1-.1-2.4-2.7-5.1-5.4-2.4-2.4-5.3-4.9-7-6.7-1.8-1.8-4.7-5-4.7-5l-.2-.2 1.4-1.5 1.5-1.4.2.2s3.3 2.9 5 4.7c1.8 1.8 4.2 4.6 6.7 7 2.7 2.7 5.3 5 5.4 5.1.3.3 0 1.3-1 2.2z"/><path d="m13.6 13.8c-1.7-1.7-5-4.7-5-4.7l-1.3 1.2-1.2 1.3s2.9 3.3 4.7 5c1.7 1.7 4.6 4.2 7 6.7 2.7 2.7 5.1 5.3 5.1 5.4 0 0 .5.3 1.8-1 1.2-1.2 1-1.7 1-1.7s-2.7-2.4-5.4-5.1c-2.5-2.5-4.9-5.4-6.7-7.1z" fill="url(#a)"/><path d="m24.4 27.9c-.1 0-.2-.1-.3-.2s-2.6-2.7-5.3-5.3c-1-1-3-2.8-3.2-3.1-.5-.4-.4-.9-.2-1.3.3-.4.9-.9 1.3-1-.4-.4-.8-.9-1.2-1.3-1.2.7-2.5 1.4-2.7 1.2l-4.3-4.3c-.4-.4-.4-.8-.1-1.3s1-1.1 1.4-1.2c-.7-.6-1.1-1-1.1-1l-1.4 1.2-1.2 1.3s2.9 3.3 4.7 5c1.7 1.7 4.6 4.2 7 6.7 2.7 2.7 5.1 5.3 5.1 5.4.1 0 .5.2 1.5-.8z" fill="url(#b)"/><path d="m19.7 21.2s-.3-.4-.7-.8l-.8-.8s.5.6.8.8.7.8.7.8zm-6.2-6.3-1-1s.6.7 1 1c.3.4.4.4 0 0zm-.8 1.5-3.2-3.2c-1.3-1.2-2.3-2.2-2.6-2.5l-.1.1c.5.4 2.3 2.2 3.3 3.2 1.2 1.2 3.1 3 3.7 3.4s1.5 1.3 2.3 2.1 1.6 1.5 1.6 1.5-1.3-1.4-1.9-1.9c-.6-.6-2.4-2-3.1-2.7zm-.4-2.7-2-2-2.2-2.2c.2.3 1.2 1.3 2.1 2.2 1 1 2.1 2 2.1 2zm-2.5-1.5.9.9c.3.3 1 1.1 1.2 1.2l1.9 1.9c.8.8 2.7 2.8 3.1 3.2.7.7 1.6 1.6 2 2.1l2 2 1.7 1.7 1.7 1.6s-2-2-2.8-2.7c-.7-.7-1.6-1.5-2.1-2-.6-.6-1.7-1.7-2.2-2.3-.5-.5-.7-.6-.8-.7s-1.2-1.3-1.5-1.6l-3.4-3.4-1.2-1.2c.1-.2-.3-.6-.5-.9-.2-.2-.6-.5-.8-.8-.3-.2-.9-.8-1.3-1.2l-.2.1c.7.7 1.1 1 1.4 1.2zm1.6 2.7c.5.5 2.6 2.4 2.6 2.4s-1.4-1.3-2.1-2.1-1.6-1.6-2.4-2.5c-.8-.7-2-1.9-2.4-2.2l-.1.1c.5.5 2.1 2 2.5 2.4zm10.5 9.7c-.5-.5-1-1-1.5-1.4l-1.8-1.8s1.3 1.5 1.8 2 .8.7 1.4 1.3 1.5 1.5 1.8 1.9c.3.3.9.8 1.1 1l.1-.1c-.3-.3-1.2-1.1-1.6-1.5-.4-.5-.8-.9-1.3-1.4zm1.7.5-1.4-1.4-.8-.7.6.6s.8.7 1.4 1.3l2 2c0-.1.1-.1.1-.2-.4-.3-1.6-1.3-1.9-1.6zm-12.7-11.4c-.6-.6-1.2-1.3-1.5-1.6-.6-.6-1.6-1.5-2-1.9l-.1.1c.4.4 1.6 1.5 2.3 2.3.5.5 1.3 1.1 1.3 1.1zm-.5-.2c.6.6 5.1 5 5.6 5.5.6.6 1.2 1.3 1.6 1.6s1.3 1.3 1.3 1.3-1.3-1.4-2-2.1-2.5-2.6-3.3-3.4c-.6-.6-3.2-2.9-3.2-2.9z" fill="#6b5600"/><path d="m17.7 22.5c-.8-.8-2.4-2.3-3.1-3l-1.8-1.8c-.3-.3-2.9-2.6-3.4-3.1s-1-1.1-1.2-1.3l-.9-.9c-.2-.3-.5-.6-.8-.9-.1-.1-.1-.1-.2-.1l.2.2c.3.3.6.7.8.9l1 1s.9 1 1.1 1.2c.7.7 1.2 1 2 1.8l3.1 3.1c.7.7 1.6 1.5 2.1 2s1.5 1.6 2 2.1 1.2 1.3 1.7 1.7c.5.5 1.8 1.7 1.8 1.7-2-2-1.9-2-2.6-2.7-.7-.8-1.4-1.4-1.8-1.9zm4.3 3.5-1.9-1.9c-.7-.7-1.5-1.4-2.1-2.1-.6-.6-2.4-2.3-2.4-2.3s1.8 1.9 2.4 2.5l2 2s2 2.1 2.5 2.5c.4.4 1.5 1.4 1.5 1.4l.2-.1c.1 0-1.2-1-2.2-2zm-13.4-12.6c.6.6 4.2 4 4.8 4.6s2.9 2.8 2.9 2.8l-2.4-2.4c-.8-.8-3.7-3.3-4.6-4.3s-2.5-2.7-2.5-2.7l-.1.1s1.3 1.2 1.9 1.9zm14.5 14.7c-.4-.5-.9-.8-.9-.8s.5.7.8.9c.2.1.3.3.5.4 0 0 .1 0 .1-.1-.1-.1-.2-.2-.5-.4zm-9.5-11.2c-.1 0-.1 0 0 0l.4.4zm1.6 1.8v-.1c-.5-.5-1.3-1.1-1.9-1.6h-.1l.5.5c.4.3 1 .7 1.5 1.2zm.1-.5-1.4-1.4s-.1 0-.1.1c.6.4 1.1 1 1.5 1.3zm-6.2-7.7-1-1c.2.2.5.6 1 1zm6.4 7.4-.4-.4-.9-.9h-.1c.5.4.9.9 1.4 1.3zm-7.3-6.3c-.4-.5-.8-.9-1.1-1.1l-.1.1c.2.2.7.7 1.2 1zm.4-.7-1-1-.1.2c.5.4.8.7 1.1.8 0 .1 0 .1 0 0zm-.4 1.1-1.2-1.2s0 .1-.1.1l1.3 1.3zm.2-.7s0-.1 0 0c-.4-.5-.8-.9-1-1.1.1.3.5.7 1 1.1z" fill="url(#c)"/><path d="m8.4 3s.7.5 1.8 1.6 1.6 1.8 1.6 1.8v.6l-7.8 7.8h-.7s-.9-.7-1.8-1.6l-1.5-1.8v-.6l7.8-7.8z"/><path d="m8.3 3.3h-.4l-7.6 7.6v.4s.4.6 1.5 1.6c1.1 1.1 1.6 1.5 1.6 1.5h.4l7.6-7.6v-.4s-.4-.6-1.5-1.6c-1.1-1.1-1.6-1.5-1.6-1.5z" fill="url(#d)"/><path d="m8.3 3.3h-.4l-7.6 7.6v.4s.4.6 1.5 1.6c1.1 1.1 1.6 1.5 1.6 1.5h.4l7.6-7.6v-.4s-.4-.6-1.5-1.6c-1.1-1.1-1.6-1.5-1.6-1.5z" fill="url(#d)"/><path d="m11.1 6.7s-2.1 2.3-3.6 3.8-3.8 3.6-3.8 3.6-.8-.4-1.7-1.4c-1-.9-1.4-1.7-1.4-1.7s2.1-2.3 3.6-3.8 3.8-3.6 3.8-3.6.8.5 1.7 1.4 1.4 1.7 1.4 1.7z" fill="url(#e)"/><path d="m3.7 14.1s-.8-.4-1.8-1.4c-.9-.9-1.3-1.7-1.3-1.7l-.3-.1v.4s.4.6 1.5 1.6c1.1 1.1 1.6 1.5 1.6 1.5h.4z" fill="url(#f)"/><path d="m11.4 6.8v-.4s-.4-.6-1.5-1.6c-1.1-1.1-1.6-1.5-1.6-1.5h-.4l.1.3s.8.5 1.7 1.4 1.4 1.7 1.4 1.7z" fill="url(#g)"/><path d="m5.4 9.1h-.2l.3-.3.1.2-.2.1.6.4-.1.1zm.5-.1-.3-.1.1-.1.2.1-.2-.2.1-.1.1.4.5.1-.1.1-.3-.1.1.2v.1zm0-.4.1-.2.1-.1c.1 0 .1 0 .2.1l.1.1c0 .1 0 .1-.1.2l.2.3-.1.1zm.3.1c.1-.1.1-.1 0-.2s-.1-.1-.2 0z" fill="#494949"/><path d="m5.4 9.1h-.2l.3-.3.1.1-.2.2.6.3-.1.1zm.5-.1-.3-.2.1-.1.2.1-.2-.2.1-.1.1.5.5.1h-.1l-.4-.1.2.2v.1zm0-.5.1-.1.1-.1c.1 0 .1 0 .2.1l.1.1c0 .1 0 .1-.1.2l.2.2-.1.1zm.3.2c.1-.1.1-.1 0-.2s-.1-.1-.2 0z" fill="#191919"/><path d="m5.4 9.1h-.2l.3-.3.1.1-.2.2.6.4-.1.1zm.5-.1-.3-.2.1-.1.2.1-.2-.2.1-.1.1.5.5.1-.1.1-.3-.1.1.2v.1zm0-.5.1-.1.1-.1c.1 0 .1 0 .2.1l.1.1c0 .1 0 .1-.1.2l.2.3h-.1zm.3.2c.1-.1.1-.1 0-.2s-.1-.1-.2 0z" fill="#2d2d2d"/><path d="m2.6 27.6c-.7-.7-1.3-1.6-1.3-1.6l.7-.7s.7-.2 1.2-.6l14.4-14.5c.9-.9 1.9-2.9 1.9-2.9l2.5-2.5.7-.4 3.3 3.2-.4.7-2.6 2.5s-2 1-2.9 1.9l-14.5 14.4c-.4.5-.6 1.2-.6 1.2l-.7.7s-1-.6-1.7-1.4z"/><path d="m22.3 5-2.4 2.4s-.6 2.5-1.5 3.5l-.5.5 1.1 1.1.4-.5c.9-.9 3.5-1.5 3.5-1.5l2.4-2.5z" fill="url(#h)"/><path d="m18.9 12.5.4.4.5-.5c.9-.9 3-2 3-2s-2.5.7-3.4 1.6z" fill="#616161"/><path d="m17.4 11 .4.4.5-.5c.9-.9 1.5-3.5 1.5-3.5s-1 2.1-2 3z" fill="#ebe9e9"/><path d="m17.8 11.4-14 14c-.5.5-1.2.8-1.2.8l1.4 1.4s.3-.6.8-1.2l14-14z" fill="#fc3"/><path d="m1.7 26.1s.6.9 1.1 1.3 1.4 1.2 1.4 1.2z" fill="#bfbfbf"/><path d="m25.3 8 .3-.4-2.9-2.9-.4.3" fill="#ebe9e9"/><g fill="#ba9c0a"><path d="m5 25 .1-.2.1.1-.2.1.4.3-.1.1zm.2-.2.2-.2.1.1-.1.1.1.1.1-.1.1.1-.3.1.1.1.2-.1-.2.2z"/><path d="m5.6 24.7-.3-.1.1-.1.2.1-.1-.2.1-.1v.4l.4.1-.1.1-.2-.1.1.2zm.1-.4.1-.2.1.1-.2.1.4.3-.1.1zm.2-.2c.1-.1.1-.2.2-.2s.1 0 .1.1l.1.1v.1l.2.2-.1.1zm.2.1c.1-.1 0-.1 0-.1s-.1-.1-.1 0zm.1-.4.5.2-.1.1v-.1l-.1.1.1.1-.1.1zm.1.1.1.1h.1zm.1-.3.1-.2.1.1-.2.1.4.3v.1zm.3-.2.1-.2.1.1-.2.1.4.3-.1.1z"/><path d="m6.8 23.2.2-.2-.1.1.1.2.1-.1.1.1-.1.1.1.1.1-.1.1.1-.2.2zm.2-.3c.2-.2.2-.2.3-.1l.1.1.2.1-.1.1-.2-.1.2.2-.1.1zm.3.1c.1-.1.1-.1 0-.1 0 0-.1-.1-.1 0zm0-.4.4.1-.2-.2.1-.1.4.4-.1.1-.3-.2.2.3-.1.1z"/></g><g fill="#ecd74c"><path d="m5 25.1.1-.2v.1l-.1.1.4.3-.1.1zm.2-.2.2-.2.1.1-.1.1v.1l.1-.1.1.1h-.2l.1.1.2-.1.1.1-.2.2zm.4-.2-.3-.1.1-.1.2.1-.1-.2.1-.1v.4l.4.1-.1.1-.2-.1.1.2z"/><path d="m5.7 24.4.1-.2.1.1-.2.1.4.3-.1.1zm.2-.3c.1-.1.1-.1.2-.1s.1 0 .1.1l.1.1v.1l.2.2-.1.1zm.2.2c.1-.1 0-.1 0-.1s-.1-.1-.1 0z"/><path d="m6.2 23.8.5.3-.1.1-.1-.1-.1.1.1.1-.1.1zm.1.1.1.2.1-.1zm.1-.2.1-.2.1.1-.2.1.4.3zm.3-.2.1-.2.1.1-.2.1.4.3h-.1zm.1-.3.2-.2v.1l-.2.1.2.1.1-.1.1.1-.1.1.1.1.1-.1.1.1-.2.2zm.2-.2c.2-.2.2-.2.3-.1l.1.1.2.1-.1.1-.2-.1.2.2-.1.1zm.3.1v-.1s-.1-.1-.1 0zm0-.4.4.1-.2-.2.1-.1.4.4-.1.1-.3-.2.2.2-.1.1z"/></g><g fill="#fcc332"><path d="m5 25.1.1-.2.1.1-.2.1.4.3-.1.1zm.2-.3.2-.2.1.1-.1.1.1.1.1-.1.1.1-.3.1.1.1.2-.1.1.1-.2.2z"/><path d="m5.6 24.7-.3-.1.1-.1.2.1-.1-.2.1-.1v.4l.4.1-.1.1-.2-.1.1.2zm.1-.4.1-.2.1.1-.2.1.4.3-.1.1zm.2-.2c.1-.1.1-.1.2-.1s.1 0 .1.1l.1.1v.1l.2.2-.1.1zm.2.1c.1-.1 0-.1 0-.1s-.1-.1-.1 0z"/><path d="m6.2 23.8.5.3-.1.1-.1-.1-.1.1.1.1-.1.1zm.1.1.1.2.1-.1zm.1-.3.1-.2.1.1-.2.1.4.3v.1zm.3-.2.1-.2.1.1-.2.1.4.3-.1.1z"/><path d="m6.8 23.2.2-.2v.1l-.2.1.2.1.1-.1.1.1-.1.1.1.1.1-.1.1.1-.2.2zm.2-.3c.2-.2.2-.2.3-.1l.1.1.2.1-.1.1-.2-.1.2.2-.1.1zm.3.2c.1-.1.1-.1 0-.1 0 0-.1-.1-.1 0z"/><path d="m7.3 22.7.4.1-.2-.2.1-.1.4.4-.1.1-.3-.2.2.2-.1.1z"/></g><path d="m4.697 28.146-.424.424-.565-.566.424-.424z" fill="#3d2812"/><path d="m2.155 25.602.565.566-.424.424-.566-.565z" fill="#e2d9ac"/><path d="m2.282 26.603.425-.424 1.414 1.413-.424.424z" fill="#fcc332"/><path d="m19.4 12.9-.4-.4-14 14c-.5.5-.8 1.2-.8 1.2l.5.5s.2-.7.7-1.2z" fill="#473015"/><path d="m17.4 10.9-14 14c-.5.5-1.2.7-1.2.7l.5.5s.6-.3 1.2-.8l14-14z" fill="#ede5b2"/><path d="m44.8 13.4c0-.2.1-.5.1-.8l.1-.9v-1.7h-11v1.8c0 .3 0 .6.1.9 0 .3.1.5.1.8v.1h.7l1-2.4h2.6v9.8c-.3 0-.6.1-.8.2-.3.1-.6.1-.8.2h-.1v.6h5.5v-.7h-.1c-.3-.1-.5-.2-.8-.2-.2 0-.5-.1-.8-.1v-9.8h2.6l1 2.4h.7zm6.6.1c-.3-.3-.6-.5-1-.6s-.8-.2-1.2-.2c-1.2 0-2.1.4-2.8 1.2s-1 2-1 3.5c0 .7.1 1.4.3 1.9.2.6.4 1.1.8 1.5.3.4.8.7 1.3 1 .5.2 1.1.3 1.7.3.3 0 .6 0 .9-.1s.6-.2.8-.3.5-.3.7-.5.3-.4.4-.6v-.1l-.4-.4-.1.1c-.2.2-.5.3-.8.4-.4.1-.8.2-1.1.2-.5 0-.8-.1-1.2-.3-.3-.2-.6-.4-.8-.7s-.4-.7-.5-1.1-.2-.8-.2-1.2h5.1v-.1c0-.2.1-.5.1-.7v-.6c0-.6-.1-1.2-.3-1.6s-.4-.7-.7-1zm-2.3.3c.5 0 .9.2 1.1.6s.4 1 .4 1.7v.5h-3.4c.1-1 .3-1.8.6-2.2s.7-.6 1.3-.6zm13.1 7.3c-.2-.1-.4-.1-.5-.2l-2.7-3.7 2.4-3.1c.4-.1.8-.3 1-.4h.1v-.7h-3.2v.6c.2.1.4.3.8.4l-1.6 2.3-1.7-2.3c.1 0 .2-.1.3-.1.1-.1.3-.2.4-.3h.1v-.6h-3.8v.7h.1c.1.1.3.2.4.2.1.1.3.1.4.2l2.6 3.4-2.6 3.4c-.3.1-.7.2-1 .4h-.1v.7h3.3v-.6h-.1c-.1-.1-.3-.2-.4-.2s-.2-.1-.3-.1l1.8-2.6 1.8 2.6c-.1 0-.2.1-.3.1-.1.1-.3.2-.5.3h-.1v.5h3.9v-.6h-.1c-.1-.2-.3-.3-.4-.3zm6.8-.4c-.2.1-.5.1-.8.2h-.8c-.4 0-.7-.1-.9-.4s-.3-.7-.3-1.4v-4.8h2.7v-1.1h-2.7v-2.2h-.6l-.6.3-.6.3v1.4c-.5.1-.9.3-1.4.6h-.1v.7h1.4v5.3c0 .9.2 1.6.6 2s1 .6 1.7.6c.3 0 .6 0 .8-.1.3-.1.5-.2.7-.3l.6-.3c.2-.1.3-.2.4-.3l.1-.1zm6.4-7.6c-.7 0-1.3.2-1.8.6-.3.3-.6.6-.8 1v-1.6h-.6c-.4.1-.8.1-1.2.2s-.8.2-1.2.4h-.1v.7l1.2.1v10.3c-.4.1-.7.2-1.1.4h-.1v.8h4.3v-.7h-.1l-.6-.3c-.2-.1-.3-.1-.5-.1v-2.5c.2.1.5.2.7.2.3.1.6.1 1.1.1.6 0 1.2-.1 1.8-.4.5-.2 1-.6 1.4-1s.7-1 .9-1.6.3-1.3.3-2.1c0-1.6-.3-2.8-.9-3.5-.8-.7-1.6-1-2.7-1zm1.5 4.6c0 .6-.1 1.1-.2 1.6s-.3.9-.5 1.3-.5.6-.8.8-.6.3-1 .3-.8 0-1-.1-.4-.1-.6-.2v-4.9c.1-.6.4-1.1.7-1.4s.8-.5 1.3-.5c.4 0 .7.1 1 .2.3.2.5.4.6.7.2.3.3.6.4 1 .1.2.1.7.1 1.2zm10 2.6v-4.6c0-.3 0-.7-.1-1s-.2-.7-.4-1-.5-.5-.9-.7-.9-.3-1.5-.3c-.7 0-1.3.1-1.9.2-.6.2-1.1.4-1.5.6h-.1v.1c0 .4.1.8.2 1.1.1.4.2.7.3 1.1v.1h.6l.9-2.1c.2-.1.4-.1.5-.1h.6c.3 0 .6.1.8.2s.4.3.5.6.2.6.2 1v1.2c-.8 0-1.5.1-2.1.2s-1.2.2-1.6.4-.8.5-1 .9-.4 1-.4 1.6c0 .7.2 1.3.7 1.8s1.1.7 1.9.7c.4 0 .8-.1 1.1-.2s.6-.3.8-.5.4-.4.6-.7c.1-.1.1-.2.2-.3v.6c0 .3.1.7.2.9v.1h.5c.3-.1.7-.1 1.1-.3.4-.1.7-.3 1-.4h.1v-.6l-1.2-.1c-.1-.2-.1-.4-.1-.5zm-2.3 0c-.1.2-.3.3-.5.4s-.5.2-.7.2c-.4 0-.7-.1-1-.4-.2-.2-.4-.6-.4-1.1 0-.3 0-.5.1-.7s.2-.4.5-.5c.2-.1.6-.3 1-.3.4-.1.9-.1 1.6-.1v1.7c0 .1-.1.2-.2.4-.1.1-.2.3-.4.4zm10.1.4c-.2.1-.5.1-.8.2h-.8c-.4 0-.7-.1-.9-.4s-.3-.7-.3-1.4v-4.8h2.7v-1.1h-2.7v-2.2h-.7l-.6.3-.6.3v1.4c-.5.1-.9.3-1.4.6h-.1v.7h1.4v5.3c0 .9.2 1.6.6 2s1 .6 1.7.6c.3 0 .6 0 .8-.1.3-.1.5-.2.7-.3l.6-.3c.2-.1.3-.2.4-.3l.1-.1-.2-.4zm6.6 0c-.2.1-.5.1-.8.2h-.8c-.4 0-.7-.1-.9-.4s-.3-.7-.3-1.4v-4.8h2.7v-1.1h-2.7v-2.2h-.6l-.6.3-.6.3v1.4c-.5.1-.9.3-1.4.6h-.1v.7h1.4v5.3c0 .9.2 1.6.6 2s1 .6 1.7.6c.3 0 .6 0 .8-.1.3-.1.5-.2.7-.3l.6-.3c.2-.1.3-.2.4-.3l.1-.1zm7.6-7.2c-.3-.3-.7-.5-1.1-.6s-.8-.2-1.3-.2c-1.3 0-2.3.4-3.1 1.2-.7.8-1.1 2-1.1 3.5 0 .7.1 1.4.3 1.9.2.6.5 1.1.8 1.5.4.4.8.7 1.4 1 .5.2 1.2.3 1.9.3.3 0 .7 0 1-.1l.9-.3c.3-.1.5-.3.7-.5s.4-.4.5-.6v-.1l-.4-.4-.1.1c-.2.2-.5.3-.9.4s-.8.2-1.2.2c-.5 0-.9-.1-1.3-.3s-.7-.4-.9-.7-.4-.7-.5-1.1-.2-.8-.2-1.2h5.5v-.1c0-.2.1-.5.1-.7v-.6c0-.6-.1-1.2-.3-1.6-.1-.4-.4-.7-.7-1zm-2.5.3c.6 0 1 .2 1.2.6.3.4.4 1 .4 1.7v.5h-3.7c.1-1 .3-1.8.6-2.2.4-.4.9-.6 1.5-.6zm10.9-.2c-.1-.2-.1-.4-.2-.5v-.1h-.1c-.3 0-.7 0-1 .1s-.6.2-.9.4-.5.4-.7.6c-.1.1-.2.3-.3.4v-1.5h-.6c-.4.1-.8.1-1.2.2s-.8.2-1.2.4h-.1v.6l1.2.1v6.5c-.2 0-.3.1-.5.1-.2.1-.4.1-.6.3h-.1v.8h4.5v-.6h-.1c-.2-.1-.5-.2-.7-.3s-.4-.1-.6-.1v-5c.1-.4.3-.7.5-.9l.4-.4h2.5v-.6c-.1-.2-.1-.3-.2-.5zm10.6 7.7c-.3-.2-.7-.3-1.1-.4v-4.2c0-.7-.1-1.3-.2-1.8s-.3-.9-.6-1.2-.6-.5-1-.6-.8-.2-1.3-.2c-.7 0-1.3.2-1.8.6-.4.3-.7.6-.9 1v-1.5h-.6c-.4.1-.9.2-1.3.3s-.8.2-1.1.3h-.1v.6l1.2.1v6.5c-.5.1-.8.3-1.1.4h-.1v.8h4.1v-.6h-.1c-.3-.2-.7-.3-1-.4v-4.9l.3-.6c.1-.2.3-.4.5-.6s.4-.3.6-.4.5-.1.8-.1c.6 0 1.1.2 1.3.7.3.5.4 1.1.4 2v4c-.4.1-.7.2-1 .4h-.1v.5h4.1z"/><path d="m137 16v8h5v-6h4v6h5v-8h2l-9-9-5 5v-2h-2v4l-2 2zm27-10h24v4h-24zm0 8h24v4h-24zm0 8h24v4h-24z" fill="#333"/><path d="m207 8h-15l7.5-8" fill="#fef5d2"/><path d="m208 8h-1l-7.5-8h1" fill="#e1a61a"/></svg>
