<svg viewBox="0 0 264 54" width="264" height="54" xmlns="http://www.w3.org/2000/svg"><linearGradient id="a" gradientTransform="matrix(1 0 0 -1 0 53.8898)" gradientUnits="userSpaceOnUse" x1="30.2308" x2="36.1658" y1="17.719" y2="23.654"><stop offset=".125" stop-color="#7b6c35"/><stop offset=".875" stop-color="#b9aa69"/></linearGradient><linearGradient id="b" gradientTransform="matrix(1 0 0 -1 0 53.8898)" gradientUnits="userSpaceOnUse" x1="30.2262" x2="36.0608" y1="17.726" y2="23.5616"><stop offset="0" stop-color="#2b2414"/><stop offset=".75" stop-color="#624e22"/></linearGradient><linearGradient id="c" gradientTransform="matrix(1 0 0 -1 0 53.8898)" gradientUnits="userSpaceOnUse" x1="34.8802" x2="30.7982" y1="22.3935" y2="18.3115"><stop offset=".5" stop-color="#2d2400"/><stop offset=".875" stop-color="#211700"/></linearGradient><linearGradient id="d" gradientTransform="matrix(1 0 0 -1 0 53.8898)" gradientUnits="userSpaceOnUse" x1="8.535" x2="15.765" y1="45.3558" y2="38.1258"><stop offset="0" stop-color="#fff"/><stop offset="1" stop-color="#666"/></linearGradient><linearGradient id="e" gradientTransform="matrix(1 0 0 -1 0 53.8898)" gradientUnits="userSpaceOnUse" x1="4.0645" x2="20.169" y1="33.6553" y2="49.7598"><stop offset="0" stop-color="#0a0a0a"/><stop offset=".5" stop-color="#0f0f0f"/><stop offset="1" stop-color="#1a1a1a"/></linearGradient><linearGradient id="f" gradientTransform="matrix(1 0 0 -1 0 53.8898)" gradientUnits="userSpaceOnUse" x1=".4892" x2="7.7192" y1="37.312" y2="30.082"><stop offset="0" stop-color="#999"/><stop offset="1" stop-color="#1a1a1a"/></linearGradient><linearGradient id="g" gradientTransform="matrix(1 0 0 -1 0 53.8898)" gradientUnits="userSpaceOnUse" x1="16.578" x2="23.808" y1="53.3988" y2="46.1688"><stop offset="0" stop-color="#ccc"/><stop offset="1" stop-color="#333"/></linearGradient><linearGradient id="h" gradientTransform="matrix(1 0 0 -1 0 53.8898)" gradientUnits="userSpaceOnUse" x1="37" x2="52.55" y1="41.9658" y2="41.9658"><stop offset=".125" stop-color="#cdcdcb"/><stop offset=".875" stop-color="#a09ea1"/></linearGradient><path d="m51.7 51.7c-1.9 1.9-3.8 2.8-4.6 2-.3-.3 0 0 0 0-.1-.1-5-5.5-10.6-11.1-5-5-11-10.2-14.6-13.8s-9.7-10.5-9.7-10.5l-.4-.5 2.9-3.2 3.2-2.9.5.4s6.8 6.1 10.5 9.7 8.8 9.6 13.8 14.6c5.6 5.6 10.9 10.4 11.2 10.7.5.7-.2 2.6-2.2 4.6z"/><path d="m28.3 22.4c-3.6-3.6-10.4-9.7-10.4-9.7l-2.7 2.5-2.5 2.7s6.1 6.8 9.7 10.4 9.5 8.7 14.6 13.8c5.6 5.6 10.5 11 10.6 11.1s1.1.5 3.7-2c2.5-2.5 2.1-3.6 2-3.6-.1-.1-5.6-5.1-11.1-10.6-5.2-5.1-10.3-11-13.9-14.6z" fill="url(#a)"/><path d="m50.7 51.7c-.2 0-.4-.2-.6-.4-.3-.3-5.4-5.5-11-11.1-2.1-2.1-6.2-5.8-6.7-6.3-1-.9-.9-1.8-.4-2.6.5-.9 1.9-2 2.7-2l-2.5-2.7c-2.4 1.4-5.2 3-5.6 2.6-2-2-6.9-6.9-9-9-.9-.9-.8-1.9-.3-2.9.6-1.1 2-2.2 2.9-2.4-1.4-1.3-2.4-2.1-2.4-2.1l-2.7 2.5-2.5 2.7s6.1 6.8 9.7 10.4c3.7 3.5 9.6 8.6 14.7 13.7 5.6 5.6 10.5 11 10.6 11.1s1 .5 3.1-1.5z" fill="url(#b)"/><path d="m40.9 37.9s-.7-.8-1.5-1.7c-.8-.8-1.8-1.7-1.8-1.7s1 1.2 1.6 1.7 1.7 1.7 1.7 1.7zm-12.8-13.2c-.8-.8-2.1-2.1-2.1-2.1s1.2 1.5 1.9 2.3c.8.6 1 .5.2-.2zm-1.8 3.1c-1.3-1.3-3.4-3.2-6.7-6.6-1.7-1.7-3.5-3.5-5.3-5.1l-.1.2c.9.9 4.8 4.6 6.9 6.7 2.4 2.4 6.5 6.2 7.6 7.1s3.2 2.7 4.8 4.3 3.3 3.1 3.3 3.1-2.7-2.8-3.9-4c-1.4-1.3-5.1-4.2-6.6-5.7zm-.8-5.7-4.2-4.2-4.4-4.4c.5.6 2.5 2.8 4.3 4.5 1.4 1.5 2.8 2.8 4.3 4.1zm-5.1-3 1.9 1.9c.7.7 2.1 2.2 2.4 2.5 1.4 1.4 2.4 2.3 4 3.9s5.7 5.9 6.5 6.7c1.4 1.4 3.3 3.3 4.2 4.3l4.2 4.2c1.1 1.1 2.6 2.5 3.5 3.5 1 1 3.6 3.2 3.6 3.2s-4.2-4.2-5.7-5.7-3.4-3.2-4.4-4.1c-1.3-1.3-3.5-3.6-4.6-4.7s-1.4-1.3-1.7-1.5c0-.3-2.3-2.7-2.9-3.3s-6-6.1-7-7.1-2-2-2.5-2.4c-.4-.4-1.1-1.3-1.6-1.7-.4-.4-1.2-1.1-1.7-1.6s-1.9-1.8-2.7-2.7l-.3.3c1.4 1.4 2.3 2 2.9 2.6.6.5 1.5 1.4 1.9 1.7zm3.3 5.7c1 1 5.3 4.9 5.3 4.9s-2.9-2.8-4.4-4.3-3.3-3.4-5.1-5.2c-1.5-1.5-3.9-3.9-4.6-4.7l-.2.2c1 .9 4.3 4.1 5.2 5 1.1 1.2 2.7 3 3.8 4.1zm21.7 20c-1.1-1.1-2.1-2-3-2.9s-3.6-3.8-3.6-3.8 2.8 3.1 3.8 4.2c1 1 1.7 1.5 3 2.7 1.2 1.2 3.1 3.1 3.8 3.9.6.6 1.9 1.6 2.4 2 0 0 .1-.1.1-.1-.6-.5-2.5-2.2-3.4-3-1.2-1.1-2.1-1.9-3.1-3zm3.6 1.1c-.7-.7-2.5-2.5-2.9-2.9s-1.8-1.5-1.8-1.5 1 1.1 1.2 1.3c.3.3 1.7 1.5 2.8 2.6l4.2 4.2c.1-.1.2-.3.2-.4-.6-.5-3.1-2.7-3.7-3.3zm-26.4-23.7c-1.2-1.2-2.6-2.8-3.1-3.2-1.1-1.1-3.4-3.1-4.2-3.9l-.1.1c.8.8 3.3 3.1 4.9 4.7.9 1 2.5 2.3 2.5 2.3zm-1-.5c1.3 1.3 10.5 10.3 11.7 11.5s2.5 2.7 3.2 3.4 2.6 2.7 2.6 2.7-2.6-2.9-4.1-4.4-5.2-5.3-6.9-7c-1.2-1.3-6.5-6.2-6.5-6.2z" fill="#6b5600"/><path d="m36.7 40.5c-1.7-1.7-5-4.9-6.5-6.3-.2-.2-3.2-3.1-3.8-3.7s-6-5.5-7-6.5-2.1-2.3-2.5-2.8c-.4-.4-1.2-1.4-1.7-1.8-.4-.4-1.1-1.2-1.7-1.7-.2-.2-.3-.3-.4-.3l-.1.1c0 .1.1.2.3.4.6.6 1.3 1.5 1.6 1.8s1.5 1.4 2.1 2.1c.7.7 1.9 2.1 2.3 2.5 1.4 1.4 2.5 2.1 4.1 3.8 1.6 1.6 5.6 5.6 6.4 6.4 1.4 1.4 3.4 3.1 4.3 4.1 1 1 3.1 3.3 4.3 4.4 1.1 1.1 2.6 2.6 3.5 3.6 1 1 3.6 3.5 3.6 3.5-4.1-4.1-3.9-4.3-5.3-5.7-1.2-1.6-2.6-3-3.5-3.9zm8.9 7.2c-1.4-1.4-2.4-2.5-3.9-3.9-1.5-1.5-3.1-3-4.4-4.3s-5-4.9-5-4.9 3.7 3.8 5.1 5.2l4.2 4.2c1.7 1.7 4.2 4.3 5.2 5.3.8.8 3.2 3 3.2 3l.4-.3s-2.7-2.2-4.8-4.3zm-27.8-26.2c1.2 1.3 8.8 8.3 9.9 9.5s6 5.7 6 5.7-3.3-3.3-4.9-5-7.6-7-9.5-9-5.2-5.3-5.2-5.3l-.3.2c0 .1 2.8 2.6 4 3.9zm30.2 30.6c-.9-1-1.8-1.7-1.8-1.7s1.1 1.4 1.6 1.9l.9.9c.1 0 .2-.1.3-.1-.2-.2-.5-.5-1-1zm-19.8-23.2c-.1 0-.1 0 0 0 .5.5.8.8.8.8zm3.4 3.8c0-.1 0-.2 0-.3-1.1-1-2.7-2.3-3.9-3.3 0 0-.1 0-.2 0 .5.4.9.8 1.1 1 .7.5 1.9 1.5 3 2.6zm.2-1.2c-1-1-1.9-2-2.9-3l-.2.1 3.1 3s0 0 0-.1zm-12.9-16c-1-.9-1.7-1.7-2-2 .3.3 1 1.1 1.9 2.1 0 0 .1-.1.1-.1zm13.4 15.4c-.4-.4-.7-.7-.9-.9s-.9-.9-1.8-1.8c0 0-.1 0-.1.1.8.8 1.7 1.8 2.7 2.7 0 0 0-.1.1-.1zm-15.2-13-2.3-2.3-.2.3c.5.5 1.4 1.4 2.4 2.3.1-.2.1-.3.1-.3zm.8-1.4c-.6-.6-1.4-1.4-2-2l-.3.3c.9.9 1.6 1.5 2.2 1.9 0-.1.1-.2.1-.2zm-.9 2.1c-.9-.8-1.7-1.6-2.6-2.5-.1.1-.1.1-.1.2.5.5 1.5 1.5 2.7 2.6 0 0 0-.2 0-.3zm.4-1.3c0-.1.1-.1.1-.2-.9-.8-1.8-1.6-2.2-2l-.1.1-.1.1c.5.3 1.3 1.1 2.3 2z" fill="url(#c)"/><path d="m17.4 0s1.4 1 3.7 3.3 3.3 3.7 3.3 3.7v1.3l-16.2 16h-1.3s-1.9-1.5-3.7-3.3c-2.2-2.2-3.2-3.6-3.2-3.6v-1.3l16.1-16.1z"/><path d="m17.2.7h-.8l-15.7 15.7v.8s.8 1.2 3.1 3.4c2.2 2.2 3.4 3.1 3.4 3.1h.8l15.6-15.8v-.8s-.8-1.2-3.1-3.4c-2.2-2.2-3.3-3-3.3-3z" fill="url(#d)"/><path d="m17.2.7h-.8l-15.7 15.7v.8s.8 1.2 3.1 3.4c2.2 2.2 3.4 3.1 3.4 3.1h.8l15.6-15.8v-.8s-.8-1.2-3.1-3.4c-2.2-2.2-3.3-3-3.3-3z" fill="url(#d)"/><path d="m23 7.7s-4.4 4.7-7.5 7.8-7.8 7.5-7.8 7.5-1.7-.9-3.6-2.8-2.8-3.6-2.8-3.6 4.4-4.7 7.5-7.8 7.8-7.5 7.8-7.5 1.7 1 3.6 2.9c1.9 1.8 2.8 3.5 2.8 3.5z" fill="url(#e)"/><path d="m7.7 23s-1.7-.9-3.6-2.8-2.8-3.6-2.8-3.6l-.6-.2v.8s.8 1.2 3.1 3.4c2.2 2.2 3.4 3.1 3.4 3.1h.8z" fill="url(#f)"/><path d="m23.6 7.9v-.8s-.8-1.2-3.1-3.4c-2.2-2.2-3.4-3.1-3.4-3.1h-.8l.2.6s1.7 1 3.6 2.9c2 1.9 2.9 3.6 2.9 3.6z" fill="url(#g)"/><path d="m5.4 51.2c-1.5-1.5-2.7-3.3-2.7-3.3l1.5-1.5s1.5-.4 2.4-1.3l30-30c1.9-1.9 3.9-6.1 3.9-6.1l5.3-5.3 1.4-.9 6.8 6.7-.9 1.4-5.3 5.3s-4.2 2-6.1 3.9l-30 30c-.9.9-1.3 2.4-1.3 2.4l-1.5 1.5s-2-1.3-3.5-2.8z"/><path d="m46.2 4.1-5.1 5.1s-1.2 5.2-3.1 7.2l-1 1 2.3 2.3 1-1c1.9-1.9 7.2-3.1 7.2-3.1l5.1-5.1z" fill="url(#h)"/><path d="m39.3 19.7.9.9 1-1c1.9-1.9 6.3-4.1 6.3-4.1s-5.3 1.2-7.2 3.1z" fill="#616161"/><path d="m36.1 16.5.9.9 1-1c1.9-1.9 3.1-7.2 3.1-7.2s-2.1 4.3-4.1 6.3z" fill="#ebe9e9"/><path d="m37.1 17.4-29.1 29c-1.1 1.1-2.4 1.7-2.4 1.7l3 3s.6-1.3 1.7-2.4l29.1-29.1c-.1 0-2.3-2.2-2.3-2.2z" fill="#fc3"/><path d="m3.6 47.9s1.2 1.8 2.3 2.8 2.9 2.4 2.9 2.4z" fill="#bfbfbf"/><path d="m52.5 10.5.6-.9-6-6-.9.6" fill="#ebe9e9"/><path d="m9.7 52.2-.9.9-1.1-1.1.9-.9z" fill="#3d2812"/><path d="m4.5 47 1.1 1.1-.9.9-1.1-1.1z" fill="#e2d9ac"/><path d="m4.7 49 .9-.9 3 3-.9.9z" fill="#fcc332"/><path d="m40.2 20.6-.9-.9-29 29c-1.1 1.1-1.7 2.4-1.7 2.4l1.1 1.1s.4-1.5 1.5-2.6z" fill="#473015"/><path d="m36.1 16.5-29 29c-1.1 1.1-2.6 1.5-2.6 1.5l1.1 1.1s1.3-.6 2.4-1.7l29.1-29.1z" fill="#ede5b2"/><path d="m92.3 19.1c.1-.5.1-1 .2-1.6l.1-1.8c0-.6.1-1.2.1-1.8s0-1.1 0-1.6v-.3h-22.7v.5 1.4c0 .6.1 1.2.1 1.8s.1 1.2.1 1.8c.1.6.1 1.1.2 1.6v.2h1.4l2-5h5.4v20.3c-1.1.2-2.3.4-3.4.8l-.2.1v1.5h11.4v-1.4l-.2-.1c-.6-.2-1.1-.4-1.7-.5-.5-.1-1.1-.2-1.6-.3v-20.3h5.4l2 5h1.4zm13.7.4c-.6-.5-1.3-.9-2.1-1.2-.8-.2-1.6-.3-2.4-.4-2.5 0-4.4.8-5.8 2.5s-2.1 4.1-2.1 7.2c0 1.5.2 2.8.5 4 .4 1.2.9 2.2 1.6 3.1s1.6 1.5 2.6 2 2.2.7 3.6.7c.6 0 1.2-.1 1.8-.2.6-.2 1.1-.4 1.7-.7.5-.3 1-.6 1.4-1s.7-.8.9-1.2l.1-.2-.7-.9-.2.2c-.4.4-1 .7-1.7.9-.8.2-1.6.3-2.3.3-.9 0-1.7-.2-2.4-.5s-1.3-.8-1.7-1.5c-.4-.6-.8-1.4-1-2.2s-.3-1.7-.3-2.5h10.5v-.2c.1-.5.2-1 .2-1.4s.1-.8.1-1.3c0-1.3-.2-2.5-.6-3.4-.6-.8-1.1-1.5-1.7-2.1zm-4.7.6c1.1 0 1.8.4 2.3 1.3s.8 2.1.8 3.5v.6.4h-7c.1-2.1.5-3.6 1.1-4.5.7-.9 1.6-1.3 2.8-1.3zm26.9 15c-.3-.1-.6-.2-.9-.4l-5.7-7.9 4.9-6.5c.9-.3 1.6-.6 2.1-.9l.1-.1v-1.3h-6.7v1.4l.1.1c.4.3.9.6 1.6.8l-3.3 4.9-3.4-4.9c.2-.1.4-.2.6-.3.3-.2.6-.4.9-.5l.1-.1v-1.4h-7.9v1.4l.1.1c.3.2.6.4.9.5s.6.3.9.4l5.4 7.2-5.3 7.1c-.7.2-1.4.5-2 .9l-.1.1v1.3h6.8v-1.4l-.1-.1c-.3-.2-.6-.3-.9-.5-.2-.1-.4-.2-.7-.3l3.7-5.5 3.7 5.5c-.2.1-.4.2-.6.3-.3.2-.6.3-1 .5l-.1.1v1.4h8.1v-1.3l-.1-.1c-.5-.2-.9-.4-1.2-.5zm14.1-.8c-.4.2-1 .3-1.6.3-.7.1-1.2.1-1.6.1-.9 0-1.5-.3-1.9-.8s-.6-1.5-.6-2.9v-10h5.5v-2.4h-5.5v-4.6h-1.2-.1c-.4.2-.8.4-1.3.6-.4.2-.8.4-1.2.7l-.1.1v3c-1 .3-1.9.7-2.8 1.2l-.1.1v1.4h2.9v11c0 1.9.4 3.2 1.2 4.1s2 1.3 3.6 1.3c.6 0 1.2-.1 1.7-.2s1-.3 1.5-.6c.5-.2.9-.5 1.2-.7.4-.2.7-.5.9-.7l.1-.1-.4-.9zm13.2-16.3c-1.5 0-2.7.4-3.6 1.2-.7.6-1.2 1.3-1.7 2.1v-3.3h-1.2c-.8.1-1.6.3-2.4.5s-1.7.5-2.5.8l-.2.1v1.4l2.4.3v21.6c-.7.2-1.5.5-2.3.9l-.1.1v1.3h8.7v-1.4l-.1-.1c-.4-.3-.8-.5-1.3-.6-.3-.1-.7-.2-1-.3v-5.3c.5.2 1 .3 1.4.4.5.1 1.3.2 2.2.2 1.3 0 2.6-.2 3.6-.7 1.1-.5 2-1.2 2.8-2.1s1.4-2 1.8-3.3.6-2.7.6-4.3c0-3.3-.6-5.8-1.9-7.3-1.2-1.4-3-2.2-5.2-2.2zm3.1 9.6c0 1.2-.1 2.3-.4 3.3-.2 1-.6 1.9-1 2.6s-1 1.3-1.6 1.7-1.3.6-2.1.6c-.9 0-1.6-.1-2.1-.2s-.9-.3-1.3-.5v-10.2c.3-1.3.8-2.3 1.4-3 .7-.7 1.6-1.1 2.7-1.1.8 0 1.5.2 2 .5s1 .8 1.3 1.4.6 1.3.7 2.1c.3.9.4 1.8.4 2.8zm20.7 5.8c0-.5 0-.9 0-1.4 0-1.2 0-2.5.1-3.8s.1-2.8.1-4.2c0-.7-.1-1.4-.2-2.1s-.4-1.4-.8-2-1-1.1-1.8-1.4c-.8-.4-1.8-.5-3.1-.5-1.4 0-2.7.2-3.9.5-1.1.3-2.2.7-3.2 1.3l-.1.1v.2c.1.8.2 1.5.4 2.3s.4 1.5.7 2.3l.1.2h1.3l1.8-4.4c.4-.1.7-.2 1.1-.3h1.1c.7 0 1.2.1 1.6.4s.7.7.9 1.3.4 1.2.4 2 0 1.6-.1 2.5c-1.6.1-3.1.2-4.3.4-1.3.2-2.4.5-3.3.9s-1.6 1-2.1 1.8-.7 1.7-.7 2.9c0 1.5.5 2.8 1.5 3.7s2.3 1.4 3.8 1.4c.8 0 1.5-.1 2.2-.4.6-.2 1.2-.6 1.7-1s.9-.9 1.2-1.4c.1-.2.2-.4.3-.7 0 .4 0 .9.1 1.3 0 .7.2 1.3.5 1.9l.1.2h1.1c.7-.1 1.4-.3 2.2-.6.7-.2 1.4-.5 2.1-.8l.1-.1v-1.2l-2.6-.4c-.3-.2-.3-.6-.3-.9zm-4.8.2c-.3.3-.7.6-1.1.8s-.9.3-1.5.3c-.9 0-1.5-.2-2-.8-.5-.5-.7-1.3-.7-2.2 0-.6.1-1.1.3-1.5s.5-.8 1-1.1 1.2-.5 2.1-.7c.8-.1 1.9-.2 3.2-.2v3.5c-.1.2-.2.5-.4.8-.4.4-.6.8-.9 1.1zm20.9.7c-.4.2-1 .3-1.6.3-.7.1-1.2.1-1.6.1-.9 0-1.5-.3-1.9-.8s-.6-1.5-.6-2.9v-10h5.5v-2.4h-5.5v-4.6h-1.2-.1c-.4.2-.8.4-1.3.6-.4.2-.8.4-1.2.7l-.1.1v3c-1 .3-2 .7-2.8 1.2l-.1.1v1.4h2.9v11c0 1.9.4 3.2 1.2 4.1s2 1.3 3.6 1.3c.6 0 1.2-.1 1.7-.2s1-.3 1.5-.6c.5-.2.9-.5 1.2-.7.4-.2.7-.5.9-.7l.1-.1-.4-.9zm13.6 0c-.4.2-1 .3-1.6.3-.7.1-1.2.1-1.6.1-.9 0-1.5-.3-1.9-.8s-.6-1.5-.6-2.9v-10h5.5v-2.4h-5.5v-4.6h-1.3-.1c-.4.2-.8.4-1.3.6-.4.2-.8.5-1.2.7l-.1.1v3c-1 .3-1.9.7-2.8 1.2l-.1.1v1.4h2.9v11c0 1.9.4 3.2 1.2 4.1s2 1.3 3.6 1.3c.6 0 1.2-.1 1.7-.2s1-.3 1.5-.6c.5-.2.9-.5 1.2-.7.4-.2.7-.5.9-.7l.1-.1-.4-.9zm15.6-14.8c-.7-.6-1.5-1-2.3-1.2s-1.7-.3-2.6-.4c-2.7 0-4.8.8-6.3 2.5s-2.2 4.1-2.2 7.2c0 1.5.2 2.8.6 4s1 2.2 1.7 3.1c.8.9 1.7 1.5 2.9 2 1.1.5 2.4.7 3.9.7.7 0 1.4-.1 2-.2.6-.2 1.2-.4 1.8-.7.5-.3 1-.6 1.5-1 .4-.4.8-.8 1-1.2l.1-.2-.8-.9-.2.2c-.4.4-1.1.7-1.9.9s-1.7.3-2.6.3c-1 0-1.9-.2-2.7-.5-.8-.4-1.4-.8-1.9-1.5s-.9-1.4-1.1-2.2-.4-1.7-.4-2.5h11.4v-.2c.2-.9.3-1.8.3-2.7 0-1.3-.2-2.5-.6-3.4-.4-.8-1-1.5-1.6-2.1zm-5.1.6c1.2 0 2 .4 2.6 1.3s.8 2.1.8 3.5v.6.4h-7.6c.2-2.1.6-3.6 1.2-4.5.7-.9 1.7-1.3 3-1.3zm22.4-.9c-.1-.4-.3-.7-.5-1.1l-.1-.1h-.1c-.7-.1-1.4 0-2 .2s-1.3.5-1.8.9-1 .8-1.4 1.3c-.2.3-.5.6-.6.9v-3.3h-1.2c-.8.1-1.6.3-2.4.5s-1.7.5-2.5.8l-.2.1v1.4l2.4.3v13.7c-.3.1-.7.2-1 .3-.5.1-.9.3-1.3.6l-.1.1v1.2h9.2v-1.3l-.1-.1c-.5-.3-1-.5-1.5-.6-.4-.1-.9-.2-1.3-.3v-10.4c.3-.8.6-1.4 1-1.8s.7-.7.9-.8h5.1v-1.2-.1c-.2-.4-.4-.8-.5-1.2zm22 16.4c-.6-.4-1.4-.7-2.3-.9v-8.9c0-1.5-.1-2.8-.4-3.8s-.7-1.8-1.2-2.4-1.3-1.1-2-1.3c-.8-.2-1.7-.4-2.7-.4-1.4 0-2.7.4-3.7 1.2-.7.6-1.4 1.3-1.9 2.1v-3.2h-1.2c-.9.2-1.8.4-2.6.6s-1.6.5-2.2.7l-.2.1v1.4l2.4.3v13.7c-.9.3-1.7.5-2.3.8l-.1.1v1.3h8.5v-1.3l-.1-.1c-.6-.4-1.3-.7-2.1-.9v-10.2c.2-.5.4-.9.7-1.4.3-.4.6-.9 1-1.2.8-.7 1.9-1.2 2.9-1.1 1.3 0 2.2.5 2.7 1.5s.8 2.4.8 4.2v8.4c-.7.2-1.4.5-2 .8l-.1.1v1.2h8.4v-1.3z"/></svg>