<svg xmlns="http://www.w3.org/2000/svg" width="264" height="54"><linearGradient id="a" gradientUnits="userSpaceOnUse" x1="30.232" y1="36.172" x2="36.166" y2="30.238"><stop offset=".125" stop-color="#7b6c35"/><stop offset=".875" stop-color="#b9aa69"/></linearGradient><linearGradient id="b" gradientUnits="userSpaceOnUse" x1="30.226" y1="36.166" x2="36.061" y2="30.33"><stop offset="0" stop-color="#2b2414"/><stop offset=".75" stop-color="#624e22"/></linearGradient><linearGradient id="c" gradientUnits="userSpaceOnUse" x1="34.88" y1="31.496" x2="30.798" y2="35.578"><stop offset=".5" stop-color="#2d2400"/><stop offset=".875" stop-color="#211700"/></linearGradient><linearGradient id="d" gradientUnits="userSpaceOnUse" x1="8.535" y1="8.535" x2="15.765" y2="15.765"><stop offset="0" stop-color="#fff"/><stop offset="1" stop-color="#666"/></linearGradient><linearGradient id="e" gradientUnits="userSpaceOnUse" x1="4.065" y1="20.234" x2="20.169" y2="4.13"><stop offset="0" stop-color="#0a0a0a"/><stop offset=".5" stop-color="#0f0f0f"/><stop offset="1" stop-color="#1a1a1a"/></linearGradient><linearGradient id="f" gradientUnits="userSpaceOnUse" x1=".491" y1="16.579" x2="7.721" y2="23.809"><stop offset="0" stop-color="#999"/><stop offset="1" stop-color="#1a1a1a"/></linearGradient><linearGradient id="g" gradientUnits="userSpaceOnUse" x1="16.578" y1=".491" x2="23.808" y2="7.721"><stop offset="0" stop-color="#ccc"/><stop offset="1" stop-color="#333"/></linearGradient><linearGradient id="h" gradientUnits="userSpaceOnUse" x1="37.001" y1="11.924" x2="52.55" y2="11.924"><stop offset=".125" stop-color="#cdcdcb"/><stop offset=".875" stop-color="#a09ea1"/></linearGradient><path d="M51.716 51.723c-1.878 1.88-3.834 2.764-4.603 1.995-.286-.286 0 0 0 0-.137-.136-5.042-5.55-10.617-11.125-5.05-5.05-10.968-10.17-14.618-13.818-3.644-3.644-9.705-10.45-9.71-10.456l-.407-.46 2.94-3.193 3.155-2.9.455.41c.007.003 6.813 6.065 10.457 9.708 3.65 3.65 8.77 9.57 13.82 14.618C48.16 42.077 53.51 46.918 53.754 47.16c.658.658-.057 2.583-2.038 4.563z"/><path fill="url(#a)" d="M28.29 22.363c-3.616-3.618-10.427-9.685-10.427-9.685l-2.707 2.485-2.484 2.706s6.068 6.81 9.685 10.428c3.617 3.616 9.544 8.747 14.618 13.82C42.55 47.69 47.5 53.153 47.59 53.24c.086.084 1.13.525 3.65-1.996 2.52-2.52 2.078-3.568 2.018-3.627-.057-.06-5.57-5.063-11.148-10.64-5.072-5.072-10.202-10.998-13.82-14.617z"/><path fill="url(#b)" d="M50.72 51.742c-.17-.02-.358-.166-.586-.392-.256-.257-5.442-5.526-11.02-11.104-2.07-2.07-6.165-5.847-6.74-6.35-1-.88-.908-1.777-.378-2.647.538-.885 1.85-1.973 2.73-2.047l-2.48-2.688c-2.434 1.353-5.232 2.98-5.643 2.57-1.95-1.95-6.876-6.874-8.963-8.957-.917-.917-.792-1.898-.275-2.863.566-1.062 2.012-2.22 2.87-2.45-1.402-1.272-2.373-2.137-2.373-2.137l-2.707 2.485-2.484 2.706s6.07 6.81 9.686 10.428c3.617 3.616 9.544 8.747 14.618 13.82C42.55 47.69 47.5 53.153 47.59 53.24c.08.078.987.458 3.13-1.5z"/><path fill="#6b5600" d="M40.857 37.894s-.7-.844-1.54-1.682c-.837-.84-1.76-1.702-1.76-1.702s1.02 1.16 1.566 1.706 1.734 1.678 1.734 1.678zM28.125 24.652c-.798-.8-2.097-2.098-2.097-2.098s1.202 1.537 1.93 2.264c.727.727.963.628.167-.166zM26.32 27.8c-1.282-1.285-3.352-3.244-6.7-6.59a192.543 192.543 0 0 0-5.31-5.125l-.15.164c.9.858 4.76 4.564 6.88 6.684 2.408 2.407 6.498 6.235 7.586 7.12 1.09.887 3.186 2.713 4.784 4.312 1.596 1.596 3.277 3.08 3.277 3.08s-2.732-2.814-3.936-4.02c-1.205-1.203-4.947-4.145-6.43-5.627zm-.8-5.662l-4.207-4.21-4.39-4.388-.008.008c.515.578 2.488 2.778 4.258 4.55a94.589 94.589 0 0 0 4.348 4.04zm-5.15-3.034c.334.334 1.25 1.23 1.922 1.9.67.67 2.076 2.2 2.426 2.548 1.395 1.396 2.354 2.264 4.004 3.912 1.65 1.65 5.705 5.866 6.515 6.677 1.373 1.374 3.258 3.347 4.222 4.313.964.964 3.145 3.054 4.25 4.16 1.104 1.104 2.57 2.52 3.55 3.5.978.98 3.628 3.228 3.628 3.228s-4.216-4.155-5.726-5.664c-1.51-1.51-3.424-3.208-4.363-4.144-1.306-1.306-3.453-3.61-4.558-4.715-1.103-1.104-1.44-1.298-1.676-1.535-.237-.24-2.544-2.657-3.16-3.273-.615-.616-5.998-6.083-6.99-7.076-.994-.992-2.043-2.01-2.46-2.432-.42-.42-1.147-1.287-1.595-1.735-.447-.445-1.2-1.117-1.732-1.648-.504-.504-1.866-1.816-2.71-2.656l-.29.265c1.438 1.41 2.34 2.007 2.888 2.557.574.573 1.517 1.48 1.853 1.817zm3.28 5.663c1.027 1.027 5.314 4.89 5.314 4.89s-2.932-2.792-4.416-4.275c-1.482-1.483-3.306-3.387-5.08-5.162-1.48-1.48-3.892-3.92-4.65-4.687l-.223.24c.998.948 4.274 4.062 5.227 5.016 1.13 1.125 2.802 2.95 3.83 3.977zm21.736 20.06c-1.062-1.06-2.11-1.993-3.046-2.93-.938-.935-3.636-3.752-3.636-3.752s2.755 3.147 3.775 4.168c1.02 1.02 1.747 1.52 2.963 2.738 1.217 1.218 3.055 3.133 3.78 3.86.588.587 1.88 1.612 2.357 1.984.043-.046.09-.093.13-.138-.605-.53-2.517-2.207-3.358-3.048-1.01-1.008-1.903-1.82-2.966-2.88zm3.663 1.064c-.66-.656-2.517-2.522-2.91-2.914-.39-.39-1.796-1.49-1.796-1.49s.972 1.062 1.238 1.328c.265.267 1.747 1.495 2.85 2.6.95.95 3.483 3.523 4.18 4.23.09-.13.17-.255.24-.373-.715-.62-3.24-2.817-3.803-3.38zM22.57 22.196c-1.157-1.187-2.56-2.75-3.06-3.248-1.146-1.148-3.406-3.11-4.218-3.91l-.136.125-.02.02c.828.802 3.307 3.14 4.86 4.692 1.007 1.006 2.575 2.32 2.575 2.32zm-.942-.454c1.258 1.26 10.52 10.325 11.708 11.514 1.188 1.188 2.544 2.654 3.243 3.354s2.627 2.686 2.627 2.686-2.6-2.94-4.11-4.448c-1.51-1.51-5.206-5.33-6.91-7.034-1.252-1.254-6.56-6.07-6.56-6.07zm1.57 1.484"/><path fill="url(#c)" d="M36.66 40.508c-1.715-1.716-5.04-4.86-6.483-6.304-.238-.237-3.155-3.09-3.77-3.707-.615-.613-5.992-5.493-6.985-6.487-.993-.992-2.11-2.342-2.53-2.764-.42-.418-1.213-1.353-1.66-1.8-.448-.448-1.135-1.185-1.667-1.717-.184-.183-.318-.284-.396-.32l-.064.058c.037.084.144.228.347.43.574.572 1.314 1.48 1.65 1.815.336.337 1.454 1.435 2.125 2.105.67.672 1.942 2.13 2.29 2.48 1.397 1.394 2.492 2.128 4.14 3.777 1.65 1.65 5.578 5.584 6.388 6.395 1.373 1.373 3.387 3.09 4.35 4.055.966.966 3.147 3.258 4.252 4.36 1.104 1.106 2.564 2.62 3.544 3.598.98.98 3.635 3.466 3.635 3.466-4.056-4.134-3.93-4.254-5.34-5.665-1.508-1.51-2.89-2.84-3.827-3.777zm8.985 7.212c-1.38-1.38-2.415-2.484-3.875-3.935-1.46-1.453-3.105-3-4.394-4.28-1.288-1.28-5-4.853-5-4.853s3.665 3.84 5.067 5.234c1.404 1.396 2.528 2.54 4.2 4.203 1.676 1.662 4.204 4.278 5.203 5.272.844.838 3.195 2.96 3.195 2.96l.372-.305c0 .002-2.7-2.23-4.767-4.297zM17.83 21.51c1.2 1.287 8.793 8.29 9.886 9.46 1.094 1.17 5.99 5.735 5.99 5.735s-3.306-3.293-4.884-4.986c-1.58-1.69-7.594-6.952-9.483-8.973-1.89-2.022-5.21-5.316-5.21-5.316l-.295.234s2.795 2.562 3.995 3.846zm30.202 30.572c-.917-.972-1.835-1.726-1.835-1.726s1.08 1.4 1.593 1.862c.34.304.723.687.946.915.09-.04.186-.083.287-.136-.2-.146-.52-.417-.99-.915zm-19.88-23.2c-.012.002-.022.006-.032.01.503.458.845.765.845.765l-.814-.775zm3.48 3.79a1.522 1.522 0 0 1-.014-.277c-1.137-.985-2.698-2.268-3.935-3.347-.05.017-.103.033-.152.047.475.428.86.766 1.097.958.71.582 1.853 1.563 3.006 2.618zm.21-1.14a686.41 686.41 0 0 0-2.923-2.982l-.25.113 3.1 3.042c.022-.057.045-.116.073-.172zM18.928 15.547c-.95-.95-1.708-1.71-2.003-2.006l-.01.008c.284.318 1.012 1.13 1.9 2.085l.113-.087zm13.33 15.336c-.362-.375-.677-.698-.85-.874-.2-.197-.895-.9-1.776-1.796-.037.02-.076.037-.113.055.767.78 1.73 1.773 2.657 2.726.03-.036.053-.074.082-.11zM17.11 17.852l-2.265-2.293-.203.257c.484.46 1.426 1.355 2.396 2.282.02-.085.045-.168.073-.25zm.838-1.4c-.624-.612-1.448-1.41-2.03-1.988l-.283.26-.006.005c.926.91 1.628 1.48 2.158 1.918.054-.065.102-.132.16-.197zm-.977 2.153a188.444 188.444 0 0 0-2.586-2.452c-.05.07-.095.128-.134.18.482.46 1.542 1.48 2.75 2.65a2.19 2.19 0 0 1-.03-.378zm.396-1.34c.035-.067.084-.136.128-.205-.888-.806-1.76-1.586-2.2-2.023l-.094.086-.056.067c.424.412 1.27 1.215 2.205 2.11l.016-.035z"/><path d="M17.37 0s1.417 1.002 3.672 3.257c2.255 2.256 3.258 3.67 3.258 3.67v1.257L8.185 24.3H6.928s-1.882-1.47-3.67-3.26C1 18.787 0 17.373 0 17.373v-1.26L16.113 0h1.258z"/><path fill="url(#d)" d="M17.157.676h-.764L.675 16.394v.763s.83 1.178 3.06 3.407c2.23 2.23 3.408 3.06 3.408 3.06h.762l15.72-15.72v-.762s-.83-1.176-3.06-3.408c-2.23-2.23-3.408-3.058-3.408-3.058z"/><path fill="url(#d)" d="M17.157.676h-.764L.675 16.394v.763s.83 1.178 3.06 3.407c2.23 2.23 3.408 3.06 3.408 3.06h.762l15.72-15.72v-.762s-.83-1.176-3.06-3.408c-2.23-2.23-3.408-3.058-3.408-3.058z"/><path fill="url(#e)" d="M23.046 7.702s-4.415 4.7-7.53 7.814C12.4 18.63 7.7 23.046 7.7 23.046s-1.723-.9-3.634-2.81C2.153 18.32 1.253 16.6 1.253 16.6s4.415-4.7 7.53-7.817c3.115-3.113 7.816-7.53 7.816-7.53s1.656.965 3.57 2.877c1.912 1.914 2.876 3.572 2.876 3.572z"/><path fill="url(#f)" d="M7.7 23.047s-1.723-.9-3.634-2.812C2.153 18.322 1.253 16.6 1.253 16.6l-.58-.206v.763s.83 1.178 3.06 3.407c2.23 2.23 3.41 3.06 3.41 3.06h.76l-.202-.577z"/><path fill="url(#g)" d="M23.625 7.904v-.762s-.83-1.176-3.06-3.408c-2.23-2.23-3.408-3.058-3.408-3.058h-.764l.206.578s1.656.964 3.57 2.876c1.912 1.915 2.876 3.572 2.876 3.572l.58.202z"/><path d="M11.295 12.72l-.183.184-.15-.15.524-.52.148.147-.182.184.952.95-.157.157-.952-.95zm.961-.21l-.73-.32.168-.165.445.207-.207-.448.167-.167.313.734.804.35-.167.168-.508-.233.236.505-.17.168-.352-.798zm-.068-.98l.238-.236c.086-.085.17-.13.28-.126.112.002.2.055.33.187.097.096.154.168.176.266.028.115.002.228-.114.344l-.08.08.43.43-.158.157-1.102-1.1zm.68.364l.076-.075c.128-.13.054-.206-.056-.315-.103-.104-.188-.19-.312-.067l-.082.083.374.374z" fill="#494949"/><path d="M11.295 12.585l-.183.183-.15-.148.524-.523.148.148-.182.183.952.95-.157.16-.952-.953zm.961-.21l-.73-.32.168-.165.445.207-.207-.448.167-.166.313.734.804.35-.167.166-.508-.234.236.507-.17.166-.352-.798zm-.068-.98l.238-.235c.086-.088.17-.132.28-.128.112.002.2.055.33.187.097.094.154.167.176.265.028.116.002.228-.114.343l-.08.08.43.43-.158.16-1.102-1.103zm.68.365l.076-.077c.128-.128.054-.205-.056-.314-.103-.105-.188-.19-.312-.066l-.082.08.374.376z" fill="#191919"/><path d="M11.295 12.652l-.183.183-.15-.148.524-.52.148.145-.182.185.952.95-.157.157-.952-.952zm.961-.209l-.73-.32.168-.165.445.207-.207-.448.167-.167.313.734.804.35-.167.167-.508-.234.236.507-.17.168-.352-.797zm-.068-.98l.238-.237c.086-.088.17-.13.28-.128.112.004.2.057.33.19.097.094.154.167.176.264.028.114.002.228-.114.343l-.08.08.43.43-.158.158-1.102-1.1zm.68.364l.076-.075c.128-.128.054-.205-.056-.314-.103-.106-.188-.19-.312-.067l-.082.084.374.373z" fill="#2d2d2d"/><path d="M5.366 51.177c-1.49-1.49-2.66-3.347-2.66-3.347l1.454-1.452s1.524-.418 2.448-1.34L36.62 15.023c1.91-1.91 3.906-6.117 3.906-6.117l5.277-5.28 1.374-.93L54 9.522l-.932 1.376-5.274 5.275s-4.208 2-6.118 3.91L11.664 50.092c-.925.923-1.344 2.448-1.344 2.448L8.86 54s-2.002-1.33-3.494-2.823z"/><path fill="url(#h)" d="M46.24 4.15l-5.087 5.086s-1.2 5.25-3.132 7.187L37 17.443l2.257 2.256 1.02-1.02c1.934-1.935 7.187-3.133 7.187-3.133l5.086-5.084-6.31-6.313z"/><path fill="#616161" d="M39.257 19.698l.922.922 1.02-1.02c1.933-1.936 6.264-4.055 6.264-4.055s-5.253 1.2-7.187 3.134l-1.02 1.018z"/><path fill="#ebe9e9" d="M36.08 16.52l.92.923 1.02-1.02c1.935-1.937 3.133-7.188 3.133-7.188s-2.12 4.33-4.054 6.266l-1.02 1.02z"/><path fill="#fc3" d="M37.068 17.374l-29.06 29.06c-1.106 1.108-2.396 1.66-2.396 1.66l2.992 2.994s.554-1.29 1.66-2.396L39.326 19.63l-2.258-2.256z"/><path fill="#bfbfbf" d="M3.584 47.91s1.24 1.77 2.26 2.79c1.02 1.02 2.945 2.416 2.945 2.416L3.583 47.91z"/><path fill="#ebe9e9" d="M52.55 10.462l.58-.858-6.034-6.034-.857.58"/><path d="M10.436 45.77l-.14.14-.11-.114.395-.397.114.112-.138.14.722.723-.12.12-.722-.724zm.268-.494l.357-.357.114.113-.237.237.245.246.207-.208.112.112-.207.207.245.246.237-.238.12.12-.357.357-.836-.836zm1.013-.216l-.554-.242.127-.127.337.16-.156-.34.128-.127.238.558.61.267-.128.126-.385-.177.177.384-.126.127-.267-.608zm.209-.78l-.138.14-.112-.113.396-.397.112.11-.14.14.725.724-.12.12-.724-.724zm.269-.494l.18-.18c.066-.063.13-.097.214-.095s.15.043.25.143a.427.427 0 0 1 .132.203c.022.085.002.173-.087.26l-.06.06.326.327-.12.12-.835-.837zm.516.276l.06-.057c.096-.098.04-.154-.044-.24-.078-.077-.143-.142-.236-.048l-.063.063.284.282zm.121-.912l.1-.1 1.022.648-.12.117-.214-.142-.163.162.144.215-.118.12-.65-1.02zm.29.19v.002l.242.36.12-.12-.36-.242zm.252-.507l-.14.138-.11-.11.395-.398.112.112-.138.14.722.722-.12.12-.722-.723zm.46-.458l-.14.138-.112-.114.397-.4.11.114-.137.138.722.724-.12.12-.72-.72zm.268-.495l.357-.357.11.113-.235.237.244.246.206-.208.113.11-.207.208.244.246.237-.237.12.118-.357.357-.835-.836zm.504-.506l.19-.19c.144-.144.296-.128.46.032.095.096.138.193.104.313l.51.25-.127.127-.47-.245-.07.07.356.358-.12.12-.834-.836zm.494.254l.068-.067c.083-.082.05-.144-.035-.226-.084-.085-.144-.116-.232-.03l-.06.064.26.26zm.07-.818l.115-.115.685.322.002-.002-.503-.503.12-.12.833.836-.112.112-.685-.32-.002.003.502.504-.12.117-.834-.833z" fill="#ba9c0a"/><path d="M10.436 45.88l-.14.136-.11-.11.395-.4.114.115-.138.14.722.72-.12.12-.722-.72zm.268-.493l.357-.357.114.113-.237.235.245.246.207-.207.112.113-.207.206.245.246.237-.237.12.12-.357.354-.836-.833zm1.013-.217l-.554-.243.127-.128.337.157-.156-.338.128-.13.238.56.61.262-.128.128-.385-.178.177.385-.126.128-.267-.606zm.209-.78l-.138.138-.112-.113.396-.396.112.11-.14.14.725.723-.12.12-.724-.723zm.269-.494l.18-.18c.066-.066.13-.1.214-.097s.15.04.25.14c.072.075.114.13.132.205.022.084.002.172-.087.26l-.06.06.326.327-.12.12-.835-.836zm.516.275l.06-.056c.096-.097.04-.155-.044-.24-.078-.076-.143-.14-.236-.048l-.063.06.284.285zm.121-.913l.1-.1 1.022.648-.12.12-.214-.145-.163.163.144.215-.118.12-.65-1.02zm.29.19v.003l.242.362.12-.12-.36-.245zm.252-.506l-.14.14-.11-.115.395-.396.112.112-.138.14.722.723-.12.12-.722-.723zm.46-.462l-.14.14-.112-.112.397-.397.11.114-.137.137.722.726-.12.117-.72-.722zm.268-.49l.357-.358.11.113-.235.236.244.246.206-.207.113.112-.207.208.244.245.237-.237.12.12-.357.355-.835-.834zm.504-.507l.19-.193c.144-.142.296-.128.46.035.095.095.138.192.104.312l.51.252-.127.127-.47-.246-.07.072.356.357-.12.12-.834-.837zm.494.254l.068-.067c.083-.083.05-.144-.035-.228-.084-.085-.144-.115-.232-.028l-.06.063.26.26zm.07-.817l.115-.116.685.323.002-.004-.503-.502.12-.117.833.834-.112.113-.685-.32h-.002l.502.504-.12.12-.834-.834z" fill="#ecd74c"/><path d="M10.436 45.824l-.14.14-.11-.113.395-.395.114.11-.138.14.722.722-.12.12-.722-.723zm.268-.492l.357-.357.114.11-.237.24.245.244.207-.208.112.113-.207.206.245.246.237-.235.12.12-.357.358-.836-.836zm1.013-.218l-.554-.24.127-.13.337.16-.156-.34.128-.125.238.555.61.265-.128.128-.385-.177.177.386-.126.126-.267-.608zm.209-.781l-.138.137-.112-.11.396-.397.112.11-.14.14.725.724-.12.117-.724-.72zm.269-.493l.18-.178c.066-.067.13-.1.214-.097s.15.043.25.143c.072.073.114.127.132.2.022.088.002.172-.087.262l-.06.06.326.328-.12.12-.835-.837zm.516.28l.06-.06c.096-.098.04-.157-.044-.24-.078-.08-.143-.144-.236-.048l-.063.062.284.285zm.121-.917l.1-.1 1.022.65-.12.12-.214-.146-.163.164.144.216-.118.12-.65-1.023zm.29.19v.003l.242.36.12-.118-.36-.244zm.252-.507l-.14.14-.11-.112.395-.397.112.114-.138.14.722.72-.12.12-.722-.724zm.46-.46l-.14.14-.112-.113.397-.396.11.11-.137.14.722.722-.12.12-.72-.724zm.268-.492l.357-.357.11.112-.235.236.244.246.206-.208.113.114-.207.205.244.245.237-.235.12.118-.357.36-.835-.836zm.504-.504l.19-.194c.144-.143.296-.127.46.035.095.098.138.196.104.313l.51.252-.127.128-.47-.245-.07.07.356.358-.12.12-.834-.837zm.494.252l.068-.067c.083-.084.05-.144-.035-.227-.084-.085-.144-.115-.232-.03l-.06.064.26.26zm.07-.819l.115-.113.685.322.002-.002-.503-.505.12-.12.833.836-.112.115-.685-.32-.002.003.502.5-.12.122-.834-.837z" fill="#fcc332"/><path fill="#3d2812" d="M9.712 52.195l-.92.92-1.107-1.105.92-.92z"/><path fill="#e2d9ac" d="M4.506 46.988l1.105 1.105-.92.92-1.106-1.104z"/><path fill="#fcc332" d="M4.69 49.014l.92-.92 2.996 2.99-.92.922z"/><path fill="#473015" d="M40.246 20.552l-.92-.92-29.062 29.06c-1.106 1.105-1.66 2.396-1.66 2.396l1.106 1.107s.37-1.474 1.475-2.58l29.06-29.063z"/><path fill="#ede5b2" d="M36.146 16.453l-29.06 29.06c-1.107 1.106-2.58 1.475-2.58 1.475l1.105 1.105s1.29-.552 2.397-1.66l29.06-29.06-.92-.92z"/><path d="M92.26 19.092c.08-.494.137-1.04.176-1.635l.117-1.8c.037-.613.07-1.21.097-1.79.026-.58.038-1.104.038-1.568v-.257L70 12v.51c0 .464.012.784.038 1.374.025.59.06 1.19.096 1.804.037.614.082 1.217.134 1.81.05.587.116 1.124.193 1.596l.036.213h1.354l2.02-4.954h5.4l.003 20.332a19.739 19.739 0 0 0-3.37.81l-.178.062V37h11.243v-1.432l-.164-.068a10.562 10.562 0 0 0-1.703-.498c-.51-.102-1.06-.206-1.642-.312l-.002-20.337h5.358l2.006 4.954h1.406l.034-.215zm13.71.446a5.662 5.662 0 0 0-2.12-1.187 8.307 8.307 0 0 0-2.38-.35c-2.48 0-4.43.844-5.792 2.51-1.36 1.655-2.05 4.09-2.05 7.238 0 1.476.18 2.82.534 4 .357 1.187.89 2.224 1.582 3.08a6.95 6.95 0 0 0 2.61 1.986c1.033.46 2.24.687 3.585.687.62 0 1.237-.082 1.837-.237a8.31 8.31 0 0 0 1.662-.652 6.346 6.346 0 0 0 1.36-.98c.404-.382.708-.8.9-1.242l.074-.168-.73-.898-.168.158c-.375.363-.956.663-1.728.894-.786.233-1.57.35-2.334.35-.93 0-1.747-.18-2.43-.538a4.812 4.812 0 0 1-1.704-1.466c-.45-.62-.79-1.36-1.016-2.205a10.55 10.55 0 0 1-.342-2.498h10.46l.04-.212c.09-.492.155-.96.188-1.388a15.6 15.6 0 0 0 .052-1.272c0-1.333-.195-2.478-.58-3.388-.38-.92-.89-1.663-1.512-2.22zm-4.636.59c1.073 0 1.837.41 2.335 1.257.51.87.768 2.06.768 3.542 0 .19-.005.383-.017.575-.006.134-.015.26-.026.387h-6.952c.145-2.122.53-3.626 1.14-4.465.634-.875 1.534-1.297 2.752-1.297zm26.852 14.924c-.312-.126-.63-.248-.95-.365l-5.653-7.85 4.872-6.478c.89-.27 1.58-.57 2.054-.897l.115-.082V18h-6.658v1.364l.1.087c.364.298.884.562 1.584.814l-3.348 4.933-3.413-4.93c.226-.084.44-.18.64-.296.29-.16.588-.35.88-.542l.12-.084V18h-7.912v1.385l.12.08c.305.205.606.378.896.514.268.13.568.253.893.372l5.354 7.22-5.308 7.103c-.682.18-1.37.478-2.045.895l-.128.076V37h6.804v-1.358l-.132-.074c-.3-.178-.6-.34-.898-.493a9.776 9.776 0 0 0-.66-.295l3.722-5.454 3.686 5.454a7.738 7.738 0 0 0-.592.282c-.297.163-.618.343-.964.542l-.134.076V37h8.06v-1.344l-.12-.08a5.334 5.334 0 0 0-.986-.524zm14.066-.708c-.443.16-.995.274-1.63.327-.656.062-1.206.09-1.64.09-.863 0-1.485-.26-1.904-.79-.428-.543-.643-1.503-.643-2.858V21.064h5.526v-2.387h-5.525V14h-1.175l-.103.023c-.42.188-.842.385-1.273.593a5.593 5.593 0 0 0-1.176.726l-.097.075v2.958c-.982.257-1.932.672-2.825 1.238l-.12.077v1.373h2.946v11.05c0 1.87.416 3.25 1.235 4.1.82.854 2.015 1.287 3.552 1.287.582 0 1.16-.077 1.72-.22a9.19 9.19 0 0 0 1.534-.552c.465-.222.884-.457 1.25-.697.37-.248.665-.49.874-.72l.123-.133-.437-.908-.208.074zM155.49 18c-1.476 0-2.696.4-3.62 1.193-.67.57-1.24 1.296-1.692 2.15V18l-1.21.002c-.794.123-1.616.295-2.434.507-.834.21-1.66.497-2.453.845l-.154.07v1.395l2.432.297V42.69c-.737.2-1.505.49-2.28.857l-.15.074V45h8.683v-1.36l-.124-.08a7.045 7.045 0 0 0-1.302-.636 5.95 5.95 0 0 0-1.005-.255V37.4c.497.2.962.35 1.393.442.53.11 1.266.174 2.186.174 1.328 0 2.557-.245 3.65-.73a7.813 7.813 0 0 0 2.816-2.067c.77-.896 1.37-2 1.786-3.293.413-1.288.623-2.744.623-4.326 0-3.348-.63-5.81-1.872-7.317C159.516 18.766 157.74 18 155.49 18zm3.1 9.6c0 1.208-.12 2.327-.36 3.33-.236.996-.58 1.876-1.017 2.61-.43.73-.963 1.303-1.577 1.7-.605.39-1.3.593-2.062.593-.86 0-1.568-.067-2.1-.2a5.095 5.095 0 0 1-1.296-.503V24.92c.284-1.267.768-2.275 1.437-2.996.66-.71 1.566-1.072 2.696-1.072.79 0 1.46.163 1.997.485.536.322.978.78 1.308 1.367.338.605.588 1.32.743 2.146.155.83.233 1.758.233 2.75zm20.698 5.817a22.674 22.674 0 0 1-.036-1.357c0-1.227.03-2.52.09-3.842.063-1.345.094-2.758.094-4.193 0-.69-.062-1.39-.188-2.08a4.975 4.975 0 0 0-.82-1.96c-.418-.586-1.028-1.067-1.814-1.436-.78-.364-1.824-.548-3.105-.548-1.415 0-2.72.16-3.878.48a12.727 12.727 0 0 0-3.173 1.328l-.142.084.012.165c.05.76.17 1.542.356 2.332.188.777.405 1.538.653 2.267l.057.173h1.306l1.752-4.4c.362-.136.733-.22 1.104-.254.422-.035.804-.05 1.14-.05.68 0 1.233.147 1.643.44.41.293.73.714.942 1.26.222.563.35 1.248.387 2.04.032.75.008 1.604-.072 2.542-1.632.092-3.09.233-4.335.403-1.316.187-2.445.49-3.348.908-.926.432-1.635 1.028-2.114 1.783-.483.753-.726 1.72-.726 2.877 0 1.522.504 2.77 1.503 3.713.987.932 2.278 1.405 3.835 1.405.81 0 1.547-.124 2.188-.378a5.885 5.885 0 0 0 1.672-.984c.478-.403.87-.873 1.164-1.39.124-.22.232-.437.32-.65.023.44.047.86.077 1.257a5.83 5.83 0 0 0 .466 1.922l.066.15 1.123-.005c.694-.12 1.43-.307 2.188-.552a13.5 13.5 0 0 0 2.083-.843l.14-.074v-1.158l-2.553-.366c-.02-.352-.043-.69-.062-1.013zm-4.78.152c-.297.314-.67.59-1.108.82-.432.22-.938.333-1.513.333-.872 0-1.537-.25-2.032-.77-.487-.514-.737-1.262-.737-2.22 0-.56.093-1.072.273-1.503.175-.417.5-.77.964-1.055.487-.292 1.177-.515 2.05-.655.84-.134 1.918-.202 3.21-.212V31.8c-.07.215-.194.477-.37.792a5.141 5.141 0 0 1-.735.977zm20.88.775c-.445.16-.997.274-1.634.327-.654.062-1.204.09-1.638.09-.863 0-1.484-.26-1.905-.79-.426-.543-.642-1.503-.642-2.858V21.064h5.527v-2.387h-5.527V14h-1.172l-.104.023c-.417.188-.842.385-1.273.593a5.55 5.55 0 0 0-1.177.726l-.097.075v2.958a9.977 9.977 0 0 0-2.824 1.238l-.123.077v1.373h2.946v11.05c0 1.87.415 3.25 1.236 4.1.818.854 2.015 1.287 3.55 1.287a6.95 6.95 0 0 0 1.72-.22 9.19 9.19 0 0 0 1.534-.552c.464-.222.885-.457 1.25-.697.367-.248.662-.49.873-.72l.122-.133-.438-.908-.206.074zm13.632 0c-.446.16-.994.274-1.635.327-.652.062-1.202.09-1.636.09-.862 0-1.487-.26-1.906-.79-.427-.543-.645-1.503-.645-2.858V21.064h5.528v-2.387H203.2V14h-1.172l-.1.023c-.42.188-.847.385-1.274.593-.45.206-.844.455-1.176.726l-.097.075v2.958c-.982.257-1.933.672-2.827 1.238l-.12.077v1.373h2.948v11.05c0 1.87.416 3.25 1.233 4.1.822.854 2.015 1.287 3.55 1.287.583 0 1.163-.077 1.724-.22a9.298 9.298 0 0 0 1.532-.552c.463-.222.884-.457 1.246-.697.37-.248.665-.49.876-.72l.123-.133-.436-.908-.21.074zm15.546-14.806a6.357 6.357 0 0 0-2.32-1.187 9.886 9.886 0 0 0-2.605-.35c-2.71 0-4.842.844-6.336 2.51-1.486 1.655-2.242 4.09-2.242 7.238 0 1.475.195 2.82.587 4 .386 1.187.97 2.225 1.727 3.08.762.858 1.723 1.526 2.86 1.986 1.128.46 2.447.687 3.92.687.68 0 1.355-.082 2.01-.237a9.61 9.61 0 0 0 1.82-.652 6.964 6.964 0 0 0 1.49-.98c.443-.382.774-.803.985-1.242l.08-.168-.8-.898-.18.16c-.416.36-1.05.662-1.895.892a9.756 9.756 0 0 1-2.554.35c-1.015 0-1.91-.18-2.658-.537-.75-.353-1.374-.847-1.865-1.466s-.866-1.36-1.112-2.204a9.776 9.776 0 0 1-.372-2.498h11.446l.042-.212a12.659 12.659 0 0 0 .265-2.66c0-1.333-.215-2.478-.636-3.388-.42-.92-.98-1.664-1.658-2.22zm-5.07.59c1.17 0 2.01.41 2.553 1.258.556.868.84 2.058.84 3.542 0 .19-.007.383-.02.575-.007.134-.016.26-.027.387h-7.61c.162-2.12.58-3.624 1.25-4.464.692-.876 1.677-1.298 3.012-1.298zm22.408-.906a7.455 7.455 0 0 0-.475-1.066l-.065-.114-.13-.014a4.828 4.828 0 0 0-2.034.212 6.215 6.215 0 0 0-1.8.914 8.224 8.224 0 0 0-1.445 1.343 6.88 6.88 0 0 0-.646.882v-3.353l-1.212.004c-.77.12-1.583.29-2.415.488-.844.206-1.676.486-2.47.825l-.156.066v1.353l2.43.286v13.707c-.33.082-.664.18-.996.283a6.64 6.64 0 0 0-1.298.56l-.135.073V37h9.2v-1.327l-.14-.074a6.812 6.812 0 0 0-1.525-.616 9.74 9.74 0 0 0-1.283-.256V24.32c.3-.8.642-1.42 1.016-1.828.358-.388.657-.66.895-.802h5.09v-1.197l-.01-.085a22.873 22.873 0 0 0-.396-1.186zm21.976 16.386c-.62-.4-1.395-.688-2.313-.865V25.84c0-1.508-.14-2.776-.414-3.77-.282-1.012-.697-1.828-1.237-2.436a4.347 4.347 0 0 0-2.05-1.28c-.794-.235-1.704-.353-2.703-.353-1.426 0-2.663.42-3.674 1.247a8.36 8.36 0 0 0-1.86 2.12V18l-1.22.004c-.913.167-1.8.363-2.63.58-.846.216-1.6.463-2.243.733l-.16.064v1.357l2.433.29v13.73c-.936.255-1.704.537-2.29.834l-.144.076V37h8.464v-1.32l-.125-.075a6.865 6.865 0 0 0-2.085-.857V24.48c.163-.465.385-.93.658-1.362a5.81 5.81 0 0 1 1.008-1.205 4.308 4.308 0 0 1 2.945-1.148c1.338 0 2.23.475 2.728 1.453.518 1.013.78 2.426.78 4.197v8.354c-.724.228-1.407.507-2.03.822l-.145.073V37H264v-1.317l-.12-.075z"/></svg>