<?xml version="1.0" encoding="utf-8"?>
<!DOCTYPE svg>
<svg version="1.1" baseProfile="full" xmlns="http://www.w3.org/2000/svg" xmlns:xlink="http://www.w3.org/1999/xlink" x="0px" y="0px" width="180px" height="24px" viewBox="0 0 180 24" enable-background="new 0 0 180 24" xml:space="preserve">
<g id="sprite-textpattern">
    <linearGradient id="svg-txplogo-grad1" gradientUnits="userSpaceOnUse" x1="30.2319" y1="36.1724" x2="36.166" y2="30.2383">
        <stop offset="0.125" style="stop-color:#7b6c35"/>
        <stop offset="0.875" style="stop-color:#b9aa69"/>
    </linearGradient>
    <linearGradient id="svg-txplogo-grad2" gradientUnits="userSpaceOnUse" x1="30.2256" y1="36.166" x2="36.0613" y2="30.3303">
        <stop offset="0" style="stop-color:#2b2414"/>
        <stop offset="0.75" style="stop-color:#624e22"/>
    </linearGradient>
    <linearGradient id="svg-txplogo-grad3" gradientUnits="userSpaceOnUse" x1="34.8799" y1="31.4961" x2="30.7981" y2="35.5778">
        <stop offset="0.5" style="stop-color:#2d2400"/>
        <stop offset="0.875" style="stop-color:#211700"/>
    </linearGradient>
    <linearGradient id="svg-txplogo-grad4" gradientUnits="userSpaceOnUse" x1="8.5347" y1="8.5347" x2="15.7652" y2="15.7652">
        <stop offset="0" style="stop-color:#ffffff"/>
        <stop offset="1" style="stop-color:#666666"/>
    </linearGradient>
    <linearGradient id="svg-txplogo-grad5" gradientUnits="userSpaceOnUse" x1="4.0649" y1="20.2339" x2="20.1689" y2="4.1299">
        <stop offset="0" style="stop-color:#0a0a0a"/>
        <stop offset="0.5" style="stop-color:#0f0f0f"/>
        <stop offset="1" style="stop-color:#1a1a1a"/>
    </linearGradient>
    <linearGradient id="svg-txplogo-grad6" gradientUnits="userSpaceOnUse" x1="0.4907" y1="16.5786" x2="7.7213" y2="23.8092">
        <stop offset="0" style="stop-color:#999999"/>
        <stop offset="1" style="stop-color:#1a1a1a"/>
    </linearGradient>
    <linearGradient id="svg-txplogo-grad7" gradientUnits="userSpaceOnUse" x1="16.5781" y1="0.4912" x2="23.808" y2="7.7211">
        <stop offset="0" style="stop-color:#cccccc"/>
        <stop offset="1" style="stop-color:#333333"/>
    </linearGradient>
    <linearGradient id="svg-txplogo-grad8" gradientUnits="userSpaceOnUse" x1="37.001" y1="11.9238" x2="52.5498" y2="11.9238">
        <stop offset="0.125" style="stop-color:#cdcdcb"/>
        <stop offset="0.875" style="stop-color:#a09ea1"/>
    </linearGradient>
    <path d="M22.985,22.99c-0.835,0.835-1.704,1.228-2.045,0.887c-0.127-0.128,0,0,0,0c-0.061-0.061-2.241-2.467-4.719-4.944l0,0c-2.244-2.246-4.875-4.521-6.496-6.143c-1.62-1.619-4.313-4.647-4.316-4.647l0,0L5.229,7.94l1.306-1.422l1.402-1.287L8.14,5.414c0.003,0.001,3.028,2.694,4.647,4.314c1.622,1.621,3.897,4.254,6.142,6.496l0,0c2.478,2.48,4.855,4.632,4.964,4.738C24.183,21.255,23.865,22.11,22.985,22.99z"/>
    <path fill="url(#svg-txplogo-grad1)" d="M12.574,9.94c-1.607-1.609-4.635-4.305-4.635-4.305L6.736,6.739L5.632,7.942c0,0,2.696,3.026,4.304,4.635c1.607,1.605,4.242,3.887,6.497,6.143c2.479,2.479,4.679,4.905,4.718,4.944c0.038,0.037,0.503,0.233,1.623-0.887c1.12-1.12,0.923-1.587,0.897-1.612c-0.026-0.025-2.477-2.25-4.955-4.73C16.461,14.183,14.181,11.549,12.574,9.94z"/>
    <path fill="url(#svg-txplogo-grad2)" d="M22.542,22.998c-0.077-0.009-0.159-0.073-0.261-0.173c-0.113-0.114-2.418-2.457-4.896-4.938c-0.921-0.92-2.741-2.599-2.996-2.821c-0.445-0.392-0.405-0.789-0.168-1.176c0.239-0.394,0.821-0.878,1.213-0.91c-0.379-0.412-0.749-0.812-1.103-1.193c-1.082,0.602-2.325,1.322-2.508,1.142c-0.866-0.866-3.057-3.056-3.983-3.98C7.433,8.54,7.488,8.104,7.718,7.674c0.251-0.471,0.894-0.986,1.276-1.089l0,0C8.37,6.022,7.938,5.636,7.938,5.636L6.735,6.741L5.631,7.944c0,0,2.696,3.026,4.304,4.635c1.607,1.605,4.242,3.887,6.497,6.143c2.479,2.479,4.679,4.905,4.718,4.944C21.186,23.699,21.589,23.868,22.542,22.998z"/>
    <path fill="#6b5600" d="M18.159,16.843c0,0-0.311-0.375-0.684-0.746c-0.373-0.373-0.783-0.758-0.783-0.758s0.454,0.516,0.697,0.76C17.63,16.339,18.159,16.843,18.159,16.843z M12.5,10.957c-0.355-0.354-0.933-0.933-0.933-0.933s0.535,0.685,0.858,1.007C12.749,11.354,12.854,11.312,12.5,10.957z M11.698,12.354c-0.569-0.568-1.49-1.439-2.978-2.929C7.57,8.274,6.649,7.415,6.36,7.149L6.294,7.221c0.399,0.383,2.116,2.03,3.058,2.973c1.07,1.068,2.888,2.77,3.372,3.164c0.484,0.394,1.415,1.205,2.125,1.916c0.71,0.709,1.457,1.367,1.457,1.367s-1.214-1.25-1.75-1.785S12.357,13.017,11.698,12.354z M11.343,9.841c0,0-0.746-0.746-1.871-1.872C8.612,7.11,7.753,6.25,7.522,6.02L7.518,6.022C7.747,6.281,8.623,7.257,9.41,8.043C10.324,8.958,11.343,9.841,11.343,9.841z M9.052,8.492c0.149,0.147,0.557,0.547,0.855,0.844c0.298,0.3,0.922,0.978,1.078,1.134c0.62,0.619,1.046,1.006,1.78,1.738c0.733,0.732,2.536,2.605,2.896,2.967c0.61,0.61,1.448,1.488,1.876,1.916c0.429,0.43,1.399,1.358,1.89,1.852c0.491,0.489,1.143,1.121,1.578,1.556c0.436,0.436,1.613,1.435,1.613,1.435s-1.874-1.847-2.544-2.519c-0.671-0.671-1.522-1.427-1.939-1.842c-0.58-0.58-1.534-1.605-2.025-2.097c-0.49-0.49-0.64-0.576-0.745-0.684c-0.105-0.105-1.131-1.182-1.405-1.454c-0.272-0.272-2.665-2.703-3.106-3.144C10.413,9.753,9.947,9.3,9.761,9.112c-0.187-0.187-0.51-0.572-0.709-0.771C8.854,8.143,8.518,7.844,8.281,7.608C8.057,7.384,7.452,6.8,7.077,6.428L6.948,6.545c0.639,0.628,1.04,0.893,1.284,1.139C8.484,7.938,8.904,8.342,9.052,8.492z M10.512,11.009c0.456,0.455,2.361,2.174,2.361,2.174s-1.303-1.242-1.962-1.9c-0.659-0.659-1.469-1.506-2.258-2.294C7.995,8.33,6.924,7.246,6.587,6.905L6.488,7.01c0.443,0.422,1.9,1.805,2.323,2.23C9.311,9.741,10.055,10.552,10.512,11.009z M20.171,19.926c-0.472-0.473-0.938-0.886-1.354-1.304c-0.417-0.414-1.616-1.668-1.616-1.668s1.224,1.399,1.677,1.854c0.454,0.453,0.776,0.677,1.317,1.218s1.357,1.393,1.681,1.715c0.26,0.262,0.835,0.717,1.046,0.882c0.02-0.021,0.041-0.041,0.058-0.062c-0.269-0.233-1.118-0.979-1.492-1.354C21.041,20.758,20.644,20.396,20.171,19.926z M21.799,20.397c-0.292-0.291-1.118-1.121-1.292-1.296c-0.174-0.174-0.798-0.661-0.798-0.661s0.432,0.473,0.55,0.591c0.118,0.117,0.776,0.663,1.267,1.153c0.422,0.423,1.547,1.566,1.856,1.882c0.041-0.06,0.077-0.113,0.107-0.166C23.172,21.624,22.05,20.648,21.799,20.397z M10.032,9.866c-0.515-0.528-1.138-1.223-1.36-1.445c-0.51-0.51-1.514-1.382-1.875-1.737L6.736,6.741L6.727,6.75c0.368,0.354,1.47,1.396,2.161,2.086C9.335,9.281,10.032,9.866,10.032,9.866z M9.613,9.664c0.559,0.558,4.675,4.588,5.203,5.116c0.528,0.527,1.131,1.18,1.441,1.49c0.311,0.312,1.168,1.192,1.168,1.192s-1.156-1.306-1.827-1.976c-0.67-0.672-2.313-2.369-3.072-3.127C11.971,11.806,9.613,9.664,9.613,9.664z"/>
    <path fill="url(#svg-txplogo-grad3)" d="M16.293,18.004c-0.763-0.762-2.24-2.159-2.882-2.801c-0.105-0.106-1.401-1.374-1.675-1.647c-0.274-0.271-2.663-2.441-3.104-2.884s-0.938-1.04-1.124-1.228C7.321,9.257,6.968,8.84,6.77,8.643C6.571,8.444,6.266,8.117,6.029,7.878C5.948,7.797,5.888,7.753,5.853,7.737L5.825,7.762c0.016,0.037,0.064,0.102,0.154,0.19C6.234,8.207,6.563,8.61,6.713,8.76c0.149,0.148,0.646,0.637,0.944,0.936C7.956,9.995,8.52,10.642,8.676,10.8c0.62,0.618,1.107,0.944,1.84,1.678c0.734,0.733,2.479,2.482,2.839,2.844c0.61,0.609,1.505,1.371,1.934,1.802c0.429,0.43,1.398,1.448,1.89,1.939c0.491,0.49,1.14,1.164,1.575,1.6c0.435,0.436,1.616,1.54,1.616,1.54c-1.803-1.836-1.746-1.89-2.373-2.518C17.324,19.013,16.71,18.422,16.293,18.004z M20.286,21.211c-0.613-0.614-1.073-1.104-1.722-1.749c-0.648-0.645-1.38-1.333-1.952-1.903c-0.573-0.566-2.222-2.157-2.222-2.157s1.628,1.709,2.251,2.328c0.624,0.621,1.124,1.13,1.867,1.868c0.745,0.739,1.868,1.901,2.312,2.345c0.375,0.372,1.42,1.313,1.42,1.313l0.165-0.135C22.405,23.121,21.205,22.129,20.286,21.211z M7.924,9.562c0.534,0.57,3.909,3.684,4.394,4.203c0.486,0.521,2.663,2.549,2.663,2.549s-1.47-1.463-2.171-2.215c-0.702-0.752-3.375-3.09-4.214-3.988S6.282,7.748,6.282,7.748L6.15,7.852C6.149,7.852,7.391,8.99,7.924,9.562z M21.347,23.149c-0.408-0.434-0.816-0.768-0.816-0.768s0.48,0.622,0.708,0.826c0.151,0.136,0.322,0.306,0.42,0.407c0.041-0.018,0.083-0.037,0.127-0.062C21.699,23.49,21.557,23.371,21.347,23.149z M12.512,12.838c-0.005,0-0.009,0.003-0.014,0.005c0.224,0.203,0.375,0.34,0.375,0.34S12.727,13.043,12.512,12.838z M14.059,14.521c-0.007-0.039-0.008-0.082-0.007-0.123c-0.505-0.438-1.198-1.008-1.748-1.485c-0.023,0.006-0.046,0.015-0.068,0.021c0.211,0.19,0.382,0.342,0.488,0.426C13.039,13.616,13.547,14.054,14.059,14.521z M14.153,14.017c-0.459-0.471-0.929-0.951-1.299-1.326c-0.039,0.017-0.075,0.033-0.112,0.051c0.514,0.504,1,0.98,1.378,1.352C14.129,14.065,14.14,14.041,14.153,14.017z M8.412,6.911C7.99,6.487,7.653,6.149,7.521,6.018L7.517,6.022c0.125,0.142,0.449,0.502,0.844,0.927C8.378,6.936,8.395,6.922,8.412,6.911z M14.336,13.728c-0.16-0.168-0.3-0.312-0.378-0.39c-0.087-0.088-0.397-0.399-0.788-0.798c-0.018,0.008-0.034,0.018-0.051,0.023c0.341,0.349,0.769,0.789,1.181,1.211C14.312,13.76,14.323,13.742,14.336,13.728z M7.605,7.934C7.18,7.504,6.786,7.106,6.598,6.916C6.566,6.955,6.536,6.994,6.508,7.03c0.215,0.205,0.634,0.603,1.064,1.014C7.581,8.007,7.593,7.971,7.605,7.934z M7.977,7.311C7.7,7.041,7.333,6.684,7.075,6.428L6.949,6.542L6.946,6.545c0.413,0.405,0.724,0.658,0.96,0.854C7.93,7.371,7.951,7.34,7.977,7.311z M7.543,8.27c-0.548-0.53-0.956-0.91-1.15-1.092c-0.022,0.031-0.042,0.057-0.06,0.08c0.214,0.205,0.685,0.658,1.223,1.178C7.546,8.382,7.542,8.325,7.543,8.27z M7.718,7.673c0.016-0.03,0.038-0.06,0.057-0.09C7.381,7.225,6.993,6.877,6.797,6.684L6.755,6.723c-0.009,0.01-0.016,0.02-0.025,0.028c0.188,0.185,0.565,0.54,0.98,0.938C7.713,7.684,7.715,7.68,7.718,7.673z"/>
    <path d="M7.721,0c0,0,0.628,0.445,1.631,1.448l0,0c1.002,1.002,1.448,1.63,1.448,1.63v0.559l-7.162,7.164H3.079l0,0c0,0-0.836-0.653-1.631-1.448l0,0C0.445,8.35,0,7.721,0,7.721v-0.56L7.161,0H7.721L7.721,0z"/>
    <path fill="url(#svg-txplogo-grad4)" d="M7.625,0.301h-0.34L0.299,7.288v0.338c0,0,0.369,0.523,1.36,1.516c0.991,0.989,1.515,1.359,1.515,1.359h0.339l6.986-6.987v-0.34c0,0-0.369-0.524-1.36-1.514C8.148,0.669,7.625,0.301,7.625,0.301z"/>
    <path fill="url(#svg-txplogo-grad4)" d="M7.625,0.301h-0.34L0.299,7.288v0.338c0,0,0.369,0.523,1.36,1.516c0.991,0.989,1.515,1.359,1.515,1.359h0.339l6.986-6.987v-0.34c0,0-0.369-0.524-1.36-1.514C8.148,0.669,7.625,0.301,7.625,0.301z"/>
    <path fill="url(#svg-txplogo-grad5)" d="M10.243,3.423c0,0-1.962,2.089-3.347,3.474c-1.385,1.385-3.474,3.348-3.474,3.348s-0.766-0.4-1.616-1.25c-0.85-0.852-1.25-1.615-1.25-1.615s1.962-2.089,3.346-3.475c1.385-1.383,3.474-3.346,3.474-3.346s0.736,0.428,1.586,1.276C9.814,2.686,10.243,3.423,10.243,3.423z"/>
    <path fill="url(#svg-txplogo-grad6)" d="M3.422,10.244c0,0-0.766-0.399-1.616-1.25c-0.85-0.851-1.25-1.615-1.25-1.615L0.299,7.288v0.338c0,0,0.369,0.523,1.36,1.516c0.991,0.989,1.515,1.359,1.515,1.359h0.339L3.422,10.244z"/>
    <path fill="url(#svg-txplogo-grad7)" d="M10.5,3.514v-0.34c0,0-0.369-0.524-1.36-1.514C8.149,0.669,7.626,0.301,7.626,0.301h-0.34l0.092,0.258c0,0,0.736,0.428,1.586,1.276c0.85,0.853,1.279,1.588,1.279,1.588L10.5,3.514z"/>
    <g fill="#494949">
        <path d="M5.02,5.653L4.939,5.735L4.873,5.669l0.232-0.231l0.066,0.065l-0.082,0.08l0.423,0.424l-0.07,0.068L5.02,5.653z"/>
        <path d="M5.448,5.561L5.123,5.418l0.075-0.072l0.197,0.092L5.304,5.239l0.074-0.074l0.14,0.326l0.357,0.156L5.801,5.721L5.575,5.617L5.679,5.84L5.604,5.916L5.448,5.561z"/>
        <path d="M5.416,5.125L5.521,5.02c0.038-0.037,0.076-0.058,0.125-0.056c0.049,0.001,0.087,0.024,0.146,0.082C5.835,5.088,5.86,5.121,5.87,5.165c0.012,0.05,0,0.102-0.051,0.152L5.784,5.352l0.19,0.191l-0.07,0.07L5.416,5.125z M5.719,5.287l0.034-0.034C5.81,5.197,5.777,5.162,5.729,5.112C5.683,5.067,5.645,5.03,5.59,5.084L5.554,5.121L5.719,5.287z"/>
    </g>
    <g fill="#191919">
        <path d="M5.02,5.594l-0.081,0.08L4.873,5.61l0.232-0.232l0.066,0.064L5.089,5.524l0.423,0.424l-0.07,0.07L5.02,5.594z"/>
        <path d="M5.448,5.5L5.123,5.358l0.075-0.073l0.197,0.092L5.304,5.178l0.074-0.072l0.14,0.326l0.357,0.153L5.801,5.66L5.575,5.555l0.104,0.227L5.604,5.856L5.448,5.5z"/>
        <path d="M5.416,5.065L5.521,4.96c0.038-0.039,0.076-0.06,0.125-0.058c0.049,0,0.087,0.023,0.146,0.082C5.835,5.028,5.86,5.061,5.87,5.104c0.012,0.052,0,0.102-0.051,0.152L5.784,5.292l0.19,0.19l-0.07,0.07L5.416,5.065z M5.719,5.227l0.034-0.033C5.81,5.135,5.777,5.102,5.729,5.053C5.683,5.007,5.645,4.969,5.59,5.024L5.554,5.061L5.719,5.227z"/>
    </g>
    <g fill="#2d2d2d">
        <path d="M5.02,5.624L4.939,5.705L4.873,5.639l0.232-0.23l0.066,0.064L5.089,5.555l0.423,0.422l-0.07,0.069L5.02,5.624z"/>
        <path d="M5.448,5.531L5.123,5.389l0.075-0.074l0.197,0.093l-0.091-0.2l0.074-0.072l0.14,0.325l0.357,0.155L5.801,5.69L5.575,5.585l0.104,0.226L5.604,5.885L5.448,5.531z"/>
        <path d="M5.416,5.096l0.105-0.104c0.038-0.04,0.076-0.06,0.125-0.058c0.049,0.002,0.087,0.024,0.146,0.084C5.835,5.061,5.86,5.091,5.87,5.135c0.012,0.051,0,0.102-0.051,0.152L5.784,5.323l0.19,0.189l-0.07,0.07L5.416,5.096z M5.719,5.257l0.034-0.032C5.81,5.167,5.777,5.132,5.729,5.084C5.683,5.038,5.645,5,5.59,5.055L5.554,5.09L5.719,5.257z"/>
    </g>
    <path d="M2.385,22.747L2.385,22.747c-0.663-0.663-1.182-1.487-1.182-1.487l0.646-0.646c0,0,0.677-0.187,1.088-0.597l0,0L16.276,6.678c0.849-0.85,1.736-2.72,1.736-2.72l2.345-2.347l0.61-0.414L24,4.231l-0.414,0.61l-2.344,2.345c0,0-1.87,0.889-2.719,1.737l0,0L5.184,22.264c-0.411,0.409-0.597,1.087-0.597,1.087L3.939,24C3.938,24.002,3.048,23.411,2.385,22.747z"/>
    <path fill="url(#svg-txplogo-grad8)" d="M20.551,1.846L20.551,1.846l-2.26,2.26c0,0-0.533,2.334-1.393,3.193l-0.453,0.454l1.003,1.002l0.453-0.452c0.86-0.859,3.194-1.393,3.194-1.393l2.261-2.262l0,0L20.551,1.846z"/>
    <path fill="#616161" d="M17.448,8.755l0.41,0.411l0.452-0.454c0.86-0.86,2.785-1.802,2.785-1.802s-2.334,0.531-3.194,1.393L17.448,8.755z"/>
    <path fill="#ebe9e9" d="M16.035,7.344l0.41,0.409l0.453-0.454c0.859-0.859,1.393-3.193,1.393-3.193s-0.943,1.924-1.802,2.785L16.035,7.344z"/>
    <path fill="#ffcc33" d="M16.475,7.723L3.559,20.64c-0.491,0.492-1.064,0.737-1.064,0.737l1.33,1.331l0,0c0,0,0.246-0.574,0.737-1.065L17.478,8.725L16.475,7.723z"/>
    <path fill="#bfbfbf" d="M1.593,21.294c0,0,0.551,0.788,1.004,1.241c0.453,0.454,1.309,1.073,1.309,1.073L1.593,21.294z"/>
    <polygon fill="#ebe9e9" points="23.355,4.649 23.613,4.268 20.931,1.587 20.551,1.846"/>
    <g fill="#ba9c0a">
        <path d="M4.639,20.345l-0.062,0.062l-0.05-0.051l0.176-0.177l0.05,0.051l-0.062,0.062l0.321,0.32l-0.053,0.054L4.639,20.345z"/>
        <path d="M4.757,20.125l0.159-0.158l0.05,0.05l-0.105,0.105L4.97,20.23l0.092-0.093l0.05,0.05L5.02,20.28l0.109,0.109l0.105-0.105l0.053,0.054l-0.158,0.158L4.757,20.125z"/>
        <path d="M5.207,20.028l-0.246-0.106l0.056-0.058l0.15,0.069l-0.069-0.149l0.057-0.058l0.105,0.247l0.271,0.118l-0.057,0.058l-0.171-0.078l0.079,0.17l-0.056,0.057L5.207,20.028z"/>
        <path d="M5.3,19.683l-0.061,0.062l-0.05-0.05l0.176-0.177l0.049,0.051l-0.061,0.061l0.321,0.321L5.62,20.004L5.3,19.683z"/>
        <path d="M5.419,19.462l0.08-0.079c0.03-0.027,0.058-0.044,0.095-0.043c0.038,0,0.066,0.021,0.111,0.063c0.032,0.03,0.051,0.056,0.059,0.09c0.01,0.037,0,0.077-0.039,0.115l-0.027,0.026l0.145,0.146L5.79,19.833L5.419,19.462z M5.649,19.585l0.026-0.025c0.043-0.043,0.018-0.067-0.019-0.105c-0.035-0.034-0.064-0.063-0.105-0.021L5.523,19.46L5.649,19.585z"/>
        <path d="M5.703,19.179l0.044-0.044l0.454,0.289l-0.053,0.053l-0.096-0.063L5.98,19.486l0.064,0.095l-0.053,0.054L5.703,19.179z M5.832,19.265L5.832,19.265l0.107,0.16l0.053-0.053L5.832,19.265z"/>
        <path d="M5.944,19.038L5.882,19.1l-0.05-0.051l0.176-0.177l0.05,0.05l-0.061,0.062l0.32,0.32l-0.053,0.054L5.944,19.038z"/>
        <path d="M6.148,18.835l-0.062,0.062l-0.05-0.051l0.176-0.177l0.05,0.051L6.2,18.781l0.321,0.321l-0.053,0.054L6.148,18.835z"/>
        <path d="M6.267,18.614l0.158-0.158l0.05,0.051L6.37,18.612l0.108,0.108l0.092-0.092l0.05,0.05l-0.092,0.093l0.108,0.107l0.106-0.104l0.053,0.053l-0.159,0.159L6.267,18.614z"/>
        <path d="M6.492,18.391l0.085-0.085c0.064-0.063,0.131-0.057,0.204,0.016c0.042,0.042,0.062,0.085,0.047,0.14l0.227,0.111l-0.057,0.057L6.79,18.52l-0.031,0.031l0.158,0.158l-0.053,0.054L6.492,18.391z M6.711,18.503l0.03-0.03c0.037-0.036,0.022-0.062-0.015-0.1c-0.038-0.039-0.064-0.052-0.104-0.013l-0.027,0.026L6.711,18.503z"/>
        <path d="M6.743,18.141l0.051-0.052l0.305,0.145L7.1,18.232l-0.224-0.227l0.053-0.053l0.372,0.373l-0.05,0.049l-0.305-0.141H6.945l0.223,0.224l-0.053,0.053L6.743,18.141z"/>
    </g>
    <g fill="#ecd74c">
        <path d="M4.639,20.393l-0.062,0.062l-0.05-0.051l0.176-0.176l0.05,0.05L4.691,20.34l0.321,0.321l-0.053,0.054L4.639,20.393z"/>
        <path d="M4.757,20.174l0.159-0.158l0.05,0.051L4.861,20.17l0.109,0.109l0.092-0.092l0.05,0.051L5.02,20.33l0.109,0.109l0.105-0.105l0.053,0.053l-0.158,0.158L4.757,20.174z"/>
        <path d="M5.207,20.077L4.961,19.97l0.056-0.057l0.15,0.07l-0.069-0.151l0.057-0.056l0.105,0.248l0.271,0.116l-0.057,0.058l-0.171-0.08l0.079,0.172l-0.056,0.057L5.207,20.077z"/>
        <path d="M5.3,19.731l-0.061,0.061l-0.05-0.051l0.176-0.176l0.049,0.051l-0.061,0.061l0.321,0.321L5.62,20.052L5.3,19.731z"/>
        <path d="M5.419,19.511l0.08-0.08c0.03-0.028,0.058-0.044,0.095-0.043s0.066,0.021,0.111,0.064c0.032,0.031,0.051,0.057,0.059,0.09c0.01,0.037,0,0.076-0.039,0.115l-0.027,0.026l0.145,0.146L5.79,19.882L5.419,19.511z M5.649,19.634l0.026-0.024c0.043-0.043,0.018-0.069-0.019-0.106c-0.035-0.034-0.064-0.062-0.105-0.021l-0.028,0.025L5.649,19.634z"/>
        <path d="M5.703,19.228l0.044-0.045l0.454,0.289l-0.053,0.054l-0.096-0.064L5.98,19.533l0.064,0.096l-0.053,0.055L5.703,19.228z M5.832,19.312L5.832,19.312l0.107,0.161l0.053-0.054L5.832,19.312z"/>
        <path d="M5.944,19.087l-0.062,0.062l-0.05-0.051l0.176-0.176l0.05,0.049l-0.061,0.062l0.32,0.32l-0.053,0.054L5.944,19.087z"/>
        <path d="M6.148,18.883l-0.062,0.062l-0.05-0.05l0.176-0.177l0.05,0.051L6.2,18.83l0.321,0.322l-0.053,0.053L6.148,18.883z"/>
        <path d="M6.267,18.663l0.158-0.158l0.05,0.051L6.37,18.66l0.108,0.107l0.092-0.091l0.05,0.05L6.528,18.82l0.108,0.107l0.106-0.104l0.053,0.053l-0.159,0.158L6.267,18.663z"/>
        <path d="M6.492,18.439l0.085-0.087c0.064-0.062,0.131-0.057,0.204,0.017c0.042,0.042,0.062,0.085,0.047,0.139l0.227,0.111l-0.057,0.058L6.79,18.567l-0.031,0.031l0.158,0.158L6.864,18.81L6.492,18.439z M6.711,18.552l0.03-0.029c0.037-0.036,0.022-0.063-0.015-0.101c-0.038-0.038-0.064-0.052-0.104-0.014l-0.027,0.027L6.711,18.552z"/>
        <path d="M6.743,18.188l0.051-0.051l0.305,0.145L7.1,18.279l-0.224-0.225l0.053-0.054l0.372,0.372l-0.05,0.05l-0.305-0.142H6.945l0.223,0.225l-0.053,0.053L6.743,18.188z"/>
    </g>
    <g fill="#fcc332">
        <path d="M4.639,20.368L4.577,20.43l-0.05-0.051l0.176-0.176l0.05,0.05l-0.062,0.062l0.321,0.319L4.959,20.69L4.639,20.368z"/>
        <path d="M4.757,20.149l0.159-0.158l0.05,0.049l-0.105,0.104l0.109,0.108l0.092-0.092l0.05,0.051L5.02,20.303l0.109,0.11l0.105-0.105l0.053,0.055L5.129,20.52L4.757,20.149z"/>
        <path d="M5.207,20.054l-0.246-0.107l0.056-0.059l0.15,0.072l-0.069-0.151l0.057-0.056l0.105,0.246l0.271,0.117l-0.057,0.058l-0.171-0.079l0.079,0.172l-0.056,0.057L5.207,20.054z"/>
        <path d="M5.3,19.706l-0.061,0.061l-0.05-0.05l0.176-0.175l0.049,0.05l-0.061,0.062l0.321,0.319L5.62,20.027L5.3,19.706z"/>
        <path d="M5.419,19.486l0.08-0.079c0.03-0.029,0.058-0.044,0.095-0.044c0.038,0.001,0.066,0.02,0.111,0.063c0.032,0.031,0.051,0.057,0.059,0.089c0.01,0.039,0,0.077-0.039,0.116l-0.027,0.026l0.145,0.146L5.79,19.857L5.419,19.486z M5.649,19.61l0.026-0.025c0.043-0.044,0.018-0.07-0.019-0.107c-0.035-0.034-0.064-0.063-0.105-0.021l-0.028,0.027L5.649,19.61z"/>
        <path d="M5.703,19.204l0.044-0.045l0.454,0.289l-0.053,0.053l-0.096-0.065L5.98,19.509l0.064,0.097l-0.053,0.054L5.703,19.204z M5.832,19.289L5.832,19.289l0.107,0.161l0.053-0.053L5.832,19.289z"/>
        <path d="M5.944,19.062l-0.062,0.062l-0.05-0.05l0.176-0.178l0.05,0.051L5.997,19.01l0.32,0.321l-0.053,0.053L5.944,19.062z"/>
        <path d="M6.148,18.858L6.086,18.92l-0.05-0.05l0.176-0.176l0.05,0.05L6.2,18.806l0.321,0.32l-0.053,0.053L6.148,18.858z"/>
        <path d="M6.267,18.639l0.158-0.157l0.05,0.05L6.37,18.636l0.108,0.109l0.092-0.092l0.05,0.05l-0.092,0.092l0.108,0.108l0.106-0.104l0.053,0.052l-0.159,0.16L6.267,18.639z"/>
        <path d="M6.492,18.415l0.085-0.086c0.064-0.062,0.131-0.057,0.204,0.016c0.042,0.043,0.062,0.086,0.047,0.14l0.227,0.11l-0.057,0.058L6.79,18.544l-0.031,0.031l0.158,0.158l-0.053,0.054L6.492,18.415z M6.711,18.527l0.03-0.03c0.037-0.037,0.022-0.063-0.015-0.1c-0.038-0.039-0.064-0.053-0.104-0.015l-0.027,0.029L6.711,18.527z"/>
        <path d="M6.743,18.164l0.051-0.052l0.305,0.145L7.1,18.256l-0.224-0.227l0.053-0.054l0.372,0.373l-0.05,0.051l-0.305-0.143l-0.001,0.001l0.223,0.223l-0.053,0.056L6.743,18.164z"/>
    </g>
    <rect fill="#3d2812" x="3.59" y="22.804" transform="matrix(0.7084 -0.7058 0.7058 0.7084 -15.2101 9.49)" width="0.578" height="0.696"/>
    <rect fill="#e2d9ac" x="1.68" y="21.058" transform="matrix(-0.7071 -0.7071 0.7071 -0.7071 -11.6334 37.8756)" width="0.696" height="0.579"/>
    <rect fill="#fcc332" x="2.674" y="21.325" transform="matrix(-0.708 0.7063 -0.7063 -0.708 20.7851 35.9354)" width="0.578" height="1.881"/>
    <path fill="#473015" d="M17.887,9.135l-0.409-0.408L4.562,21.643c-0.492,0.491-0.737,1.065-0.737,1.065L4.316,23.2c0,0,0.164-0.655,0.655-1.147L17.887,9.135z"/>
    <path fill="#ede5b2" d="M16.065,7.313L3.148,20.23c-0.491,0.49-1.146,0.654-1.146,0.654l0.491,0.491c0,0,0.573-0.245,1.065-0.737L16.474,7.721L16.065,7.313z"/>
    <path d="M36.349,8.12c0.034-0.218,0.058-0.456,0.074-0.72l0.048-0.792c0.016-0.269,0.03-0.531,0.041-0.785c0.011-0.256,0.016-0.486,0.016-0.688V5.02L26.999,5v0.227c0,0.203,0.005,0.345,0.016,0.604c0.011,0.258,0.024,0.522,0.04,0.791c0.016,0.274,0.034,0.538,0.056,0.797c0.021,0.26,0.049,0.494,0.082,0.702l0.014,0.093h0.568l0.849-2.177h2.23v8.943c-0.245,0.039-0.439,0.086-0.656,0.141c-0.242,0.062-0.484,0.135-0.722,0.219l-0.075,0.024V16h4.723v-0.631l-0.068-0.028c-0.23-0.094-0.47-0.166-0.715-0.221c-0.216-0.044-0.446-0.091-0.691-0.136l-0.001-8.947H34.9l0.842,2.177h0.591L36.349,8.12z"/>
    <path d="M42,8.42c-0.277-0.238-0.598-0.411-0.955-0.516c-0.351-0.104-0.711-0.154-1.072-0.154c-1.116,0-1.994,0.366-2.607,1.094c-0.611,0.723-0.922,1.784-0.922,3.156c0,0.646,0.081,1.231,0.241,1.745c0.161,0.518,0.4,0.969,0.713,1.342c0.313,0.375,0.708,0.664,1.176,0.865c0.464,0.201,1.007,0.299,1.613,0.299c0.28,0,0.557-0.035,0.826-0.104c0.27-0.073,0.523-0.168,0.75-0.281c0.227-0.124,0.434-0.264,0.611-0.428c0.184-0.172,0.32-0.353,0.407-0.545l0.034-0.072l-0.331-0.393l-0.076,0.068c-0.169,0.158-0.432,0.29-0.779,0.391c-0.354,0.102-0.706,0.153-1.05,0.153c-0.417,0-0.786-0.08-1.094-0.233c-0.308-0.156-0.566-0.371-0.765-0.642c-0.204-0.271-0.357-0.593-0.46-0.961c-0.092-0.337-0.143-0.817-0.153-1.205h4.71h0.017c0.042-0.216,0.07-0.396,0.084-0.581c0.016-0.188,0.024-0.372,0.024-0.554c0-0.581-0.088-1.08-0.261-1.478C42.509,8.989,42.279,8.664,42,8.42z M39.913,8.678c0.482,0,0.826,0.178,1.05,0.549c0.23,0.379,0.347,0.897,0.347,1.545c0,0.082-0.003,0.166-0.008,0.248c-0.002,0.061-0.006-0.074-0.011-0.02h-3.129c0.064-0.924,0.238-1.391,0.514-1.758C38.958,8.86,39.363,8.678,39.913,8.678z"/>
    <path d="M50.957,15.182c-0.131-0.057-0.263-0.107-0.4-0.156l-2.373-3.304l2.046-2.728c0.374-0.114,0.664-0.239,0.863-0.377l0.049-0.034V8h-2.797v0.576l0.042,0.035c0.153,0.126,0.371,0.234,0.664,0.342l-1.406,2.077l-1.433-2.076c0.095-0.034,0.185-0.077,0.268-0.124c0.124-0.066,0.248-0.146,0.371-0.229l0.05-0.035V8.001h-3.323v0.583l0.051,0.034c0.127,0.086,0.253,0.157,0.375,0.216c0.112,0.059,0.238,0.105,0.375,0.158l2.248,3.039l-2.229,2.99c-0.287,0.076-0.575,0.199-0.858,0.375l-0.054,0.031V16h2.858v-0.572l-0.055-0.033c-0.125-0.073-0.251-0.141-0.377-0.205c-0.087-0.043-0.179-0.086-0.277-0.125l1.563-2.297l1.548,2.297c-0.083,0.037-0.166,0.076-0.249,0.121c-0.125,0.067-0.259,0.141-0.405,0.229l-0.057,0.031V16h3.385v-0.564L51.37,15.4C51.24,15.311,51.102,15.234,50.957,15.182z"/>
    <path d="M56.865,14.875c-0.186,0.071-0.418,0.118-0.686,0.144c-0.274,0.026-0.506,0.039-0.688,0.039c-0.362,0-0.625-0.113-0.8-0.347c-0.18-0.235-0.271-0.655-0.271-1.246V9.083h2.321V8.04H54.42V6h-0.493l-0.042,0.01c-0.175,0.084-0.354,0.17-0.535,0.26c-0.188,0.09-0.354,0.196-0.494,0.315l-0.041,0.033v1.292c-0.413,0.109-0.811,0.291-1.188,0.538l-0.049,0.034v0.6h1.237v4.816c0,0.816,0.174,1.42,0.518,1.791c0.345,0.371,0.847,0.561,1.492,0.561c0.244,0,0.487-0.033,0.724-0.096c0.23-0.063,0.447-0.143,0.645-0.242c0.193-0.096,0.369-0.198,0.523-0.303c0.155-0.109,0.279-0.213,0.367-0.313l0.053-0.06l-0.184-0.396L56.865,14.875z"/>
    <path d="M62.426,7.75c-0.621,0-1.133,0.166-1.521,0.498c-0.284,0.236-0.522,0.54-0.711,0.895V7.75h-0.509c-0.334,0.053-0.678,0.124-1.022,0.213c-0.351,0.088-0.696,0.207-1.03,0.35l-0.063,0.031v0.58L58.59,9.05v8.987c-0.312,0.085-0.633,0.207-0.959,0.36l-0.062,0.029v0.574h3.646v-0.566l-0.053-0.032c-0.191-0.117-0.375-0.205-0.547-0.267c-0.139-0.048-0.281-0.085-0.421-0.107v-2.193c0.208,0.083,0.403,0.145,0.585,0.184c0.222,0.047,0.531,0.072,0.918,0.072c0.557,0,1.072-0.101,1.533-0.304c0.461-0.197,0.859-0.49,1.184-0.86c0.323-0.373,0.575-0.832,0.75-1.373c0.174-0.537,0.26-1.143,0.26-1.803c0-1.395-0.263-2.421-0.785-3.051C64.116,8.069,63.37,7.75,62.426,7.75z M63.729,11.751c0,0.505-0.051,0.971-0.151,1.389c-0.101,0.414-0.244,0.781-0.429,1.086c-0.182,0.306-0.403,0.545-0.661,0.709c-0.255,0.162-0.546,0.246-0.866,0.246c-0.363,0-0.66-0.026-0.883-0.084c-0.199-0.047-0.38-0.115-0.544-0.207v-4.256c0.12-0.525,0.321-0.945,0.603-1.248c0.277-0.296,0.658-0.448,1.133-0.448c0.33,0,0.612,0.068,0.838,0.204c0.227,0.133,0.41,0.326,0.55,0.569c0.143,0.252,0.247,0.552,0.312,0.894C63.695,10.95,63.729,11.337,63.729,11.751z"/>
    <path d="M72.364,14.471c-0.01-0.162-0.015-0.363-0.015-0.59c0-0.537,0.013-1.102,0.038-1.678c0.024-0.586,0.039-1.201,0.039-1.827c0-0.301-0.027-0.604-0.079-0.907c-0.056-0.31-0.17-0.595-0.342-0.855c-0.174-0.255-0.428-0.464-0.755-0.624C70.928,7.83,70.493,7.75,69.959,7.75c-0.588,0-1.132,0.069-1.613,0.211c-0.482,0.136-0.925,0.333-1.319,0.578l-0.061,0.035l0.006,0.071c0.021,0.332,0.069,0.674,0.147,1.018c0.078,0.338,0.17,0.67,0.272,0.988l0.025,0.076h0.539l0.73-1.918c0.152-0.06,0.307-0.095,0.458-0.109c0.176-0.018,0.337-0.023,0.476-0.023c0.282,0,0.513,0.065,0.684,0.194c0.17,0.127,0.304,0.31,0.393,0.546c0.092,0.247,0.146,0.547,0.16,0.893c0.014,0.328,0.004,0.698-0.03,1.107c-0.68,0.039-1.283,0.102-1.804,0.175c-0.548,0.082-1.016,0.214-1.393,0.397c-0.386,0.188-0.681,0.447-0.879,0.776c-0.201,0.326-0.302,0.75-0.302,1.254c0,0.662,0.209,1.207,0.624,1.619c0.411,0.404,0.948,0.611,1.595,0.611c0.339,0,0.645-0.055,0.912-0.166c0.264-0.109,0.498-0.252,0.694-0.428c0.199-0.176,0.361-0.381,0.483-0.605c0.053-0.096,0.097-0.188,0.136-0.285c0.009,0.193,0.019,0.377,0.031,0.551c0.021,0.303,0.087,0.584,0.194,0.838l0.027,0.062l0.468-0.002c0.289-0.051,0.595-0.133,0.909-0.238c0.314-0.104,0.606-0.23,0.867-0.365l0.059-0.035v-0.504l-1.062-0.16C72.381,14.758,72.371,14.609,72.364,14.471z M70.376,14.539c-0.123,0.133-0.279,0.258-0.463,0.355c-0.179,0.096-0.39,0.145-0.628,0.145c-0.363,0-0.639-0.109-0.847-0.336c-0.203-0.225-0.304-0.551-0.304-0.967c0-0.244,0.036-0.469,0.112-0.656c0.071-0.182,0.207-0.336,0.4-0.461c0.203-0.126,0.489-0.223,0.852-0.285c0.35-0.058,0.799-0.088,1.335-0.092v1.521c-0.027,0.094-0.081,0.209-0.153,0.346C70.604,14.252,70.502,14.396,70.376,14.539z"/>
    <path d="M79.182,14.875c-0.188,0.071-0.418,0.118-0.687,0.144c-0.274,0.026-0.506,0.039-0.687,0.039c-0.363,0-0.625-0.113-0.801-0.347c-0.18-0.235-0.271-0.655-0.271-1.246V9.083h2.321V8.04h-2.32V6h-0.493l-0.043,0.01c-0.175,0.084-0.354,0.17-0.534,0.26c-0.189,0.09-0.354,0.196-0.494,0.315l-0.041,0.033v1.292c-0.412,0.109-0.811,0.291-1.186,0.538l-0.053,0.034v0.6h1.238v4.816c0,0.816,0.176,1.42,0.52,1.791c0.345,0.371,0.846,0.561,1.49,0.561c0.246,0,0.488-0.033,0.724-0.096c0.231-0.063,0.448-0.143,0.644-0.242c0.195-0.096,0.373-0.198,0.524-0.303c0.155-0.109,0.278-0.213,0.369-0.313l0.051-0.06l-0.185-0.396L79.182,14.875z"/>
    <path d="M84.908,14.875c-0.186,0.071-0.417,0.118-0.686,0.144c-0.274,0.026-0.506,0.039-0.688,0.039c-0.361,0-0.624-0.113-0.8-0.347c-0.181-0.235-0.271-0.655-0.271-1.246V9.083h2.321V8.04h-2.321V6h-0.492L81.93,6.01c-0.176,0.084-0.355,0.17-0.535,0.26c-0.188,0.09-0.354,0.196-0.494,0.315l-0.041,0.033v1.292c-0.412,0.109-0.811,0.291-1.186,0.538l-0.052,0.034v0.6h1.237v4.816c0,0.816,0.175,1.42,0.519,1.791c0.345,0.371,0.849,0.561,1.491,0.561c0.245,0,0.488-0.033,0.723-0.096c0.231-0.063,0.448-0.143,0.646-0.242c0.194-0.096,0.372-0.198,0.524-0.303c0.153-0.109,0.278-0.213,0.366-0.313l0.052-0.06l-0.185-0.396L84.908,14.875z"/>
    <path d="M91.321,8.42c-0.277-0.238-0.598-0.411-0.954-0.516c-0.353-0.104-0.712-0.154-1.072-0.154c-1.117,0-1.993,0.366-2.608,1.094c-0.611,0.723-0.921,1.784-0.921,3.156c0,0.646,0.08,1.231,0.241,1.745c0.158,0.518,0.398,0.969,0.712,1.342c0.312,0.375,0.707,0.664,1.175,0.865c0.465,0.201,1.008,0.299,1.614,0.299c0.279,0,0.558-0.035,0.826-0.104c0.271-0.073,0.522-0.168,0.749-0.281c0.229-0.124,0.434-0.264,0.613-0.428c0.182-0.172,0.317-0.354,0.405-0.545l0.033-0.072l-0.327-0.393l-0.077,0.068c-0.168,0.158-0.43,0.29-0.778,0.391c-0.352,0.102-0.706,0.153-1.049,0.153c-0.419,0-0.786-0.08-1.095-0.233c-0.307-0.156-0.566-0.371-0.767-0.642c-0.202-0.271-0.355-0.593-0.459-0.961c-0.092-0.338-0.144-0.817-0.151-1.205h4.709h0.017c0.041-0.216,0.07-0.396,0.085-0.581s0.023-0.371,0.023-0.554c0-0.581-0.089-1.08-0.261-1.478C91.831,8.989,91.603,8.664,91.321,8.42z M89.236,8.678c0.481,0,0.825,0.178,1.05,0.549c0.229,0.379,0.347,0.897,0.347,1.545c0,0.082-0.004,0.166-0.008,0.248c-0.004,0.061-0.008-0.074-0.014-0.02h-3.13c0.066-0.924,0.239-1.391,0.515-1.758C88.279,8.86,88.687,8.678,89.236,8.678z"/>
    <path d="M98.721,8.283c-0.059-0.168-0.127-0.323-0.201-0.464l-0.027-0.051l-0.053-0.006c-0.293-0.031-0.58,0-0.856,0.094c-0.272,0.086-0.526,0.225-0.755,0.396s-0.434,0.366-0.605,0.583C96.116,8.961,96.027,9.09,95.95,9.22V7.762l-0.509,0.002c-0.324,0.053-0.666,0.125-1.014,0.209c-0.355,0.092-0.705,0.215-1.039,0.36l-0.064,0.028v0.589l1.021,0.123v5.952c-0.141,0.037-0.279,0.078-0.418,0.125c-0.172,0.05-0.356,0.133-0.547,0.238l-0.056,0.034v0.578h3.864v-0.578l-0.057-0.034c-0.216-0.117-0.431-0.207-0.644-0.266c-0.179-0.05-0.361-0.088-0.539-0.109v-4.52c0.126-0.348,0.271-0.615,0.428-0.792c0.149-0.169,0.276-0.288,0.375-0.347h2.138V8.832l-0.004-0.037C98.832,8.618,98.778,8.448,98.721,8.283z"/>
    <path d="M107.95,15.396c-0.256-0.176-0.575-0.301-0.954-0.377v-3.865c0-0.655-0.058-1.203-0.17-1.635c-0.117-0.44-0.288-0.797-0.51-1.06c-0.225-0.267-0.51-0.45-0.846-0.555c-0.326-0.104-0.701-0.154-1.113-0.154c-0.589,0-1.097,0.183-1.515,0.541c-0.309,0.267-0.565,0.572-0.767,0.92V7.75l-0.502,0.002c-0.377,0.074-0.742,0.159-1.083,0.253c-0.349,0.094-0.659,0.198-0.926,0.315L99.5,8.35v0.588l1.003,0.124v5.965c-0.386,0.109-0.702,0.23-0.943,0.359l-0.06,0.033v0.58h3.488v-0.574l-0.052-0.031c-0.275-0.181-0.565-0.305-0.858-0.375v-4.455c0.066-0.201,0.157-0.405,0.271-0.592c0.115-0.191,0.255-0.371,0.414-0.522c0.158-0.153,0.341-0.275,0.546-0.363c0.205-0.09,0.431-0.134,0.669-0.134c0.55,0,0.917,0.204,1.125,0.628c0.211,0.44,0.32,1.054,0.32,1.823v3.627c-0.299,0.099-0.58,0.221-0.838,0.355l-0.059,0.032v0.581H108v-0.573L107.95,15.396z"/>
</g>
<g id="sprite-text" fill="#333333">
    <polygon points="123,7 125,5 127,7 125,9"/>
    <polygon points="116,18 113,19 114,16 122,8 124,10"/>
</g>
<g id="sprite-html" fill="#333333">
    <polygon points="142.5,7.5 141,6 135,12 141,18 142.5,16.5 138,12"/>
    <polygon points="146,16.5 147.5,18 153.5,12 147.5,6 146,7.5 150.5,12"/>
</g>
<g id="sprite-preview" fill="#333333">
    <path fill="#333333" d="M234,17c0-1,3-6,8-6s8,5,8,6s-3,6-8,6S234,18,234,17z M242,21c2.2,0,4-1.8,4-4s-1.8-4-4-4s-4,1.8-4,4S239.8,21,242,21z"/>
    <circle fill="#333333" cx="242" cy="17" r="2"/>
</g>
</svg>
