<svg viewBox="0 0 108 24" width="108" height="24" xmlns="http://www.w3.org/2000/svg"><linearGradient id="a" gradientTransform="matrix(1 0 0 -1 0 23.8898)" gradientUnits="userSpaceOnUse" x1="11.7863" x2="17.7203" y1="6.1635" y2="12.0975"><stop offset=".125" stop-color="#7b6c35"/><stop offset=".875" stop-color="#b9aa69"/></linearGradient><linearGradient id="b" gradientTransform="matrix(1 0 0 -1 0 23.8898)" gradientUnits="userSpaceOnUse" x1="11.7824" x2="17.6174" y1="6.1642" y2="12.0002"><stop offset="0" stop-color="#2b2414"/><stop offset=".75" stop-color="#624e22"/></linearGradient><linearGradient id="c" gradientTransform="matrix(1 0 0 -1 0 23.8898)" gradientUnits="userSpaceOnUse" x1="16.4433" x2="12.3613" y1="10.8305" y2="6.7485"><stop offset=".5" stop-color="#2d2400"/><stop offset=".875" stop-color="#211700"/></linearGradient><linearGradient id="d" gradientTransform="matrix(1 0 0 -1 0 23.8898)" gradientUnits="userSpaceOnUse" x1="8.5332" x2="15.7633" y1="15.353" y2="8.123"><stop offset="0" stop-color="#fff"/><stop offset="1" stop-color="#666"/></linearGradient><linearGradient id="e" gradientTransform="matrix(1 0 0 -1 0 23.8898)" gradientUnits="userSpaceOnUse" x1="-2.6845" x2="13.4195" y1="10.4053" y2="26.5093"><stop offset="0" stop-color="#0a0a0a"/><stop offset=".5" stop-color="#0f0f0f"/><stop offset="1" stop-color="#1a1a1a"/></linearGradient><linearGradient id="f" gradientTransform="matrix(1 0 0 -1 0 23.8898)" gradientUnits="userSpaceOnUse" x1="4.9595" x2="12.1895" y1="11.7793" y2="4.5493"><stop offset="0" stop-color="#999"/><stop offset="1" stop-color="#1a1a1a"/></linearGradient><linearGradient id="g" gradientTransform="matrix(1 0 0 -1 0 23.8898)" gradientUnits="userSpaceOnUse" x1="12.109" x2="19.339" y1="18.9298" y2="11.6998"><stop offset="0" stop-color="#ccc"/><stop offset="1" stop-color="#333"/></linearGradient><linearGradient id="h" gradientTransform="matrix(1 0 0 -1 0 23.8898)" gradientUnits="userSpaceOnUse" x1="37.001" x2="52.55" y1="18.5893" y2="18.5893"><stop offset=".125" stop-color="#cdcdcb"/><stop offset=".875" stop-color="#a09ea1"/></linearGradient><path d="m23 23c-.8.8-1.7 1.2-2 .9-.1-.1 0 0 0 0-.1-.1-2.2-2.5-4.7-4.9-2.2-2.2-4.9-4.5-6.5-6.1s-4.3-4.6-4.3-4.6l-.3-.4 1.3-1.4 1.4-1.3.2.2s3 2.7 4.6 4.3 3.9 4.3 6.1 6.5c2.5 2.5 4.9 4.6 5 4.7.4.4.1 1.2-.8 2.1z"/><path d="m12.6 9.9c-1.6-1.6-4.7-4.3-4.7-4.3l-1.2 1.1-1.1 1.2s2.7 3 4.3 4.6 4.2 3.9 6.5 6.1c2.5 2.5 4.7 4.9 4.7 4.9s.5.2 1.6-.9.9-1.6.9-1.6-2.5-2.2-5-4.7c-2.1-2.1-4.4-4.8-6-6.4z" fill="url(#a)"/><path d="m22.5 23c-.1 0-.2-.1-.3-.2s-2.4-2.5-4.9-4.9c-.9-.9-2.7-2.6-3-2.8-.4-.4-.4-.8-.2-1.2s.8-.9 1.2-.9l-1.1-1.2c-1.1.6-2.3 1.3-2.5 1.1-.9-.9-3.1-3.1-4-4-.3-.4-.2-.8 0-1.2.3-.5.9-1 1.3-1.1-.6-.6-1.1-1-1.1-1l-1.2 1.1-1.1 1.2s2.7 3 4.3 4.6 4.2 3.9 6.5 6.1c2.5 2.5 4.7 4.9 4.7 4.9.1.2.5.4 1.4-.5z" fill="url(#b)"/><path d="m18.2 16.8s-.3-.4-.7-.7c-.4-.4-.8-.8-.8-.8s.5.5.7.8c.2.2.8.7.8.7zm-5.7-5.8-.9-1s.5.7.9 1c.2.4.4.3 0 0zm-.8 1.4c-.6-.6-1.5-1.4-3-2.9-1.2-1.1-2.1-2-2.4-2.3.4.4 2.1 2 3.1 3 1.1 1.1 2.9 2.8 3.4 3.2s1.4 1.2 2.1 1.9 1.5 1.4 1.5 1.4-1.2-1.2-1.8-1.8-2.2-1.9-2.9-2.5zm-.4-2.6-1.8-1.8-2-2c.2.3 1.1 1.2 1.9 2 .9 1 1.9 1.8 1.9 1.8zm-2.2-1.3.8.8c.3.3.9 1 1.1 1.1.6.6 1 1 1.8 1.7.7.7 2.5 2.6 2.9 3 .6.6 1.4 1.5 1.9 1.9l1.9 1.9 1.6 1.6c.4.4 1.6 1.4 1.6 1.4s-1.9-1.8-2.5-2.5c-.7-.7-1.5-1.4-1.9-1.8-.6-.6-1.5-1.6-2-2.1s-.6-.6-.7-.7-1.1-1.2-1.4-1.5-2.7-2.7-3.1-3.1-.9-.9-1.1-1.1c-.4-.2-.7-.6-.9-.8s-.6-.5-.8-.7-.8-.8-1.2-1.2l-.2.1c.6.6 1 .9 1.3 1.1zm1.4 2.5c.5.5 2.4 2.2 2.4 2.2s-1.3-1.2-2-1.9c-.6-.7-1.5-1.5-2.2-2.3-.7-.7-1.8-1.8-2.1-2.1l-.1.1c.4.4 1.9 1.8 2.3 2.2.5.5 1.3 1.4 1.7 1.8zm9.7 8.9c-.5-.5-.9-.9-1.4-1.3-.4-.4-1.6-1.7-1.6-1.7s1.2 1.4 1.7 1.9.8.7 1.3 1.2 1.4 1.4 1.7 1.7.8.7 1 .9c0 0 0 0 .1-.1-.3-.2-1.1-1-1.5-1.4-.5-.3-.9-.7-1.3-1.2zm1.6.5c-.3-.3-1.1-1.1-1.3-1.3s-.8-.7-.8-.7.4.5.5.6.8.7 1.3 1.2c.4.4 1.5 1.6 1.9 1.9 0-.1.1-.1.1-.2-.3-.3-1.5-1.3-1.7-1.5zm-11.8-10.5c-.5-.6-1.1-1.3-1.3-1.5-.5-.5-1.5-1.4-1.9-1.7h-.1c.4.4 1.5 1.4 2.2 2.1.4.5 1.1 1.1 1.1 1.1zm-.4-.2c.6.6 4.7 4.6 5.2 5.1s1.1 1.2 1.4 1.5 1.2 1.2 1.2 1.2-1.2-1.3-1.8-2c-.7-.7-2.3-2.4-3.1-3.1-.5-.6-2.9-2.7-2.9-2.7z" fill="#6b5600"/><path d="m16.3 18c-.8-.8-2.2-2.2-2.9-2.8-.1-.1-1.4-1.4-1.7-1.6-.3-.3-2.7-2.4-3.1-2.9s-.9-1-1.1-1.2-.5-.7-.7-.9-.5-.5-.8-.7c-.1-.1-.1-.1-.1-.2s.1.1.2.2c.3.3.6.7.7.8.2.1.6.6.9.9s.9.9 1 1.1c.6.6 1.1.9 1.8 1.7l2.8 2.8c.6.6 1.5 1.4 1.9 1.8l1.9 1.9c.5.5 1.1 1.2 1.6 1.6.4.4 1.6 1.5 1.6 1.5-1.8-1.8-1.7-1.9-2.4-2.5-.6-.5-1.2-1.1-1.6-1.5zm4 3.2c-.6-.6-1.1-1.1-1.7-1.7s-1.4-1.3-2-1.9-2.2-2.2-2.2-2.2 1.6 1.7 2.2 2.3l1.9 1.9 2.3 2.3c.4.4 1.4 1.3 1.4 1.3l.2-.1s-1.2-1-2.1-1.9zm-12.4-11.6c.5.6 3.9 3.7 4.4 4.2s2.7 2.5 2.7 2.5-1.5-1.5-2.2-2.2c-.7-.8-3.4-3.1-4.2-4s-2.3-2.4-2.3-2.4l-.1.2s1.2 1.1 1.7 1.7zm13.4 13.5c-.4-.4-.8-.8-.8-.8s.5.6.7.8l.4.4s.1 0 .1-.1c0 .1-.1 0-.4-.3zm-8.8-10.3.4.3zm1.6 1.7v-.1c-.5-.4-1.2-1-1.7-1.5 0 0 0 0-.1 0 .2.2.4.3.5.4.2.3.7.8 1.3 1.2zm.1-.5-1.3-1.3-.1.1c.5.4.9.9 1.4 1.2-.1.1-.1 0 0 0zm-5.8-7.1-.9-.9c.1.2.5.5.9.9zm5.9 6.8c-.2-.2-.3-.3-.4-.4s-.4-.4-.8-.8c0 0 0 0-.1 0 .5.4.9.9 1.3 1.2zm-6.7-5.8-1-1-.1.1 1.1 1s0 0 0-.1zm.4-.6c-.3-.3-.7-.6-.9-.9l-.2.1c.5.5.8.7 1.1.8-.1.1 0 0 0 0zm-.5 1c-.5-.6-.9-.9-1.1-1.1l-.1.1c.2.2.7.6 1.3 1.1-.1 0-.1-.1-.1-.1zm.2-.6c0-.1.1-.1 0 0-.3-.5-.7-.8-.9-1 .1.2.5.6.9 1z" fill="url(#c)"/><path d="m7.7 0s.6.4 1.6 1.4 1.4 1.6 1.4 1.6v.6l-7.2 7.2h-.4s-.8-.7-1.6-1.4c-1.1-1.1-1.5-1.7-1.5-1.7v-.5l7.2-7.2z"/><path d="m7.6.3h-.3l-7 7v.3s.4.5 1.4 1.5 1.5 1.4 1.5 1.4h.3l7-7v-.3s-.4-.5-1.4-1.5-1.5-1.4-1.5-1.4z" fill="url(#d)"/><path d="m7.6.3h-.3l-7 7v.3s.4.5 1.4 1.5 1.5 1.4 1.5 1.4h.3l7-7v-.3s-.4-.5-1.4-1.5-1.5-1.4-1.5-1.4z" fill="url(#d)"/><path d="m10.2 3.4s-2 2.1-3.3 3.5c-1.4 1.4-3.5 3.3-3.5 3.3s-.7-.4-1.6-1.2c-.8-.9-1.2-1.6-1.2-1.6s2-2.1 3.3-3.5c1.4-1.4 3.5-3.3 3.5-3.3s.7.4 1.6 1.2c.8.9 1.2 1.6 1.2 1.6z" fill="url(#e)"/><path d="m3.4 10.2s-.8-.4-1.6-1.2-1.2-1.6-1.2-1.6l-.3-.1v.3s.4.5 1.4 1.5 1.5 1.4 1.5 1.4h.3z" fill="url(#f)"/><path d="m10.5 3.5v-.3s-.4-.5-1.4-1.5-1.5-1.4-1.5-1.4h-.3l.1.3s.7.4 1.6 1.3 1.3 1.6 1.3 1.6z" fill="url(#g)"/><path d="m2.4 22.7c-.7-.7-1.2-1.5-1.2-1.5l.6-.6s.7-.2 1.1-.6l13.4-13.3c.8-.9 1.7-2.7 1.7-2.7l2.3-2.3.7-.5 3 3-.4.6-2.3 2.3s-1.9.9-2.7 1.7l-13.4 13.5c-.4.4-.6 1.1-.6 1.1l-.7.6s-.9-.6-1.5-1.3z"/><path d="m20.5 1.8-2.3 2.3s-.5 2.3-1.4 3.2l-.5.5 1 1 .5-.5c.9-.9 3.2-1.4 3.2-1.4l2.3-2.3z" fill="url(#h)"/><path d="m17.4 8.8.4.4.5-.5c.9-.9 2.8-1.8 2.8-1.8s-2.3.5-3.2 1.4z" fill="#616161"/><path d="m16 7.3.4.4.5-.5c.9-.9 1.4-3.2 1.4-3.2s-1 2-1.8 2.9z" fill="#ebe9e9"/><path d="m16.5 7.7-12.9 12.9c-.5.5-1.1.7-1.1.7l1.3 1.3s.2-.6.7-1.1l13-12.8s-1-1-1-1z" fill="#fc3"/><path d="m1.6 21.3s.6.8 1 1.2c.5.5 1.3 1.1 1.3 1.1s-2.3-2.3-2.3-2.3z" fill="#bfbfbf"/><path d="m23.4 4.6.3-.4-2.7-2.7-.4.3" fill="#ebe9e9"/><path d="m3.4 23.1.4-.4.5.5-.4.4z" fill="#3d2812"/><path d="m2.1 21.8-.5-.5.4-.4.5.5z" fill="#e2d9ac"/><path d="m3.8 22.7-.4.4-1.3-1.3.4-.4z" fill="#fcc332"/><path d="m17.9 9.1-.4-.4-12.9 12.9c-.5.5-.7 1.1-.7 1.1l.5.5s.2-.7.7-1.1z" fill="#473015"/><path d="m16.1 7.3-13 12.9c-.4.5-1.1.7-1.1.7l.5.5s.6-.2 1.1-.7l12.9-13z" fill="#ede5b2"/><path d="m36.3 8.1c0-.2.1-.5.1-.7v-.8c0-.3 0-.5 0-.8s0-.5 0-.7v-.1h-9.4v.2.6.8c0 .3 0 .5.1.8 0 .3 0 .5.1.7v.1h.6l.8-2.2h2.2v9c-.2 0-.4.1-.7.1-.2.1-.5.1-.7.2h-.1v.7h4.7v-.6h-.1c-.2-.1-.5-.2-.7-.2s-.4-.1-.7-.1v-9.1h2.2l.8 2.2zm5.7.3c-.3-.2-.6-.4-1-.5-.3-.1-.7-.2-1.1-.2-1.1 0-2 .4-2.6 1.1s-.9 1.8-.9 3.2c0 .6.1 1.2.2 1.7.2.5.4 1 .7 1.3.3.4.7.7 1.2.9s1 .3 1.6.3c.3 0 .6 0 .8-.1.3-.1.5-.2.8-.3.2-.1.4-.3.6-.4.2-.2.3-.4.4-.5v-.1l-.3-.4-.1.1c-.2.2-.4.3-.8.4s-.7.2-1 .2c-.4 0-.8-.1-1.1-.2-.3-.2-.6-.4-.8-.6-.2-.3-.4-.6-.5-1-.1-.3-.1-.8-.2-1.2h4.7c0-.2.1-.4.1-.6s0-.4 0-.6c0-.6-.1-1.1-.3-1.5.1-.4-.1-.7-.4-1zm-2.1.3c.5 0 .8.2 1 .6s.3.9.3 1.5v.2h-3.1c.1-.9.2-1.4.5-1.8.4-.3.8-.5 1.3-.5zm11.1 6.5c-.1-.1-.3-.1-.4-.2l-2.4-3.3 2-2.7c.4-.1.7-.2.9-.4v-.6h-2.8v.6c.2.1.4.2.7.3l-1.4 2.1-1.4-2c.1 0 .2-.1.3-.1.1-.1.2-.1.4-.2v-.7h-3.3v.6c.1.1.3.2.4.2.1.1.2.1.4.2l2.2 3-2.2 3c-.3.1-.6.2-.9.4h-.1v.6h2.9v-.6h-.1c-.1-.1-.3-.1-.4-.2-.1 0-.2-.1-.3-.1l1.6-2.3 1.5 2.3c-.1 0-.2.1-.2.1-.1.1-.3.1-.4.2h-.1v.6h3.4v-.6c-.1-.1-.2-.2-.3-.2zm5.9-.3c-.2.1-.4.1-.7.1s-.5 0-.7 0c-.4 0-.6-.1-.8-.3s-.3-.7-.3-1.2v-4.4h2.3v-1.1h-2.3v-2h-.5c-.2.1-.4.2-.5.3-.2.1-.4.2-.5.3v1.3c-.5.1-.9.3-1.3.5v.6h1.2v4.8c0 .8.2 1.4.5 1.8s.8.6 1.5.6c.2 0 .5 0 .7-.1s.4-.1.6-.2.4-.2.5-.3c.2-.1.3-.2.4-.3l.1-.1zm5.5-7.2c-.6 0-1.1.2-1.5.5-.3.2-.5.5-.7.9v-1.4h-.5c-.3.1-.7.1-1 .2-.4.1-.7.2-1 .3h-.1v.6l1 .1v9c-.3.1-.6.2-1 .4h-.1v.7h3.6v-.6h-.1c-.2-.1-.4-.2-.5-.3-.1 0-.3-.1-.4-.1v-2.2c.2.1.4.1.6.2.2 0 .5.1.9.1.6 0 1.1-.1 1.5-.3.5-.2.9-.5 1.2-.9s.6-.8.8-1.4c.2-.5.3-1.1.3-1.8 0-1.4-.3-2.4-.8-3.1-.5-.5-1.2-.9-2.2-.9zm1.3 4c0 .5-.1 1-.2 1.4s-.2.8-.4 1.1-.4.5-.7.7-.5.2-.9.2-.7 0-.9-.1c-.2 0-.4-.1-.5-.2v-4.3c.1-.5.3-.9.6-1.2s.7-.4 1.1-.4c.3 0 .6.1.8.2s.4.3.5.6c.1.2.2.6.3.9.3.4.3.7.3 1.1zm8.7 2.8c0-.2 0-.4 0-.6 0-.5 0-1.1 0-1.7s0-1.2 0-1.8c0-.3 0-.6-.1-.9s-.2-.6-.3-.9c-.2-.3-.4-.5-.8-.6-.3-.2-.8-.2-1.3-.2-.6 0-1.1.1-1.6.2s-.9.3-1.3.6h-.1v.1c0 .3.1.7.1 1 .1.3.2.7.3 1v.1h.7l.7-1.9c.2-.1.3-.1.5-.1h.5c.3 0 .5.1.7.2s.3.3.4.5.1.5.2.9v1.1c-.7 0-1.3.1-1.8.2s-1 .2-1.4.4-.7.4-.9.8c-.2.3-.3.8-.3 1.3 0 .7.2 1.2.6 1.6s.9.6 1.6.6c.3 0 .6-.1.9-.2s.5-.3.7-.4c.2-.2.4-.4.5-.6.1-.1.1-.2.1-.3v.6c0 .3.1.6.2.8v.1h.5c.3-.1.6-.1.9-.2s.6-.2.9-.4h.1v-.5l-1.1-.2c-.1-.3-.1-.5-.1-.6zm-2 0c-.1.1-.3.3-.5.4s-.4.1-.6.1c-.4 0-.6-.1-.8-.3s-.3-.6-.3-1c0-.2 0-.5.1-.7s.2-.3.4-.5c.2-.1.5-.2.9-.3.3-.1.8-.1 1.3-.1v1.5c0 .1-.1.2-.2.3-.1.3-.2.5-.3.6zm8.8.4c-.2 0-.4.1-.7.1s-.5 0-.7 0c-.4 0-.6-.1-.8-.3s-.3-.7-.3-1.2v-4.4h2.3v-1.1h-2.3v-2h-.5c-.2.1-.4.2-.5.3-.2.1-.4.2-.5.3v1.3c-.4.1-.8.3-1.2.5h-.1v.6h1.2v4.8c0 .8.2 1.4.5 1.8s.8.6 1.5.6c.2 0 .5 0 .7-.1s.4-.1.6-.2.4-.2.5-.3c.2-.1.3-.2.4-.3l.1-.1zm5.7 0c-.2.1-.4.1-.7.1s-.5 0-.7 0c-.4 0-.6-.1-.8-.3s-.3-.7-.3-1.2v-4.4h2.3v-1.1h-2.3v-2h-.4c-.2.1-.4.2-.5.3-.2.1-.4.2-.5.3v1.3c-.4.1-.8.3-1.2.5h-.1v.6h1.2v4.8c0 .8.2 1.4.5 1.8s.8.6 1.5.6c.2 0 .5 0 .7-.1s.4-.1.6-.2.4-.2.5-.3c.2-.1.3-.2.4-.3l.1-.1zm6.4-6.5c-.3-.2-.6-.4-1-.5s-.7-.2-1.1-.2c-1.1 0-2 .4-2.6 1.1s-.9 1.8-.9 3.2c0 .6.1 1.2.2 1.7.2.5.4 1 .7 1.3.3.4.7.7 1.2.9s1 .3 1.6.3c.3 0 .6 0 .8-.1.3-.1.5-.2.8-.3.2-.1.4-.3.6-.4.2-.2.3-.4.4-.5v-.1l-.3-.4-.1.1c-.2.2-.4.3-.8.4-.2.1-.6.1-.9.1-.4 0-.8-.1-1.1-.2-.3-.2-.6-.4-.8-.6-.2-.3-.4-.6-.5-1-.1-.3-.1-.8-.2-1.2h4.7c0-.2.1-.4.1-.6s0-.4 0-.6c0-.6-.1-1.1-.3-1.5 0-.3-.2-.6-.5-.9zm-2.1.3c.5 0 .8.2 1.1.6.2.4.3.9.3 1.5v.2h-3.1c.1-.9.2-1.4.5-1.8.3-.3.7-.5 1.2-.5zm9.5-.4c-.1-.2-.1-.3-.2-.5v-.1h-.1c-.3 0-.6 0-.9.1s-.5.2-.8.4-.4.4-.6.6c0 .2-.1.3-.2.4v-1.4h-.5c-.3.1-.7.1-1 .2-.4.1-.7.2-1 .4h-.1v.6l1 .1v6c-.1 0-.3.1-.4.1-.2.1-.4.1-.5.2h-.1v.6h3.9v-.6h-.1c-.2-.1-.4-.2-.6-.3s-.4-.1-.5-.1v-4.5c.1-.3.3-.6.4-.8s.3-.3.4-.3h2.1v-.6c-.1-.2-.1-.4-.2-.5zm9.2 7.1c-.3-.2-.6-.3-1-.4v-3.9c0-.7-.1-1.2-.2-1.6s-.3-.8-.5-1.1-.5-.4-.8-.6c-.3-.1-.7-.2-1.1-.2-.6 0-1.1.2-1.5.5-.3.3-.6.6-.8.9v-1.3h-.5c-.4.1-.7.2-1.1.3-.3.1-.7.2-.9.3h-.1v.6l1 .1v6c-.4.1-.7.2-.9.4h-.1v.6h3.5v-.6h-.1c-.3-.2-.6-.3-.9-.4v-4.5c.1-.2.2-.4.3-.6s.3-.4.4-.5c.2-.2.3-.3.5-.4h.9c.6 0 .9.2 1.1.6s.3 1.1.3 1.8v3.6c-.3.1-.6.2-.8.4h-.1v.6h3.5z"/></svg>