<?xml version="1.0" encoding="utf-8"?>
<!DOCTYPE svg>
<svg version="1.1" baseProfile="full" xmlns="http://www.w3.org/2000/svg" xmlns:xlink="http://www.w3.org/1999/xlink" x="0px" y="0px" width="264px" height="54px" viewBox="0 0 264 54" enable-background="new 0 0 264 54" xml:space="preserve">
<path d="M12.37,43.66a0.27,0.27,0,0,1,.21-0.1,0.36,0.36,0,0,1,.25.14,0.42,0.42,0,0,1,.13.2,0.22,0.22,0,0,0,0-.05,0.42,0.42,0,0,0-.13-0.2,0.37,0.37,0,0,0-.25-0.14,0.28,0.28,0,0,0-.21.1l-0.18.18,0,0Zm1.6-1.6,0.09,0.08,0,0L14,42l-0.4.4,0,0Zm-0.46.46L13.6,42.6l0,0-0.11-.11-0.4.4,0,0ZM12.07,44L12.16,44l0,0-0.11-.11-0.4.4,0,0Zm2.39-2.39,0.09,0.08,0,0-0.11-.11-0.36.36,0,0Zm-3.17,3.17,0.34,0.16,0-.07-0.31-.14-0.13.13,0,0Zm3.88-3.13a0.11,0.11,0,0,0,0-.12,0.17,0.17,0,0,1,0,.07l-0.07.07-0.23-.23,0,0,0.26,0.26Zm0.12-.87L16,41.07h0l-0.1-.1-0.59-.28-0.11.12,0,0Zm-0.71,1.37-0.22-.22,0,0,0.24,0.25L14.79,42,14.87,42l0,0-0.11-.11Zm-1.13,1.5-0.09.09-0.18-.27-0.06,0h0l0.24,0.36,0.12-.12ZM14,42.31L14.65,43l0,0-0.7-.7Zm1,0.17-0.22-.22,0,0,0.24,0.25,0.24-.24,0.09,0.09,0,0-0.12-.12Zm-2.1.67,0,0,0.08-.08,1,0.63,0,0-1-.65Zm0.62,0.74,0.12,0.18,0,0-0.12-.18Zm0-1.12,0.69,0.7,0,0-0.69-.7Zm1.71-1,0.33,0.33,0,0-0.33-.33Zm0.42-.71h0l0.47,0.47,0,0-0.41-.41Zm-0.16-.56,0,0,0.09-.09,0.81,0.81,0,0-0.83-.84Zm-0.21.7a0.29,0.29,0,0,0-.46,0l-0.19.19,0,0,0.16-.17a0.29,0.29,0,0,1,.46,0,0.3,0.3,0,0,1,.11.31l0.47,0.24,0,0-0.51-.25A0.3,0.3,0,0,0,15.25,41.21ZM11,45.3l0,0,0.24,0.24,0.21-.21,0.09,0.09,0,0-0.11-.11-0.21.21Zm-0.3.24,0,0-0.11-.11-0.4.4,0,0,0.37-.37Zm-0.11.17,0.69,0.69,0,0-0.7-.7Zm1,0.17-0.22-.22,0,0,0.24,0.25,0.24-.24,0.09,0.09,0,0-0.12-.12ZM11.06,45l0.09,0.08,0,0-0.11-.11-0.36.36,0,0Zm1-.76,0.69,0.69,0,0-0.69-.69Zm-0.11,1,0.16,0.35,0,0L12,45.22ZM12.77,44l-0.06.06-0.26-.26,0,0,0.28,0.28,0.06-.06a0.12,0.12,0,0,0,0-.13A0.17,0.17,0,0,1,12.77,44Zm-1.17.38-0.13.13,0,0,0.11-.11L11.84,45l0.57,0.25,0,0-0.61-.27Zm1.23-.15,0.3,0.3,0,0-0.3-.3ZM47,53.63h0ZM37.56,34.51s1,1.16,1.57,1.7,1.73,1.68,1.73,1.68-0.7-.84-1.54-1.68S37.56,34.51,37.56,34.51Zm5,2c-2.88-2.88-5.78-6-8.42-8.91l7.51-7.51a28.16,28.16,0,0,1,6.12-3.91l5.27-5.27L54,9.52,47.18,2.7l-1.37.93L40.53,8.91A28.12,28.12,0,0,1,36.62,15l-7.36,7.36-0.49-.5C26,19.12,21.42,15,19.36,13.12L24.3,8.18V6.93A32.57,32.57,0,0,0,21,3.26,32,32,0,0,0,17.37,0H16.11L0,16.11v1.26A32.13,32.13,0,0,0,3.26,21,45.54,45.54,0,0,0,6.93,24.3H8.18l4.93-4.93c1.85,2.05,6,6.64,8.77,9.4l0.5,0.49L6.61,45a6.38,6.38,0,0,1-2.45,1.34L2.71,47.83a22,22,0,0,0,2.66,3.35h0A26.51,26.51,0,0,0,8.86,54l1.46-1.46a6.38,6.38,0,0,1,1.34-2.45L27.59,34.17c2.87,2.64,6,5.54,8.91,8.43,5.58,5.58,10.48,11,10.62,11.12,0.77,0.77,2.72-.12,4.6-2s2.69-3.9,2-4.56C53.51,46.92,48.16,42.08,42.59,36.5ZM20.24,14.81c2.31,2.1,5.8,5.3,8.06,7.55l0.49,0.5-1.22,1.22L26,22.55s0.72,0.92,1.39,1.68l-0.86.86-2.14-2.16c-1-1-2-2-2.46-2.43s-1.15-1.29-1.59-1.73-1.2-1.12-1.73-1.65l-0.68-.67a6.75,6.75,0,0,1,.87-0.82c0.73,0.78,1.56,1.67,2.36,2.46,2.06,2.05,4.35,4,4.35,4l-4.21-4.21-2.39-2.39a4.28,4.28,0,0,1,1.31-.73h0Zm5.56,11-0.39.39-0.86-.85c-1.48-1.48-3.31-3.39-5.08-5.16l-2.36-2.37a3.86,3.86,0,0,1,.24-0.55c0.9,0.87,1.89,1.82,2.65,2.58,1,1,2.57,2.32,2.57,2.32C21.41,21,20,19.44,19.51,18.95s-1.28-1.21-2-1.89a4.24,4.24,0,0,1,.3-0.41c0.29,0.24.53,0.44,0.73,0.64,0.57,0.57,1.52,1.48,1.85,1.82L22.29,21c0.67,0.67,2.08,2.2,2.43,2.55,0.62,0.62,1.16,1.14,1.71,1.67l-0.48.48c-1.95-1.8-4.32-4-4.32-4ZM12.25,13.67l-1-1-0.18.18L11,12.75l0,0,0.12,0.12,0.18-.18,1,1,0.13-.12,0,0Zm-0.79-1.18,0.15-.15,0,0-0.15.15Zm1.16,0.81-0.35-.8-0.73-.32,0,0,0.68,0.3,0.35,0.8,0.15-.14,0,0Zm-0.68-1.52,0,0,0.18,0.4,0,0Zm1.12,1.08-0.47-.21,0-.09L13,12.8l0.12-.12,0,0Zm0.24-.24-1.1-1.1,0,0,1.07,1.07,0.12-.12,0,0Zm-0.8-1.18,0.08-.08c0.12-.12.21,0,0.31,0.07a0.25,0.25,0,0,1,.12.22,0.45,0.45,0,0,0-.12-0.15c-0.1-.1-0.19-0.19-0.31-0.07l0,0ZM13,12l0.08-.08a0.34,0.34,0,0,0,.11-0.28h0a0.34,0.34,0,0,1-.11.34l0,0ZM8.78,8.78C5.67,11.9,1.25,16.6,1.25,16.6a16.69,16.69,0,0,0,2.81,3.64A16.67,16.67,0,0,0,7.7,23l0.21,0.58H7.14a30.26,30.26,0,0,1-3.41-3.06A30.44,30.44,0,0,1,.67,17.16V16.39L16.39,0.68h0.76a30.13,30.13,0,0,1,3.41,3.06,30.27,30.27,0,0,1,3.06,3.41V7.91L23,7.7a19.66,19.66,0,0,0-2.88-3.57A19.65,19.65,0,0,0,16.6,1.25S11.9,5.67,8.78,8.78ZM17,18.1c1.12,1.07,2.28,2.18,2.78,2.69,1.13,1.13,2.8,3,3.83,4,0.32,0.32.95,0.91,1.66,1.56l-0.24.24c-1.27-1.24-3-2.93-5.45-5.36-1-1-1.87-1.85-2.65-2.6A2.28,2.28,0,0,1,17,18.1Zm0.6,2A2.16,2.16,0,0,1,17,19c1.38,1.33,2.94,2.85,4,4s2.55,2.49,3.9,3.77l-0.36.36ZM10.26,48.69a8.63,8.63,0,0,0-1.66,2.4h0L7.68,52l1.11,1.11A30.92,30.92,0,0,1,5.84,50.7a26,26,0,0,1-2.26-2.79L4.51,47a6.21,6.21,0,0,0,2.58-1.47l29-29,0.07-.07,1-1c1.93-1.93,4.05-6.26,4.05-6.26l5.09-5.09,0.86-.58,6,6-0.58.86h0l-5.09,5.08s-5.25,1.2-7.19,3.13l-1,1h0Zm42.58,0.58c-0.72-.62-3.24-2.82-3.8-3.38L46.14,43c-0.39-.39-1.8-1.49-1.8-1.49s1,1.06,1.24,1.33,1.75,1.5,2.85,2.6c0.95,0.95,3.48,3.52,4.18,4.23a10.71,10.71,0,0,1-.9,1.11c-0.6-.53-2.52-2.21-3.36-3-1-1-1.9-1.82-3-2.88s-2.11-2-3-2.93-3.63-3.75-3.63-3.75,2.75,3.15,3.77,4.17,1.75,1.52,3,2.74,3.05,3.13,3.78,3.86,1.88,1.61,2.36,2l-0.34.35-0.52.5h0a1.18,1.18,0,0,1-.58-0.39c-0.26-.26-5.44-5.52-11-11.1-2.07-2.07-6.17-5.85-6.74-6.35a2,2,0,0,1-.74-1.22c0.61,0.56,1.22,1.14,1.78,1.69,1.6,1.6,3.28,3.08,3.28,3.08s-2.73-2.81-3.94-4c-0.27-.27-0.67-0.63-1.13-1a2,2,0,0,1,.15-0.69l1.57,1.54c1.19,1.19,2.54,2.66,3.24,3.36s2.63,2.69,2.63,2.69-2.6-2.94-4.11-4.45c-0.73-.73-2-2-3.25-3.31L32,31.25c0.05-.08.11-0.17,0.18-0.26,1.37,1.41,2.65,2.73,3.06,3.15,1.37,1.37,3.26,3.35,4.22,4.31s3.15,3.06,4.25,4.16,2.57,2.52,3.55,3.5,3.63,3.23,3.63,3.23-4.22-4.15-5.72-5.66-3.43-3.21-4.36-4.14c-1.31-1.31-3.45-3.61-4.56-4.71s-1.44-1.3-1.68-1.54l-2.31-2.4a4.47,4.47,0,0,1,2.47-1.68c2.35,2.54,4.87,5.27,7.38,7.78,5.58,5.58,11.09,10.58,11.15,10.64S53.51,48.16,52.85,49.27Z"/>
<path d="M92.26,19.092c0.079-0.494,0.137-1.04,0.176-1.635l0.117-1.801c0.037-0.612,0.07-1.21,0.097-1.789c0.026-0.581,0.038-1.104,0.038-1.568v-0.256L70,12v0.51c0,0.464,0.012,0.784,0.038,1.374c0.025,0.59,0.059,1.191,0.096,1.804c0.037,0.614,0.082,1.217,0.134,1.809c0.051,0.588,0.116,1.125,0.193,1.597l0.035,0.213h1.354l2.021-4.954h5.399l0.003,20.332c-0.584,0.091-1.139,0.195-1.653,0.319c-0.573,0.142-1.151,0.305-1.717,0.492l-0.178,0.061V37h11.243v-1.432L86.804,35.5c-0.546-0.212-1.117-0.378-1.703-0.498c-0.511-0.102-1.06-0.206-1.643-0.312l-0.002-20.337h5.358l2.006,4.954h1.406L92.26,19.092z"/>
<path d="M105.97,19.538c-0.615-0.547-1.329-0.945-2.121-1.187c-0.779-0.234-1.58-0.351-2.38-0.351c-2.479,0-4.428,0.844-5.791,2.511c-1.36,1.654-2.051,4.09-2.051,7.237c0,1.476,0.182,2.82,0.535,4c0.357,1.187,0.889,2.224,1.582,3.081c0.695,0.857,1.574,1.525,2.611,1.985c1.032,0.46,2.238,0.687,3.584,0.687c0.62,0,1.238-0.083,1.838-0.238c0.599-0.167,1.158-0.385,1.662-0.652c0.508-0.276,0.966-0.604,1.361-0.98c0.404-0.383,0.708-0.802,0.901-1.243l0.073-0.168l-0.73-0.898l-0.168,0.158c-0.375,0.363-0.956,0.663-1.728,0.894c-0.786,0.233-1.569,0.351-2.334,0.351c-0.929,0-1.747-0.182-2.431-0.539c-0.682-0.353-1.255-0.847-1.703-1.466c-0.449-0.619-0.791-1.361-1.016-2.205c-0.208-0.774-0.322-1.612-0.342-2.498h10.46l0.04-0.212c0.091-0.492,0.155-0.96,0.188-1.388c0.035-0.427,0.052-0.853,0.052-1.272c0-1.333-0.195-2.478-0.579-3.388C107.101,20.838,106.592,20.094,105.97,19.538z M101.334,20.128c1.073,0,1.837,0.409,2.335,1.257c0.511,0.869,0.769,2.059,0.769,3.542c0,0.19-0.005,0.383-0.017,0.575c-0.007,0.134-0.016,0.26-0.027,0.387h-6.952c0.145-2.121,0.529-3.625,1.14-4.464C99.216,20.55,100.116,20.128,101.334,20.128z"/>
<path d="M128.186,35.052c-0.312-0.126-0.629-0.248-0.951-0.365l-5.652-7.849l4.872-6.479c0.891-0.269,1.581-0.57,2.054-0.896l0.116-0.082V18h-6.658v1.364l0.101,0.087c0.363,0.297,0.883,0.561,1.583,0.813l-3.349,4.933l-3.413-4.931c0.227-0.083,0.44-0.18,0.64-0.295c0.292-0.161,0.589-0.351,0.881-0.543l0.12-0.084V18h-7.912v1.385l0.12,0.08c0.305,0.205,0.606,0.378,0.896,0.514c0.268,0.132,0.568,0.254,0.893,0.373l5.354,7.22l-5.309,7.103c-0.682,0.179-1.369,0.478-2.045,0.895l-0.128,0.076V37h6.805v-1.358l-0.132-0.074c-0.3-0.178-0.6-0.341-0.898-0.493c-0.206-0.101-0.426-0.202-0.659-0.295l3.721-5.454l3.686,5.454c-0.196,0.084-0.395,0.177-0.592,0.282c-0.297,0.163-0.618,0.343-0.964,0.542l-0.134,0.076V37h8.059v-1.344l-0.119-0.08C128.86,35.367,128.529,35.19,128.186,35.052z"/>
<path d="M142.252,34.344c-0.443,0.159-0.995,0.274-1.631,0.327c-0.655,0.061-1.205,0.09-1.64,0.09c-0.862,0-1.484-0.261-1.903-0.791c-0.428-0.543-0.643-1.503-0.643-2.858V21.064h5.526v-2.387h-5.526V14h-1.175l-0.103,0.023c-0.419,0.188-0.842,0.385-1.273,0.593c-0.446,0.206-0.842,0.455-1.176,0.726l-0.097,0.075v2.958c-0.983,0.257-1.933,0.672-2.826,1.238l-0.12,0.077v1.373h2.946v11.049c0,1.87,0.415,3.252,1.234,4.101c0.82,0.854,2.015,1.287,3.552,1.287c0.582,0,1.16-0.077,1.72-0.221c0.552-0.148,1.067-0.33,1.534-0.551c0.464-0.222,0.883-0.457,1.249-0.697c0.369-0.249,0.665-0.492,0.874-0.722l0.123-0.132l-0.437-0.908L142.252,34.344z"/>
<path d="M155.489,18c-1.475,0-2.695,0.399-3.619,1.193c-0.671,0.571-1.239,1.296-1.692,2.149V18l-1.211,0.002c-0.793,0.123-1.615,0.295-2.433,0.507c-0.834,0.212-1.659,0.498-2.453,0.846l-0.155,0.069v1.396l2.432,0.297v21.573c-0.737,0.2-1.505,0.491-2.28,0.857l-0.151,0.074V45h8.684v-1.359l-0.125-0.081c-0.455-0.281-0.895-0.491-1.302-0.636c-0.334-0.117-0.671-0.201-1.005-0.255v-5.27c0.498,0.202,0.963,0.351,1.394,0.443c0.53,0.111,1.266,0.174,2.186,0.174c1.329,0,2.558-0.245,3.651-0.73c1.098-0.478,2.045-1.175,2.816-2.067c0.771-0.895,1.371-1.999,1.786-3.292c0.413-1.288,0.623-2.744,0.623-4.326c0-3.349-0.631-5.811-1.872-7.318C159.516,18.766,157.741,18,155.489,18z M158.591,27.6c0,1.208-0.121,2.327-0.36,3.331c-0.237,0.995-0.582,1.875-1.018,2.61c-0.431,0.73-0.963,1.302-1.577,1.7c-0.605,0.389-1.301,0.592-2.062,0.592c-0.861,0-1.568-0.067-2.101-0.201c-0.471-0.115-0.906-0.282-1.295-0.502V24.921c0.284-1.268,0.768-2.276,1.437-2.997c0.66-0.711,1.566-1.072,2.696-1.072c0.788,0,1.459,0.163,1.996,0.485c0.536,0.322,0.978,0.78,1.308,1.367c0.338,0.605,0.588,1.321,0.743,2.146C158.513,25.681,158.591,26.608,158.591,27.6z"/>
<path d="M179.288,33.417c-0.023-0.375-0.036-0.834-0.036-1.357c0-1.227,0.03-2.52,0.091-3.842c0.062-1.345,0.093-2.758,0.093-4.193c0-0.69-0.062-1.39-0.188-2.079c-0.131-0.709-0.406-1.367-0.821-1.96c-0.417-0.587-1.027-1.068-1.813-1.437c-0.779-0.363-1.824-0.547-3.105-0.547c-1.414,0-2.719,0.16-3.877,0.481c-1.158,0.313-2.226,0.764-3.173,1.327l-0.141,0.084l0.012,0.165c0.049,0.762,0.169,1.543,0.356,2.333c0.188,0.777,0.405,1.538,0.653,2.267l0.058,0.174h1.306l1.752-4.4c0.362-0.136,0.733-0.221,1.104-0.254c0.423-0.034,0.805-0.049,1.14-0.049c0.681,0,1.234,0.147,1.644,0.441c0.411,0.292,0.729,0.713,0.942,1.258c0.222,0.564,0.351,1.249,0.387,2.041c0.032,0.751,0.008,1.604-0.072,2.542c-1.632,0.092-3.09,0.233-4.335,0.403c-1.316,0.187-2.445,0.491-3.348,0.908c-0.926,0.432-1.635,1.028-2.114,1.783c-0.483,0.753-0.726,1.721-0.726,2.877c0,1.522,0.504,2.769,1.503,3.713c0.987,0.932,2.278,1.405,3.835,1.405c0.81,0,1.547-0.125,2.188-0.379c0.637-0.253,1.198-0.578,1.672-0.984c0.478-0.403,0.87-0.873,1.164-1.39c0.125-0.219,0.233-0.437,0.322-0.651c0.022,0.441,0.046,0.862,0.076,1.258c0.053,0.692,0.208,1.339,0.466,1.922l0.066,0.149l1.124-0.004c0.694-0.119,1.43-0.307,2.188-0.552c0.757-0.238,1.454-0.523,2.082-0.843l0.141-0.074v-1.158l-2.554-0.366C179.329,34.078,179.307,33.74,179.288,33.417z M174.509,33.569c-0.298,0.315-0.671,0.592-1.109,0.82c-0.432,0.222-0.938,0.334-1.513,0.334c-0.872,0-1.537-0.25-2.032-0.771c-0.487-0.513-0.737-1.261-0.737-2.219c0-0.561,0.093-1.072,0.273-1.503c0.174-0.417,0.498-0.77,0.963-1.055c0.487-0.292,1.177-0.515,2.051-0.655c0.838-0.134,1.917-0.202,3.21-0.212v3.492c-0.07,0.215-0.195,0.477-0.37,0.792C175.059,32.919,174.811,33.248,174.509,33.569z"/>
<path d="M195.388,34.344c-0.445,0.159-0.997,0.274-1.634,0.327c-0.654,0.061-1.204,0.09-1.638,0.09c-0.863,0-1.484-0.261-1.905-0.791c-0.427-0.543-0.643-1.503-0.643-2.858V21.064h5.527v-2.387h-5.527V14h-1.172l-0.104,0.023c-0.417,0.188-0.842,0.385-1.273,0.593c-0.447,0.206-0.842,0.455-1.176,0.726l-0.097,0.075v2.958c-0.983,0.257-1.932,0.672-2.824,1.238l-0.123,0.077v1.373h2.947v11.049c0,1.87,0.415,3.252,1.236,4.101c0.818,0.854,2.015,1.287,3.549,1.287c0.584,0,1.162-0.077,1.721-0.221c0.552-0.148,1.067-0.33,1.534-0.551c0.464-0.222,0.885-0.457,1.249-0.697c0.368-0.249,0.663-0.492,0.874-0.722l0.123-0.132l-0.438-0.908L195.388,34.344z"/>
<path d="M209.021,34.344c-0.447,0.159-0.995,0.274-1.636,0.327c-0.652,0.061-1.202,0.09-1.636,0.09c-0.861,0-1.486-0.261-1.905-0.791c-0.427-0.543-0.645-1.503-0.645-2.858V21.064h5.529v-2.387H203.2V14h-1.172l-0.101,0.023c-0.419,0.188-0.846,0.385-1.273,0.593c-0.449,0.206-0.844,0.455-1.176,0.726l-0.097,0.075v2.958c-0.983,0.257-1.934,0.672-2.828,1.238l-0.121,0.077v1.373h2.949v11.049c0,1.87,0.415,3.252,1.232,4.101c0.822,0.854,2.015,1.287,3.551,1.287c0.582,0,1.162-0.077,1.723-0.221c0.548-0.148,1.065-0.33,1.532-0.551c0.464-0.222,0.885-0.457,1.247-0.697c0.37-0.249,0.665-0.492,0.876-0.722l0.123-0.132l-0.436-0.908L209.021,34.344z"/>
<path d="M224.566,19.538c-0.672-0.547-1.454-0.945-2.32-1.187c-0.852-0.234-1.729-0.351-2.605-0.351c-2.712,0-4.843,0.844-6.337,2.511c-1.486,1.654-2.242,4.09-2.242,7.237c0,1.475,0.195,2.82,0.587,4c0.387,1.187,0.971,2.225,1.728,3.081c0.762,0.857,1.723,1.525,2.86,1.985c1.128,0.46,2.447,0.687,3.92,0.687c0.681,0,1.355-0.083,2.01-0.238c0.656-0.167,1.269-0.385,1.82-0.652c0.557-0.276,1.056-0.604,1.491-0.98c0.442-0.383,0.773-0.804,0.984-1.243l0.079-0.168l-0.798-0.898l-0.182,0.159c-0.415,0.362-1.049,0.663-1.894,0.893c-0.857,0.233-1.718,0.351-2.554,0.351c-1.015,0-1.909-0.182-2.658-0.538c-0.749-0.353-1.374-0.847-1.865-1.466s-0.866-1.362-1.112-2.205c-0.226-0.776-0.35-1.611-0.372-2.498h11.446l0.042-0.212c0.099-0.492,0.17-0.96,0.208-1.388c0.036-0.425,0.057-0.851,0.057-1.272c0-1.333-0.214-2.478-0.635-3.388C225.804,20.838,225.245,20.094,224.566,19.538z M219.495,20.128c1.172,0,2.01,0.409,2.554,1.258c0.557,0.868,0.84,2.058,0.84,3.542c0,0.19-0.006,0.383-0.018,0.575c-0.008,0.134-0.017,0.261-0.028,0.387h-7.609c0.161-2.121,0.58-3.624,1.249-4.464C217.175,20.55,218.16,20.128,219.495,20.128z"/>
<path d="M241.904,19.222c-0.137-0.384-0.298-0.742-0.475-1.066l-0.064-0.114l-0.129-0.014c-0.693-0.074-1.378-0.004-2.035,0.212c-0.648,0.205-1.256,0.514-1.8,0.914c-0.544,0.398-1.029,0.846-1.446,1.343c-0.248,0.29-0.464,0.584-0.646,0.882v-3.352l-1.211,0.004c-0.771,0.12-1.583,0.289-2.415,0.487c-0.844,0.206-1.676,0.486-2.469,0.825l-0.157,0.066v1.354l2.431,0.286v13.708c-0.332,0.082-0.665,0.179-0.997,0.283c-0.408,0.119-0.844,0.311-1.299,0.559l-0.135,0.074V37h9.2v-1.327l-0.139-0.074c-0.508-0.275-1.02-0.483-1.526-0.615c-0.428-0.116-0.856-0.2-1.283-0.256V24.321c0.3-0.802,0.643-1.42,1.017-1.829c0.358-0.388,0.657-0.66,0.895-0.802h5.09v-1.197l-0.01-0.085C242.175,19.995,242.042,19.602,241.904,19.222z"/>
<path d="M263.879,35.608c-0.618-0.399-1.394-0.688-2.312-0.865v-8.902c0-1.509-0.139-2.777-0.414-3.771c-0.282-1.012-0.697-1.828-1.237-2.436c-0.546-0.611-1.234-1.04-2.05-1.28c-0.794-0.235-1.704-0.353-2.703-0.353c-1.426,0-2.663,0.419-3.674,1.246c-0.75,0.612-1.37,1.321-1.859,2.119V18l-1.219,0.004c-0.914,0.167-1.801,0.363-2.63,0.58c-0.847,0.216-1.6,0.463-2.244,0.733l-0.161,0.064v1.356l2.434,0.289v13.732c-0.936,0.254-1.704,0.536-2.291,0.833l-0.143,0.075V37h8.464v-1.321l-0.125-0.074c-0.669-0.411-1.37-0.697-2.085-0.857V24.481c0.163-0.466,0.385-0.93,0.658-1.363c0.282-0.445,0.621-0.855,1.008-1.205c0.381-0.353,0.825-0.636,1.325-0.838c0.495-0.204,1.041-0.309,1.619-0.309c1.338,0,2.229,0.474,2.728,1.452c0.518,1.013,0.781,2.426,0.781,4.197v8.354c-0.725,0.229-1.408,0.508-2.032,0.823l-0.144,0.073V37H264v-1.317L263.879,35.608z"/>
</svg>
