<?xml version="1.0" encoding="utf-8"?>
<!DOCTYPE svg>
<svg version="1.1" baseProfile="full" xmlns="http://www.w3.org/2000/svg" xmlns:xlink="http://www.w3.org/1999/xlink" x="0px" y="0px" width="28px" height="48px" viewBox="0 0 28 48" enable-background="new 0 0 28 48" xml:space="preserve">
<path opacity="0.5" d="M17,15l-2.172-1.448C15.561,12.557,16,11.331,16,10c0-3.313-2.688-6-6-6c-3.314,0-6,2.687-6,6s2.686,6,6,6c1.331,0,2.557-0.439,3.552-1.172L15,17l3,3c0,0,1,0,1.5-0.5S20,18,20,18L17,15z M10,14c-2.209,0-4-1.791-4-4s1.791-4,4-4s4,1.791,4,4S12.209,14,10,14z"/>
<path opacity="0.5" d="M17,39l-2.172-1.448C15.561,36.557,16,35.331,16,34c0-3.313-2.688-6-6-6c-3.314,0-6,2.687-6,6s2.686,6,6,6c1.331,0,2.557-0.439,3.552-1.172L15,41l3,3c0,0,1,0,1.5-0.5S20,42,20,42L17,39z M10,38c-2.209,0-4-1.791-4-4s1.791-4,4-4s4,1.791,4,4S12.209,38,10,38z"/>
<polygon opacity="0.5" points="18,10 23,15 28,10"/>
<polygon fill="#333333" points="18,34 23,39 28,34"/>
</svg>
