<?xml version="1.0" encoding="utf-8"?>
<!DOCTYPE svg>
<svg version="1.1" baseProfile="full" xmlns="http://www.w3.org/2000/svg" xmlns:xlink="http://www.w3.org/1999/xlink" x="0px" y="0px" width="99px" height="22px" viewBox="0 0 99 22" enable-background="new 0 0 99 22" xml:space="preserve">
<path d="M33.541,7.836c0.031-0.196,0.053-0.414,0.068-0.653l0.044-0.721c0.015-0.244,0.027-0.483,0.037-0.714c0.01-0.232,0.015-0.442,0.015-0.627V5.017L25,5v0.205c0,0.185,0.004,0.313,0.015,0.549s0.022,0.476,0.037,0.72c0.015,0.249,0.031,0.489,0.051,0.726c0.02,0.235,0.045,0.449,0.075,0.638l0.013,0.085h0.52l0.775-1.98h2.038v8.132c-0.224,0.035-0.402,0.077-0.599,0.127c-0.221,0.057-0.443,0.122-0.66,0.198l-0.068,0.022V15h4.314v-0.575l-0.062-0.025c-0.21-0.085-0.43-0.151-0.654-0.2c-0.197-0.04-0.407-0.082-0.631-0.123l-0.001-8.135h2.057l0.77,1.98h0.54L33.541,7.836z"/>
<path d="M38.363,8.111c-0.236-0.218-0.51-0.375-0.814-0.471C37.25,7.548,36.943,7.5,36.635,7.5c-0.951,0-1.699,0.334-2.222,0.997c-0.521,0.659-0.787,1.627-0.787,2.878c0,0.587,0.069,1.122,0.206,1.59c0.137,0.471,0.341,0.884,0.607,1.224c0.267,0.342,0.604,0.605,1.002,0.789c0.396,0.183,0.859,0.272,1.375,0.272c0.238,0,0.475-0.032,0.704-0.095c0.23-0.066,0.446-0.153,0.638-0.257c0.194-0.112,0.371-0.239,0.522-0.39c0.156-0.155,0.272-0.32,0.347-0.496l0.029-0.066l-0.281-0.357l-0.064,0.062c-0.144,0.145-0.367,0.265-0.663,0.356c-0.301,0.092-0.602,0.14-0.896,0.14c-0.355,0-0.67-0.072-0.932-0.214s-0.482-0.338-0.653-0.583c-0.173-0.246-0.305-0.541-0.391-0.877c-0.079-0.308-0.123-0.64-0.131-0.993h4.014l0.015-0.084c0.035-0.196,0.06-0.381,0.072-0.551c0.014-0.171,0.021-0.34,0.021-0.505c0-0.53-0.075-0.984-0.222-1.348C38.797,8.629,38.601,8.333,38.363,8.111z M36.584,8.346c0.412,0,0.705,0.161,0.896,0.5c0.196,0.346,0.294,0.818,0.294,1.408c0,0.076-0.001,0.152-0.006,0.228c-0.002,0.054-0.006,0.104-0.01,0.154H35.09c0.055-0.842,0.203-1.439,0.438-1.774C35.771,8.512,36.116,8.346,36.584,8.346z"/>
<path d="M46.887,14.231c-0.12-0.052-0.241-0.101-0.365-0.146l-2.168-3.099l1.869-2.556c0.341-0.107,0.606-0.225,0.788-0.354l0.045-0.031V7.5H44.5v0.54l0.038,0.033c0.14,0.118,0.339,0.221,0.607,0.32l-1.284,1.947l-1.31-1.946c0.087-0.032,0.169-0.072,0.245-0.116c0.113-0.063,0.227-0.139,0.338-0.215l0.046-0.032V7.5h-3.036v0.547l0.046,0.031c0.116,0.081,0.232,0.148,0.343,0.203c0.103,0.054,0.218,0.1,0.343,0.148l2.054,2.849l-2.037,2.804c-0.262,0.07-0.525,0.187-0.784,0.352l-0.05,0.03V15h2.611v-0.537l-0.051-0.03c-0.115-0.07-0.229-0.133-0.345-0.193c-0.079-0.04-0.163-0.08-0.253-0.117l1.428-2.152l1.414,2.152c-0.075,0.034-0.151,0.07-0.228,0.113c-0.114,0.063-0.237,0.132-0.37,0.214l-0.051,0.029V15h3.092v-0.531l-0.045-0.032C47.145,14.354,47.019,14.283,46.887,14.231z"/>
<path d="M52.285,14.008c-0.17,0.064-0.382,0.107-0.626,0.13c-0.251,0.023-0.462,0.034-0.628,0.034c-0.331,0-0.57-0.102-0.731-0.312c-0.164-0.214-0.247-0.592-0.247-1.125V8.781h2.121V7.84h-2.121V6h-0.45l-0.039,0.009c-0.16,0.075-0.324,0.152-0.488,0.233c-0.172,0.081-0.323,0.178-0.451,0.286l-0.038,0.029v1.166c-0.376,0.1-0.741,0.263-1.085,0.486l-0.045,0.031v0.54h1.13v4.348c0,0.737,0.159,1.28,0.473,1.615c0.315,0.336,0.773,0.506,1.363,0.506c0.223,0,0.445-0.03,0.66-0.087c0.211-0.057,0.409-0.129,0.589-0.218c0.178-0.086,0.338-0.179,0.479-0.272c0.142-0.1,0.255-0.193,0.335-0.284l0.048-0.054l-0.167-0.355L52.285,14.008z"/>
<path d="M57.364,7.5c-0.566,0-1.034,0.154-1.388,0.465c-0.259,0.222-0.477,0.504-0.65,0.835V7.5h-0.464c-0.306,0.049-0.62,0.116-0.935,0.198c-0.32,0.082-0.636,0.194-0.941,0.327l-0.059,0.028v0.542l0.932,0.117v8.388c-0.284,0.078-0.578,0.192-0.875,0.336l-0.057,0.027V18h3.332v-0.528L56.21,17.44c-0.175-0.109-0.342-0.191-0.5-0.248c-0.127-0.045-0.257-0.079-0.385-0.1v-2.048c0.19,0.078,0.369,0.135,0.534,0.172c0.203,0.044,0.486,0.067,0.839,0.067c0.509,0,0.98-0.094,1.401-0.283c0.421-0.185,0.785-0.458,1.081-0.805c0.295-0.347,0.525-0.776,0.686-1.281c0.158-0.5,0.238-1.065,0.238-1.682c0-1.302-0.241-2.26-0.718-2.847C58.908,7.798,58.228,7.5,57.364,7.5z M58.554,11.233c0,0.471-0.047,0.905-0.139,1.296c-0.091,0.386-0.223,0.729-0.391,1.014c-0.166,0.284-0.369,0.508-0.605,0.661c-0.233,0.151-0.499,0.23-0.791,0.23c-0.332,0-0.603-0.025-0.807-0.079c-0.181-0.043-0.347-0.107-0.497-0.193V10.19c0.109-0.491,0.294-0.883,0.551-1.164c0.253-0.277,0.602-0.418,1.035-0.418c0.303,0,0.56,0.064,0.766,0.189c0.207,0.124,0.375,0.305,0.502,0.531c0.13,0.235,0.226,0.515,0.285,0.834C58.523,10.486,58.554,10.848,58.554,11.233z"/>
<path d="M66.495,13.627c-0.009-0.147-0.014-0.331-0.014-0.537c0-0.489,0.012-1.003,0.035-1.529c0.023-0.534,0.036-1.096,0.036-1.667c0-0.273-0.025-0.55-0.072-0.826c-0.051-0.282-0.157-0.542-0.315-0.78c-0.16-0.232-0.394-0.422-0.696-0.569C65.17,7.573,64.769,7.5,64.277,7.5c-0.542,0-1.043,0.064-1.488,0.192c-0.444,0.123-0.853,0.304-1.216,0.527l-0.055,0.032l0.004,0.065c0.02,0.304,0.065,0.614,0.137,0.927c0.071,0.309,0.155,0.611,0.25,0.901l0.023,0.069h0.499l0.673-1.748c0.14-0.055,0.282-0.087,0.422-0.1c0.163-0.016,0.31-0.021,0.439-0.021c0.261,0,0.474,0.059,0.63,0.177c0.157,0.115,0.279,0.281,0.361,0.498c0.084,0.225,0.135,0.498,0.148,0.812c0.013,0.299,0.004,0.638-0.027,1.011c-0.626,0.035-1.185,0.092-1.664,0.159c-0.505,0.075-0.937,0.194-1.284,0.362c-0.355,0.171-0.627,0.408-0.811,0.707c-0.185,0.3-0.278,0.685-0.278,1.144c0,0.604,0.193,1.101,0.576,1.477c0.379,0.37,0.874,0.558,1.471,0.558c0.312,0,0.595-0.049,0.841-0.151c0.243-0.1,0.459-0.229,0.641-0.39c0.183-0.16,0.333-0.347,0.446-0.553c0.048-0.086,0.089-0.172,0.124-0.26c0.008,0.178,0.018,0.344,0.029,0.501c0.02,0.276,0.08,0.533,0.179,0.765l0.025,0.059l0.431-0.002c0.267-0.047,0.548-0.122,0.839-0.219c0.291-0.094,0.559-0.209,0.799-0.334l0.055-0.032v-0.459l-0.981-0.146C66.511,13.89,66.502,13.755,66.495,13.627z M64.662,13.689c-0.114,0.123-0.257,0.235-0.427,0.324c-0.165,0.089-0.359,0.134-0.58,0.134c-0.335,0-0.589-0.102-0.781-0.307c-0.187-0.205-0.281-0.502-0.281-0.882c0-0.223,0.035-0.427,0.104-0.598c0.066-0.166,0.19-0.307,0.369-0.42c0.187-0.115,0.451-0.204,0.786-0.261c0.321-0.053,0.736-0.079,1.231-0.083v1.387c-0.026,0.085-0.075,0.19-0.142,0.314C64.872,13.429,64.777,13.561,64.662,13.689z"/>
<path d="M72.673,14.008c-0.171,0.064-0.382,0.107-0.627,0.13c-0.251,0.023-0.462,0.034-0.628,0.034c-0.331,0-0.57-0.102-0.731-0.312c-0.164-0.214-0.248-0.592-0.248-1.125V8.781h2.121V7.84h-2.121V6h-0.45l-0.04,0.009c-0.16,0.075-0.324,0.152-0.488,0.233C69.29,6.323,69.139,6.42,69.01,6.528l-0.037,0.029v1.166c-0.377,0.1-0.741,0.263-1.083,0.486l-0.048,0.031v0.54h1.132v4.348c0,0.737,0.16,1.28,0.474,1.615c0.315,0.336,0.773,0.506,1.362,0.506c0.224,0,0.446-0.03,0.66-0.087c0.211-0.057,0.41-0.129,0.588-0.218c0.178-0.086,0.34-0.179,0.479-0.272c0.141-0.1,0.254-0.193,0.336-0.284l0.047-0.054l-0.168-0.355L72.673,14.008z"/>
<path d="M77.904,14.008c-0.17,0.064-0.381,0.107-0.627,0.13c-0.25,0.023-0.462,0.034-0.627,0.034c-0.331,0-0.57-0.102-0.731-0.312c-0.165-0.214-0.247-0.592-0.247-1.125V8.781h2.121V7.84h-2.121V6h-0.45l-0.04,0.009c-0.16,0.075-0.324,0.152-0.488,0.233c-0.172,0.081-0.324,0.178-0.452,0.286l-0.037,0.029v1.166c-0.376,0.1-0.741,0.263-1.083,0.486l-0.047,0.031v0.54h1.13v4.348c0,0.737,0.16,1.28,0.474,1.615c0.315,0.336,0.774,0.506,1.362,0.506c0.224,0,0.446-0.03,0.661-0.087c0.211-0.057,0.409-0.129,0.589-0.218c0.178-0.086,0.339-0.179,0.479-0.272c0.141-0.1,0.255-0.193,0.335-0.284l0.047-0.054l-0.167-0.355L77.904,14.008z"/>
<path d="M83.869,8.111c-0.258-0.218-0.558-0.375-0.89-0.471c-0.327-0.093-0.664-0.141-1-0.141c-1.041,0-1.859,0.334-2.432,0.997c-0.57,0.659-0.86,1.627-0.86,2.878c0,0.587,0.076,1.122,0.225,1.59c0.149,0.471,0.373,0.884,0.664,1.224c0.292,0.342,0.66,0.605,1.096,0.789c0.434,0.183,0.94,0.272,1.506,0.272c0.26,0,0.52-0.032,0.771-0.095c0.251-0.066,0.486-0.153,0.698-0.257c0.213-0.112,0.405-0.239,0.572-0.39c0.17-0.155,0.297-0.321,0.378-0.496l0.031-0.066l-0.306-0.357l-0.07,0.062c-0.158,0.145-0.402,0.265-0.726,0.356c-0.33,0.092-0.659,0.14-0.98,0.14c-0.39,0-0.733-0.072-1.021-0.214c-0.287-0.142-0.527-0.338-0.715-0.583c-0.188-0.246-0.332-0.541-0.427-0.877c-0.086-0.309-0.134-0.64-0.142-0.993h4.391l0.017-0.084c0.038-0.196,0.065-0.381,0.08-0.551c0.014-0.17,0.021-0.339,0.021-0.505c0-0.53-0.082-0.984-0.243-1.348C84.345,8.629,84.13,8.333,83.869,8.111z M81.923,8.346c0.45,0,0.771,0.161,0.98,0.5c0.214,0.346,0.323,0.818,0.323,1.408c0,0.076-0.002,0.152-0.007,0.228c-0.004,0.054-0.008,0.104-0.012,0.154h-2.919c0.062-0.842,0.223-1.439,0.479-1.774C81.032,8.512,81.411,8.346,81.923,8.346z"/>
<path d="M90.523,7.982c-0.054-0.151-0.116-0.293-0.183-0.421l-0.026-0.045l-0.048-0.006c-0.267-0.029-0.529-0.001-0.782,0.084c-0.249,0.08-0.481,0.205-0.69,0.362c-0.208,0.156-0.395,0.332-0.554,0.529c-0.096,0.114-0.178,0.23-0.248,0.348V7.511l-0.465,0.001C87.23,7.56,86.918,7.625,86.6,7.703c-0.325,0.082-0.643,0.193-0.948,0.327l-0.06,0.025v0.535l0.933,0.111v5.41c-0.128,0.034-0.255,0.071-0.382,0.113c-0.157,0.046-0.325,0.121-0.499,0.219l-0.051,0.03V15h3.53v-0.525l-0.052-0.03c-0.196-0.107-0.392-0.189-0.587-0.242c-0.163-0.045-0.329-0.08-0.492-0.101V9.994c0.115-0.316,0.247-0.56,0.391-0.721c0.136-0.153,0.252-0.262,0.342-0.315h1.953V8.484L90.673,8.45C90.625,8.287,90.575,8.133,90.523,7.982z"/>
<path d="M98.954,14.45c-0.238-0.16-0.536-0.273-0.888-0.343v-3.514c0-0.596-0.054-1.095-0.159-1.487c-0.108-0.4-0.267-0.723-0.475-0.962c-0.209-0.241-0.474-0.409-0.788-0.504C96.342,7.546,95.992,7.5,95.609,7.5c-0.547,0-1.021,0.165-1.41,0.491c-0.288,0.242-0.526,0.521-0.713,0.837V7.5l-0.468,0.002c-0.351,0.067-0.69,0.145-1.009,0.229c-0.324,0.085-0.614,0.181-0.861,0.287l-0.062,0.027v0.535l0.934,0.112v5.421c-0.358,0.1-0.653,0.211-0.878,0.328l-0.056,0.03V15h3.248v-0.522l-0.048-0.028c-0.257-0.164-0.525-0.277-0.8-0.341v-4.051c0.062-0.183,0.147-0.368,0.252-0.538c0.108-0.174,0.238-0.336,0.386-0.475c0.147-0.14,0.318-0.25,0.509-0.33c0.19-0.082,0.4-0.122,0.622-0.122c0.513,0,0.854,0.186,1.046,0.571c0.198,0.401,0.299,0.958,0.299,1.657v3.297c-0.278,0.09-0.54,0.2-0.78,0.324l-0.054,0.029V15H99v-0.521L98.954,14.45z"/>
<path d="M21.069,21.072c-0.765,0.766-1.562,1.126-1.875,0.813c-0.117-0.117,0,0,0,0c-0.056-0.056-2.054-2.262-4.326-4.532l0,0c-2.057-2.059-4.468-4.145-5.955-5.63C7.429,10.239,4.96,7.465,4.957,7.463l0,0L4.792,7.277l1.197-1.303l1.285-1.181L7.46,4.961c0.003,0.001,2.776,2.471,4.26,3.955c1.487,1.486,3.573,3.898,5.63,5.955l0,0c2.271,2.271,4.451,4.244,4.55,4.342C22.168,19.481,21.876,20.266,21.069,21.072z"/>
<linearGradient id="SVGID_13_" gradientUnits="userSpaceOnUse" x1="12.3164" y1="14.7373" x2="14.734" y2="12.3197">
	<stop offset="0.1484" style="stop-color:#7B6C35"/>
	<stop offset="0.8352" style="stop-color:#B9AA69"/>
</linearGradient>
<path fill-rule="evenodd" clip-rule="evenodd" fill="url(#SVGID_13_)" d="M11.526,9.111c-1.474-1.475-4.249-3.946-4.249-3.946L6.175,6.178L5.163,7.28c0,0,2.472,2.774,3.945,4.249c1.474,1.473,3.889,3.562,5.955,5.63c2.272,2.271,4.289,4.496,4.325,4.532c0.035,0.034,0.461,0.214,1.487-0.813c1.027-1.026,0.846-1.454,0.822-1.478c-0.023-0.023-2.27-2.062-4.542-4.335C15.09,13,13,10.586,11.526,9.111z"/>
<linearGradient id="SVGID_15_" gradientUnits="userSpaceOnUse" x1="12.314" y1="14.7344" x2="14.6915" y2="12.3569">
	<stop offset="0.0934" style="stop-color:#2B2414"/>
	<stop offset="0.7363" style="stop-color:#624E22"/>
</linearGradient>
<path fill-rule="evenodd" clip-rule="evenodd" fill="url(#SVGID_15_)" d="M20.664,21.08c-0.07-0.009-0.146-0.067-0.239-0.159c-0.104-0.104-2.217-2.252-4.488-4.524c-0.844-0.844-2.512-2.383-2.746-2.587c-0.408-0.358-0.371-0.724-0.154-1.078c0.219-0.36,0.753-0.804,1.112-0.834c-0.348-0.377-0.686-0.744-1.011-1.095c-0.991,0.551-2.131,1.213-2.299,1.047c-0.794-0.795-2.802-2.801-3.651-3.648C6.813,7.826,6.864,7.428,7.075,7.033c0.23-0.432,0.819-0.904,1.17-0.998l0,0c-0.572-0.518-0.968-0.87-0.968-0.87L6.175,6.178L5.163,7.28c0,0,2.472,2.774,3.945,4.249c1.474,1.473,3.889,3.562,5.955,5.63c2.272,2.271,4.289,4.496,4.325,4.532C19.421,21.723,19.79,21.877,20.664,21.08z"/>
<path fill-rule="evenodd" clip-rule="evenodd" fill="#6B5600" d="M16.646,15.438c0,0-0.285-0.344-0.627-0.685c-0.342-0.343-0.718-0.694-0.718-0.694s0.416,0.473,0.639,0.695C16.161,14.977,16.646,15.438,16.646,15.438z M11.458,10.043c-0.326-0.326-0.855-0.854-0.855-0.854s0.49,0.626,0.786,0.922C11.687,10.407,11.783,10.367,11.458,10.043z M10.723,11.325c-0.522-0.522-1.366-1.32-2.73-2.685C6.938,7.585,6.094,6.797,5.83,6.553L5.769,6.619C6.135,6.97,7.709,8.48,8.572,9.344c0.981,0.98,2.647,2.539,3.091,2.9c0.444,0.361,1.297,1.104,1.948,1.757c0.651,0.649,1.335,1.254,1.335,1.254s-1.113-1.146-1.604-1.637C12.852,13.128,11.327,11.93,10.723,11.325z M10.397,9.02c0,0-0.684-0.684-1.715-1.715C7.895,6.516,7.107,5.729,6.895,5.517L6.892,5.52c0.209,0.236,1.013,1.133,1.734,1.854C9.463,8.211,10.397,9.02,10.397,9.02z M8.298,7.783c0.137,0.137,0.51,0.502,0.784,0.773c0.273,0.274,0.846,0.896,0.988,1.039c0.568,0.568,0.959,0.922,1.631,1.594c0.672,0.672,2.325,2.39,2.654,2.72c0.56,0.56,1.328,1.364,1.72,1.757c0.394,0.393,1.282,1.244,1.732,1.695c0.45,0.449,1.047,1.027,1.446,1.426c0.4,0.399,1.479,1.315,1.479,1.315s-1.718-1.693-2.333-2.309s-1.396-1.308-1.778-1.688c-0.531-0.532-1.406-1.472-1.856-1.922c-0.449-0.45-0.586-0.528-0.683-0.626c-0.097-0.097-1.037-1.082-1.288-1.333c-0.25-0.251-2.443-2.478-2.848-2.882S9.116,8.524,8.945,8.353c-0.171-0.171-0.467-0.524-0.65-0.706C8.113,7.464,7.806,7.191,7.589,6.975c-0.205-0.205-0.76-0.74-1.104-1.082L6.367,6C6.953,6.576,7.32,6.818,7.544,7.043C7.777,7.277,8.162,7.646,8.298,7.783z M9.636,10.091c0.418,0.417,2.164,1.991,2.164,1.991s-1.194-1.138-1.798-1.742c-0.604-0.604-1.347-1.379-2.07-2.103C7.328,7.634,6.346,6.641,6.037,6.328l-0.09,0.098C6.353,6.812,7.688,8.08,8.076,8.469C8.536,8.929,9.217,9.672,9.636,10.091z M18.49,18.264c-0.432-0.434-0.86-0.812-1.241-1.195c-0.382-0.38-1.481-1.528-1.481-1.528s1.122,1.283,1.538,1.698c0.416,0.416,0.711,0.62,1.208,1.115c0.496,0.496,1.244,1.277,1.541,1.572c0.239,0.24,0.766,0.657,0.959,0.809c0.018-0.019,0.037-0.038,0.053-0.057c-0.247-0.215-1.025-0.897-1.368-1.24C19.288,19.026,18.924,18.695,18.49,18.264z M19.983,18.696c-0.268-0.268-1.025-1.028-1.185-1.188s-0.732-0.606-0.732-0.606s0.396,0.433,0.504,0.541c0.108,0.107,0.711,0.608,1.162,1.059c0.387,0.387,1.418,1.436,1.702,1.724c0.038-0.054,0.07-0.104,0.098-0.152C21.241,19.82,20.213,18.926,19.983,18.696z M9.196,9.043c-0.472-0.484-1.043-1.12-1.247-1.324C7.481,7.252,6.561,6.452,6.23,6.126L6.175,6.178L6.167,6.186c0.337,0.326,1.348,1.278,1.98,1.912C8.557,8.507,9.196,9.043,9.196,9.043z M8.812,8.857c0.513,0.512,4.286,4.206,4.77,4.69c0.484,0.483,1.037,1.081,1.321,1.366c0.285,0.285,1.071,1.094,1.071,1.094s-1.06-1.197-1.674-1.812c-0.615-0.615-2.121-2.171-2.816-2.866C10.974,10.82,8.812,8.857,8.812,8.857z M9.452,9.461"/>
<linearGradient id="SVGID_18_" gradientUnits="userSpaceOnUse" x1="14.2104" y1="12.832" x2="12.5473" y2="14.4952">
	<stop offset="0.5165" style="stop-color:#2D2400"/>
	<stop offset="0.8626" style="stop-color:#211700"/>
</linearGradient>
<path fill-rule="evenodd" clip-rule="evenodd" fill="url(#SVGID_18_)" d="M14.936,16.503c-0.699-0.698-2.053-1.979-2.642-2.567c-0.097-0.098-1.285-1.26-1.535-1.512c-0.251-0.248-2.441-2.237-2.846-2.643c-0.405-0.404-0.86-0.953-1.03-1.125C6.711,8.485,6.388,8.104,6.206,7.923c-0.183-0.183-0.462-0.483-0.68-0.7c-0.074-0.074-0.129-0.115-0.161-0.13L5.34,7.116C5.354,7.15,5.398,7.209,5.481,7.291c0.234,0.233,0.536,0.604,0.672,0.74s0.592,0.584,0.865,0.857C7.292,9.162,7.81,9.756,7.952,9.899c0.569,0.567,1.015,0.866,1.687,1.538c0.673,0.673,2.272,2.275,2.603,2.606c0.56,0.56,1.38,1.258,1.772,1.651c0.393,0.394,1.282,1.326,1.732,1.776s1.045,1.067,1.444,1.466c0.398,0.399,1.481,1.412,1.481,1.412c-1.652-1.684-1.601-1.732-2.175-2.308C15.88,17.427,15.317,16.885,14.936,16.503z M18.596,19.441c-0.562-0.562-0.983-1.012-1.579-1.604c-0.595-0.591-1.265-1.222-1.79-1.743c-0.525-0.521-2.037-1.978-2.037-1.978s1.493,1.565,2.064,2.133c0.572,0.569,1.03,1.035,1.711,1.713c0.683,0.678,1.712,1.743,2.12,2.148c0.344,0.341,1.301,1.205,1.301,1.205l0.151-0.124C20.538,21.192,19.438,20.283,18.596,19.441z M7.264,8.764c0.489,0.523,3.583,3.377,4.028,3.854c0.446,0.477,2.441,2.337,2.441,2.337s-1.347-1.342-1.99-2.03c-0.644-0.689-3.094-2.832-3.863-3.657c-0.77-0.823-2.122-2.165-2.122-2.165L5.637,7.196C5.637,7.196,6.775,8.24,7.264,8.764z M19.569,21.219c-0.374-0.396-0.748-0.703-0.748-0.703s0.44,0.57,0.649,0.758c0.138,0.124,0.295,0.28,0.385,0.373c0.037-0.016,0.076-0.034,0.117-0.056C19.891,21.531,19.761,21.422,19.569,21.219z M11.469,11.768c-0.005,0-0.009,0.002-0.013,0.004c0.205,0.187,0.344,0.311,0.344,0.311S11.667,11.955,11.469,11.768z M12.888,13.311c-0.006-0.037-0.008-0.075-0.007-0.113c-0.463-0.4-1.099-0.924-1.603-1.362c-0.021,0.006-0.042,0.013-0.062,0.019c0.193,0.175,0.351,0.312,0.447,0.391C11.953,12.48,12.418,12.881,12.888,13.311z M12.974,12.847c-0.421-0.431-0.852-0.871-1.191-1.216c-0.035,0.016-0.068,0.031-0.103,0.047c0.472,0.462,0.917,0.898,1.264,1.239C12.952,12.894,12.962,12.87,12.974,12.847z M7.711,6.334C7.325,5.946,7.016,5.637,6.895,5.517L6.892,5.52c0.115,0.13,0.412,0.46,0.773,0.85C7.68,6.357,7.696,6.345,7.711,6.334z M13.141,12.582c-0.146-0.154-0.275-0.285-0.346-0.356c-0.08-0.081-0.364-0.367-0.723-0.731c-0.016,0.007-0.031,0.016-0.047,0.022c0.312,0.318,0.705,0.723,1.083,1.11C13.119,12.612,13.129,12.596,13.141,12.582z M6.971,7.271c-0.389-0.393-0.75-0.758-0.923-0.933C6.019,6.375,5.991,6.41,5.965,6.443c0.198,0.188,0.581,0.553,0.976,0.93C6.95,7.34,6.96,7.306,6.971,7.271z M7.312,6.702c-0.254-0.249-0.59-0.574-0.827-0.81L6.37,5.998L6.367,6c0.378,0.372,0.663,0.604,0.88,0.783C7.269,6.756,7.288,6.729,7.312,6.702z M6.915,7.58c-0.502-0.485-0.876-0.834-1.054-1C5.84,6.609,5.821,6.633,5.806,6.654c0.196,0.188,0.628,0.603,1.121,1.079C6.917,7.684,6.914,7.631,6.915,7.58z M7.075,7.033c0.014-0.027,0.034-0.055,0.052-0.082C6.766,6.622,6.41,6.304,6.23,6.126L6.192,6.161C6.185,6.171,6.178,6.18,6.169,6.188c0.173,0.168,0.518,0.495,0.898,0.859C7.07,7.043,7.072,7.039,7.075,7.033z"/>
<path d="M7.077,0c0,0,0.576,0.408,1.496,1.327l0,0C9.492,2.246,9.9,2.821,9.9,2.821v0.513L3.334,9.899H2.822l0,0
	c0,0-0.767-0.599-1.495-1.327l0,0C0.408,7.653,0,7.077,0,7.077V6.564L6.564,0H7.077z"/>
<linearGradient id="SVGID_21_" gradientUnits="userSpaceOnUse" x1="3.4775" y1="3.4775" x2="6.424" y2="6.424">
	<stop offset="0" style="stop-color:#FFFFFF"/>
	<stop offset="1" style="stop-color:#666666"/>
</linearGradient>
<path fill-rule="evenodd" clip-rule="evenodd" fill="url(#SVGID_21_)" d="M6.99,0.275H6.679L0.275,6.68v0.31c0,0,0.338,0.481,1.247,1.389C2.43,9.286,2.91,9.625,2.91,9.625h0.311l6.404-6.404V2.909c0,0-0.338-0.479-1.247-1.388C7.469,0.613,6.99,0.275,6.99,0.275z"/>
<linearGradient id="SVGID_23_" gradientUnits="userSpaceOnUse" x1="3.4775" y1="3.4775" x2="6.424" y2="6.424">
	<stop offset="0" style="stop-color:#FFFFFF"/>
	<stop offset="1" style="stop-color:#666666"/>
</linearGradient>
<path fill-rule="evenodd" clip-rule="evenodd" fill="url(#SVGID_23_)" d="M6.99,0.275H6.679L0.275,6.68v0.31c0,0,0.338,0.481,1.247,1.389C2.43,9.286,2.91,9.625,2.91,9.625h0.311l6.404-6.404V2.909c0,0-0.338-0.479-1.247-1.388C7.469,0.613,6.99,0.275,6.99,0.275z"/>
<linearGradient id="SVGID_25_" gradientUnits="userSpaceOnUse" x1="1.6562" y1="8.2441" x2="8.218" y2="1.6823">
	<stop offset="0.0769" style="stop-color:#0A0A0A"/>
	<stop offset="0.533" style="stop-color:#0F0F0F"/>
	<stop offset="0.9121" style="stop-color:#1A1A1A"/>
</linearGradient>
<path fill-rule="evenodd" clip-rule="evenodd" fill="url(#SVGID_25_)" d="M9.389,3.138c0,0-1.798,1.914-3.068,3.184C5.052,7.59,3.137,9.39,3.137,9.39S2.436,9.022,1.656,8.244c-0.779-0.78-1.146-1.481-1.146-1.481s1.798-1.914,3.067-3.185c1.27-1.268,3.185-3.067,3.185-3.067s0.675,0.393,1.454,1.171C8.996,2.463,9.389,3.138,9.389,3.138z"/>
<linearGradient id="SVGID_27_" gradientUnits="userSpaceOnUse" x1="0.2012" y1="6.7549" x2="3.147" y2="9.7007">
	<stop offset="0" style="stop-color:#999999"/>
	<stop offset="1" style="stop-color:#1A1A1A"/>
</linearGradient>
<path fill-rule="evenodd" clip-rule="evenodd" fill="url(#SVGID_27_)" d="M3.137,9.39c0,0-0.702-0.367-1.481-1.146c-0.779-0.78-1.146-1.481-1.146-1.481L0.275,6.68v0.31c0,0,0.338,0.481,1.247,1.389C2.43,9.286,2.91,9.625,2.91,9.625h0.311L3.137,9.39z"/>
<linearGradient id="SVGID_29_" gradientUnits="userSpaceOnUse" x1="6.7544" y1="0.2002" x2="9.7002" y2="3.146">
	<stop offset="0" style="stop-color:#CCCCCC"/>
	<stop offset="1" style="stop-color:#333333"/>
</linearGradient>
<path fill-rule="evenodd" clip-rule="evenodd" fill="url(#SVGID_29_)" d="M9.625,3.221V2.909c0,0-0.338-0.479-1.247-1.388C7.469,0.613,6.99,0.275,6.99,0.275H6.679l0.084,0.235c0,0,0.675,0.393,1.454,1.171c0.779,0.781,1.172,1.456,1.172,1.456L9.625,3.221z"/>
<path fill="#494949" d="M4.602,5.182L4.527,5.258L4.467,5.196L4.68,4.983l0.06,0.061L4.666,5.118l0.388,0.388L4.989,5.569L4.602,5.182z"/>
<path fill="#494949" d="M4.994,5.097l-0.297-0.13l0.068-0.067l0.181,0.084L4.862,4.801L4.93,4.732l0.128,0.3l0.327,0.143
	L5.317,5.243L5.11,5.148l0.096,0.205L5.137,5.422L4.994,5.097z"/>
<path fill="#494949" d="M4.965,4.698l0.097-0.098c0.035-0.034,0.07-0.052,0.115-0.051s0.08,0.022,0.134,0.075c0.04,0.039,0.062,0.068,0.072,0.108c0.011,0.046,0,0.094-0.046,0.141L5.304,4.906l0.174,0.176L5.414,5.146L4.965,4.698z M5.243,4.846l0.031-0.031c0.052-0.051,0.022-0.083-0.022-0.128C5.209,4.645,5.174,4.61,5.124,4.66L5.09,4.693L5.243,4.846z"/>
<path fill="#191919" d="M4.602,5.128L4.527,5.201L4.467,5.141L4.68,4.928l0.06,0.061L4.666,5.063l0.388,0.388L4.989,5.516L4.602,5.128z"/>
<path fill="#191919" d="M4.994,5.042l-0.297-0.13l0.068-0.068l0.181,0.084L4.862,4.746L4.93,4.679l0.128,0.3l0.327,0.141
	L5.317,5.188L5.11,5.093L5.206,5.3L5.137,5.367L4.994,5.042z"/>
<path fill="#191919" d="M4.965,4.643l0.097-0.096c0.035-0.036,0.07-0.055,0.115-0.053c0.045,0.001,0.08,0.022,0.134,0.076c0.04,0.039,0.062,0.068,0.072,0.108c0.011,0.047,0,0.093-0.046,0.14L5.304,4.852l0.174,0.175L5.414,5.091L4.965,4.643z M5.243,4.791L5.273,4.76c0.052-0.053,0.022-0.083-0.022-0.128C5.209,4.59,5.174,4.555,5.124,4.604L5.09,4.639L5.243,4.791z"/>
<path fill="#2D2D2D" d="M4.602,5.154L4.527,5.229l-0.061-0.06L4.68,4.957l0.06,0.059L4.666,5.091l0.388,0.388L4.989,5.542L4.602,5.154z"/>
<path fill="#2D2D2D" d="M4.994,5.069l-0.297-0.13l0.068-0.067l0.181,0.085L4.862,4.773L4.93,4.706l0.128,0.299l0.327,0.143L5.317,5.216L5.11,5.119l0.096,0.207L5.137,5.395L4.994,5.069z"/>
<path fill="#2D2D2D" d="M4.965,4.67l0.097-0.096c0.035-0.036,0.07-0.054,0.115-0.053c0.045,0.002,0.08,0.023,0.134,0.077c0.04,0.039,0.062,0.068,0.072,0.108c0.011,0.046,0,0.092-0.046,0.14L5.304,4.879l0.174,0.175L5.414,5.118L4.965,4.67z M5.243,4.818l0.031-0.03C5.326,4.735,5.295,4.704,5.251,4.66C5.209,4.617,5.174,4.582,5.124,4.633L5.09,4.666L5.243,4.818z"/>
<path d="M2.187,20.85L2.187,20.85c-0.608-0.607-1.083-1.363-1.083-1.363l0.592-0.592c0,0,0.621-0.17,0.998-0.546l0,0L14.919,6.121c0.778-0.777,1.591-2.492,1.591-2.492l2.15-2.151l0.56-0.379L22,3.879l-0.379,0.561l-2.149,2.149c0,0-1.714,0.813-2.492,1.592l0,0L4.751,20.408c-0.376,0.375-0.547,0.996-0.547,0.996L3.61,22C3.61,22,2.794,21.458,2.187,20.85z"/>
<linearGradient id="SVGID_41_" gradientUnits="userSpaceOnUse" x1="15.0742" y1="4.8584" x2="21.4092" y2="4.8584">
	<stop offset="0.125" style="stop-color:#CDCDCB"/>
	<stop offset="0.875" style="stop-color:#A09EA1"/>
</linearGradient>
<path fill-rule="evenodd" clip-rule="evenodd" fill="url(#SVGID_41_)" d="M18.838,1.691L18.838,1.691l-2.072,2.071c0,0-0.489,2.14-1.276,2.928l-0.416,0.416l0.92,0.919l0.415-0.415c0.788-0.788,2.928-1.276,2.928-1.276l2.072-2.072l0,0L18.838,1.691z"/>
<path fill-rule="evenodd" clip-rule="evenodd" fill="#616161" d="M15.994,8.025l0.375,0.376l0.415-0.415c0.789-0.789,2.553-1.652,2.553-1.652s-2.14,0.488-2.928,1.276L15.994,8.025z"/>
<path fill-rule="evenodd" clip-rule="evenodd" fill="#EBE9E9" d="M14.699,6.73l0.375,0.376L15.49,6.69c0.788-0.788,1.276-2.928,1.276-2.928s-0.864,1.764-1.652,2.553L14.699,6.73z"/>
<path fill-rule="evenodd" clip-rule="evenodd" fill="#FFCC33" d="M15.102,7.078L3.263,18.918c-0.451,0.451-0.976,0.676-0.976,0.676l1.219,1.22h0c0,0,0.225-0.526,0.676-0.977l11.84-11.84L15.102,7.078z"/>
<path fill-rule="evenodd" clip-rule="evenodd" fill="#BFBFBF" d="M1.46,19.518c0,0,0.505,0.723,0.921,1.138c0.415,0.416,1.2,0.984,1.2,0.984L1.46,19.518z"/>
<polygon fill-rule="evenodd" clip-rule="evenodd" fill="#EBE9E9" points="21.409,4.262 21.646,3.912 19.187,1.455 18.838,1.691 "/>
<path fill="#BA9C0A" d="M4.252,18.647l-0.057,0.057l-0.046-0.047l0.161-0.161l0.046,0.046L4.3,18.6l0.294,0.293l-0.049,0.05L4.252,18.647z"/>
<path fill="#BA9C0A" d="M4.361,18.446l0.146-0.146l0.045,0.046l-0.097,0.097l0.1,0.1l0.084-0.084l0.046,0.045l-0.084,0.085l0.101,0.101l0.097-0.098l0.048,0.05l-0.145,0.145L4.361,18.446z"/>
<path fill="#BA9C0A" d="M4.773,18.357L4.548,18.26L4.6,18.207l0.138,0.064l-0.063-0.138l0.052-0.052l0.097,0.227l0.249,0.108l-0.052,0.052l-0.157-0.072l0.072,0.156l-0.051,0.052L4.773,18.357z"/>
<path fill="#BA9C0A" d="M4.858,18.041l-0.056,0.055l-0.046-0.045l0.162-0.161l0.045,0.045L4.908,17.99l0.294,0.295l-0.049,0.049L4.858,18.041z"/>
<path fill="#BA9C0A" d="M4.968,17.838l0.073-0.072c0.027-0.025,0.053-0.04,0.087-0.039c0.035,0,0.061,0.018,0.102,0.058c0.03,0.029,0.047,0.052,0.054,0.083c0.009,0.034,0,0.07-0.035,0.105l-0.025,0.025l0.133,0.133l-0.049,0.048L4.968,17.838z M5.179,17.951l0.023-0.023c0.04-0.039,0.017-0.062-0.017-0.098c-0.032-0.031-0.059-0.058-0.096-0.02l-0.026,0.025L5.179,17.951z"/>
<path fill="#BA9C0A" d="M5.228,17.579l0.041-0.041l0.416,0.266l-0.048,0.048l-0.088-0.059l-0.066,0.066l0.059,0.087l-0.049,0.05L5.228,17.579z M5.347,17.657L5.347,17.657l0.098,0.147l0.048-0.049L5.347,17.657z"/>
<path fill="#BA9C0A" d="M5.449,17.45l-0.057,0.057l-0.045-0.046l0.161-0.162l0.046,0.045l-0.056,0.058l0.294,0.295l-0.048,0.048L5.449,17.45z"/>
<path fill="#BA9C0A" d="M5.636,17.264l-0.057,0.056l-0.046-0.046l0.162-0.162l0.046,0.047l-0.056,0.056l0.294,0.295L5.93,17.558L5.636,17.264z"/>
<path fill="#BA9C0A" d="M5.745,17.062l0.145-0.146l0.046,0.047L5.84,17.06l0.099,0.101l0.084-0.085l0.046,0.046l-0.084,0.084l0.099,0.1l0.098-0.097l0.048,0.049l-0.146,0.146L5.745,17.062z"/>
<path fill="#BA9C0A" d="M5.951,16.856l0.078-0.078c0.059-0.059,0.12-0.052,0.187,0.014c0.039,0.038,0.057,0.078,0.043,0.128l0.208,0.102l-0.052,0.053l-0.191-0.101l-0.028,0.028l0.145,0.146l-0.048,0.049L5.951,16.856z M6.152,16.959l0.027-0.027c0.034-0.033,0.02-0.059-0.014-0.092c-0.034-0.035-0.059-0.047-0.095-0.012l-0.025,0.025L6.152,16.959z"/>
<path fill="#BA9C0A" d="M6.181,16.627l0.047-0.047l0.279,0.131l0-0.001l-0.205-0.205l0.048-0.049l0.34,0.341l-0.045,0.045l-0.279-0.129H6.366l0.205,0.205l-0.049,0.049L6.181,16.627z"/>
<path fill="#ECD74C" d="M4.252,18.691l-0.057,0.057l-0.046-0.047l0.161-0.161l0.046,0.046L4.3,18.643l0.294,0.294l-0.049,0.05L4.252,18.691z"/>
<path fill="#ECD74C" d="M4.361,18.491l0.146-0.146l0.045,0.046l-0.097,0.095l0.1,0.101l0.084-0.084l0.046,0.046l-0.084,0.084l0.101,0.101l0.097-0.097l0.048,0.049L4.702,18.83L4.361,18.491z"/>
<path fill="#ECD74C" d="M4.773,18.402l-0.226-0.099L4.6,18.252l0.138,0.064l-0.063-0.139l0.052-0.051l0.097,0.227l0.249,0.107l-0.052,0.053l-0.157-0.074l0.072,0.158l-0.051,0.052L4.773,18.402z"/>
<path fill="#ECD74C" d="M4.858,18.085l-0.056,0.056l-0.046-0.046l0.162-0.161l0.045,0.046l-0.056,0.056l0.294,0.295l-0.049,0.049L4.858,18.085z"/>
<path fill="#ECD74C" d="M4.968,17.883l0.073-0.073c0.027-0.026,0.053-0.04,0.087-0.039c0.035,0.001,0.061,0.018,0.102,0.059c0.03,0.029,0.047,0.052,0.054,0.083c0.009,0.033,0,0.069-0.035,0.105l-0.025,0.024l0.133,0.133l-0.049,0.049L4.968,17.883z M5.179,17.996l0.023-0.023c0.04-0.039,0.017-0.063-0.017-0.098c-0.032-0.031-0.059-0.059-0.096-0.02L5.062,17.88L5.179,17.996z"/>
<path fill="#ECD74C" d="M5.228,17.623l0.041-0.041l0.416,0.266l-0.048,0.048l-0.088-0.059l-0.066,0.065l0.059,0.088l-0.049,0.051L5.228,17.623z M5.347,17.701L5.347,17.701l0.098,0.148l0.048-0.049L5.347,17.701z"/>
<path fill="#ECD74C" d="M5.449,17.494l-0.057,0.057l-0.045-0.046l0.161-0.161l0.046,0.045l-0.056,0.058l0.294,0.294l-0.048,0.049L5.449,17.494z"/>
<path fill="#ECD74C" d="M5.636,17.308l-0.057,0.056l-0.046-0.045l0.162-0.162l0.046,0.047l-0.056,0.055l0.294,0.296L5.93,17.602L5.636,17.308z"/>
<path fill="#ECD74C" d="M5.745,17.106l0.145-0.146l0.046,0.047L5.84,17.104l0.099,0.1l0.084-0.084l0.046,0.046L5.986,17.25l0.099,0.1l0.098-0.097l0.048,0.048l-0.146,0.146L5.745,17.106z"/>
<path fill="#ECD74C" d="M5.951,16.901l0.078-0.079c0.059-0.059,0.12-0.052,0.187,0.015c0.039,0.038,0.057,0.077,0.043,0.127l0.208,0.102l-0.052,0.053l-0.191-0.101l-0.028,0.029l0.145,0.146L6.291,17.24L5.951,16.901z M6.152,17.004l0.027-0.027c0.034-0.033,0.02-0.059-0.014-0.092c-0.034-0.035-0.059-0.047-0.095-0.013l-0.025,0.026L6.152,17.004z"/>
<path fill="#ECD74C" d="M6.181,16.671l0.047-0.047l0.279,0.132l0-0.002l-0.205-0.205l0.048-0.048l0.34,0.34l-0.045,0.046l-0.279-0.13H6.366l0.205,0.206l-0.049,0.048L6.181,16.671z"/>
<path fill="#FCC332" d="M4.252,18.669l-0.057,0.058L4.149,18.68l0.161-0.161l0.046,0.046L4.3,18.621l0.294,0.293l-0.049,0.051L4.252,18.669z"/>
<path fill="#FCC332" d="M4.361,18.469l0.146-0.146l0.045,0.045l-0.097,0.097l0.1,0.1L4.64,18.48l0.046,0.046L4.601,18.61l0.101,0.101l0.097-0.097l0.048,0.05l-0.145,0.145L4.361,18.469z"/>
<path fill="#FCC332" d="M4.773,18.381l-0.226-0.1L4.6,18.229l0.138,0.066l-0.063-0.139l0.052-0.051l0.097,0.226l0.249,0.107l-0.052,0.053l-0.157-0.073l0.072,0.158l-0.051,0.051L4.773,18.381z"/>
<path fill="#FCC332" d="M4.858,18.062l-0.056,0.055l-0.046-0.045l0.162-0.16l0.045,0.045l-0.056,0.057l0.294,0.294l-0.049,0.048L4.858,18.062z"/>
<path fill="#FCC332" d="M4.968,17.86l0.073-0.072c0.027-0.026,0.053-0.04,0.087-0.04c0.035,0.001,0.061,0.018,0.102,0.059c0.03,0.029,0.047,0.052,0.054,0.082c0.009,0.035,0,0.07-0.035,0.106L5.224,18.02l0.133,0.133l-0.049,0.049L4.968,17.86z M5.179,17.975l0.023-0.023c0.04-0.04,0.017-0.064-0.017-0.099c-0.032-0.032-0.059-0.059-0.096-0.02l-0.026,0.025L5.179,17.975z"/>
<path fill="#FCC332" d="M5.228,17.602l0.041-0.041l0.416,0.266l-0.048,0.048l-0.088-0.06l-0.066,0.066l0.059,0.088l-0.049,0.05L5.228,17.602z M5.347,17.68L5.347,17.68l0.098,0.147l0.048-0.048L5.347,17.68z"/>
<path fill="#FCC332" d="M5.449,17.472l-0.057,0.058l-0.045-0.046l0.161-0.162l0.046,0.046l-0.056,0.057l0.294,0.295l-0.048,0.048L5.449,17.472z"/>
<path fill="#FCC332" d="M5.636,17.285l-0.057,0.057l-0.046-0.046l0.162-0.161l0.046,0.046l-0.056,0.056l0.294,0.294L5.93,17.579L5.636,17.285z"/>
<path fill="#FCC332" d="M5.745,17.084l0.145-0.146l0.046,0.046L5.84,17.081l0.099,0.101l0.084-0.085l0.046,0.046l-0.084,0.084l0.099,0.1l0.098-0.096l0.048,0.048l-0.146,0.146L5.745,17.084z"/>
<path fill="#FCC332" d="M5.951,16.879L6.029,16.8c0.059-0.058,0.12-0.052,0.187,0.015c0.039,0.039,0.057,0.078,0.043,0.127l0.208,0.102l-0.052,0.053l-0.191-0.1l-0.028,0.028l0.145,0.146l-0.048,0.049L5.951,16.879z M6.152,16.981l0.027-0.027c0.034-0.034,0.02-0.059-0.014-0.092c-0.034-0.035-0.059-0.047-0.095-0.013l-0.025,0.027L6.152,16.981z"/>
<path fill="#FCC332" d="M6.181,16.648l0.047-0.047l0.279,0.132l0-0.001l-0.205-0.206l0.048-0.049l0.34,0.341l-0.045,0.046l-0.279-0.13l-0.001,0.001l0.205,0.204l-0.049,0.05L6.181,16.648z"/>
<rect x="3.278" y="20.908" transform="matrix(-0.7076 0.7066 -0.7066 -0.7076 21.0499 33.742)" fill-rule="evenodd" clip-rule="evenodd" fill="#3D2812" width="0.531" height="0.637"/>
<rect x="1.554" y="19.291" transform="matrix(0.7067 0.7075 -0.7075 0.7067 14.3852 4.41)" fill-rule="evenodd" clip-rule="evenodd" fill="#E2D9AC" width="0.638" height="0.53"/>
<rect x="2.443" y="19.529" transform="matrix(0.7071 -0.7071 0.7071 0.7071 -13.6255 7.8874)" fill-rule="evenodd" clip-rule="evenodd" fill="#FCC332" width="0.53" height="1.725"/>
<path fill-rule="evenodd" clip-rule="evenodd" fill="#473015" d="M16.396,8.373l-0.375-0.375L4.182,19.837c-0.451,0.45-0.676,0.977-0.676,0.977l0.45,0.451c0,0,0.15-0.601,0.601-1.052L16.396,8.373z"/>
<path fill-rule="evenodd" clip-rule="evenodd" fill="#EDE5B2" d="M14.727,6.703l-11.84,11.84c-0.451,0.45-1.051,0.601-1.051,0.601l0.45,0.45c0,0,0.525-0.225,0.977-0.676l11.839-11.84L14.727,6.703z"/>
</svg>
