<svg viewBox="0 0 208 32" width="208" height="32" xmlns="http://www.w3.org/2000/svg"><path d="m20.5 20.6c-1.4-1.4-2.8-2.9-4.1-4.3l3.6-3.6c.9-.8 1.9-1.4 2.9-1.9l2.5-2.5.6-.7-3.3-3.3-.7.4-2.5 2.5c-.5 1.1-1.1 2.1-1.9 2.9l-3.5 3.5-.2-.2c-1.3-1.3-3.5-3.3-4.5-4.2l2.4-2.4v-.5c-.5-.6-1-1.2-1.6-1.8-.6-.5-1.2-1-1.8-1.5h-.6l-7.8 7.8v.6c.5.6 1 1.2 1.6 1.8s1.2 1.1 1.8 1.6h.6l2.4-2.4c.9 1 2.9 3.2 4.2 4.5l.2.2-7.6 7.6c-.4.3-.8.5-1.2.6l-.7.7c.4.6.8 1.1 1.3 1.6s1.1 1 1.7 1.4l.7-.7c.1-.4.3-.8.7-1.2l7.7-7.7c1.4 1.3 2.9 2.7 4.3 4.1 2.7 2.7 5 5.3 5.1 5.4.4.4 1.3-.1 2.2-1s1.3-1.9 1-2.2c-.2-.1-2.8-2.4-5.5-5.1zm-10.8-10.5c1.1 1 2.8 2.6 3.9 3.6l.2.2-.6.6-.7-.7s.4.4.7.8l-.4.4-1-1-1.2-1.2c-.2-.2-.6-.6-.8-.9s-.6-.4-.8-.7l-.3-.3.4-.4c.4.4.8.8 1.1 1.2 1 1 2.1 1.9 2.1 1.9l-2-2-1.2-1.2c.2-.1.4-.2.6-.3zm2.7 5.3-.2.2-.4-.4c-.7-.7-1.6-1.6-2.4-2.5l-1.1-1.1c0-.1.1-.2.1-.3l1.3 1.2c.5.5 1.2 1.1 1.2 1.1-.6-.6-1.2-1.3-1.5-1.6s-.6-.6-1-.9l.2-.1c.1.1.3.2.4.3l.9.9.9.9c.3.3 1 1.1 1.2 1.2l.8.8-.4.3-2-2zm-8.1-8.2c-1.6 1.5-3.7 3.8-3.7 3.8.4.6.9 1.2 1.4 1.7s1.1 1 1.7 1.4l.1.3h-.4c-.6-.5-1.1-.9-1.6-1.5-.5-.5-1-1.1-1.5-1.6v-.4l7.6-7.6h.4c.6.4 1.1.9 1.6 1.5.5.5 1 1.1 1.5 1.6v.4l-.3-.1c-.4-.6-.9-1.2-1.4-1.7s-1.1-1-1.7-1.4c0 0-2.3 2.1-3.7 3.6zm4 4.5 1.2 1.3c.5.5 1.4 1.4 1.8 1.9l.8.8-.1.1c-.6-.6-1.4-1.4-2.6-2.6l-1.2-1.2c0-.1 0-.2.1-.3zm.3 1c-.2-.1-.3-.3-.3-.6.7.6 1.4 1.4 1.9 1.9s1.2 1.2 1.9 1.8l-.3.2zm-3.7 13.7c-.3.3-.6.7-.8 1.1l-.4.5.5.5c-.5-.4-1-.7-1.4-1.2-.4-.4-.8-.9-1.1-1.3l.4-.4c.5-.1.9-.4 1.2-.7l14-14 .5-.5c.8-.9 1.5-1.9 2-3l2.5-2.4.4-.3 2.9 2.9-.3.4-2.5 2.4c-1.2.3-2.4.8-3.5 1.6l-.5.5zm20.5.3c-.4-.3-1.6-1.4-1.8-1.6l-1.4-1.4c-.2-.2-.8-.7-.8-.7s.5.5.6.6.8.7 1.4 1.2l2 2c-.1.2-.3.4-.4.5-.3-.2-1.2-1.1-1.6-1.5s-.9-.9-1.4-1.4-1-1-1.5-1.4-1.8-1.8-1.8-1.8 1.3 1.5 1.8 2 .8.7 1.4 1.3 1.5 1.5 1.8 1.9.9.8 1.1 1l-.2.2-.2.2c-.1 0-.2-.1-.3-.2s-2.6-2.7-5.3-5.4c-1-1-3-2.8-3.2-3.1-.2-.1-.3-.4-.4-.6.3.3.6.5.9.8.8.7 1.6 1.4 1.6 1.4s-1.3-1.4-1.9-1.9c-.1-.1-.3-.3-.6-.5 0-.1 0-.2.1-.3l.7 1c.6.6 1.2 1.3 1.6 1.6l1.3 1.3s-1.2-1.4-2-2.1l-1.6-1.6.1-.2.1-.1 1.5 1.6c.7.7 1.6 1.6 2 2.1s1.5 1.5 2 2l1.7 1.7c.5.5 1.8 1.5 1.8 1.5l-2.7-2.8c-.7-.7-1.6-1.5-2.1-2-.6-.6-1.6-1.7-2.2-2.2s-.7-.6-.8-.7l-1.1-1.1c.3-.4.7-.7 1.2-.8 1.1 1.2 2.4 2.5 3.5 3.7 2.7 2.7 5.3 5.1 5.4 5.1 0 .2-.1.5-.3.7zm19.4-13.3c0-.2.1-.5.1-.8l.1-.9v-1.7h-11v1.8c0 .3 0 .6.1.9 0 .3.1.5.1.8v.1h.7l1-2.4h2.6v9.8c-.3 0-.6.1-.8.2-.3.1-.6.1-.8.2h-.1v.6h5.5v-.7h-.1c-.3-.1-.5-.2-.8-.2-.2 0-.5-.1-.8-.1v-9.8h2.6l1 2.4h.7s-.1-.2-.1-.2zm6.6.1c-.3-.3-.6-.5-1-.6s-.8-.2-1.2-.2c-1.2 0-2.1.4-2.8 1.2s-1 2-1 3.5c0 .7.1 1.4.3 1.9.2.6.4 1.1.8 1.5.3.4.8.7 1.3 1 .5.2 1.1.3 1.7.3.3 0 .6 0 .9-.1s.6-.2.8-.3.5-.3.7-.5.3-.4.4-.6v-.1l-.4-.4-.1.1c-.2.2-.5.3-.8.4-.4.1-.8.2-1.1.2-.5 0-.8-.1-1.2-.3-.3-.2-.6-.4-.8-.7s-.4-.7-.5-1.1-.2-.8-.2-1.2h5.1v-.1c0-.2.1-.5.1-.7v-.6c0-.6-.1-1.2-.3-1.6-.2-.4-.4-.7-.7-1zm-2.3.3c.5 0 .9.2 1.1.6s.4 1 .4 1.7v.5h-3.4c.1-1 .3-1.8.6-2.2s.7-.6 1.3-.6zm13.1 7.3c-.2-.1-.4-.1-.5-.2l-2.7-3.7 2.4-3.1c.4-.1.8-.3 1-.4h.1v-.7h-3.2v.6c.2.1.4.3.8.4l-1.6 2.3-1.7-2.3c.1 0 .2-.1.3-.1.1-.1.3-.2.4-.3h.1v-.6h-3.8v.7h.1c.1.1.3.2.4.2.1.1.3.1.4.2l2.6 3.4-2.6 3.4c-.3.1-.7.2-1 .4h-.1v.7h3.3v-.6h-.1c-.1-.1-.3-.2-.4-.2s-.2-.1-.3-.1l1.8-2.6 1.8 2.6c-.1 0-.2.1-.3.1-.1.1-.3.2-.5.3h-.1v.5h3.9v-.6h-.1c-.1-.2-.3-.3-.4-.3zm6.8-.4c-.2.1-.5.1-.8.2h-.8c-.4 0-.7-.1-.9-.4s-.3-.7-.3-1.4v-4.8h2.7v-1.1h-2.7v-2.2h-.6l-.6.3-.6.3v1.4c-.5.1-.9.3-1.4.6h-.1v.7h1.4v5.3c0 .9.2 1.6.6 2s1 .6 1.7.6c.3 0 .6 0 .8-.1.3-.1.5-.2.7-.3l.6-.3c.2-.1.3-.2.4-.3l.1-.1s-.2-.4-.2-.4zm6.4-7.6c-.7 0-1.3.2-1.8.6-.3.3-.6.6-.8 1v-1.6h-.6c-.4.1-.8.1-1.2.2s-.8.2-1.2.4h-.1v.7l1.2.1v10.3c-.4.1-.7.2-1.1.4h-.1v.8h4.3v-.7h-.1l-.6-.3c-.2-.1-.3-.1-.5-.1v-2.5c.2.1.5.2.7.2.3.1.6.1 1.1.1.6 0 1.2-.1 1.8-.4.5-.2 1-.6 1.4-1s.7-1 .9-1.6.3-1.3.3-2.1c0-1.6-.3-2.8-.9-3.5-.8-.7-1.6-1-2.7-1zm1.5 4.6c0 .6-.1 1.1-.2 1.6s-.3.9-.5 1.3-.5.6-.8.8-.6.3-1 .3-.8 0-1-.1-.4-.1-.6-.2v-4.9c.1-.6.4-1.1.7-1.4s.8-.5 1.3-.5c.4 0 .7.1 1 .2.3.2.5.4.6.7.2.3.3.6.4 1 .1.2.1.7.1 1.2zm10 2.6v-4.6c0-.3 0-.7-.1-1s-.2-.7-.4-1-.5-.5-.9-.7-.9-.3-1.5-.3c-.7 0-1.3.1-1.9.2-.6.2-1.1.4-1.5.6h-.1v.1c0 .4.1.8.2 1.1.1.4.2.7.3 1.1v.1h.6l.9-2.1c.2-.1.4-.1.5-.1h.6c.3 0 .6.1.8.2s.4.3.5.6.2.6.2 1v1.2c-.8 0-1.5.1-2.1.2s-1.2.2-1.6.4-.8.5-1 .9-.4 1-.4 1.6c0 .7.2 1.3.7 1.8s1.1.7 1.9.7c.4 0 .8-.1 1.1-.2s.6-.3.8-.5.4-.4.6-.7c.1-.1.1-.2.2-.3v.6c0 .3.1.7.2.9v.1h.5c.3-.1.7-.1 1.1-.3.4-.1.7-.3 1-.4h.1v-.6l-1.2-.1c-.1-.2-.1-.4-.1-.5zm-2.3 0c-.1.2-.3.3-.5.4s-.5.2-.7.2c-.4 0-.7-.1-1-.4-.2-.2-.4-.6-.4-1.1 0-.3 0-.5.1-.7s.2-.4.5-.5c.2-.1.6-.3 1-.3.4-.1.9-.1 1.6-.1v1.7c0 .1-.1.2-.2.4-.1.1-.2.3-.4.4zm10.1.4c-.2.1-.5.1-.8.2h-.8c-.4 0-.7-.1-.9-.4s-.3-.7-.3-1.4v-4.8h2.7v-1.1h-2.7v-2.2h-.7l-.6.3-.6.3v1.4c-.5.1-.9.3-1.4.6h-.1v.7h1.4v5.3c0 .9.2 1.6.6 2s1 .6 1.7.6c.3 0 .6 0 .8-.1.3-.1.5-.2.7-.3l.6-.3c.2-.1.3-.2.4-.3l.1-.1-.2-.4zm6.6 0c-.2.1-.5.1-.8.2h-.8c-.4 0-.7-.1-.9-.4s-.3-.7-.3-1.4v-4.8h2.7v-1.1h-2.7v-2.2h-.6l-.6.3-.6.3v1.4c-.5.1-.9.3-1.4.6h-.1v.7h1.4v5.3c0 .9.2 1.6.6 2s1 .6 1.7.6c.3 0 .6 0 .8-.1.3-.1.5-.2.7-.3l.6-.3c.2-.1.3-.2.4-.3l.1-.1s-.2-.4-.2-.4zm7.6-7.2c-.3-.3-.7-.5-1.1-.6s-.8-.2-1.3-.2c-1.3 0-2.3.4-3.1 1.2-.7.8-1.1 2-1.1 3.5 0 .7.1 1.4.3 1.9.2.6.5 1.1.8 1.5.4.4.8.7 1.4 1 .5.2 1.2.3 1.9.3.3 0 .7 0 1-.1l.9-.3c.3-.1.5-.3.7-.5s.4-.4.5-.6v-.1l-.4-.4-.1.1c-.2.2-.5.3-.9.4s-.8.2-1.2.2c-.5 0-.9-.1-1.3-.3s-.7-.4-.9-.7-.4-.7-.5-1.1-.2-.8-.2-1.2h5.5v-.1c0-.2.1-.5.1-.7v-.6c0-.6-.1-1.2-.3-1.6-.1-.4-.4-.7-.7-1zm-2.5.3c.6 0 1 .2 1.2.6.3.4.4 1 .4 1.7v.5h-3.7c.1-1 .3-1.8.6-2.2.4-.4.9-.6 1.5-.6zm10.9-.2c-.1-.2-.1-.4-.2-.5v-.1h-.1c-.3 0-.7 0-1 .1s-.6.2-.9.4-.5.4-.7.6c-.1.1-.2.3-.3.4v-1.5h-.6c-.4.1-.8.1-1.2.2s-.8.2-1.2.4h-.1v.6l1.2.1v6.5c-.2 0-.3.1-.5.1-.2.1-.4.1-.6.3h-.1v.8h4.5v-.6h-.1c-.2-.1-.5-.2-.7-.3s-.4-.1-.6-.1v-5c.1-.4.3-.7.5-.9l.4-.4h2.5v-.6c-.1-.2-.1-.3-.2-.5zm10.6 7.7c-.3-.2-.7-.3-1.1-.4v-4.2c0-.7-.1-1.3-.2-1.8s-.3-.9-.6-1.2-.6-.5-1-.6-.8-.2-1.3-.2c-.7 0-1.3.2-1.8.6-.4.3-.7.6-.9 1v-1.5h-.6c-.4.1-.9.2-1.3.3s-.8.2-1.1.3h-.1v.6l1.2.1v6.5c-.5.1-.8.3-1.1.4h-.1v.8h4.1v-.6h-.1c-.3-.2-.7-.3-1-.4v-4.9l.3-.6c.1-.2.3-.4.5-.6s.4-.3.6-.4.5-.1.8-.1c.6 0 1.1.2 1.3.7.3.5.4 1.1.4 2v4c-.4.1-.7.2-1 .4h-.1v.5h4.1s.1-.7.1-.7z"/><path d="m137 16v8h5v-6h4v6h5v-8h2l-9-9-5 5v-2h-2v4l-2 2zm27-10h24v4h-24zm0 8h24v4h-24zm0 8h24v4h-24z" fill="#333"/><path d="m207 8h-15l7.5-8" fill="#fff"/><g fill="#ccc"><path d="m208 8h-1l-7.5-8h1"/><path d="m192 8h-1l8.5-8h1"/></g></svg>