<?xml version="1.0" encoding="utf-8"?>
<!DOCTYPE svg>
<svg version="1.1" baseProfile="full" xmlns="http://www.w3.org/2000/svg" xmlns:xlink="http://www.w3.org/1999/xlink" x="0px" y="0px" width="208px" height="32px" viewBox="0 0 208 32" enable-background="new 0 0 208 32" xml:space="preserve">
<g id="sprite-textpattern">
    <path d="M6,24a0.13,0.13,0,0,1,.1,0,0.17,0.17,0,0,1,.12.07,0.2,0.2,0,0,1,.06.1,0.1,0.1,0,0,0,0,0A0.2,0.2,0,0,0,6.18,24a0.18,0.18,0,0,0-.12-0.07A0.13,0.13,0,0,0,6,24l-0.09.09h0Zm0.77-.77,0,0h0l-0.05-.05-0.19.19h0Zm-0.22.22,0,0h0l-0.05-.05-0.19.19h0Zm-0.7.7,0,0h0l-0.05-.05-0.19.19h0ZM7,23l0,0H7L7,23l-0.17.17h0ZM5.44,24.54L5.6,24.62l0,0-0.15-.07-0.06.06h0ZM7.3,23a0.06,0.06,0,0,0,0-.06l0,0,0,0-0.11-.11h0l0.13,0.13Zm0.06-.42,0.33,0.16h0l0,0-0.28-.13-0.06.06h0ZM7,23.28l-0.11-.11h0L7,23.3l0.1-.1,0,0h0l-0.05-.05ZM6.48,24l0,0-0.09-.13,0,0h0l0.12,0.17L6.49,24h0Zm0.24-.63L7.05,23.7h0l-0.33-.33h0Zm0.47,0.08-0.1-.11h0l0.12,0.12,0.11-.11,0,0h0l-0.06-.06Zm-1,.32v0l0,0,0.48,0.3,0,0-0.49-.31Zm0.3,0.36,0.06,0.09h0l-0.06-.09h0Zm0-.54,0.33,0.33h0l-0.33-.33h0Zm0.82-.47,0.16,0.16h0l-0.16-.16h0Zm0.2-.34h0L7.75,23h0l-0.2-.2Zm-0.08-.27h0l0,0,0.39,0.39h0l-0.4-.4Zm-0.1.34a0.14,0.14,0,0,0-.22,0L7,22.92H7l0.08-.08a0.14,0.14,0,0,1,.22,0A0.14,0.14,0,0,1,7.4,23l0.23,0.11,0,0L7.4,23A0.15,0.15,0,0,0,7.34,22.84Zm-2.07,2h0l0.12,0.12,0.1-.1,0,0h0l-0.05-.05-0.1.1Zm-0.14.12h0l-0.05-.05L4.9,25h0l0.18-.18ZM5.08,25l0.33,0.33h0L5.1,25h0Zm0.47,0.08L5.45,25h0l0.12,0.12L5.67,25l0,0h0L5.67,25Zm-0.23-.43,0,0h0l-0.05-.05-0.17.17h0Zm0.47-.37,0.33,0.33h0l-0.33-.33h0Zm-0.05.48,0.08,0.17h0l-0.07-.15h0Zm0.4-.58,0,0L6,24.09H6l0.14,0.14,0,0a0.06,0.06,0,0,0,0-.06Zm-0.56.18-0.06.06v0l0.05-.05L5.7,24.66,6,24.78l0,0L5.7,24.64Zm0.59-.07,0.14,0.14h0l-0.14-.14h0Zm16.47,4.53h0Zm-4.56-9.21s0.49,0.56.75,0.82l0.83,0.81s-0.34-.41-0.74-0.81S18.08,19.62,18.08,19.62Zm2.42,1c-1.39-1.39-2.78-2.91-4.06-4.29l3.62-3.62A13.56,13.56,0,0,1,23,10.79l2.54-2.54L26,7.58,22.72,4.3l-0.66.45L19.51,7.29a13.54,13.54,0,0,1-1.88,2.95l-3.54,3.54-0.24-.24c-1.33-1.33-3.54-3.33-4.53-4.22L11.7,6.94V6.33a15.68,15.68,0,0,0-1.57-1.77A15.38,15.38,0,0,0,8.36,3H7.76L0,10.76v0.6a15.47,15.47,0,0,0,1.57,1.77A21.93,21.93,0,0,0,3.34,14.7H3.94l2.37-2.37c0.89,1,2.89,3.2,4.22,4.53l0.24,0.24L3.18,24.68A3.07,3.07,0,0,1,2,25.33L1.3,26a10.58,10.58,0,0,0,1.28,1.61h0A12.77,12.77,0,0,0,4.27,29L5,28.3a3.07,3.07,0,0,1,.65-1.18l7.67-7.67c1.38,1.27,2.9,2.67,4.29,4.06,2.68,2.68,5,5.29,5.11,5.36,0.37,0.37,1.31-.06,2.22-1s1.3-1.88,1-2.2C25.76,25.59,23.19,23.26,20.5,20.57ZM9.74,10.13c1.11,1,2.79,2.55,3.88,3.64L13.86,14l-0.59.59-0.74-.74s0.35,0.44.67,0.81l-0.42.41-1-1-1.18-1.17C10.37,12.67,10,12.25,9.8,12S9.22,11.5,9,11.24l-0.33-.32a3.25,3.25,0,0,1,.42-0.39c0.35,0.38.75,0.8,1.14,1.19,1,1,2.09,1.94,2.09,1.94l-2-2L9.11,10.48a2.06,2.06,0,0,1,.63-0.35h0Zm2.68,5.31-0.19.19-0.41-.41c-0.71-.71-1.59-1.63-2.45-2.48L8.24,11.59a1.86,1.86,0,0,1,.11-0.27l1.28,1.24c0.48,0.48,1.24,1.12,1.24,1.12-0.56-.57-1.23-1.32-1.47-1.56s-0.61-.58-1-0.91L8.56,11c0.14,0.12.26,0.21,0.35,0.31L9.81,12.2l0.93,0.92c0.32,0.32,1,1.06,1.17,1.23l0.82,0.8-0.23.23-2.08-1.9ZM5.9,9.58L5.44,9.12l-0.09.09L5.28,9.14l0,0L5.35,9.18l0.09-.09L5.9,9.55,6,9.49l0,0ZM5.51,9l0.07-.07,0,0L5.53,9ZM6.07,9.41L5.9,9,5.55,8.87l0,0L5.9,9,6.07,9.37,6.14,9.3v0ZM5.75,8.67h0L5.84,8.86h0ZM6.28,9.2l-0.23-.1,0,0L6.28,9.16l0.06-.06h0ZM6.4,9.08L5.87,8.55l0,0L6.4,9,6.46,9l0,0ZM6,8.51l0,0c0.06-.06.1,0,0.15,0a0.12,0.12,0,0,1,.06.1,0.21,0.21,0,0,0-.06-0.07s-0.09-.09-0.15,0l0,0ZM6.27,8.77l0,0a0.17,0.17,0,0,0,.05-0.13h0a0.17,0.17,0,0,1-.05.17l0,0Zm-2-1.54C2.73,8.73.6,11,.6,11A8,8,0,0,0,2,12.74,8,8,0,0,0,3.71,14.1l0.1,0.28H3.44A14.57,14.57,0,0,1,1.8,12.9,14.65,14.65,0,0,1,.32,11.26V10.89L7.89,3.33H8.26A14.51,14.51,0,0,1,9.9,4.8a14.58,14.58,0,0,1,1.47,1.64V6.81l-0.28-.1A9.47,9.47,0,0,0,9.71,5,9.46,9.46,0,0,0,8,3.6S5.73,5.73,4.23,7.23Zm4,4.49L9.54,13c0.54,0.54,1.35,1.42,1.84,1.92l0.8,0.75-0.12.12c-0.61-.6-1.45-1.41-2.62-2.58L8.17,12A1.1,1.1,0,0,1,8.2,11.71Zm0.29,1a1,1,0,0,1-.31-0.55c0.66,0.64,1.42,1.37,1.94,1.9s1.23,1.2,1.88,1.81L11.84,16ZM4.94,26.44a4.16,4.16,0,0,0-.8,1.15h0L3.7,28l0.53,0.53a14.89,14.89,0,0,1-1.42-1.16,12.5,12.5,0,0,1-1.09-1.34l0.44-.44a3,3,0,0,0,1.24-.71l14-14,0,0,0.46-.46a14.5,14.5,0,0,0,2-3L22.26,5l0.41-.28,2.9,2.9L25.3,8h0l-2.45,2.45A9.38,9.38,0,0,0,19.39,12l-0.49.49h0Zm20.5,0.28c-0.35-.3-1.56-1.36-1.83-1.63l-1.4-1.4C22,23.5,21.35,23,21.35,23s0.47,0.51.6,0.64,0.84,0.72,1.37,1.25l2,2a5.16,5.16,0,0,1-.43.54c-0.29-.25-1.21-1.06-1.62-1.47s-0.92-.87-1.43-1.39-1-1-1.47-1.41-1.75-1.81-1.75-1.81,1.33,1.52,1.82,2,0.84,0.73,1.43,1.32,1.47,1.51,1.82,1.86,0.9,0.78,1.13,1l-0.16.17-0.25.24h0a0.57,0.57,0,0,1-.28-0.19c-0.12-.12-2.62-2.66-5.31-5.35-1-1-3-2.82-3.24-3.06a1,1,0,0,1-.36-0.59c0.29,0.27.59,0.55,0.86,0.82C16.86,20.31,17.66,21,17.66,21s-1.32-1.35-1.9-1.93c-0.13-.13-0.32-0.3-0.55-0.5a0.94,0.94,0,0,1,.07-0.33L16.05,19c0.57,0.57,1.23,1.28,1.56,1.62l1.26,1.29s-1.25-1.41-2-2.14l-1.57-1.6L15.41,18l0.09-.12L17,19.44c0.66,0.66,1.57,1.61,2,2.08s1.51,1.47,2,2l1.71,1.69c0.47,0.47,1.75,1.55,1.75,1.55L21.75,24c-0.73-.73-1.65-1.54-2.1-2C19,21.4,18,20.3,17.45,19.76s-0.69-.63-0.81-0.74l-1.11-1.15a2.15,2.15,0,0,1,1.19-.81c1.13,1.23,2.35,2.54,3.55,3.74,2.69,2.69,5.34,5.09,5.37,5.12A0.87,0.87,0,0,1,25.45,26.72Z"/>
    <path d="M44.8,13.4c0-0.2,0.1-0.5,0.1-0.8l0.1-0.9c0-0.3,0-0.6,0-0.9c0-0.3,0-0.5,0-0.8l0,0H34v0.2c0,0.2,0,0.4,0,0.7c0,0.3,0,0.6,0,0.9c0,0.3,0,0.6,0.1,0.9c0,0.3,0.1,0.5,0.1,0.8v0.1h0.7l1-2.4h2.6V21c-0.3,0-0.6,0.1-0.8,0.2c-0.3,0.1-0.6,0.1-0.8,0.2h-0.1V22h5.5v-0.7h-0.1c-0.3-0.1-0.5-0.2-0.8-0.2c-0.2,0-0.5-0.1-0.8-0.1v-9.8h2.6l1,2.4h0.7L44.8,13.4z"/>
    <path d="M51.4,13.5c-0.3-0.3-0.6-0.5-1-0.6s-0.8-0.2-1.2-0.2c-1.2,0-2.1,0.4-2.8,1.2s-1,2-1,3.5c0,0.7,0.1,1.4,0.3,1.9c0.2,0.6,0.4,1.1,0.8,1.5c0.3,0.4,0.8,0.7,1.3,1c0.5,0.2,1.1,0.3,1.7,0.3c0.3,0,0.6,0,0.9-0.1c0.3-0.1,0.6-0.2,0.8-0.3c0.2-0.1,0.5-0.3,0.7-0.5s0.3-0.4,0.4-0.6v-0.1l-0.4-0.4l-0.1,0.1c-0.2,0.2-0.5,0.3-0.8,0.4c-0.4,0.1-0.8,0.2-1.1,0.2c-0.5,0-0.8-0.1-1.2-0.3c-0.3-0.2-0.6-0.4-0.8-0.7s-0.4-0.7-0.5-1.1s-0.2-0.8-0.2-1.2h5.1v-0.1c0-0.2,0.1-0.5,0.1-0.7s0-0.4,0-0.6c0-0.6-0.1-1.2-0.3-1.6C51.9,14.1,51.7,13.8,51.4,13.5z M49.1,13.8c0.5,0,0.9,0.2,1.1,0.6c0.2,0.4,0.4,1,0.4,1.7c0,0.1,0,0.2,0,0.3c0,0.1,0,0.1,0,0.2h-3.4c0.1-1,0.3-1.8,0.6-2.2C48.1,14,48.5,13.8,49.1,13.8z"/>
    <path d="M62.2,21.1C62,21,61.8,21,61.7,20.9L59,17.2l2.4-3.1c0.4-0.1,0.8-0.3,1-0.4h0.1V13h-3.2v0.6l0,0c0.2,0.1,0.4,0.3,0.8,0.4l-1.6,2.3L56.8,14c0.1,0,0.2-0.1,0.3-0.1c0.1-0.1,0.3-0.2,0.4-0.3h0.1V13h-3.8v0.7h0.1c0.1,0.1,0.3,0.2,0.4,0.2c0.1,0.1,0.3,0.1,0.4,0.2l2.6,3.4l-2.6,3.4c-0.3,0.1-0.7,0.2-1,0.4h-0.1V22h3.3v-0.6h-0.1c-0.1-0.1-0.3-0.2-0.4-0.2c-0.1,0-0.2-0.1-0.3-0.1l1.8-2.6l1.8,2.6c-0.1,0-0.2,0.1-0.3,0.1c-0.1,0.1-0.3,0.2-0.5,0.3h-0.1V22h3.9v-0.6h-0.1C62.5,21.2,62.3,21.1,62.2,21.1z"/>
    <path d="M69,20.7c-0.2,0.1-0.5,0.1-0.8,0.2c-0.3,0-0.6,0-0.8,0c-0.4,0-0.7-0.1-0.9-0.4c-0.2-0.3-0.3-0.7-0.3-1.4v-4.8h2.7v-1.1h-2.7V11h-0.6l0,0c-0.2,0.1-0.4,0.2-0.6,0.3s-0.4,0.2-0.6,0.3l0,0V13c-0.5,0.1-0.9,0.3-1.4,0.6h-0.1v0.7h1.4v5.3c0,0.9,0.2,1.6,0.6,2s1,0.6,1.7,0.6c0.3,0,0.6,0,0.8-0.1c0.3-0.1,0.5-0.2,0.7-0.3c0.2-0.1,0.4-0.2,0.6-0.3c0.2-0.1,0.3-0.2,0.4-0.3l0.1-0.1L69,20.7L69,20.7z"/>
    <path d="M75.4,13.1c-0.7,0-1.3,0.2-1.8,0.6c-0.3,0.3-0.6,0.6-0.8,1v-1.6h-0.6c-0.4,0.1-0.8,0.1-1.2,0.2c-0.4,0.1-0.8,0.2-1.2,0.4h-0.1v0.7l1.2,0.1v10.3c-0.4,0.1-0.7,0.2-1.1,0.4h-0.1V26H74v-0.7h-0.1c-0.2-0.1-0.4-0.2-0.6-0.3c-0.2-0.1-0.3-0.1-0.5-0.1v-2.5c0.2,0.1,0.5,0.2,0.7,0.2c0.3,0.1,0.6,0.1,1.1,0.1c0.6,0,1.2-0.1,1.8-0.4c0.5-0.2,1-0.6,1.4-1s0.7-1,0.9-1.6c0.2-0.6,0.3-1.3,0.3-2.1c0-1.6-0.3-2.8-0.9-3.5C77.3,13.4,76.5,13.1,75.4,13.1z M76.9,17.7c0,0.6-0.1,1.1-0.2,1.6s-0.3,0.9-0.5,1.3s-0.5,0.6-0.8,0.8c-0.3,0.2-0.6,0.3-1,0.3s-0.8,0-1-0.1s-0.4-0.1-0.6-0.2v-4.9c0.1-0.6,0.4-1.1,0.7-1.4c0.3-0.3,0.8-0.5,1.3-0.5c0.4,0,0.7,0.1,1,0.2c0.3,0.2,0.5,0.4,0.6,0.7c0.2,0.3,0.3,0.6,0.4,1C76.9,16.7,76.9,17.2,76.9,17.7z"/>
    <path d="M86.9,20.3c0-0.2,0-0.4,0-0.7c0-0.6,0-1.2,0-1.9s0-1.3,0-2c0-0.3,0-0.7-0.1-1s-0.2-0.7-0.4-1c-0.2-0.3-0.5-0.5-0.9-0.7s-0.9-0.3-1.5-0.3c-0.7,0-1.3,0.1-1.9,0.2c-0.6,0.2-1.1,0.4-1.5,0.6h-0.1v0.1c0,0.4,0.1,0.8,0.2,1.1c0.1,0.4,0.2,0.7,0.3,1.1v0.1h0.6l0.9-2.1c0.2-0.1,0.4-0.1,0.5-0.1c0.2,0,0.4,0,0.6,0c0.3,0,0.6,0.1,0.8,0.2c0.2,0.1,0.4,0.3,0.5,0.6s0.2,0.6,0.2,1s0,0.8,0,1.2c-0.8,0-1.5,0.1-2.1,0.2c-0.6,0.1-1.2,0.2-1.6,0.4c-0.4,0.2-0.8,0.5-1,0.9c-0.2,0.4-0.4,1-0.4,1.6c0,0.7,0.2,1.3,0.7,1.8s1.1,0.7,1.9,0.7c0.4,0,0.8-0.1,1.1-0.2c0.3-0.1,0.6-0.3,0.8-0.5c0.2-0.2,0.4-0.4,0.6-0.7c0.1-0.1,0.1-0.2,0.2-0.3c0,0.2,0,0.4,0,0.6c0,0.3,0.1,0.7,0.2,0.9v0.1H86c0.3-0.1,0.7-0.1,1.1-0.3c0.4-0.1,0.7-0.3,1-0.4h0.1v-0.6L87,20.8C86.9,20.6,86.9,20.4,86.9,20.3z M84.6,20.3c-0.1,0.2-0.3,0.3-0.5,0.4s-0.5,0.2-0.7,0.2c-0.4,0-0.7-0.1-1-0.4c-0.2-0.2-0.4-0.6-0.4-1.1c0-0.3,0-0.5,0.1-0.7c0.1-0.2,0.2-0.4,0.5-0.5c0.2-0.1,0.6-0.3,1-0.3c0.4-0.1,0.9-0.1,1.6-0.1v1.7c0,0.1-0.1,0.2-0.2,0.4C84.9,20,84.8,20.2,84.6,20.3z"/>
    <path d="M94.7,20.7c-0.2,0.1-0.5,0.1-0.8,0.2c-0.3,0-0.6,0-0.8,0c-0.4,0-0.7-0.1-0.9-0.4c-0.2-0.3-0.3-0.7-0.3-1.4v-4.8h2.7v-1.1h-2.7V11h-0.6h-0.1c-0.2,0.1-0.4,0.2-0.6,0.3s-0.4,0.2-0.6,0.3l0,0V13c-0.5,0.1-0.9,0.3-1.4,0.6h-0.1v0.7h1.4v5.3c0,0.9,0.2,1.6,0.6,2s1,0.6,1.7,0.6c0.3,0,0.6,0,0.8-0.1c0.3-0.1,0.5-0.2,0.7-0.3c0.2-0.1,0.4-0.2,0.6-0.3c0.2-0.1,0.3-0.2,0.4-0.3l0.1-0.1l-0.2-0.4L94.7,20.7z"/>
    <path d="M101.3,20.7c-0.2,0.1-0.5,0.1-0.8,0.2c-0.3,0-0.6,0-0.8,0c-0.4,0-0.7-0.1-0.9-0.4c-0.2-0.3-0.3-0.7-0.3-1.4v-4.8h2.7v-1.1h-2.7V11H98h-0.1c-0.2,0.1-0.4,0.2-0.6,0.3s-0.4,0.2-0.6,0.3l0,0V13c-0.5,0.1-0.9,0.3-1.4,0.6h-0.1v0.7h1.4v5.3c0,0.9,0.2,1.6,0.6,2s1,0.6,1.7,0.6c0.3,0,0.6,0,0.8-0.1c0.3-0.1,0.5-0.2,0.7-0.3c0.2-0.1,0.4-0.2,0.6-0.3c0.2-0.1,0.3-0.2,0.4-0.3l0.1-0.1L101.3,20.7L101.3,20.7z"/>
    <path d="M108.9,13.5c-0.3-0.3-0.7-0.5-1.1-0.6s-0.8-0.2-1.3-0.2c-1.3,0-2.3,0.4-3.1,1.2c-0.7,0.8-1.1,2-1.1,3.5c0,0.7,0.1,1.4,0.3,1.9c0.2,0.6,0.5,1.1,0.8,1.5c0.4,0.4,0.8,0.7,1.4,1c0.5,0.2,1.2,0.3,1.9,0.3c0.3,0,0.7,0,1-0.1s0.6-0.2,0.9-0.3c0.3-0.1,0.5-0.3,0.7-0.5s0.4-0.4,0.5-0.6v-0.1l-0.4-0.4l-0.1,0.1c-0.2,0.2-0.5,0.3-0.9,0.4s-0.8,0.2-1.2,0.2c-0.5,0-0.9-0.1-1.3-0.3c-0.4-0.2-0.7-0.4-0.9-0.7c-0.2-0.3-0.4-0.7-0.5-1.1s-0.2-0.8-0.2-1.2h5.5v-0.1c0-0.2,0.1-0.5,0.1-0.7s0-0.4,0-0.6c0-0.6-0.1-1.2-0.3-1.6C109.5,14.1,109.2,13.8,108.9,13.5z M106.4,13.8c0.6,0,1,0.2,1.2,0.6c0.3,0.4,0.4,1,0.4,1.7c0,0.1,0,0.2,0,0.3c0,0.1,0,0.1,0,0.2h-3.7c0.1-1,0.3-1.8,0.6-2.2C105.3,14,105.8,13.8,106.4,13.8z"/>
    <path d="M117.3,13.6c-0.1-0.2-0.1-0.4-0.2-0.5V13H117c-0.3,0-0.7,0-1,0.1s-0.6,0.2-0.9,0.4s-0.5,0.4-0.7,0.6c-0.1,0.1-0.2,0.3-0.3,0.4V13h-0.6c-0.4,0.1-0.8,0.1-1.2,0.2c-0.4,0.1-0.8,0.2-1.2,0.4H111v0.6l1.2,0.1v6.5c-0.2,0-0.3,0.1-0.5,0.1c-0.2,0.1-0.4,0.1-0.6,0.3H111V22h4.5v-0.6h-0.1c-0.2-0.1-0.5-0.2-0.7-0.3c-0.2-0.1-0.4-0.1-0.6-0.1v-5c0.1-0.4,0.3-0.7,0.5-0.9s0.3-0.3,0.4-0.4h2.5v-0.6l0,0C117.4,13.9,117.4,13.8,117.3,13.6z"/>
    <path d="M127.9,21.3c-0.3-0.2-0.7-0.3-1.1-0.4v-4.2c0-0.7-0.1-1.3-0.2-1.8s-0.3-0.9-0.6-1.2c-0.3-0.3-0.6-0.5-1-0.6s-0.8-0.2-1.3-0.2c-0.7,0-1.3,0.2-1.8,0.6c-0.4,0.3-0.7,0.6-0.9,1V13h-0.6c-0.4,0.1-0.9,0.2-1.3,0.3s-0.8,0.2-1.1,0.3h-0.1v0.6l1.2,0.1v6.5c-0.5,0.1-0.8,0.3-1.1,0.4h-0.1V22h4.1v-0.6h-0.1c-0.3-0.2-0.7-0.3-1-0.4v-4.9c0.1-0.2,0.2-0.4,0.3-0.6c0.1-0.2,0.3-0.4,0.5-0.6c0.2-0.2,0.4-0.3,0.6-0.4c0.2-0.1,0.5-0.1,0.8-0.1c0.6,0,1.1,0.2,1.3,0.7c0.3,0.5,0.4,1.1,0.4,2v4c-0.4,0.1-0.7,0.2-1,0.4h-0.1V22h4.1L127.9,21.3L127.9,21.3z"/>
</g>
<g id="sprite-home" fill="#333333">
    <path d="M151,24h-14v-8l7-7l7,7V24z M146,17h-4v6h4V17z"/>
    <polygon points="144,7 139,12 139,10 137,10 137,14 135,16 136,16 144,8 152,16 153,16"/>
</g>
<g id="sprite-hamburger" fill="#333333">
    <rect x="164" y="6" width="24" height="4"/>
    <rect x="164" y="14" width="24" height="4"/>
    <rect x="164" y="22" width="24" height="4"/>
</g>
<g id="sprite-indicator">
    <polygon fill="#ffffff" points="207,8 192,8 199.5,0"/>
    <polygon fill="#cccccc" points="208,8 207,8 199.5,0 200.5,0"/>
    <polygon fill="#cccccc" points="192,8 191,8 199.5,0 200.5,0"/>
</g>
</svg>
