<svg xmlns="http://www.w3.org/2000/svg" width="208" height="32"><path d="M6 24a.13.13 0 0 1 .1 0 .17.17 0 0 1 .12.07.2.2 0 0 1 .06.1.2.2 0 0 0-.1-.17.18.18 0 0 0-.12-.07A.13.13 0 0 0 6 24l-.09.09zm.77-.77l-.05-.05-.19.19zm-.22.22l-.05-.05-.19.19zm-.7.7l-.05-.05-.19.19zM7 23l-.17.17zm-1.56 1.54l.16.08-.15-.07-.06.06zM7.3 23a.06.06 0 0 0 0-.06l-.11-.11.13.13zm.06-.42l.33.16-.28-.13-.06.06zm-.36.7l-.11-.11.11.13.1-.1-.05-.05zm-.52.72l-.09-.13.12.17-.02-.04zm.24-.63l.33.33-.33-.33zm.47.08l-.1-.11.12.12.11-.11-.06-.06zm-1 .32l.48.3-.49-.31zm.3.36l.06.09-.06-.09zm0-.54l.33.33-.33-.33zm.82-.47l.16.16-.16-.16zm.2-.34l.24.22-.2-.2zm-.08-.27l.39.39-.4-.4zm-.1.34a.14.14 0 0 0-.22 0l-.11.07.08-.08a.14.14 0 0 1 .22 0 .14.14 0 0 1 .1.16l.23.11L7.4 23a.15.15 0 0 0-.06-.16zm-2.07 2l.12.12.1-.1-.05-.05-.1.1zm-.14.12l-.05-.05-.17.08.18-.18zm-.04.03l.33.33L5.1 25zm.47.08l-.1-.08.12.12.1-.12zm-.23-.43l-.05-.05-.17.17zm.47-.37l.33.33-.33-.33zm-.05.48l.08.17-.07-.15zm.4-.58L6 24.09l.14.14a.06.06 0 0 0 0-.06zm-.56.18l-.06.06.05-.05.13.29.3.12-.3-.14zm.59-.07l.14.14-.14-.14zm16.47 4.53zm-4.56-9.21s.49.56.75.82l.83.81s-.34-.41-.74-.81-.84-.81-.84-.81zm2.42 1c-1.39-1.39-2.78-2.91-4.06-4.29l3.62-3.62A13.56 13.56 0 0 1 23 10.79l2.54-2.54.46-.67-3.28-3.28-.66.45-2.55 2.54a13.54 13.54 0 0 1-1.88 2.95l-3.54 3.54-.24-.24c-1.33-1.33-3.54-3.33-4.53-4.22l2.38-2.38v-.61a15.68 15.68 0 0 0-1.57-1.77A15.38 15.38 0 0 0 8.36 3h-.6L0 10.76v.6a15.47 15.47 0 0 0 1.57 1.77 21.93 21.93 0 0 0 1.77 1.57h.6l2.37-2.37c.89 1 2.89 3.2 4.22 4.53l.24.24-7.59 7.58a3.07 3.07 0 0 1-1.18.65l-.7.67a10.58 10.58 0 0 0 1.28 1.61A12.77 12.77 0 0 0 4.27 29l.73-.7a3.07 3.07 0 0 1 .65-1.18l7.67-7.67c1.38 1.27 2.9 2.67 4.29 4.06 2.68 2.68 5 5.29 5.11 5.36.37.37 1.31-.06 2.22-1s1.3-1.88 1-2.2c-.18-.08-2.75-2.41-5.44-5.1zM9.74 10.13c1.11 1 2.79 2.55 3.88 3.64l.24.23-.59.59-.74-.74s.35.44.67.81l-.42.41-1-1-1.18-1.17c-.23-.23-.6-.65-.8-.9s-.58-.5-.8-.76l-.33-.32a3.25 3.25 0 0 1 .42-.39c.35.38.75.8 1.14 1.19 1 1 2.09 1.94 2.09 1.94l-2-2-1.21-1.18a2.06 2.06 0 0 1 .63-.35zm2.68 5.31l-.19.19-.41-.41c-.71-.71-1.59-1.63-2.45-2.48l-1.13-1.15a1.86 1.86 0 0 1 .11-.27l1.28 1.24c.48.48 1.24 1.12 1.24 1.12-.56-.57-1.23-1.32-1.47-1.56s-.61-.58-1-.91l.16-.21c.14.12.26.21.35.31l.9.89.93.92c.32.32 1 1.06 1.17 1.23l.82.8-.23.23-2.08-1.9zM5.9 9.58l-.46-.46-.09.09-.07-.07.07.04.09-.09.46.46.1-.06zM5.51 9l.07-.07-.05.07zm.56.41L5.9 9l-.35-.13.35.13.17.37.07-.07zm-.32-.74l.09.19zm.53.53l-.23-.1.23.06.06-.06zm.12-.12l-.53-.53.53.45h.06zM6 8.51c.06-.06.1 0 .15 0a.12.12 0 0 1 .06.1.21.21 0 0 0-.06-.07s-.09-.09-.15 0zm.27.26a.17.17 0 0 0 .05-.13.17.17 0 0 1-.05.17zm-2-1.54C2.73 8.73.6 11 .6 11A8 8 0 0 0 2 12.74a8 8 0 0 0 1.71 1.36l.1.28h-.37A14.57 14.57 0 0 1 1.8 12.9a14.65 14.65 0 0 1-1.48-1.64v-.37l7.57-7.56h.37A14.51 14.51 0 0 1 9.9 4.8a14.58 14.58 0 0 1 1.47 1.64v.37l-.28-.1A9.47 9.47 0 0 0 9.71 5 9.46 9.46 0 0 0 8 3.6S5.73 5.73 4.23 7.23zm4 4.49L9.54 13c.54.54 1.35 1.42 1.84 1.92l.8.75-.12.12c-.61-.6-1.45-1.41-2.62-2.58L8.17 12a1.1 1.1 0 0 1 .03-.29zm.29 1a1 1 0 0 1-.31-.55c.66.64 1.42 1.37 1.94 1.9s1.23 1.2 1.88 1.81l-.23.12zM4.94 26.44a4.16 4.16 0 0 0-.8 1.15L3.7 28l.53.53a14.89 14.89 0 0 1-1.42-1.16 12.5 12.5 0 0 1-1.09-1.34l.44-.44a3 3 0 0 0 1.24-.71l14-14 .46-.46a14.5 14.5 0 0 0 2-3L22.26 5l.41-.28 2.9 2.9-.27.38-2.45 2.45A9.38 9.38 0 0 0 19.39 12l-.49.49zm20.5.28c-.35-.3-1.56-1.36-1.83-1.63l-1.4-1.4c-.21-.19-.86-.69-.86-.69s.47.51.6.64.84.72 1.37 1.25l2 2a5.16 5.16 0 0 1-.43.54c-.29-.25-1.21-1.06-1.62-1.47s-.92-.87-1.43-1.39-1-1-1.47-1.41-1.75-1.81-1.75-1.81 1.33 1.52 1.82 2 .84.73 1.43 1.32 1.47 1.51 1.82 1.86.9.78 1.13 1l-.16.17-.25.24a.57.57 0 0 1-.28-.19c-.12-.12-2.62-2.66-5.31-5.35-1-1-3-2.82-3.24-3.06a1 1 0 0 1-.36-.59c.29.27.59.55.86.82.78.74 1.58 1.43 1.58 1.43s-1.32-1.35-1.9-1.93c-.13-.13-.32-.3-.55-.5a.94.94 0 0 1 .07-.33l.77.76c.57.57 1.23 1.28 1.56 1.62l1.26 1.29s-1.25-1.41-2-2.14l-1.57-1.6.11-.17.09-.12 1.5 1.56c.66.66 1.57 1.61 2 2.08s1.51 1.47 2 2l1.71 1.69c.47.47 1.75 1.55 1.75 1.55L21.75 24c-.73-.73-1.65-1.54-2.1-2-.65-.6-1.65-1.7-2.2-2.24s-.69-.63-.81-.74l-1.11-1.15a2.15 2.15 0 0 1 1.19-.81c1.13 1.23 2.35 2.54 3.55 3.74 2.69 2.69 5.34 5.09 5.37 5.12a.87.87 0 0 1-.19.8zM44.8 13.4c0-.2.1-.5.1-.8l.1-.9V10H34v1.8c0 .3 0 .6.1.9 0 .3.1.5.1.8v.1h.7l1-2.4h2.6V21c-.3 0-.6.1-.8.2-.3.1-.6.1-.8.2h-.1v.6h5.5v-.7h-.1c-.3-.1-.5-.2-.8-.2-.2 0-.5-.1-.8-.1v-9.8h2.6l1 2.4h.7l-.1-.2zm6.6.1c-.3-.3-.6-.5-1-.6s-.8-.2-1.2-.2c-1.2 0-2.1.4-2.8 1.2s-1 2-1 3.5c0 .7.1 1.4.3 1.9.2.6.4 1.1.8 1.5.3.4.8.7 1.3 1 .5.2 1.1.3 1.7.3.3 0 .6 0 .9-.1.3-.1.6-.2.8-.3.2-.1.5-.3.7-.5s.3-.4.4-.6v-.1l-.4-.4-.1.1c-.2.2-.5.3-.8.4-.4.1-.8.2-1.1.2-.5 0-.8-.1-1.2-.3-.3-.2-.6-.4-.8-.7s-.4-.7-.5-1.1-.2-.8-.2-1.2h5.1v-.1c0-.2.1-.5.1-.7v-.6c0-.6-.1-1.2-.3-1.6-.2-.4-.4-.7-.7-1zm-2.3.3c.5 0 .9.2 1.1.6.2.4.4 1 .4 1.7v.5h-3.4c.1-1 .3-1.8.6-2.2.3-.4.7-.6 1.3-.6zm13.1 7.3c-.2-.1-.4-.1-.5-.2L59 17.2l2.4-3.1c.4-.1.8-.3 1-.4h.1V13h-3.2v.6c.2.1.4.3.8.4l-1.6 2.3-1.7-2.3c.1 0 .2-.1.3-.1.1-.1.3-.2.4-.3h.1V13h-3.8v.7h.1c.1.1.3.2.4.2.1.1.3.1.4.2l2.6 3.4-2.6 3.4c-.3.1-.7.2-1 .4h-.1v.7h3.3v-.6h-.1c-.1-.1-.3-.2-.4-.2-.1 0-.2-.1-.3-.1l1.8-2.6 1.8 2.6c-.1 0-.2.1-.3.1-.1.1-.3.2-.5.3h-.1v.5h3.9v-.6h-.1c-.1-.2-.3-.3-.4-.3zm6.8-.4c-.2.1-.5.1-.8.2h-.8c-.4 0-.7-.1-.9-.4-.2-.3-.3-.7-.3-1.4v-4.8h2.7v-1.1h-2.7V11h-.6l-.6.3-.6.3V13c-.5.1-.9.3-1.4.6h-.1v.7h1.4v5.3c0 .9.2 1.6.6 2s1 .6 1.7.6c.3 0 .6 0 .8-.1.3-.1.5-.2.7-.3l.6-.3c.2-.1.3-.2.4-.3l.1-.1-.2-.4zm6.4-7.6c-.7 0-1.3.2-1.8.6-.3.3-.6.6-.8 1v-1.6h-.6c-.4.1-.8.1-1.2.2-.4.1-.8.2-1.2.4h-.1v.7l1.2.1v10.3c-.4.1-.7.2-1.1.4h-.1v.8H74v-.7h-.1l-.6-.3c-.2-.1-.3-.1-.5-.1v-2.5c.2.1.5.2.7.2.3.1.6.1 1.1.1.6 0 1.2-.1 1.8-.4.5-.2 1-.6 1.4-1s.7-1 .9-1.6c.2-.6.3-1.3.3-2.1 0-1.6-.3-2.8-.9-3.5-.8-.7-1.6-1-2.7-1zm1.5 4.6c0 .6-.1 1.1-.2 1.6s-.3.9-.5 1.3-.5.6-.8.8c-.3.2-.6.3-1 .3s-.8 0-1-.1-.4-.1-.6-.2v-4.9c.1-.6.4-1.1.7-1.4.3-.3.8-.5 1.3-.5.4 0 .7.1 1 .2.3.2.5.4.6.7.2.3.3.6.4 1 .1.2.1.7.1 1.2zm10 2.6v-4.6c0-.3 0-.7-.1-1s-.2-.7-.4-1c-.2-.3-.5-.5-.9-.7s-.9-.3-1.5-.3c-.7 0-1.3.1-1.9.2-.6.2-1.1.4-1.5.6h-.1v.1c0 .4.1.8.2 1.1.1.4.2.7.3 1.1v.1h.6l.9-2.1c.2-.1.4-.1.5-.1h.6c.3 0 .6.1.8.2.2.1.4.3.5.6s.2.6.2 1v1.2c-.8 0-1.5.1-2.1.2-.6.1-1.2.2-1.6.4-.4.2-.8.5-1 .9-.2.4-.4 1-.4 1.6 0 .7.2 1.3.7 1.8s1.1.7 1.9.7c.4 0 .8-.1 1.1-.2.3-.1.6-.3.8-.5.2-.2.4-.4.6-.7.1-.1.1-.2.2-.3v.6c0 .3.1.7.2.9v.1h.5c.3-.1.7-.1 1.1-.3.4-.1.7-.3 1-.4h.1v-.6l-1.2-.1c-.1-.2-.1-.4-.1-.5zm-2.3 0c-.1.2-.3.3-.5.4s-.5.2-.7.2c-.4 0-.7-.1-1-.4-.2-.2-.4-.6-.4-1.1 0-.3 0-.5.1-.7.1-.2.2-.4.5-.5.2-.1.6-.3 1-.3.4-.1.9-.1 1.6-.1v1.7c0 .1-.1.2-.2.4-.1.1-.2.3-.4.4zm10.1.4c-.2.1-.5.1-.8.2h-.8c-.4 0-.7-.1-.9-.4-.2-.3-.3-.7-.3-1.4v-4.8h2.7v-1.1h-2.7V11h-.7l-.6.3-.6.3V13c-.5.1-.9.3-1.4.6h-.1v.7h1.4v5.3c0 .9.2 1.6.6 2s1 .6 1.7.6c.3 0 .6 0 .8-.1.3-.1.5-.2.7-.3l.6-.3c.2-.1.3-.2.4-.3l.1-.1-.2-.4h.1zm6.6 0c-.2.1-.5.1-.8.2h-.8c-.4 0-.7-.1-.9-.4-.2-.3-.3-.7-.3-1.4v-4.8h2.7v-1.1h-2.7V11h-.6l-.6.3-.6.3V13c-.5.1-.9.3-1.4.6h-.1v.7h1.4v5.3c0 .9.2 1.6.6 2s1 .6 1.7.6c.3 0 .6 0 .8-.1.3-.1.5-.2.7-.3l.6-.3c.2-.1.3-.2.4-.3l.1-.1-.2-.4zm7.6-7.2c-.3-.3-.7-.5-1.1-.6s-.8-.2-1.3-.2c-1.3 0-2.3.4-3.1 1.2-.7.8-1.1 2-1.1 3.5 0 .7.1 1.4.3 1.9.2.6.5 1.1.8 1.5.4.4.8.7 1.4 1 .5.2 1.2.3 1.9.3.3 0 .7 0 1-.1l.9-.3c.3-.1.5-.3.7-.5s.4-.4.5-.6v-.1l-.4-.4-.1.1c-.2.2-.5.3-.9.4s-.8.2-1.2.2c-.5 0-.9-.1-1.3-.3-.4-.2-.7-.4-.9-.7-.2-.3-.4-.7-.5-1.1s-.2-.8-.2-1.2h5.5v-.1c0-.2.1-.5.1-.7v-.6c0-.6-.1-1.2-.3-1.6-.1-.4-.4-.7-.7-1zm-2.5.3c.6 0 1 .2 1.2.6.3.4.4 1 .4 1.7v.5h-3.7c.1-1 .3-1.8.6-2.2.4-.4.9-.6 1.5-.6zm10.9-.2c-.1-.2-.1-.4-.2-.5V13h-.1c-.3 0-.7 0-1 .1s-.6.2-.9.4-.5.4-.7.6c-.1.1-.2.3-.3.4V13h-.6c-.4.1-.8.1-1.2.2-.4.1-.8.2-1.2.4h-.1v.6l1.2.1v6.5c-.2 0-.3.1-.5.1-.2.1-.4.1-.6.3h-.1v.8h4.5v-.6h-.1c-.2-.1-.5-.2-.7-.3-.2-.1-.4-.1-.6-.1v-5c.1-.4.3-.7.5-.9l.4-.4h2.5v-.6c-.1-.2-.1-.3-.2-.5zm10.6 7.7c-.3-.2-.7-.3-1.1-.4v-4.2c0-.7-.1-1.3-.2-1.8s-.3-.9-.6-1.2c-.3-.3-.6-.5-1-.6s-.8-.2-1.3-.2c-.7 0-1.3.2-1.8.6-.4.3-.7.6-.9 1V13h-.6c-.4.1-.9.2-1.3.3s-.8.2-1.1.3h-.1v.6l1.2.1v6.5c-.5.1-.8.3-1.1.4h-.1v.8h4.1v-.6h-.1c-.3-.2-.7-.3-1-.4v-4.9l.3-.6c.1-.2.3-.4.5-.6.2-.2.4-.3.6-.4.2-.1.5-.1.8-.1.6 0 1.1.2 1.3.7.3.5.4 1.1.4 2v4c-.4.1-.7.2-1 .4h-.1v.5h4.1l.1-.7z"/><path fill="#333" d="M137 16v8h5v-6h4v6h5v-8h2l-9-9-5 5v-2h-2v4l-2 2h2zM164 6h24v4h-24zm0 8h24v4h-24zm0 8h24v4h-24z"/><path fill="#fff" d="M207 8h-15l7.5-8"/><path fill="#ccc" d="M208 8h-1l-7.5-8h1"/><path fill="#ccc" d="M192 8h-1l8.5-8h1"/></svg>
