<svg xmlns="http://www.w3.org/2000/svg" width="264" height="54"><path fill="#ffffff" d="M12.37 43.66a.27.27 0 0 1 .21-.1.36.36 0 0 1 .25.14.42.42 0 0 1 .13.2.22.22 0 0 0 0-.05.42.42 0 0 0-.13-.2.37.37 0 0 0-.25-.14.28.28 0 0 0-.21.1l-.18.18zm1.6-1.6l.09.08L14 42l-.4.4zm-.46.46l.09.08-.11-.11-.4.4zM12.07 44h.09l-.11-.11-.4.4zm2.39-2.39l.09.08-.11-.11-.36.36zm-3.17 3.17l.34.16v-.07l-.31-.14-.13.13zm3.88-3.13a.11.11 0 0 0 0-.12.17.17 0 0 1 0 .07l-.07.07-.23-.23.26.26zm.12-.87l.71.29-.1-.1-.59-.28-.11.12zm-.71 1.37l-.22-.22.24.25.19-.18h.08l-.11-.11zm-1.13 1.5l-.09.09-.18-.27h-.06l.24.36.12-.12zm.55-1.34l.65.69-.7-.7zm1 .17l-.22-.22.24.25.24-.24.09.09-.12-.12zm-2.1.67l.08-.08 1 .63-1-.65zm.62.74l.12.18-.12-.18zm0-1.12l.69.7-.69-.7zm1.71-1l.33.33-.33-.33zm.42-.71l.47.47-.41-.41zm-.16-.56l.09-.09.81.81-.83-.84zm-.21.7a.29.29 0 0 0-.46 0l-.19.19.16-.17a.29.29 0 0 1 .46 0 .3.3 0 0 1 .11.31l.47.24-.51-.25a.3.3 0 0 0-.07-.31zM11 45.3l.24.24.21-.21.09.09-.11-.11-.21.21zm-.3.24l-.11-.11-.4.4.37-.37zm-.11.17l.69.69-.7-.7zm1 .17l-.22-.22.24.25.24-.24.09.09-.12-.12zm-.53-.88l.09.08-.11-.11-.36.36zm1-.76l.69.69-.69-.69zm-.11 1l.16.35-.11-.37zm.82-1.24l-.06.06-.26-.26.28.28.06-.06a.12.12 0 0 0 0-.13.17.17 0 0 1-.02.11zm-1.17.38l-.13.13.11-.11.26.6.57.25-.61-.27zm1.23-.15l.3.3-.3-.3zM47 53.63zm-9.44-19.12s1 1.16 1.57 1.7 1.73 1.68 1.73 1.68-.7-.84-1.54-1.68-1.76-1.7-1.76-1.7zm5 2c-2.88-2.88-5.78-6-8.42-8.91l7.51-7.51a28.16 28.16 0 0 1 6.12-3.91l5.27-5.27.96-1.39-6.82-6.82-1.37.93-5.28 5.28A28.12 28.12 0 0 1 36.62 15l-7.36 7.36-.49-.5C26 19.12 21.42 15 19.36 13.12l4.94-4.94V6.93A32.57 32.57 0 0 0 21 3.26 32 32 0 0 0 17.37 0h-1.26L0 16.11v1.26A32.13 32.13 0 0 0 3.26 21a45.54 45.54 0 0 0 3.67 3.3h1.25l4.93-4.93c1.85 2.05 6 6.64 8.77 9.4l.5.49L6.61 45a6.38 6.38 0 0 1-2.45 1.34l-1.45 1.49a22 22 0 0 0 2.66 3.35A26.51 26.51 0 0 0 8.86 54l1.46-1.46a6.38 6.38 0 0 1 1.34-2.45l15.93-15.92c2.87 2.64 6 5.54 8.91 8.43 5.58 5.58 10.48 11 10.62 11.12.77.77 2.72-.12 4.6-2s2.69-3.9 2-4.56c-.21-.24-5.56-5.08-11.13-10.66zm-22.32-21.7c2.31 2.1 5.8 5.3 8.06 7.55l.49.5-1.22 1.22L26 22.55s.72.92 1.39 1.68l-.86.86-2.14-2.16c-1-1-2-2-2.46-2.43s-1.15-1.29-1.59-1.73-1.2-1.12-1.73-1.65l-.68-.67a6.75 6.75 0 0 1 .87-.82c.73.78 1.56 1.67 2.36 2.46 2.06 2.05 4.35 4 4.35 4l-4.21-4.21-2.39-2.39a4.28 4.28 0 0 1 1.31-.73zm5.56 11l-.39.39-.86-.85c-1.48-1.48-3.31-3.39-5.08-5.16l-2.36-2.37a3.86 3.86 0 0 1 .24-.55c.9.87 1.89 1.82 2.65 2.58 1 1 2.57 2.32 2.57 2.32-1.16-1.17-2.57-2.73-3.06-3.22s-1.28-1.21-2-1.89a4.24 4.24 0 0 1 .3-.41c.29.24.53.44.73.64.57.57 1.52 1.48 1.85 1.82l1.9 1.89c.67.67 2.08 2.2 2.43 2.55.62.62 1.16 1.14 1.71 1.67l-.48.48c-1.95-1.8-4.32-4-4.32-4zM12.25 13.67l-1-1-.18.18-.07-.1.12.12.18-.18 1 1 .13-.12zm-.79-1.18l.15-.15-.15.15zm1.16.81l-.35-.8-.73-.32.68.3.35.8.15-.14zm-.68-1.52l.18.4zm1.12 1.08l-.47-.21v-.09l.41.24.12-.12zm.24-.24l-1.1-1.1 1.07 1.07.12-.12zm-.8-1.18l.08-.08c.12-.12.21 0 .31.07a.25.25 0 0 1 .12.22.45.45 0 0 0-.12-.15c-.1-.1-.19-.19-.31-.07zm.5.56l.08-.08a.34.34 0 0 0 .11-.28.34.34 0 0 1-.11.34zM8.78 8.78C5.67 11.9 1.25 16.6 1.25 16.6a16.69 16.69 0 0 0 2.81 3.64A16.67 16.67 0 0 0 7.7 23l.21.58h-.77a30.26 30.26 0 0 1-3.41-3.06 30.44 30.44 0 0 1-3.06-3.36v-.77L16.39.68h.76a30.13 30.13 0 0 1 3.41 3.06 30.27 30.27 0 0 1 3.06 3.41v.76L23 7.7a19.66 19.66 0 0 0-2.88-3.57 19.65 19.65 0 0 0-3.52-2.88s-4.7 4.42-7.82 7.53zM17 18.1c1.12 1.07 2.28 2.18 2.78 2.69 1.13 1.13 2.8 3 3.83 4 .32.32.95.91 1.66 1.56l-.24.24c-1.27-1.24-3-2.93-5.45-5.36-1-1-1.87-1.85-2.65-2.6a2.28 2.28 0 0 1 .07-.53zm.6 2A2.16 2.16 0 0 1 17 19c1.38 1.33 2.94 2.85 4 4s2.55 2.49 3.9 3.77l-.36.36zm-7.34 28.59a8.63 8.63 0 0 0-1.66 2.4l-.92.91 1.11 1.11a30.92 30.92 0 0 1-2.95-2.41 26 26 0 0 1-2.26-2.79l.93-.91a6.21 6.21 0 0 0 2.58-1.47l29-29 .07-.07 1-1c1.93-1.93 4.05-6.26 4.05-6.26l5.09-5.09.86-.58 6 6-.58.86-5.09 5.08s-5.25 1.2-7.19 3.13l-1 1zm42.58.58c-.72-.62-3.24-2.82-3.8-3.38L46.14 43c-.39-.39-1.8-1.49-1.8-1.49s1 1.06 1.24 1.33 1.75 1.5 2.85 2.6c.95.95 3.48 3.52 4.18 4.23a10.71 10.71 0 0 1-.9 1.11c-.6-.53-2.52-2.21-3.36-3-1-1-1.9-1.82-3-2.88s-2.11-2-3-2.93-3.63-3.75-3.63-3.75 2.75 3.15 3.77 4.17 1.75 1.52 3 2.74 3.05 3.13 3.78 3.86 1.88 1.61 2.36 2l-.34.35-.52.5a1.18 1.18 0 0 1-.58-.39c-.26-.26-5.44-5.52-11-11.1-2.07-2.07-6.17-5.85-6.74-6.35a2 2 0 0 1-.74-1.22c.61.56 1.22 1.14 1.78 1.69 1.6 1.6 3.28 3.08 3.28 3.08s-2.73-2.81-3.94-4c-.27-.27-.67-.63-1.13-1a2 2 0 0 1 .15-.69l1.57 1.54c1.19 1.19 2.54 2.66 3.24 3.36s2.63 2.69 2.63 2.69-2.6-2.94-4.11-4.45c-.73-.73-2-2-3.25-3.31l.07-.44c.05-.08.11-.17.18-.26 1.37 1.41 2.65 2.73 3.06 3.15 1.37 1.37 3.26 3.35 4.22 4.31s3.15 3.06 4.25 4.16 2.57 2.52 3.55 3.5 3.63 3.23 3.63 3.23-4.22-4.15-5.72-5.66-3.43-3.21-4.36-4.14c-1.31-1.31-3.45-3.61-4.56-4.71s-1.44-1.3-1.68-1.54l-2.31-2.4a4.47 4.47 0 0 1 2.47-1.68c2.35 2.54 4.87 5.27 7.38 7.78 5.58 5.58 11.09 10.58 11.15 10.64s.25.53-.41 1.64zm39.42-30.178c.08-.494.137-1.04.176-1.635l.117-1.8c.037-.613.07-1.21.097-1.79.026-.58.038-1.104.038-1.568v-.257L70 12v.51c0 .464.012.784.038 1.374.025.59.06 1.19.096 1.804.037.614.082 1.217.134 1.81.05.587.116 1.124.193 1.596l.036.213h1.354l2.02-4.954h5.4l.003 20.332a19.739 19.739 0 0 0-3.37.81l-.178.062V37h11.243v-1.432l-.164-.068a10.562 10.562 0 0 0-1.703-.498c-.51-.102-1.06-.206-1.642-.312l-.002-20.337h5.358l2.006 4.954h1.406l.034-.215zm13.71.446a5.662 5.662 0 0 0-2.12-1.187 8.307 8.307 0 0 0-2.38-.35c-2.48 0-4.43.844-5.792 2.51-1.36 1.655-2.05 4.09-2.05 7.238 0 1.476.18 2.82.534 4 .357 1.187.89 2.224 1.582 3.08a6.95 6.95 0 0 0 2.61 1.986c1.033.46 2.24.687 3.585.687.62 0 1.237-.082 1.837-.237a8.31 8.31 0 0 0 1.662-.652 6.346 6.346 0 0 0 1.36-.98c.404-.382.708-.8.9-1.242l.074-.168-.73-.898-.168.158c-.375.363-.956.663-1.728.894-.786.233-1.57.35-2.334.35-.93 0-1.747-.18-2.43-.538a4.812 4.812 0 0 1-1.704-1.466c-.45-.62-.79-1.36-1.016-2.205a10.55 10.55 0 0 1-.342-2.498h10.46l.04-.212c.09-.492.155-.96.188-1.388a15.6 15.6 0 0 0 .052-1.272c0-1.333-.195-2.478-.58-3.388-.38-.92-.89-1.663-1.512-2.22zm-4.636.59c1.073 0 1.837.41 2.335 1.257.51.87.768 2.06.768 3.542 0 .19-.005.383-.017.575-.006.134-.015.26-.026.387h-6.952c.145-2.122.53-3.626 1.14-4.465.634-.875 1.534-1.297 2.752-1.297zm26.852 14.924c-.312-.126-.63-.248-.95-.365l-5.653-7.85 4.872-6.478c.89-.27 1.58-.57 2.054-.897l.115-.082V18h-6.658v1.364l.1.087c.364.298.884.562 1.584.814l-3.348 4.933-3.413-4.93c.226-.084.44-.18.64-.296.29-.16.588-.35.88-.542l.12-.084V18h-7.912v1.385l.12.08c.305.205.606.378.896.514.268.13.568.253.893.372l5.354 7.22-5.308 7.103c-.682.18-1.37.478-2.045.895l-.128.076V37h6.804v-1.358l-.132-.074c-.3-.178-.6-.34-.898-.493a9.776 9.776 0 0 0-.66-.295l3.722-5.454 3.686 5.454a7.738 7.738 0 0 0-.592.282c-.297.163-.618.343-.964.542l-.134.076V37h8.06v-1.344l-.12-.08a5.334 5.334 0 0 0-.986-.524zm14.066-.708c-.443.16-.995.274-1.63.327-.656.062-1.206.09-1.64.09-.863 0-1.485-.26-1.904-.79-.428-.543-.643-1.503-.643-2.858V21.064h5.526v-2.387h-5.525V14h-1.175l-.103.023c-.42.188-.842.385-1.273.593a5.593 5.593 0 0 0-1.176.726l-.097.075v2.958c-.982.257-1.932.672-2.825 1.238l-.12.077v1.373h2.946v11.05c0 1.87.416 3.25 1.235 4.1.82.854 2.015 1.287 3.552 1.287.582 0 1.16-.077 1.72-.22a9.19 9.19 0 0 0 1.534-.552c.465-.222.884-.457 1.25-.697.37-.248.665-.49.874-.72l.123-.133-.437-.908-.208.074zM155.49 18c-1.476 0-2.696.4-3.62 1.193-.67.57-1.24 1.296-1.692 2.15V18l-1.21.002c-.794.123-1.616.295-2.434.507-.834.21-1.66.497-2.453.845l-.154.07v1.395l2.432.297V42.69c-.737.2-1.505.49-2.28.857l-.15.074V45h8.683v-1.36l-.124-.08a7.045 7.045 0 0 0-1.302-.636 5.95 5.95 0 0 0-1.005-.255V37.4c.497.2.962.35 1.393.442.53.11 1.266.174 2.186.174 1.328 0 2.557-.245 3.65-.73a7.813 7.813 0 0 0 2.816-2.067c.77-.896 1.37-2 1.786-3.293.413-1.288.623-2.744.623-4.326 0-3.348-.63-5.81-1.872-7.317C159.516 18.766 157.74 18 155.49 18zm3.1 9.6c0 1.208-.12 2.327-.36 3.33-.236.996-.58 1.876-1.017 2.61-.43.73-.963 1.303-1.577 1.7-.605.39-1.3.593-2.062.593-.86 0-1.568-.067-2.1-.2a5.095 5.095 0 0 1-1.296-.503V24.92c.284-1.267.768-2.275 1.437-2.996.66-.71 1.566-1.072 2.696-1.072.79 0 1.46.163 1.997.485.536.322.978.78 1.308 1.367.338.605.588 1.32.743 2.146.155.83.233 1.758.233 2.75zm20.698 5.817a22.674 22.674 0 0 1-.036-1.357c0-1.227.03-2.52.09-3.842.063-1.345.094-2.758.094-4.193 0-.69-.062-1.39-.188-2.08a4.975 4.975 0 0 0-.82-1.96c-.418-.586-1.028-1.067-1.814-1.436-.78-.364-1.824-.548-3.105-.548-1.415 0-2.72.16-3.878.48a12.727 12.727 0 0 0-3.173 1.328l-.142.084.012.165c.05.76.17 1.542.356 2.332.188.777.405 1.538.653 2.267l.057.173h1.306l1.752-4.4c.362-.136.733-.22 1.104-.254.422-.035.804-.05 1.14-.05.68 0 1.233.147 1.643.44.41.293.73.714.942 1.26.222.563.35 1.248.387 2.04.032.75.008 1.604-.072 2.542-1.632.092-3.09.233-4.335.403-1.316.187-2.445.49-3.348.908-.926.432-1.635 1.028-2.114 1.783-.483.753-.726 1.72-.726 2.877 0 1.522.504 2.77 1.503 3.713.987.932 2.278 1.405 3.835 1.405.81 0 1.547-.124 2.188-.378a5.885 5.885 0 0 0 1.672-.984c.478-.403.87-.873 1.164-1.39.124-.22.232-.437.32-.65.023.44.047.86.077 1.257a5.83 5.83 0 0 0 .466 1.922l.066.15 1.123-.005c.694-.12 1.43-.307 2.188-.552a13.5 13.5 0 0 0 2.083-.843l.14-.074v-1.158l-2.553-.366c-.02-.352-.043-.69-.062-1.013zm-4.78.152c-.297.314-.67.59-1.108.82-.432.22-.938.333-1.513.333-.872 0-1.537-.25-2.032-.77-.487-.514-.737-1.262-.737-2.22 0-.56.093-1.072.273-1.503.175-.417.5-.77.964-1.055.487-.292 1.177-.515 2.05-.655.84-.134 1.918-.202 3.21-.212V31.8c-.07.215-.194.477-.37.792a5.141 5.141 0 0 1-.735.977zm20.88.775c-.445.16-.997.274-1.634.327-.654.062-1.204.09-1.638.09-.863 0-1.484-.26-1.905-.79-.426-.543-.642-1.503-.642-2.858V21.064h5.527v-2.387h-5.527V14h-1.172l-.104.023c-.417.188-.842.385-1.273.593a5.55 5.55 0 0 0-1.177.726l-.097.075v2.958a9.977 9.977 0 0 0-2.824 1.238l-.123.077v1.373h2.946v11.05c0 1.87.415 3.25 1.236 4.1.818.854 2.015 1.287 3.55 1.287a6.95 6.95 0 0 0 1.72-.22 9.19 9.19 0 0 0 1.534-.552c.464-.222.885-.457 1.25-.697.367-.248.662-.49.873-.72l.122-.133-.438-.908-.206.074zm13.632 0c-.446.16-.994.274-1.635.327-.652.062-1.202.09-1.636.09-.862 0-1.487-.26-1.906-.79-.427-.543-.645-1.503-.645-2.858V21.064h5.528v-2.387H203.2V14h-1.172l-.1.023c-.42.188-.847.385-1.274.593-.45.206-.844.455-1.176.726l-.097.075v2.958c-.982.257-1.933.672-2.827 1.238l-.12.077v1.373h2.948v11.05c0 1.87.416 3.25 1.233 4.1.822.854 2.015 1.287 3.55 1.287.583 0 1.163-.077 1.724-.22a9.298 9.298 0 0 0 1.532-.552c.463-.222.884-.457 1.246-.697.37-.248.665-.49.876-.72l.123-.133-.436-.908-.21.074zm15.546-14.806a6.357 6.357 0 0 0-2.32-1.187 9.886 9.886 0 0 0-2.605-.35c-2.71 0-4.842.844-6.336 2.51-1.486 1.655-2.242 4.09-2.242 7.238 0 1.475.195 2.82.587 4 .386 1.187.97 2.225 1.727 3.08.762.858 1.723 1.526 2.86 1.986 1.128.46 2.447.687 3.92.687.68 0 1.355-.082 2.01-.237a9.61 9.61 0 0 0 1.82-.652 6.964 6.964 0 0 0 1.49-.98c.443-.382.774-.803.985-1.242l.08-.168-.8-.898-.18.16c-.416.36-1.05.662-1.895.892a9.756 9.756 0 0 1-2.554.35c-1.015 0-1.91-.18-2.658-.537-.75-.353-1.374-.847-1.865-1.466s-.866-1.36-1.112-2.204a9.776 9.776 0 0 1-.372-2.498h11.446l.042-.212a12.659 12.659 0 0 0 .265-2.66c0-1.333-.215-2.478-.636-3.388-.42-.92-.98-1.664-1.658-2.22zm-5.07.59c1.17 0 2.01.41 2.553 1.258.556.868.84 2.058.84 3.542 0 .19-.007.383-.02.575-.007.134-.016.26-.027.387h-7.61c.162-2.12.58-3.624 1.25-4.464.692-.876 1.677-1.298 3.012-1.298zm22.408-.906a7.455 7.455 0 0 0-.475-1.066l-.065-.114-.13-.014a4.828 4.828 0 0 0-2.034.212 6.215 6.215 0 0 0-1.8.914 8.224 8.224 0 0 0-1.445 1.343 6.88 6.88 0 0 0-.646.882v-3.353l-1.212.004c-.77.12-1.583.29-2.415.488-.844.206-1.676.486-2.47.825l-.156.066v1.353l2.43.286v13.707c-.33.082-.664.18-.996.283a6.64 6.64 0 0 0-1.298.56l-.135.073V37h9.2v-1.327l-.14-.074a6.812 6.812 0 0 0-1.525-.616 9.74 9.74 0 0 0-1.283-.256V24.32c.3-.8.642-1.42 1.016-1.828.358-.388.657-.66.895-.802h5.09v-1.197l-.01-.085a22.873 22.873 0 0 0-.396-1.186zm21.976 16.386c-.62-.4-1.395-.688-2.313-.865V25.84c0-1.508-.14-2.776-.414-3.77-.282-1.012-.697-1.828-1.237-2.436a4.347 4.347 0 0 0-2.05-1.28c-.794-.235-1.704-.353-2.703-.353-1.426 0-2.663.42-3.674 1.247a8.36 8.36 0 0 0-1.86 2.12V18l-1.22.004c-.913.167-1.8.363-2.63.58-.846.216-1.6.463-2.243.733l-.16.064v1.357l2.433.29v13.73c-.936.255-1.704.537-2.29.834l-.144.076V37h8.464v-1.32l-.125-.075a6.865 6.865 0 0 0-2.085-.857V24.48c.163-.465.385-.93.658-1.362a5.81 5.81 0 0 1 1.008-1.205 4.308 4.308 0 0 1 2.945-1.148c1.338 0 2.23.475 2.728 1.453.518 1.013.78 2.426.78 4.197v8.354c-.724.228-1.407.507-2.03.822l-.145.073V37H264v-1.317l-.12-.075z"/></svg>
