<svg viewBox="0 0 264 54" width="264" height="54" xmlns="http://www.w3.org/2000/svg"><path d="m37.6 34.5s1 1.2 1.6 1.7 1.7 1.7 1.7 1.7-.7-.8-1.5-1.7-1.8-1.7-1.8-1.7zm5 2c-2.9-2.9-5.8-6-8.4-8.9l7.5-7.5c1.9-1.6 3.9-2.9 6.1-3.9l5.3-5.3 1-1.4-6.8-6.8-1.4.9-5.3 5.3c-1 2.2-2.3 4.2-3.9 6.1l-7.4 7.4-.5-.5c-2.8-2.7-7.3-6.9-9.4-8.7l4.9-4.9v-1.4c-1-1.3-2.1-2.5-3.3-3.7-1.1-1.1-2.3-2.2-3.6-3.2h-1.3l-16.1 16.1v1.3c1 1.3 2.1 2.5 3.3 3.6 1.2 1.2 2.4 2.3 3.7 3.3h1.2l4.9-4.9c1.9 2 6 6.6 8.8 9.4l.5.5-15.8 15.7c-.7.6-1.5 1.1-2.5 1.3l-1.5 1.5c.8 1.2 1.7 2.3 2.7 3.3 1.1 1 2.2 2 3.5 2.8l1.5-1.5c.3-.9.7-1.7 1.3-2.5l15.9-15.9c2.9 2.6 6 5.5 8.9 8.4 5.6 5.6 10.5 11 10.6 11.1.8.8 2.7-.1 4.6-2s2.7-3.9 2-4.6c-.1 0-5.4-4.8-11-10.4zm-22.4-21.7c2.3 2.1 5.8 5.3 8.1 7.5l.5.5-1.2 1.2-1.6-1.5s.7.9 1.4 1.7l-.9.9-2.1-2.2c-1-1-2-2-2.5-2.4s-1.1-1.3-1.6-1.7-1.2-1.1-1.7-1.6l-.7-.7c.3-.3.6-.6.9-.8.7.8 1.6 1.7 2.4 2.5 2.1 2 4.4 4 4.4 4l-4.2-4.2-2.4-2.4c.3-.4.7-.7 1.2-.8zm5.6 11-.4.4-.9-.9c-1.5-1.5-3.3-3.4-5.1-5.2l-2.4-2.4c.1-.2.1-.4.2-.5.9.9 1.9 1.8 2.6 2.6 1 1 2.6 2.3 2.6 2.3-1.2-1.2-2.6-2.7-3.1-3.2s-1.3-1.2-2-1.9c.1-.1.2-.3.3-.4.3.2.5.4.7.6.6.6 1.5 1.5 1.9 1.8l1.9 1.9c.7.7 2.1 2.2 2.4 2.5.6.6 1.2 1.1 1.7 1.7l-.2.6c-2-1.8-4.3-4-4.3-4zm-17-17c-3.1 3.1-7.5 7.8-7.5 7.8.7 1.3 1.7 2.6 2.8 3.6 1.1 1.1 2.3 2 3.6 2.8l.2.6h-.8c-1.2-.9-2.4-2-3.4-3.1-1.1-1-2.1-2.2-3.1-3.4v-.8l15.8-15.6h.8c1.2.9 2.4 2 3.4 3.1 1.1 1.1 2.1 2.2 3.1 3.4v.8l-.7-.3c-.8-1.3-1.8-2.5-2.9-3.6s-2.2-2.1-3.5-2.9c0 0-4.7 4.5-7.8 7.6zm8.2 9.3c1.1 1.1 2.3 2.2 2.8 2.7 1.1 1.1 2.8 3 3.8 4 .3.3 1 .9 1.7 1.6l-.3.2c-1.3-1.2-3-2.9-5.4-5.4-1-1-1.9-1.9-2.6-2.6-.1-.1 0-.3 0-.5zm.6 2c-.3-.3-.5-.7-.6-1.1 1.4 1.3 2.9 2.9 4 4s2.5 2.5 3.9 3.8l-.4.4zm-7.3 28.6c-.7.7-1.2 1.5-1.7 2.4l-.9.9 1.1 1.1c-1-.7-2-1.5-2.9-2.4-.8-.9-1.6-1.8-2.3-2.8l.9-.9c1-.3 1.9-.8 2.6-1.5l29-29 .1-.1 1-1c1.9-1.9 4-6.3 4-6.3l5.1-5.1.9-.6 6 6-.6.9-5.1 5.1s-5.2 1.2-7.2 3.1l-1 1zm42.5.6c-.7-.6-3.2-2.8-3.8-3.4l-2.9-2.9c-.4-.4-1.8-1.5-1.8-1.5s1 1.1 1.2 1.3 1.8 1.5 2.8 2.6l4.2 4.2c-.3.4-.6.8-.9 1.1-.6-.5-2.5-2.2-3.4-3-1-1-1.9-1.8-3-2.9s-2.1-2-3-2.9-3.6-3.8-3.6-3.8 2.8 3.2 3.8 4.2 1.8 1.5 3 2.7 3 3.1 3.8 3.9 1.9 1.6 2.4 2l-.3.3-.5.5c-.2-.1-.4-.2-.6-.4-.3-.3-5.4-5.5-11-11.1-2.1-2.1-6.2-5.8-6.7-6.3-.4-.3-.7-.7-.7-1.2.6.6 1.2 1.1 1.8 1.7 1.6 1.6 3.3 3.1 3.3 3.1s-2.7-2.8-3.9-4c-.3-.3-.7-.6-1.1-1 0-.2.1-.5.1-.7l1.6 1.5c1.2 1.2 2.5 2.7 3.2 3.4s2.6 2.7 2.6 2.7-2.6-2.9-4.1-4.5c-.7-.7-2-2-3.2-3.3l.1-.4c0-.1.1-.2.2-.3l3.1 3.1c1.4 1.4 3.3 3.3 4.2 4.3s3.2 3.1 4.2 4.2 2.6 2.5 3.5 3.5 3.6 3.2 3.6 3.2-4.2-4.2-5.7-5.7-3.4-3.2-4.4-4.1c-1.3-1.3-3.5-3.6-4.6-4.7s-1.4-1.3-1.7-1.5l-2.3-2.4c.6-.8 1.5-1.4 2.5-1.7 2.3 2.5 4.9 5.3 7.4 7.8 5.6 5.6 11.1 10.6 11.2 10.6s.1.7-.6 1.8zm39.5-30.2c.1-.5.1-1 .2-1.6l.1-1.8c0-.6.1-1.2.1-1.8s0-1.1 0-1.6v-.3h-22.7v.5 1.4c0 .6.1 1.2.1 1.8s.1 1.2.1 1.8c.1.6.1 1.1.2 1.6v.2h1.4l2-5h5.4v20.3c-1.1.2-2.3.4-3.4.8l-.2.1v1.5h11.4v-1.4l-.2-.1c-.6-.2-1.1-.4-1.7-.5-.5-.1-1.1-.2-1.6-.3v-20.3h5.4l2 5h1.4zm13.7.4c-.6-.5-1.3-.9-2.1-1.2-.8-.2-1.6-.3-2.4-.4-2.5 0-4.4.8-5.8 2.5s-2.1 4.1-2.1 7.2c0 1.5.2 2.8.5 4 .4 1.2.9 2.2 1.6 3.1s1.6 1.5 2.6 2 2.2.7 3.6.7c.6 0 1.2-.1 1.8-.2.6-.2 1.1-.4 1.7-.7.5-.3 1-.6 1.4-1s.7-.8.9-1.2l.1-.2-.7-.9-.2.2c-.4.4-1 .7-1.7.9-.8.2-1.6.3-2.3.3-.9 0-1.7-.2-2.4-.5s-1.3-.8-1.7-1.5c-.4-.6-.8-1.4-1-2.2s-.3-1.7-.3-2.5h10.5v-.2c.1-.5.2-1 .2-1.4s.1-.8.1-1.3c0-1.3-.2-2.5-.6-3.4-.6-.8-1.1-1.5-1.7-2.1zm-4.7.6c1.1 0 1.8.4 2.3 1.3s.8 2.1.8 3.5v.6.4h-7c.1-2.1.5-3.6 1.1-4.5.7-.9 1.6-1.3 2.8-1.3zm26.9 15c-.3-.1-.6-.2-.9-.4l-5.7-7.9 4.9-6.5c.9-.3 1.6-.6 2.1-.9l.1-.1v-1.3h-6.7v1.4l.1.1c.4.3.9.6 1.6.8l-3.3 4.9-3.4-4.9c.2-.1.4-.2.6-.3.3-.2.6-.4.9-.5l.1-.1v-1.4h-7.9v1.4l.1.1c.3.2.6.4.9.5s.6.3.9.4l5.4 7.2-5.3 7.1c-.7.2-1.4.5-2 .9l-.1.1v1.3h6.8v-1.4l-.1-.1c-.3-.2-.6-.3-.9-.5-.2-.1-.4-.2-.7-.3l3.7-5.5 3.7 5.5c-.2.1-.4.2-.6.3-.3.2-.6.3-1 .5l-.1.1v1.4h8.1v-1.3l-.1-.1c-.5-.2-.9-.4-1.2-.5zm14.1-.8c-.4.2-1 .3-1.6.3-.7.1-1.2.1-1.6.1-.9 0-1.5-.3-1.9-.8s-.6-1.5-.6-2.9v-10h5.5v-2.4h-5.5v-4.6h-1.2-.1c-.4.2-.8.4-1.3.6-.4.2-.8.4-1.2.7l-.1.1v3c-1 .3-1.9.7-2.8 1.2l-.1.1v1.4h2.9v11c0 1.9.4 3.2 1.2 4.1s2 1.3 3.6 1.3c.6 0 1.2-.1 1.7-.2s1-.3 1.5-.6c.5-.2.9-.5 1.2-.7.4-.2.7-.5.9-.7l.1-.1-.4-.9zm13.2-16.3c-1.5 0-2.7.4-3.6 1.2-.7.6-1.2 1.3-1.7 2.1v-3.3h-1.2c-.8.1-1.6.3-2.4.5s-1.7.5-2.5.8l-.2.1v1.4l2.4.3v21.6c-.7.2-1.5.5-2.3.9l-.1.1v1.3h8.7v-1.4l-.1-.1c-.4-.3-.8-.5-1.3-.6-.3-.1-.7-.2-1-.3v-5.3c.5.2 1 .3 1.4.4.5.1 1.3.2 2.2.2 1.3 0 2.6-.2 3.6-.7 1.1-.5 2-1.2 2.8-2.1s1.4-2 1.8-3.3.6-2.7.6-4.3c0-3.3-.6-5.8-1.9-7.3-1.2-1.4-3-2.2-5.2-2.2zm3.1 9.6c0 1.2-.1 2.3-.4 3.3-.2 1-.6 1.9-1 2.6s-1 1.3-1.6 1.7-1.3.6-2.1.6c-.9 0-1.6-.1-2.1-.2s-.9-.3-1.3-.5v-10.2c.3-1.3.8-2.3 1.4-3 .7-.7 1.6-1.1 2.7-1.1.8 0 1.5.2 2 .5s1 .8 1.3 1.4.6 1.3.7 2.1c.3.9.4 1.8.4 2.8zm20.7 5.8c0-.5 0-.9 0-1.4 0-1.2 0-2.5.1-3.8s.1-2.8.1-4.2c0-.7-.1-1.4-.2-2.1s-.4-1.4-.8-2-1-1.1-1.8-1.4c-.8-.4-1.8-.5-3.1-.5-1.4 0-2.7.2-3.9.5-1.1.3-2.2.7-3.2 1.3l-.1.1v.2c.1.8.2 1.5.4 2.3s.4 1.5.7 2.3l.1.2h1.3l1.8-4.4c.4-.1.7-.2 1.1-.3h1.1c.7 0 1.2.1 1.6.4s.7.7.9 1.3.4 1.2.4 2 0 1.6-.1 2.5c-1.6.1-3.1.2-4.3.4-1.3.2-2.4.5-3.3.9s-1.6 1-2.1 1.8-.7 1.7-.7 2.9c0 1.5.5 2.8 1.5 3.7s2.3 1.4 3.8 1.4c.8 0 1.5-.1 2.2-.4.6-.2 1.2-.6 1.7-1s.9-.9 1.2-1.4c.1-.2.2-.4.3-.7 0 .4 0 .9.1 1.3 0 .7.2 1.3.5 1.9l.1.2h1.1c.7-.1 1.4-.3 2.2-.6.7-.2 1.4-.5 2.1-.8l.1-.1v-1.2l-2.6-.4c-.3-.2-.3-.6-.3-.9zm-4.8.2c-.3.3-.7.6-1.1.8s-.9.3-1.5.3c-.9 0-1.5-.2-2-.8-.5-.5-.7-1.3-.7-2.2 0-.6.1-1.1.3-1.5s.5-.8 1-1.1 1.2-.5 2.1-.7c.8-.1 1.9-.2 3.2-.2v3.5c-.1.2-.2.5-.4.8-.4.4-.6.8-.9 1.1zm20.9.7c-.4.2-1 .3-1.6.3-.7.1-1.2.1-1.6.1-.9 0-1.5-.3-1.9-.8s-.6-1.5-.6-2.9v-10h5.5v-2.4h-5.5v-4.6h-1.2-.1c-.4.2-.8.4-1.3.6-.4.2-.8.4-1.2.7l-.1.1v3c-1 .3-2 .7-2.8 1.2l-.1.1v1.4h2.9v11c0 1.9.4 3.2 1.2 4.1s2 1.3 3.6 1.3c.6 0 1.2-.1 1.7-.2s1-.3 1.5-.6c.5-.2.9-.5 1.2-.7.4-.2.7-.5.9-.7l.1-.1-.4-.9zm13.6 0c-.4.2-1 .3-1.6.3-.7.1-1.2.1-1.6.1-.9 0-1.5-.3-1.9-.8s-.6-1.5-.6-2.9v-10h5.5v-2.4h-5.5v-4.6h-1.3-.1c-.4.2-.8.4-1.3.6-.4.2-.8.5-1.2.7l-.1.1v3c-1 .3-1.9.7-2.8 1.2l-.1.1v1.4h2.9v11c0 1.9.4 3.2 1.2 4.1s2 1.3 3.6 1.3c.6 0 1.2-.1 1.7-.2s1-.3 1.5-.6c.5-.2.9-.5 1.2-.7.4-.2.7-.5.9-.7l.1-.1-.4-.9zm15.6-14.8c-.7-.6-1.5-1-2.3-1.2s-1.7-.3-2.6-.4c-2.7 0-4.8.8-6.3 2.5s-2.2 4.1-2.2 7.2c0 1.5.2 2.8.6 4s1 2.2 1.7 3.1c.8.9 1.7 1.5 2.9 2 1.1.5 2.4.7 3.9.7.7 0 1.4-.1 2-.2.6-.2 1.2-.4 1.8-.7.5-.3 1-.6 1.5-1 .4-.4.8-.8 1-1.2l.1-.2-.8-.9-.2.2c-.4.4-1.1.7-1.9.9s-1.7.3-2.6.3c-1 0-1.9-.2-2.7-.5-.8-.4-1.4-.8-1.9-1.5s-.9-1.4-1.1-2.2-.4-1.7-.4-2.5h11.4v-.2c.2-.9.3-1.8.3-2.7 0-1.3-.2-2.5-.6-3.4-.4-.8-1-1.5-1.6-2.1zm-5.1.6c1.2 0 2 .4 2.6 1.3s.8 2.1.8 3.5v.6.4h-7.6c.2-2.1.6-3.6 1.2-4.5.7-.9 1.7-1.3 3-1.3zm22.4-.9c-.1-.4-.3-.7-.5-1.1l-.1-.1h-.1c-.7-.1-1.4 0-2 .2s-1.3.5-1.8.9-1 .8-1.4 1.3c-.2.3-.5.6-.6.9v-3.3h-1.2c-.8.1-1.6.3-2.4.5s-1.7.5-2.5.8l-.2.1v1.4l2.4.3v13.7c-.3.1-.7.2-1 .3-.5.1-.9.3-1.3.6l-.1.1v1.2h9.2v-1.3l-.1-.1c-.5-.3-1-.5-1.5-.6-.4-.1-.9-.2-1.3-.3v-10.4c.3-.8.6-1.4 1-1.8s.7-.7.9-.8h5.1v-1.2-.1c-.2-.4-.4-.8-.5-1.2zm22 16.4c-.6-.4-1.4-.7-2.3-.9v-8.9c0-1.5-.1-2.8-.4-3.8s-.7-1.8-1.2-2.4-1.3-1.1-2-1.3c-.8-.2-1.7-.4-2.7-.4-1.4 0-2.7.4-3.7 1.2-.7.6-1.4 1.3-1.9 2.1v-3.2h-1.2c-.9.2-1.8.4-2.6.6s-1.6.5-2.2.7l-.2.1v1.4l2.4.3v13.7c-.9.3-1.7.5-2.3.8l-.1.1v1.3h8.5v-1.3l-.1-.1c-.6-.4-1.3-.7-2.1-.9v-10.2c.2-.5.4-.9.7-1.4.3-.4.6-.9 1-1.2.8-.7 1.9-1.2 2.9-1.1 1.3 0 2.2.5 2.7 1.5s.8 2.4.8 4.2v8.4c-.7.2-1.4.5-2 .8l-.1.1v1.2h8.4v-1.3z" fill="#fff"/></svg>