<?xml version="1.0" encoding="utf-8"?>
<!DOCTYPE svg>
<svg version="1.1" baseProfile="full" xmlns="http://www.w3.org/2000/svg" xmlns:xlink="http://www.w3.org/1999/xlink" x="0px" y="0px" width="128px" height="26px" viewBox="0 0 128 26" enable-background="new 0 0 128 26" xml:space="preserve">
<path d="M44.792,9.404c0.039-0.237,0.066-0.499,0.085-0.785l0.057-0.864c0.018-0.294,0.034-0.581,0.047-0.858C44.994,6.617,45,6.366,45,6.144V6.021L34,6v0.245c0,0.223,0.006,0.376,0.019,0.659c0.012,0.283,0.028,0.572,0.046,0.866c0.018,0.295,0.04,0.584,0.065,0.868c0.024,0.282,0.056,0.54,0.094,0.767l0.017,0.103h0.656l0.98-2.378h2.618l0.001,9.759c-0.283,0.044-0.552,0.094-0.801,0.153c-0.278,0.068-0.559,0.146-0.833,0.236l-0.086,0.029V18h5.451v-0.688l-0.08-0.032c-0.265-0.102-0.542-0.182-0.826-0.239c-0.248-0.049-0.514-0.099-0.796-0.149L40.524,7.13h2.598l0.973,2.378h0.682L44.792,9.404z"/>
<path d="M51.379,9.499c-0.298-0.267-0.645-0.46-1.028-0.578c-0.378-0.114-0.766-0.171-1.154-0.171c-1.202,0-2.146,0.411-2.808,1.224c-0.66,0.806-0.994,1.992-0.994,3.525c0,0.719,0.088,1.374,0.259,1.948c0.173,0.578,0.431,1.084,0.767,1.501c0.337,0.418,0.763,0.743,1.266,0.967c0.5,0.225,1.085,0.335,1.738,0.335c0.301,0,0.6-0.04,0.891-0.116c0.29-0.081,0.562-0.188,0.806-0.317c0.246-0.135,0.468-0.294,0.66-0.478c0.196-0.187,0.343-0.391,0.437-0.605l0.036-0.082L51.9,16.214l-0.081,0.077c-0.182,0.177-0.464,0.323-0.838,0.436c-0.381,0.113-0.761,0.171-1.131,0.171c-0.451,0-0.847-0.089-1.179-0.263c-0.331-0.172-0.608-0.412-0.826-0.714c-0.218-0.302-0.384-0.663-0.493-1.074c-0.101-0.377-0.156-0.785-0.166-1.217h5.071l0.02-0.104c0.044-0.239,0.075-0.468,0.091-0.676c0.017-0.208,0.025-0.416,0.025-0.62c0-0.649-0.095-1.207-0.281-1.65C51.928,10.133,51.681,9.771,51.379,9.499z M49.132,9.787c0.52,0,0.891,0.199,1.132,0.612c0.248,0.423,0.373,1.003,0.373,1.726c0,0.093-0.002,0.187-0.008,0.28c-0.003,0.065-0.008,0.127-0.013,0.188h-3.371c0.07-1.033,0.257-1.766,0.553-2.175C48.104,9.992,48.541,9.787,49.132,9.787z"/>
<path d="M62.15,17.077c-0.151-0.06-0.305-0.117-0.461-0.173l-2.741-3.718l2.362-3.069c0.432-0.127,0.767-0.27,0.996-0.424l0.057-0.039V9h-3.229v0.646l0.049,0.041c0.176,0.141,0.428,0.266,0.768,0.385l-1.624,2.337l-1.655-2.336c0.11-0.039,0.213-0.085,0.31-0.14c0.142-0.076,0.286-0.166,0.427-0.257l0.058-0.04V9h-3.836v0.656l0.058,0.038c0.147,0.097,0.294,0.179,0.434,0.243c0.13,0.062,0.275,0.12,0.433,0.177l2.596,3.42l-2.574,3.364c-0.331,0.085-0.664,0.227-0.992,0.424l-0.062,0.036V18h3.299v-0.644l-0.064-0.035c-0.145-0.084-0.291-0.161-0.436-0.233c-0.1-0.048-0.207-0.096-0.319-0.14l1.804-2.583l1.787,2.583c-0.095,0.04-0.191,0.084-0.287,0.134c-0.144,0.077-0.3,0.162-0.467,0.257l-0.065,0.036V18h3.907v-0.637l-0.058-0.038C62.478,17.227,62.317,17.143,62.15,17.077z"/>
<path d="M68.971,16.739c-0.216,0.076-0.482,0.131-0.792,0.156c-0.317,0.029-0.584,0.043-0.794,0.043c-0.418,0-0.72-0.125-0.923-0.379c-0.207-0.26-0.312-0.72-0.312-1.368v-4.81h2.68V9.239h-2.68V7h-0.569l-0.049,0.011c-0.203,0.091-0.409,0.185-0.618,0.284c-0.217,0.099-0.409,0.218-0.57,0.348l-0.047,0.036v1.416c-0.477,0.123-0.938,0.321-1.371,0.593l-0.059,0.037v0.657h1.429v5.289c0,0.896,0.201,1.557,0.598,1.963c0.397,0.409,0.977,0.616,1.722,0.616c0.282,0,0.563-0.037,0.834-0.105c0.267-0.071,0.518-0.158,0.744-0.264c0.225-0.106,0.428-0.219,0.605-0.334c0.179-0.119,0.322-0.235,0.424-0.346l0.06-0.063l-0.211-0.435L68.971,16.739z"/>
<path d="M75.389,9.059c-0.716,0-1.307,0.191-1.755,0.572c-0.326,0.273-0.601,0.621-0.82,1.03V9.059L72.227,9.06c-0.386,0.059-0.783,0.142-1.181,0.243c-0.404,0.102-0.804,0.238-1.188,0.405l-0.076,0.033v0.669l1.179,0.143v10.34c-0.358,0.096-0.729,0.235-1.106,0.411l-0.073,0.035V22h4.21v-0.651l-0.062-0.039c-0.221-0.135-0.433-0.235-0.631-0.305c-0.161-0.057-0.325-0.097-0.487-0.122v-2.526c0.241,0.097,0.467,0.168,0.676,0.213c0.256,0.053,0.613,0.083,1.06,0.083c0.644,0,1.239-0.117,1.77-0.35c0.532-0.229,0.991-0.563,1.365-0.991c0.374-0.429,0.665-0.958,0.866-1.578c0.2-0.617,0.302-1.315,0.302-2.073c0-1.605-0.305-2.785-0.907-3.508C77.341,9.426,76.48,9.059,75.389,9.059z M76.893,13.66c0,0.579-0.059,1.115-0.175,1.597c-0.115,0.477-0.282,0.898-0.494,1.251c-0.209,0.35-0.466,0.624-0.764,0.814c-0.294,0.187-0.631,0.284-1,0.284c-0.418,0-0.761-0.032-1.018-0.097c-0.229-0.055-0.44-0.135-0.628-0.24v-4.894c0.138-0.607,0.372-1.091,0.696-1.437c0.32-0.341,0.76-0.514,1.308-0.514c0.382,0,0.707,0.078,0.968,0.232c0.26,0.154,0.474,0.374,0.634,0.655c0.164,0.29,0.285,0.633,0.36,1.028C76.854,12.74,76.893,13.185,76.893,13.66z"/>
<path d="M86.927,16.261c-0.012-0.183-0.018-0.406-0.018-0.661c0-0.598,0.015-1.228,0.044-1.872c0.03-0.655,0.045-1.344,0.045-2.043c0-0.336-0.031-0.677-0.091-1.013c-0.063-0.346-0.197-0.666-0.397-0.955c-0.203-0.286-0.498-0.521-0.879-0.7C85.253,8.84,84.746,8.75,84.125,8.75c-0.685,0-1.318,0.078-1.88,0.234c-0.562,0.152-1.08,0.372-1.539,0.646l-0.067,0.041l0.005,0.08c0.024,0.371,0.082,0.752,0.173,1.137c0.09,0.379,0.196,0.749,0.316,1.104l0.029,0.085h0.632l0.851-2.144C82.821,9.868,83,9.827,83.179,9.811c0.205-0.017,0.391-0.023,0.553-0.023c0.33,0,0.599,0.071,0.797,0.215c0.199,0.143,0.353,0.348,0.457,0.613c0.107,0.274,0.17,0.608,0.187,0.994c0.016,0.366,0.004,0.781-0.034,1.238c-0.792,0.045-1.498,0.113-2.102,0.196c-0.639,0.091-1.186,0.239-1.623,0.442c-0.449,0.21-0.793,0.501-1.026,0.868c-0.233,0.367-0.351,0.839-0.351,1.402c0,0.741,0.245,1.349,0.728,1.809c0.479,0.454,1.105,0.685,1.859,0.685c0.394,0,0.75-0.061,1.061-0.185c0.308-0.123,0.581-0.281,0.811-0.479c0.231-0.196,0.421-0.425,0.564-0.677c0.06-0.106,0.113-0.213,0.157-0.317c0.01,0.215,0.022,0.42,0.036,0.613c0.025,0.337,0.101,0.652,0.226,0.937l0.033,0.072l0.544-0.002c0.337-0.058,0.694-0.149,1.061-0.269c0.366-0.116,0.705-0.255,1.009-0.411l0.069-0.036v-0.564l-1.239-0.178C86.947,16.583,86.937,16.418,86.927,16.261z M84.61,16.335c-0.145,0.153-0.326,0.288-0.539,0.399c-0.208,0.108-0.455,0.163-0.733,0.163c-0.423,0-0.745-0.122-0.986-0.376c-0.236-0.25-0.356-0.614-0.356-1.081c0-0.273,0.044-0.522,0.132-0.732c0.084-0.203,0.241-0.375,0.467-0.514c0.236-0.143,0.57-0.251,0.994-0.319c0.406-0.065,0.929-0.099,1.556-0.104v1.701c-0.034,0.104-0.094,0.232-0.179,0.386C84.876,16.019,84.757,16.179,84.61,16.335z"/>
<path d="M94.733,16.739c-0.216,0.076-0.483,0.131-0.792,0.156c-0.317,0.029-0.583,0.043-0.793,0.043c-0.418,0-0.72-0.125-0.924-0.379c-0.207-0.26-0.312-0.72-0.312-1.368v-4.81h2.68V9.239h-2.68V7h-0.568l-0.05,0.011c-0.203,0.091-0.409,0.185-0.617,0.284c-0.217,0.099-0.409,0.218-0.57,0.348l-0.047,0.036v1.416c-0.477,0.123-0.937,0.321-1.37,0.593L88.63,9.725v0.657h1.429v5.289c0,0.896,0.201,1.557,0.599,1.963c0.397,0.409,0.977,0.616,1.722,0.616c0.282,0,0.563-0.037,0.834-0.105c0.267-0.071,0.518-0.158,0.744-0.264c0.225-0.106,0.429-0.219,0.605-0.334c0.179-0.119,0.321-0.235,0.424-0.346l0.06-0.063l-0.211-0.435L94.733,16.739z"/>
<path d="M101.344,16.739c-0.216,0.076-0.483,0.131-0.793,0.156c-0.316,0.029-0.583,0.043-0.793,0.043c-0.418,0-0.72-0.125-0.924-0.379c-0.207-0.26-0.312-0.72-0.312-1.368v-4.81h2.68V9.239h-2.68V7h-0.568l-0.05,0.011c-0.203,0.091-0.409,0.185-0.617,0.284c-0.217,0.099-0.409,0.218-0.57,0.348l-0.047,0.036v1.416c-0.477,0.123-0.938,0.321-1.37,0.593L95.24,9.725v0.657h1.429v5.289c0,0.896,0.201,1.557,0.599,1.963c0.397,0.409,0.977,0.616,1.721,0.616c0.283,0,0.563-0.037,0.834-0.105c0.267-0.071,0.517-0.158,0.744-0.264c0.225-0.106,0.429-0.219,0.605-0.334c0.179-0.119,0.322-0.235,0.424-0.346l0.06-0.063l-0.211-0.435L101.344,16.739z"/>
<path d="M108.881,9.499c-0.327-0.267-0.705-0.46-1.125-0.578c-0.414-0.114-0.839-0.171-1.264-0.171c-1.315,0-2.349,0.411-3.072,1.224c-0.722,0.806-1.087,1.992-1.087,3.525c0,0.719,0.095,1.374,0.284,1.948c0.188,0.578,0.472,1.084,0.839,1.501c0.369,0.418,0.834,0.743,1.386,0.967c0.547,0.225,1.187,0.335,1.901,0.335c0.329,0,0.657-0.04,0.975-0.116c0.318-0.081,0.615-0.188,0.882-0.317c0.27-0.135,0.513-0.294,0.723-0.478c0.215-0.187,0.375-0.392,0.478-0.605l0.039-0.082l-0.387-0.438l-0.088,0.077c-0.2,0.177-0.508,0.323-0.917,0.436c-0.416,0.113-0.833,0.171-1.238,0.171c-0.493,0-0.927-0.089-1.29-0.263c-0.362-0.172-0.666-0.412-0.903-0.714c-0.238-0.302-0.42-0.663-0.54-1.074c-0.11-0.378-0.17-0.785-0.181-1.217h5.549l0.021-0.104c0.048-0.239,0.082-0.468,0.101-0.676c0.018-0.207,0.027-0.415,0.027-0.62c0-0.649-0.103-1.207-0.307-1.65C109.481,10.133,109.21,9.771,108.881,9.499z M106.421,9.787c0.569,0,0.975,0.199,1.239,0.612c0.27,0.423,0.407,1.003,0.407,1.726c0,0.093-0.003,0.187-0.008,0.28c-0.004,0.065-0.009,0.127-0.015,0.188h-3.689c0.078-1.033,0.281-1.766,0.606-2.175C105.297,9.992,105.774,9.787,106.421,9.787z"/>
<path d="M117.288,9.579c-0.067-0.182-0.145-0.352-0.231-0.505l-0.031-0.054l-0.062-0.007c-0.336-0.035-0.668-0.002-0.987,0.101c-0.314,0.097-0.608,0.243-0.873,0.433c-0.263,0.188-0.499,0.4-0.701,0.636c-0.12,0.138-0.225,0.277-0.313,0.418V9.013l-0.587,0.002c-0.374,0.057-0.768,0.137-1.171,0.23c-0.41,0.098-0.812,0.23-1.197,0.391l-0.076,0.031v0.642l1.179,0.136v6.493c-0.161,0.039-0.322,0.085-0.483,0.134c-0.198,0.057-0.41,0.147-0.63,0.265l-0.065,0.035V18h4.461v-0.629l-0.067-0.035c-0.247-0.13-0.495-0.229-0.74-0.291c-0.207-0.055-0.416-0.095-0.623-0.121v-4.93c0.146-0.38,0.312-0.673,0.494-0.866c0.173-0.184,0.318-0.312,0.433-0.38h2.468v-0.567l-0.005-0.04C117.417,9.945,117.354,9.759,117.288,9.579z"/>
<path d="M127.941,17.341c-0.3-0.189-0.676-0.326-1.121-0.41v-4.217c0-0.715-0.068-1.315-0.202-1.786c-0.136-0.479-0.338-0.866-0.6-1.154c-0.265-0.289-0.599-0.492-0.995-0.606C124.641,9.056,124.2,9,123.715,9c-0.691,0-1.291,0.198-1.781,0.59c-0.363,0.29-0.664,0.626-0.901,1.004V9l-0.59,0.002c-0.444,0.079-0.873,0.172-1.276,0.274c-0.409,0.103-0.775,0.22-1.087,0.348L118,9.654v0.643l1.179,0.137v6.505c-0.453,0.12-0.826,0.254-1.11,0.395L118,17.368V18h4.104v-0.626l-0.061-0.035c-0.325-0.194-0.665-0.33-1.011-0.406V12.07c0.079-0.221,0.186-0.44,0.319-0.646c0.136-0.211,0.3-0.405,0.488-0.571c0.185-0.167,0.401-0.301,0.643-0.396c0.241-0.097,0.505-0.146,0.786-0.146c0.648,0,1.081,0.225,1.322,0.688c0.251,0.479,0.378,1.149,0.378,1.988v3.957c-0.351,0.108-0.682,0.24-0.985,0.39l-0.069,0.034V18H128v-0.624L127.941,17.341z"/>
<path d="M24.9,24.903c-0.904,0.905-1.846,1.331-2.216,0.961c-0.138-0.138,0,0,0,0c-0.066-0.065-2.427-2.672-5.112-5.356l0,0c-2.431-2.432-5.281-4.897-7.038-6.653C8.78,12.101,5.861,8.822,5.858,8.82l0,0L5.663,8.6l1.415-1.538l1.52-1.396l0.219,0.196c0.003,0.002,3.28,2.921,5.035,4.675c1.757,1.757,4.222,4.607,6.654,7.038l0,0c2.684,2.684,5.26,5.015,5.377,5.132C26.198,23.023,25.854,23.95,24.9,24.903z"/>
<linearGradient id="SVGID_13_" gradientUnits="userSpaceOnUse" x1="14.5562" y1="17.417" x2="17.4136" y2="14.5596">
	<stop offset="0.1484" style="stop-color:#7B6C35"/>
	<stop offset="0.8352" style="stop-color:#B9AA69"/>
</linearGradient>
<path fill-rule="evenodd" clip-rule="evenodd" fill="url(#SVGID_13_)" d="M13.622,10.768C11.88,9.025,8.601,6.104,8.601,6.104L7.297,7.301L6.102,8.604c0,0,2.921,3.279,4.663,5.021c1.742,1.741,4.595,4.211,7.038,6.653c2.685,2.685,5.068,5.314,5.11,5.356c0.042,0.041,0.545,0.253,1.758-0.961c1.213-1.213,1-1.718,0.971-1.746c-0.028-0.028-2.683-2.438-5.368-5.123C17.833,15.363,15.363,12.51,13.622,10.768z"/>
<linearGradient id="SVGID_15_" gradientUnits="userSpaceOnUse" x1="14.5532" y1="17.4141" x2="17.363" y2="14.6043">
	<stop offset="0.0934" style="stop-color:#2B2414"/>
	<stop offset="0.7363" style="stop-color:#624E22"/>
</linearGradient>
<path fill-rule="evenodd" clip-rule="evenodd" fill="url(#SVGID_15_)" d="M24.421,24.913c-0.083-0.011-0.172-0.08-0.282-0.188c-0.123-0.124-2.62-2.661-5.305-5.347c-0.997-0.997-2.969-2.815-3.245-3.058c-0.481-0.424-0.438-0.855-0.183-1.274c0.259-0.426,0.89-0.949,1.314-0.985c-0.411-0.445-0.811-0.879-1.194-1.294c-1.172,0.651-2.519,1.435-2.717,1.237c-0.938-0.939-3.311-3.31-4.315-4.312C8.052,9.25,8.112,8.777,8.361,8.312c0.272-0.511,0.969-1.068,1.382-1.18l0,0C9.068,6.521,8.601,6.104,8.601,6.104L7.297,7.301L6.102,8.604c0,0,2.921,3.279,4.663,5.021c1.742,1.741,4.595,4.211,7.038,6.653c2.685,2.685,5.068,5.314,5.11,5.356C22.952,25.673,23.389,25.855,24.421,24.913z"/>
<path fill-rule="evenodd" clip-rule="evenodd" fill="#6B5600" d="M19.672,18.245c0,0-0.337-0.406-0.741-0.81c-0.404-0.404-0.848-0.819-0.848-0.819s0.492,0.559,0.754,0.821S19.672,18.245,19.672,18.245z M13.542,11.869c-0.384-0.385-1.01-1.01-1.01-1.01s0.579,0.74,0.929,1.09C13.811,12.3,13.925,12.252,13.542,11.869z M12.673,13.385c-0.617-0.618-1.614-1.562-3.226-3.173C8.2,8.964,7.203,8.033,6.89,7.744L6.818,7.823c0.433,0.414,2.292,2.198,3.312,3.219c1.16,1.159,3.128,3.002,3.653,3.429c0.525,0.427,1.534,1.306,2.303,2.075c0.769,0.769,1.578,1.482,1.578,1.482s-1.315-1.354-1.895-1.935C15.188,15.515,13.387,14.099,12.673,13.385z M12.288,10.659c0,0-0.808-0.808-2.026-2.026C9.33,7.701,8.399,6.771,8.148,6.52L8.144,6.523c0.248,0.278,1.198,1.338,2.05,2.19C11.184,9.704,12.288,10.659,12.288,10.659z M9.807,9.198c0.162,0.161,0.603,0.593,0.926,0.915c0.323,0.323,1,1.059,1.168,1.227c0.672,0.672,1.134,1.09,1.928,1.884c0.794,0.795,2.747,2.824,3.137,3.215c0.661,0.661,1.569,1.611,2.033,2.076c0.465,0.464,1.515,1.471,2.046,2.003c0.532,0.531,1.238,1.214,1.709,1.686c0.472,0.472,1.748,1.554,1.748,1.554s-2.03-2.001-2.757-2.728c-0.727-0.728-1.649-1.545-2.101-1.995c-0.628-0.629-1.662-1.738-2.194-2.271c-0.531-0.531-0.693-0.625-0.807-0.739c-0.114-0.115-1.225-1.279-1.521-1.576c-0.296-0.296-2.888-2.928-3.366-3.406c-0.478-0.478-0.983-0.968-1.185-1.171c-0.202-0.202-0.552-0.619-0.768-0.835C9.588,8.821,9.225,8.498,8.969,8.242C8.727,8,8.071,7.368,7.664,6.964L7.525,7.092c0.692,0.68,1.126,0.967,1.391,1.231C9.191,8.6,9.646,9.036,9.807,9.198z M11.388,11.925c0.494,0.494,2.558,2.354,2.558,2.354s-1.412-1.345-2.126-2.059c-0.714-0.714-1.592-1.631-2.446-2.485C8.661,9.022,7.5,7.849,7.135,7.479L7.028,7.595c0.48,0.456,2.058,1.955,2.517,2.414C10.087,10.552,10.893,11.431,11.388,11.925z M21.853,21.584c-0.511-0.512-1.017-0.96-1.467-1.411c-0.452-0.45-1.75-1.807-1.75-1.807s1.326,1.516,1.817,2.007c0.492,0.491,0.841,0.732,1.427,1.318s1.471,1.508,1.82,1.857c0.283,0.283,0.905,0.776,1.134,0.956c0.021-0.022,0.043-0.045,0.063-0.066c-0.292-0.255-1.212-1.062-1.617-1.468C22.795,22.485,22.364,22.095,21.853,21.584z M23.616,22.096c-0.316-0.316-1.211-1.215-1.4-1.403s-0.865-0.717-0.865-0.717s0.468,0.511,0.596,0.639c0.127,0.128,0.841,0.72,1.373,1.252c0.457,0.457,1.677,1.696,2.012,2.037c0.044-0.063,0.083-0.123,0.116-0.18C25.103,23.424,23.888,22.366,23.616,22.096z M10.868,10.687c-0.558-0.571-1.233-1.323-1.474-1.563C8.842,8.57,7.754,7.626,7.363,7.24L7.297,7.301l-0.009,0.01C7.687,7.696,8.88,8.821,9.629,9.569C10.113,10.054,10.868,10.687,10.868,10.687z M10.414,10.468c0.606,0.605,5.065,4.971,5.637,5.543c0.572,0.572,1.225,1.278,1.562,1.615s1.265,1.293,1.265,1.293s-1.252-1.415-1.979-2.142c-0.727-0.727-2.507-2.566-3.328-3.387C12.969,12.787,10.414,10.468,10.414,10.468z M11.17,11.182"/>
<linearGradient id="SVGID_18_" gradientUnits="userSpaceOnUse" x1="16.7949" y1="15.165" x2="14.8297" y2="17.1303">
	<stop offset="0.5165" style="stop-color:#2D2400"/>
	<stop offset="0.8626" style="stop-color:#211700"/>
</linearGradient>
<path fill-rule="evenodd" clip-rule="evenodd" fill="url(#SVGID_18_)" d="M17.651,19.504c-0.826-0.826-2.427-2.34-3.122-3.035c-0.115-0.114-1.519-1.488-1.815-1.785c-0.296-0.295-2.885-2.645-3.363-3.123c-0.478-0.478-1.016-1.128-1.218-1.331c-0.202-0.201-0.584-0.651-0.8-0.866C7.119,9.147,6.788,8.792,6.532,8.536C6.443,8.448,6.379,8.399,6.341,8.383L6.311,8.41C6.328,8.45,6.38,8.52,6.478,8.617C6.754,8.893,7.11,9.33,7.272,9.491c0.162,0.162,0.7,0.69,1.023,1.014c0.323,0.323,0.935,1.025,1.103,1.194c0.672,0.671,1.2,1.024,1.994,1.818c0.794,0.794,2.685,2.688,3.075,3.079c0.661,0.661,1.631,1.487,2.095,1.952c0.465,0.465,1.515,1.568,2.047,2.1c0.532,0.532,1.235,1.262,1.707,1.732c0.471,0.472,1.75,1.669,1.75,1.669c-1.953-1.99-1.892-2.048-2.571-2.728C18.768,20.596,18.102,19.955,17.651,19.504z M21.977,22.977c-0.665-0.665-1.163-1.196-1.866-1.895c-0.703-0.699-1.495-1.444-2.116-2.061c-0.62-0.616-2.407-2.337-2.407-2.337s1.764,1.85,2.439,2.521c0.676,0.672,1.218,1.223,2.023,2.023c0.806,0.801,2.023,2.061,2.504,2.539c0.406,0.403,1.538,1.425,1.538,1.425l0.179-0.146C24.272,25.046,22.972,23.972,21.977,22.977z M8.584,10.356c0.578,0.62,4.234,3.992,4.76,4.555c0.526,0.563,2.885,2.762,2.885,2.762s-1.592-1.586-2.352-2.4c-0.761-0.813-3.656-3.347-4.566-4.32s-2.507-2.56-2.507-2.56L6.662,8.505C6.662,8.505,8.007,9.738,8.584,10.356z M23.126,25.076c-0.442-0.468-0.884-0.831-0.884-0.831s0.52,0.675,0.767,0.896c0.164,0.146,0.348,0.331,0.456,0.44c0.043-0.019,0.089-0.04,0.138-0.065C23.507,25.446,23.353,25.316,23.126,25.076z M13.554,13.906c-0.005,0.001-0.01,0.003-0.015,0.005c0.242,0.221,0.407,0.368,0.407,0.368S13.789,14.13,13.554,13.906z M15.23,15.73c-0.007-0.044-0.009-0.089-0.007-0.133c-0.547-0.475-1.299-1.092-1.895-1.611c-0.024,0.008-0.049,0.016-0.073,0.022c0.229,0.206,0.414,0.369,0.528,0.462C14.126,14.75,14.676,15.223,15.23,15.73z M15.332,15.183c-0.497-0.509-1.006-1.029-1.408-1.437c-0.042,0.019-0.081,0.036-0.121,0.055c0.557,0.546,1.083,1.062,1.493,1.465C15.307,15.238,15.318,15.21,15.332,15.183z M9.113,7.485C8.656,7.027,8.291,6.662,8.148,6.52L8.144,6.523C8.28,6.677,8.631,7.067,9.058,7.527C9.077,7.513,9.095,7.499,9.113,7.485z M15.531,14.869c-0.174-0.181-0.325-0.336-0.409-0.421c-0.095-0.095-0.43-0.434-0.854-0.864c-0.019,0.009-0.037,0.018-0.055,0.026c0.369,0.376,0.833,0.854,1.279,1.312C15.505,14.905,15.517,14.887,15.531,14.869z M8.239,8.595C7.778,8.13,7.352,7.698,7.148,7.491C7.113,7.534,7.081,7.576,7.05,7.615c0.233,0.222,0.687,0.652,1.153,1.099C8.213,8.674,8.225,8.634,8.239,8.595z M8.642,7.921c-0.3-0.294-0.697-0.679-0.978-0.957L7.528,7.089L7.525,7.092c0.446,0.438,0.784,0.713,1.04,0.924C8.59,7.984,8.614,7.952,8.642,7.921z M8.171,8.958C7.578,8.385,7.136,7.973,6.926,7.777C6.901,7.811,6.88,7.839,6.861,7.864C7.093,8.086,7.604,8.576,8.186,9.14C8.175,9.08,8.17,9.019,8.171,8.958z M8.361,8.312C8.378,8.28,8.402,8.247,8.423,8.214C7.996,7.826,7.576,7.45,7.363,7.24L7.318,7.281C7.309,7.293,7.301,7.303,7.292,7.313c0.204,0.198,0.612,0.585,1.062,1.016C8.356,8.323,8.358,8.318,8.361,8.312z"/>
<path d="M8.364,0c0,0,0.682,0.482,1.768,1.568l0,0C11.217,2.654,11.7,3.335,11.7,3.335V3.94l-7.759,7.759H3.335l0,0c0,0-0.906-0.707-1.767-1.568l0,0C0.482,9.045,0,8.364,0,8.364V7.758L7.758,0H8.364z"/>
<linearGradient id="SVGID_21_" gradientUnits="userSpaceOnUse" x1="4.1094" y1="4.1094" x2="7.591" y2="7.591">
	<stop offset="0" style="stop-color:#FFFFFF"/>
	<stop offset="1" style="stop-color:#666666"/>
</linearGradient>
<path fill-rule="evenodd" clip-rule="evenodd" fill="url(#SVGID_21_)" d="M8.261,0.325H7.893L0.325,7.894v0.367c0,0,0.399,0.567,1.474,1.641c1.074,1.073,1.641,1.474,1.641,1.474h0.367l7.569-7.569V3.438c0,0-0.399-0.566-1.474-1.641C8.828,0.725,8.261,0.325,8.261,0.325z"/>
<linearGradient id="SVGID_23_" gradientUnits="userSpaceOnUse" x1="4.1094" y1="4.1094" x2="7.591" y2="7.591">
	<stop offset="0" style="stop-color:#FFFFFF"/>
	<stop offset="1" style="stop-color:#666666"/>
</linearGradient>
<path fill-rule="evenodd" clip-rule="evenodd" fill="url(#SVGID_23_)" d="M8.261,0.325H7.893L0.325,7.894v0.367c0,0,0.399,0.567,1.474,1.641c1.074,1.073,1.641,1.474,1.641,1.474h0.367l7.569-7.569V3.438c0,0-0.399-0.566-1.474-1.641C8.828,0.725,8.261,0.325,8.261,0.325z"/>
<linearGradient id="SVGID_25_" gradientUnits="userSpaceOnUse" x1="1.958" y1="9.7422" x2="9.7117" y2="1.9885">
	<stop offset="0.0769" style="stop-color:#0A0A0A"/>
	<stop offset="0.533" style="stop-color:#0F0F0F"/>
	<stop offset="0.9121" style="stop-color:#1A1A1A"/>
</linearGradient>
<path fill-rule="evenodd" clip-rule="evenodd" fill="url(#SVGID_25_)" d="M11.096,3.708c0,0-2.125,2.263-3.625,3.763s-3.763,3.626-3.763,3.626s-0.83-0.434-1.75-1.354c-0.921-0.921-1.354-1.75-1.354-1.75s2.125-2.263,3.625-3.764c1.5-1.499,3.763-3.625,3.763-3.625S8.79,1.067,9.711,1.988C10.632,2.91,11.096,3.708,11.096,3.708z"/>
<linearGradient id="SVGID_27_" gradientUnits="userSpaceOnUse" x1="0.2363" y1="7.9824" x2="3.718" y2="11.4641">
	<stop offset="0" style="stop-color:#999999"/>
	<stop offset="1" style="stop-color:#1A1A1A"/>
</linearGradient>
<path fill-rule="evenodd" clip-rule="evenodd" fill="url(#SVGID_27_)" d="M3.708,11.097c0,0-0.83-0.434-1.75-1.354c-0.921-0.921-1.354-1.75-1.354-1.75L0.325,7.894v0.367c0,0,0.399,0.567,1.474,1.641c1.074,1.073,1.641,1.474,1.641,1.474h0.367L3.708,11.097z"/>
<linearGradient id="SVGID_29_" gradientUnits="userSpaceOnUse" x1="7.9819" y1="0.2363" x2="11.4636" y2="3.718">
	<stop offset="0" style="stop-color:#CCCCCC"/>
	<stop offset="1" style="stop-color:#333333"/>
</linearGradient>
<path fill-rule="evenodd" clip-rule="evenodd" fill="url(#SVGID_29_)" d="M11.375,3.806V3.438c0,0-0.399-0.566-1.474-1.641C8.828,0.725,8.261,0.325,8.261,0.325H7.893l0.099,0.278c0,0,0.798,0.464,1.719,1.385c0.921,0.922,1.385,1.72,1.385,1.72L11.375,3.806z"/>
<path fill="#494949" d="M5.438,6.124L5.351,6.213L5.279,6.141L5.531,5.89l0.071,0.071L5.514,6.049l0.458,0.458L5.897,6.582L5.438,6.124z"/>
<path fill="#494949" d="M5.901,6.023L5.55,5.87l0.08-0.08l0.214,0.1L5.746,5.674l0.081-0.08l0.151,0.354l0.387,0.168L6.284,6.196L6.039,6.084l0.113,0.243L6.071,6.408L5.901,6.023z"/>
<path fill="#494949" d="M5.868,5.552l0.114-0.114c0.042-0.041,0.082-0.062,0.135-0.061c0.054,0.001,0.095,0.026,0.159,0.09C6.323,5.513,6.35,5.548,6.361,5.595C6.375,5.649,6.362,5.704,6.306,5.76L6.268,5.799l0.207,0.207L6.398,6.081L5.868,5.552z M6.196,5.727L6.232,5.69c0.062-0.062,0.026-0.099-0.027-0.151c-0.05-0.05-0.091-0.091-0.15-0.032l-0.04,0.04L6.196,5.727z"/>
<path fill="#191919" d="M5.438,6.06L5.351,6.147L5.279,6.076l0.252-0.252l0.071,0.071L5.514,5.983l0.458,0.458L5.897,6.518L5.438,6.06z"/>
<path fill="#191919" d="M5.901,5.958L5.55,5.805l0.08-0.08l0.214,0.1L5.746,5.608l0.081-0.079l0.151,0.354l0.387,0.168l-0.081,0.08L6.039,6.019l0.113,0.244l-0.081,0.08L5.901,5.958z"/>
<path fill="#191919" d="M5.868,5.486l0.114-0.113C6.024,5.331,6.064,5.31,6.118,5.312c0.054,0.001,0.095,0.026,0.159,0.09C6.323,5.447,6.35,5.482,6.361,5.529c0.014,0.056,0.001,0.109-0.055,0.165L6.268,5.733L6.474,5.94L6.398,6.017L5.868,5.486z M6.196,5.662l0.037-0.037c0.062-0.062,0.026-0.099-0.027-0.151c-0.05-0.05-0.091-0.091-0.15-0.031l-0.04,0.039L6.196,5.662z"/>
<path fill="#2D2D2D" d="M5.438,6.092L5.351,6.18L5.279,6.108l0.252-0.251l0.071,0.07L5.514,6.017l0.458,0.458L5.897,6.55L5.438,6.092z"/>
<path fill="#2D2D2D" d="M5.901,5.991L5.55,5.837l0.08-0.079l0.214,0.1L5.746,5.642l0.081-0.08l0.151,0.354l0.387,0.168L6.284,6.164L6.039,6.051l0.113,0.244L6.071,6.376L5.901,5.991z"/>
<path fill="#2D2D2D" d="M5.868,5.52l0.114-0.114c0.042-0.042,0.082-0.062,0.135-0.062c0.054,0.002,0.095,0.027,0.159,0.091C6.323,5.48,6.35,5.516,6.361,5.562c0.014,0.055,0.001,0.109-0.055,0.165L6.268,5.767l0.207,0.206L6.398,6.049L5.868,5.52z M6.196,5.694l0.037-0.036C6.294,5.597,6.258,5.56,6.206,5.507c-0.05-0.051-0.091-0.091-0.15-0.032l-0.04,0.04L6.196,5.694z"/>
<path d="M2.583,24.641L2.583,24.641c-0.718-0.718-1.28-1.611-1.28-1.611l0.7-0.699c0,0,0.734-0.201,1.179-0.646l0,0l14.45-14.451c0.92-0.919,1.881-2.945,1.881-2.945l2.541-2.542l0.661-0.447L26,4.584l-0.449,0.662l-2.54,2.54c0,0-2.026,0.962-2.945,1.882l0,0L5.616,24.118c-0.445,0.444-0.647,1.179-0.647,1.179L4.266,26C4.266,26,3.302,25.359,2.583,24.641z"/>
<linearGradient id="SVGID_41_" gradientUnits="userSpaceOnUse" x1="17.8154" y1="5.7412" x2="25.3018" y2="5.7412">
	<stop offset="0.125" style="stop-color:#CDCDCB"/>
	<stop offset="0.875" style="stop-color:#A09EA1"/>
</linearGradient>
<path fill-rule="evenodd" clip-rule="evenodd" fill="url(#SVGID_41_)" d="M22.263,1.998L22.263,1.998l-2.449,2.449c0,0-0.577,2.528-1.508,3.46l-0.491,0.491l1.086,1.086l0.491-0.49c0.931-0.932,3.46-1.509,3.46-1.509l2.449-2.448l0,0L22.263,1.998z"/>
<path fill-rule="evenodd" clip-rule="evenodd" fill="#616161" d="M18.902,9.484l0.444,0.444l0.491-0.491c0.931-0.932,3.017-1.952,3.017-1.952s-2.529,0.577-3.46,1.509L18.902,9.484z"/>
<path fill-rule="evenodd" clip-rule="evenodd" fill="#EBE9E9" d="M17.372,7.954l0.444,0.444l0.491-0.491c0.931-0.932,1.508-3.46,1.508-3.46s-1.021,2.084-1.952,3.017L17.372,7.954z"/>
<path fill-rule="evenodd" clip-rule="evenodd" fill="#FFCC33" d="M17.848,8.365L3.855,22.357c-0.532,0.533-1.153,0.799-1.153,0.799l1.441,1.441h0c0,0,0.266-0.621,0.798-1.153L18.935,9.451L17.848,8.365z"/>
<path fill-rule="evenodd" clip-rule="evenodd" fill="#BFBFBF" d="M1.726,23.067c0,0,0.597,0.853,1.088,1.344s1.418,1.163,1.418,1.163L1.726,23.067z"/>
<polygon fill-rule="evenodd" clip-rule="evenodd" fill="#EBE9E9" points="25.302,5.037 25.581,4.624 22.676,1.719 22.263,1.998"/>
<path fill="#BA9C0A" d="M5.025,22.038l-0.067,0.066L4.904,22.05l0.191-0.191l0.054,0.055L5.083,21.98l0.348,0.348l-0.058,0.058L5.025,22.038z"/>
<path fill="#BA9C0A" d="M5.154,21.8l0.172-0.172l0.054,0.055l-0.114,0.114l0.118,0.118l0.1-0.1l0.054,0.054l-0.1,0.1l0.118,0.118l0.114-0.114l0.058,0.058l-0.172,0.172L5.154,21.8z"/>
<path fill="#BA9C0A" d="M5.642,21.695l-0.267-0.116l0.061-0.062l0.163,0.076l-0.075-0.163l0.061-0.062l0.115,0.269l0.293,0.128l-0.061,0.061l-0.186-0.085l0.085,0.185l-0.061,0.062L5.642,21.695z"/>
<path fill="#BA9C0A" d="M5.742,21.32l-0.066,0.066l-0.054-0.054l0.191-0.191l0.054,0.054L5.8,21.262l0.348,0.349L6.09,21.668L5.742,21.32z"/>
<path fill="#BA9C0A" d="M5.872,21.082l0.086-0.087c0.032-0.03,0.062-0.047,0.103-0.046s0.072,0.021,0.12,0.068c0.035,0.035,0.056,0.062,0.064,0.098c0.01,0.041,0,0.083-0.042,0.125L6.174,21.27l0.157,0.157l-0.058,0.058L5.872,21.082z M6.12,21.215l0.028-0.027c0.047-0.047,0.02-0.074-0.021-0.115c-0.038-0.037-0.069-0.068-0.114-0.023l-0.03,0.03L6.12,21.215z"/>
<path fill="#BA9C0A" d="M6.178,20.775l0.048-0.048l0.492,0.312l-0.058,0.057l-0.104-0.068l-0.078,0.078l0.069,0.104l-0.058,0.058L6.178,20.775z M6.318,20.867L6.318,20.867l0.116,0.175l0.058-0.058L6.318,20.867z"/>
<path fill="#BA9C0A" d="M6.439,20.623l-0.067,0.066l-0.054-0.054l0.191-0.191l0.054,0.054l-0.066,0.067l0.348,0.348l-0.058,0.058L6.439,20.623z"/>
<path fill="#BA9C0A" d="M6.661,20.402l-0.067,0.066L6.54,20.414l0.191-0.191l0.054,0.055l-0.066,0.066l0.348,0.349L7.008,20.75L6.661,20.402z"/>
<path fill="#BA9C0A" d="M6.79,20.164l0.172-0.172l0.054,0.055l-0.114,0.114l0.118,0.118l0.1-0.1l0.054,0.054l-0.099,0.1l0.118,0.118l0.114-0.114l0.058,0.058l-0.172,0.172L6.79,20.164z"/>
<path fill="#BA9C0A" d="M7.033,19.921l0.092-0.092c0.069-0.069,0.142-0.062,0.22,0.016c0.046,0.046,0.067,0.093,0.051,0.15l0.246,0.121l-0.061,0.062L7.355,20.06l-0.034,0.034l0.171,0.172l-0.058,0.058L7.033,19.921z M7.27,20.043l0.033-0.032c0.04-0.04,0.024-0.069-0.017-0.109c-0.041-0.041-0.069-0.056-0.112-0.014l-0.03,0.03L7.27,20.043z"/>
<path fill="#BA9C0A" d="M7.305,19.649l0.055-0.056l0.33,0.155l0.001-0.001l-0.242-0.242l0.058-0.058l0.402,0.402l-0.054,0.054l-0.33-0.153l-0.001,0.001l0.242,0.242l-0.058,0.057L7.305,19.649z"/>
<path fill="#ECD74C" d="M5.025,22.09l-0.067,0.066l-0.054-0.054l0.191-0.191l0.054,0.055l-0.066,0.066L5.43,22.38l-0.058,0.058L5.025,22.09z"/>
<path fill="#ECD74C" d="M5.154,21.853l0.172-0.172l0.054,0.055l-0.114,0.113l0.118,0.118l0.1-0.1l0.054,0.055l-0.1,0.1l0.118,0.118l0.114-0.114l0.058,0.058l-0.172,0.171L5.154,21.853z"/>
<path fill="#ECD74C" d="M5.642,21.748l-0.267-0.116l0.061-0.062l0.163,0.076l-0.075-0.163l0.061-0.062l0.115,0.269l0.293,0.127l-0.061,0.062l-0.186-0.086l0.085,0.186L5.771,22.04L5.642,21.748z"/>
<path fill="#ECD74C" d="M5.742,21.373l-0.066,0.066l-0.054-0.055l0.191-0.19l0.054,0.054L5.8,21.314l0.348,0.349L6.09,21.721L5.742,21.373z"/>
<path fill="#ECD74C" d="M5.872,21.135l0.086-0.087c0.032-0.031,0.062-0.047,0.103-0.046s0.072,0.021,0.12,0.068c0.035,0.035,0.056,0.062,0.064,0.098c0.01,0.041,0,0.083-0.042,0.125l-0.029,0.029l0.157,0.157l-0.058,0.058L5.872,21.135z M6.12,21.268l0.028-0.027c0.047-0.047,0.02-0.075-0.021-0.115c-0.038-0.037-0.069-0.068-0.114-0.023l-0.03,0.029L6.12,21.268z"/>
<path fill="#ECD74C" d="M6.178,20.828l0.048-0.049l0.492,0.312l-0.058,0.058L6.557,21.08l-0.078,0.078l0.069,0.104L6.491,21.32L6.178,20.828z M6.318,20.919l-0.001,0.002l0.117,0.174l0.058-0.058L6.318,20.919z"/>
<path fill="#ECD74C" d="M6.439,20.676l-0.067,0.066l-0.054-0.055l0.191-0.19l0.054,0.054l-0.066,0.067l0.348,0.348l-0.058,0.058L6.439,20.676z"/>
<path fill="#ECD74C" d="M6.661,20.454l-0.067,0.066L6.54,20.467l0.191-0.191l0.054,0.055l-0.066,0.066l0.348,0.349l-0.058,0.057L6.661,20.454z"/>
<path fill="#ECD74C" d="M6.79,20.217l0.172-0.172L7.016,20.1l-0.114,0.113l0.118,0.118l0.1-0.1l0.054,0.055l-0.099,0.1l0.118,0.118l0.114-0.114l0.058,0.058l-0.172,0.171L6.79,20.217z"/>
<path fill="#ECD74C" d="M7.033,19.974l0.092-0.093c0.069-0.068,0.142-0.062,0.22,0.017c0.046,0.046,0.067,0.093,0.051,0.15l0.246,0.121L7.581,20.23l-0.226-0.118l-0.034,0.034l0.171,0.172l-0.058,0.058L7.033,19.974z M7.27,20.096l0.033-0.032c0.04-0.04,0.024-0.069-0.017-0.109c-0.041-0.041-0.069-0.056-0.112-0.014l-0.03,0.03L7.27,20.096z"/>
<path fill="#ECD74C" d="M7.305,19.702l0.055-0.056l0.33,0.155L7.69,19.8l-0.242-0.242l0.058-0.057l0.402,0.401l-0.054,0.055l-0.33-0.153H7.523l0.242,0.242l-0.058,0.058L7.305,19.702z"/>
<path fill="#FCC332" d="M5.025,22.063l-0.067,0.067l-0.054-0.055l0.191-0.19l0.054,0.054l-0.066,0.066l0.348,0.348l-0.058,0.059L5.025,22.063z"/>
<path fill="#FCC332" d="M5.154,21.826l0.172-0.172l0.054,0.054l-0.114,0.114l0.118,0.118l0.1-0.1l0.054,0.055l-0.1,0.099l0.118,0.118l0.114-0.113l0.058,0.058l-0.172,0.172L5.154,21.826z"/>
<path fill="#FCC332" d="M5.642,21.722l-0.267-0.116l0.061-0.062l0.163,0.076l-0.075-0.163l0.061-0.061l0.115,0.268l0.293,0.127l-0.061,0.062l-0.186-0.085l0.085,0.186l-0.061,0.061L5.642,21.722z"/>
<path fill="#FCC332" d="M5.742,21.346l-0.066,0.066l-0.054-0.054l0.191-0.19l0.054,0.054L5.8,21.289l0.348,0.348L6.09,21.693L5.742,21.346z"/>
<path fill="#FCC332" d="M5.872,21.108l0.086-0.086c0.032-0.032,0.062-0.048,0.103-0.047s0.072,0.021,0.12,0.068c0.035,0.035,0.056,0.062,0.064,0.097c0.01,0.042,0,0.083-0.042,0.126l-0.029,0.029l0.157,0.157l-0.058,0.058L5.872,21.108z M6.12,21.242l0.028-0.028c0.047-0.047,0.02-0.075-0.021-0.115c-0.038-0.038-0.069-0.069-0.114-0.023l-0.03,0.03L6.12,21.242z"/>
<path fill="#FCC332" d="M6.178,20.802l0.048-0.048l0.492,0.312l-0.058,0.058l-0.104-0.07l-0.078,0.079l0.069,0.104l-0.058,0.058L6.178,20.802z M6.318,20.894L6.318,20.894l0.116,0.175l0.058-0.058L6.318,20.894z"/>
<path fill="#FCC332" d="M6.439,20.648l-0.067,0.067l-0.054-0.054l0.191-0.191l0.054,0.055l-0.066,0.066l0.348,0.348l-0.058,0.058L6.439,20.648z"/>
<path fill="#FCC332" d="M6.661,20.428l-0.067,0.067L6.54,20.44l0.191-0.19l0.054,0.054L6.718,20.37l0.348,0.348l-0.058,0.058L6.661,20.428z"/>
<path fill="#FCC332" d="M6.79,20.19l0.172-0.172l0.054,0.054l-0.114,0.114l0.118,0.118l0.1-0.1l0.054,0.055l-0.099,0.099l0.118,0.118l0.114-0.113l0.058,0.057l-0.172,0.173L6.79,20.19z"/>
<path fill="#FCC332" d="M7.033,19.947l0.092-0.093c0.069-0.068,0.142-0.062,0.22,0.017c0.046,0.047,0.067,0.094,0.051,0.15l0.246,0.121l-0.061,0.062l-0.226-0.118L7.321,20.12l0.171,0.172L7.435,20.35L7.033,19.947z M7.27,20.069l0.033-0.032c0.04-0.041,0.024-0.069-0.017-0.109c-0.041-0.041-0.069-0.056-0.112-0.014l-0.03,0.03L7.27,20.069z"/>
<path fill="#FCC332" d="M7.305,19.675L7.36,19.62l0.33,0.155l0.001-0.001l-0.242-0.243l0.058-0.058l0.402,0.402l-0.054,0.055l-0.33-0.154l-0.001,0.002l0.242,0.241l-0.058,0.059L7.305,19.675z"/>
<rect x="3.874" y="24.709" transform="matrix(-0.7075 0.7067 -0.7067 -0.7075 24.8792 39.8746)" fill-rule="evenodd" clip-rule="evenodd" fill="#3D2812" width="0.627" height="0.753"/>
<rect x="1.837" y="22.798" transform="matrix(0.7071 0.7071 -0.7071 0.7071 16.9909 5.204)" fill-rule="evenodd" clip-rule="evenodd" fill="#E2D9AC" width="0.753" height="0.627"/>
<rect x="2.887" y="23.079" transform="matrix(0.7071 -0.7071 0.7071 0.7071 -16.1028 9.3216)" fill-rule="evenodd" clip-rule="evenodd" fill="#FCC332" width="0.627" height="2.038"/>
<path fill-rule="evenodd" clip-rule="evenodd" fill="#473015" d="M19.378,9.896l-0.443-0.443L4.942,23.444c-0.532,0.532-0.798,1.153-0.798,1.153l0.532,0.533c0,0,0.178-0.71,0.71-1.243L19.378,9.896z"/>
<path fill-rule="evenodd" clip-rule="evenodd" fill="#EDE5B2" d="M17.404,7.922L3.412,21.914c-0.533,0.532-1.242,0.71-1.242,0.71l0.532,0.532c0,0,0.621-0.266,1.154-0.799L17.848,8.365L17.404,7.922z"/>
</svg>
