<?xml version="1.0" encoding="utf-8"?>
<!DOCTYPE svg>
<svg version="1.1" baseProfile="full" xmlns="http://www.w3.org/2000/svg" xmlns:xlink="http://www.w3.org/1999/xlink" x="0px" y="0px" width="208px" height="32px" viewBox="0 0 208 32" enable-background="new 0 0 208 32" xml:space="preserve">
<g id="sprite-textpattern">
    <linearGradient id="svg-txplogo-grad1" gradientUnits="userSpaceOnUse" x1="30.2319" y1="36.1724" x2="36.166" y2="30.2383">
        <stop offset="0.125" style="stop-color:#7b6c35"/>
        <stop offset="0.875" style="stop-color:#b9aa69"/>
    </linearGradient>
    <linearGradient id="svg-txplogo-grad2" gradientUnits="userSpaceOnUse" x1="30.2256" y1="36.166" x2="36.0613" y2="30.3303">
        <stop offset="0" style="stop-color:#2b2414"/>
        <stop offset="0.75" style="stop-color:#624e22"/>
    </linearGradient>
    <linearGradient id="svg-txplogo-grad3" gradientUnits="userSpaceOnUse" x1="34.8799" y1="31.4961" x2="30.7981" y2="35.5778">
        <stop offset="0.5" style="stop-color:#2d2400"/>
        <stop offset="0.875" style="stop-color:#211700"/>
    </linearGradient>
    <linearGradient id="svg-txplogo-grad4" gradientUnits="userSpaceOnUse" x1="8.5347" y1="8.5347" x2="15.7652" y2="15.7652">
        <stop offset="0" style="stop-color:#ffffff"/>
        <stop offset="1" style="stop-color:#666666"/>
    </linearGradient>
    <linearGradient id="svg-txplogo-grad5" gradientUnits="userSpaceOnUse" x1="4.0649" y1="20.2339" x2="20.1689" y2="4.1299">
        <stop offset="0" style="stop-color:#0a0a0a"/>
        <stop offset="0.5" style="stop-color:#0f0f0f"/>
        <stop offset="1" style="stop-color:#1a1a1a"/>
    </linearGradient>
    <linearGradient id="svg-txplogo-grad6" gradientUnits="userSpaceOnUse" x1="0.4907" y1="16.5786" x2="7.7213" y2="23.8092">
        <stop offset="0" style="stop-color:#999999"/>
        <stop offset="1" style="stop-color:#1a1a1a"/>
    </linearGradient>
    <linearGradient id="svg-txplogo-grad7" gradientUnits="userSpaceOnUse" x1="16.5781" y1="0.4912" x2="23.808" y2="7.7211">
        <stop offset="0" style="stop-color:#cccccc"/>
        <stop offset="1" style="stop-color:#333333"/>
    </linearGradient>
    <linearGradient id="svg-txplogo-grad8" gradientUnits="userSpaceOnUse" x1="37.001" y1="11.9238" x2="52.5498" y2="11.9238">
        <stop offset="0.125" style="stop-color:#cdcdcb"/>
        <stop offset="0.875" style="stop-color:#a09ea1"/>
    </linearGradient>
    <path d="M24.9,27.9c-0.9,0.9-1.8,1.3-2.2,1c-0.1-0.1,0,0,0,0c-0.1-0.1-2.4-2.7-5.1-5.4l0,0c-2.4-2.4-5.3-4.9-7-6.7c-1.8-1.8-4.7-5-4.7-5l0,0l-0.2-0.2l1.4-1.5l1.5-1.4l0.2,0.2c0,0,3.3,2.9,5,4.7c1.8,1.8,4.2,4.6,6.7,7l0,0c2.7,2.7,5.3,5,5.4,5.1C26.2,26,25.9,27,24.9,27.9z"/>
    <path fill="url(#svg-txplogo-grad1)" d="M13.6,13.8c-1.7-1.7-5-4.7-5-4.7l-1.3,1.2l-1.2,1.3c0,0,2.9,3.3,4.7,5c1.7,1.7,4.6,4.2,7,6.7c2.7,2.7,5.1,5.3,5.1,5.4c0,0,0.5,0.3,1.8-1c1.2-1.2,1-1.7,1-1.7s-2.7-2.4-5.4-5.1C17.8,18.4,15.4,15.5,13.6,13.8z"/>
    <path fill="url(#svg-txplogo-grad2)" d="M24.4,27.9c-0.1,0-0.2-0.1-0.3-0.2c-0.1-0.1-2.6-2.7-5.3-5.3c-1-1-3-2.8-3.2-3.1c-0.5-0.4-0.4-0.9-0.2-1.3c0.3-0.4,0.9-0.9,1.3-1c-0.4-0.4-0.8-0.9-1.2-1.3c-1.2,0.7-2.5,1.4-2.7,1.2c-0.9-0.9-3.3-3.3-4.3-4.3c-0.4-0.4-0.4-0.8-0.1-1.3c0.3-0.5,1-1.1,1.4-1.2l0,0c-0.7-0.6-1.1-1-1.1-1l-1.4,1.2l-1.2,1.3c0,0,2.9,3.3,4.7,5c1.7,1.7,4.6,4.2,7,6.7c2.7,2.7,5.1,5.3,5.1,5.4C23,28.7,23.4,28.9,24.4,27.9z"/>
    <path fill="#6b5600" d="M19.7,21.2c0,0-0.3-0.4-0.7-0.8s-0.8-0.8-0.8-0.8s0.5,0.6,0.8,0.8S19.7,21.2,19.7,21.2z M13.5,14.9c-0.4-0.4-1-1-1-1S13.1,14.6,13.5,14.9C13.8,15.3,13.9,15.3,13.5,14.9z M12.7,16.4c-0.6-0.6-1.6-1.6-3.2-3.2C8.2,12,7.2,11,6.9,10.7l-0.1,0.1c0.5,0.4,2.3,2.2,3.3,3.2c1.2,1.2,3.1,3,3.7,3.4s1.5,1.3,2.3,2.1c0.8,0.8,1.6,1.5,1.6,1.5s-1.3-1.4-1.9-1.9C15.2,18.5,13.4,17.1,12.7,16.4z M12.3,13.7c0,0-0.8-0.8-2-2c-1-1-1.9-1.9-2.2-2.2l0,0c0.2,0.3,1.2,1.3,2.1,2.2C11.2,12.7,12.3,13.7,12.3,13.7z M9.8,12.2c0.2,0.2,0.6,0.6,0.9,0.9c0.3,0.3,1,1.1,1.2,1.2c0.7,0.7,1.1,1.1,1.9,1.9c0.8,0.8,2.7,2.8,3.1,3.2c0.7,0.7,1.6,1.6,2,2.1c0.5,0.5,1.5,1.5,2,2s1.2,1.2,1.7,1.7s1.7,1.6,1.7,1.6s-2-2-2.8-2.7c-0.7-0.7-1.6-1.5-2.1-2c-0.6-0.6-1.7-1.7-2.2-2.3c-0.5-0.5-0.7-0.6-0.8-0.7c-0.1-0.1-1.2-1.3-1.5-1.6s-2.9-2.9-3.4-3.4s-1-1-1.2-1.2c0.1-0.2-0.3-0.6-0.5-0.9c-0.2-0.2-0.6-0.5-0.8-0.8C8.7,11,8.1,10.4,7.7,10l-0.2,0.1c0.7,0.7,1.1,1,1.4,1.2C9.2,11.6,9.6,12,9.8,12.2z M11.4,14.9c0.5,0.5,2.6,2.4,2.6,2.4s-1.4-1.3-2.1-2.1s-1.6-1.6-2.4-2.5c-0.8-0.7-2-1.9-2.4-2.2L7,10.6c0.5,0.5,2.1,2,2.5,2.4C10.1,13.6,10.9,14.4,11.4,14.9z M21.9,24.6c-0.5-0.5-1-1-1.5-1.4c-0.5-0.5-1.8-1.8-1.8-1.8s1.3,1.5,1.8,2s0.8,0.7,1.4,1.3s1.5,1.5,1.8,1.9c0.3,0.3,0.9,0.8,1.1,1c0,0,0,0,0.1-0.1c-0.3-0.3-1.2-1.1-1.6-1.5C22.8,25.5,22.4,25.1,21.9,24.6z M23.6,25.1c-0.3-0.3-1.2-1.2-1.4-1.4S21.4,23,21.4,23s0.5,0.5,0.6,0.6s0.8,0.7,1.4,1.3c0.5,0.5,1.7,1.7,2,2c0-0.1,0.1-0.1,0.1-0.2C25.1,26.4,23.9,25.4,23.6,25.1z M10.9,13.7c-0.6-0.6-1.2-1.3-1.5-1.6c-0.6-0.6-1.6-1.5-2-1.9l-0.1,0.1l0,0c0.4,0.4,1.6,1.5,2.3,2.3C10.1,13.1,10.9,13.7,10.9,13.7z M10.4,13.5c0.6,0.6,5.1,5,5.6,5.5c0.6,0.6,1.2,1.3,1.6,1.6s1.3,1.3,1.3,1.3s-1.3-1.4-2-2.1s-2.5-2.6-3.3-3.4C13,15.8,10.4,13.5,10.4,13.5z"/>
    <path fill="url(#svg-txplogo-grad3)" d="M17.7,22.5c-0.8-0.8-2.4-2.3-3.1-3c-0.1-0.1-1.5-1.5-1.8-1.8c-0.3-0.3-2.9-2.6-3.4-3.1s-1-1.1-1.2-1.3c-0.3-0.3-0.7-0.7-0.9-0.9c-0.2-0.3-0.5-0.6-0.8-0.9c-0.1-0.1-0.1-0.1-0.2-0.1l0,0c0,0,0.1,0.1,0.2,0.2c0.3,0.3,0.6,0.7,0.8,0.9c0.2,0.2,0.7,0.7,1,1s0.9,1,1.1,1.2c0.7,0.7,1.2,1,2,1.8c0.8,0.8,2.7,2.7,3.1,3.1c0.7,0.7,1.6,1.5,2.1,2s1.5,1.6,2,2.1s1.2,1.3,1.7,1.7c0.5,0.5,1.8,1.7,1.8,1.7c-2-2-1.9-2-2.6-2.7C18.8,23.6,18.1,23,17.7,22.5z M22,26c-0.7-0.7-1.2-1.2-1.9-1.9c-0.7-0.7-1.5-1.4-2.1-2.1c-0.6-0.6-2.4-2.3-2.4-2.3s1.8,1.9,2.4,2.5c0.7,0.7,1.2,1.2,2,2s2,2.1,2.5,2.5c0.4,0.4,1.5,1.4,1.5,1.4l0.2-0.1C24.3,28,23,27,22,26z M8.6,13.4c0.6,0.6,4.2,4,4.8,4.6s2.9,2.8,2.9,2.8s-1.6-1.6-2.4-2.4c-0.8-0.8-3.7-3.3-4.6-4.3s-2.5-2.7-2.5-2.7l-0.1,0.1C6.7,11.5,8,12.7,8.6,13.4z M23.1,28.1c-0.4-0.5-0.9-0.8-0.9-0.8s0.5,0.7,0.8,0.9c0.2,0.1,0.3,0.3,0.5,0.4c0,0,0.1,0,0.1-0.1C23.5,28.4,23.4,28.3,23.1,28.1z M13.6,16.9C13.5,16.9,13.5,16.9,13.6,16.9c0.2,0.2,0.4,0.4,0.4,0.4S13.8,17.1,13.6,16.9z M15.2,18.7v-0.1c-0.5-0.5-1.3-1.1-1.9-1.6c0,0,0,0-0.1,0c0.2,0.2,0.4,0.4,0.5,0.5C14.1,17.8,14.7,18.2,15.2,18.7z M15.3,18.2c-0.5-0.5-1-1-1.4-1.4c0,0-0.1,0-0.1,0.1C14.4,17.3,14.9,17.9,15.3,18.2L15.3,18.2z M9.1,10.5c-0.5-0.5-0.8-0.8-1-1l0,0C8.3,9.7,8.6,10.1,9.1,10.5L9.1,10.5z M15.5,17.9c-0.2-0.2-0.3-0.3-0.4-0.4c-0.1-0.1-0.4-0.4-0.9-0.9c0,0,0,0-0.1,0C14.6,17,15,17.5,15.5,17.9L15.5,17.9z M8.2,11.6c-0.4-0.5-0.8-0.9-1.1-1.1L7,10.6C7.2,10.8,7.7,11.3,8.2,11.6L8.2,11.6z M8.6,10.9c-0.3-0.3-0.7-0.7-1-1l-0.1,0.2l0,0C8,10.5,8.3,10.8,8.6,10.9C8.6,11,8.6,11,8.6,10.9z M8.2,12c-0.6-0.6-1-1-1.2-1.2c0,0,0,0.1-0.1,0.1c0.2,0.2,0.7,0.7,1.3,1.3C8.2,12.1,8.2,12,8.2,12z M8.4,11.3C8.4,11.3,8.4,11.2,8.4,11.3c-0.4-0.5-0.8-0.9-1-1.1l0,0l0,0C7.5,10.5,7.9,10.9,8.4,11.3L8.4,11.3z"/>
    <path d="M8.4,3c0,0,0.7,0.5,1.8,1.6l0,0c1.1,1.1,1.6,1.8,1.6,1.8V7L4,14.8H3.3l0,0c0,0-0.9-0.7-1.8-1.6l0,0C0.5,12,0,11.4,0,11.4v-0.6L7.8,3H8.4z"/>
    <path fill="url(#svg-txplogo-grad4)" d="M8.3,3.3H7.9l-7.6,7.6v0.4c0,0,0.4,0.6,1.5,1.6c1.1,1.1,1.6,1.5,1.6,1.5h0.4l7.6-7.6V6.4c0,0-0.4-0.6-1.5-1.6C8.8,3.7,8.3,3.3,8.3,3.3z"/>
    <path fill="url(#svg-txplogo-grad4)" d="M8.3,3.3H7.9l-7.6,7.6v0.4c0,0,0.4,0.6,1.5,1.6c1.1,1.1,1.6,1.5,1.6,1.5h0.4l7.6-7.6V6.4c0,0-0.4-0.6-1.5-1.6C8.8,3.7,8.3,3.3,8.3,3.3z"/>
    <path fill="url(#svg-txplogo-grad5)" d="M11.1,6.7c0,0-2.1,2.3-3.6,3.8s-3.8,3.6-3.8,3.6S2.9,13.7,2,12.7C1,11.8,0.6,11,0.6,11s2.1-2.3,3.6-3.8S8,3.6,8,3.6S8.8,4.1,9.7,5C10.6,5.9,11.1,6.7,11.1,6.7z"/>
    <path fill="url(#svg-txplogo-grad6)" d="M3.7,14.1c0,0-0.8-0.4-1.8-1.4C1,11.8,0.6,11,0.6,11l-0.3-0.1v0.4c0,0,0.4,0.6,1.5,1.6c1.1,1.1,1.6,1.5,1.6,1.5h0.4L3.7,14.1z"/>
    <path fill="url(#svg-txplogo-grad7)" d="M11.4,6.8V6.4c0,0-0.4-0.6-1.5-1.6C8.8,3.7,8.3,3.3,8.3,3.3H7.9L8,3.6c0,0,0.8,0.5,1.7,1.4s1.4,1.7,1.4,1.7L11.4,6.8z"/>
    <g fill="#494949">
        <path d="M5.4,9.1L5.4,9.1H5.2l0.3-0.3L5.6,9L5.4,9.1L6,9.5L5.9,9.6L5.4,9.1z"/>
        <path d="M5.9,9L5.6,8.9l0.1-0.1l0.2,0.1L5.7,8.7l0.1-0.1L5.9,9l0.5,0.1L6.3,9.2L6,9.1l0.1,0.2v0.1L5.9,9z"/>
        <path d="M5.9,8.6L6,8.4l0.1-0.1c0.1,0,0.1,0,0.2,0.1l0.1,0.1c0,0.1,0,0.1-0.1,0.2l0,0L6.5,9L6.4,9.1L5.9,8.6z M6.2,8.7L6.2,8.7c0.1-0.1,0.1-0.1,0-0.2S6.1,8.4,6,8.5l0,0L6.2,8.7z"/>
    </g>
    <g fill="#191919">
        <path d="M5.4,9.1L5.4,9.1H5.2l0.3-0.3l0.1,0.1L5.4,9.1L6,9.4L5.9,9.5L5.4,9.1z"/>
        <path d="M5.9,9L5.6,8.8l0.1-0.1l0.2,0.1L5.7,8.6l0.1-0.1L5.9,9l0.5,0.1H6.3L5.9,9l0.2,0.2v0.1L5.9,9z"/>
        <path d="M5.9,8.5L6,8.4l0.1-0.1c0.1,0,0.1,0,0.2,0.1l0.1,0.1c0,0.1,0,0.1-0.1,0.2l0,0l0.2,0.2L6.4,9L5.9,8.5z M6.2,8.7L6.2,8.7c0.1-0.1,0.1-0.1,0-0.2S6.1,8.4,6,8.5l0,0L6.2,8.7z"/>
    </g>
    <g fill="#2d2d2d">
        <path d="M5.4,9.1L5.4,9.1H5.2l0.3-0.3l0.1,0.1L5.4,9.1L6,9.5L5.9,9.6L5.4,9.1z"/>
        <path d="M5.9,9L5.6,8.8l0.1-0.1l0.2,0.1L5.7,8.6l0.1-0.1L5.9,9l0.5,0.1L6.3,9.2L6,9.1l0.1,0.2v0.1L5.9,9z"/>
        <path d="M5.9,8.5L6,8.4l0.1-0.1c0.1,0,0.1,0,0.2,0.1l0.1,0.1c0,0.1,0,0.1-0.1,0.2l0,0L6.5,9H6.4L5.9,8.5z M6.2,8.7L6.2,8.7c0.1-0.1,0.1-0.1,0-0.2S6.1,8.4,6,8.5l0,0L6.2,8.7z"/>
    </g>
    <path d="M2.6,27.6L2.6,27.6C1.9,26.9,1.3,26,1.3,26L2,25.3c0,0,0.7-0.2,1.2-0.6l0,0l14.4-14.5c0.9-0.9,1.9-2.9,1.9-2.9L22,4.8l0.7-0.4L26,7.6l-0.4,0.7L23,10.8c0,0-2,1-2.9,1.9l0,0L5.6,27.1C5.2,27.6,5,28.3,5,28.3L4.3,29C4.3,29,3.3,28.4,2.6,27.6z"/>
    <path fill="url(#svg-txplogo-grad8)" d="M22.3,5L22.3,5l-2.4,2.4c0,0-0.6,2.5-1.5,3.5l-0.5,0.5l1.1,1.1l0.4-0.5c0.9-0.9,3.5-1.5,3.5-1.5L25.3,8l0,0L22.3,5z"/>
    <path fill="#616161" d="M18.9,12.5l0.4,0.4l0.5-0.5c0.9-0.9,3-2,3-2s-2.5,0.7-3.4,1.6L18.9,12.5z"/>
    <path fill="#ebe9e9" d="M17.4,11l0.4,0.4l0.5-0.5c0.9-0.9,1.5-3.5,1.5-3.5s-1,2.1-2,3L17.4,11z"/>
    <path fill="#ffcc33" d="M17.8,11.4l-14,14c-0.5,0.5-1.2,0.8-1.2,0.8L4,27.6l0,0c0,0,0.3-0.6,0.8-1.2l14-14L17.8,11.4z"/>
    <path fill="#bfbfbf" d="M1.7,26.1c0,0,0.6,0.9,1.1,1.3s1.4,1.2,1.4,1.2L1.7,26.1z"/>
    <polygon fill="#ebe9e9" points="25.3,8 25.6,7.6 22.7,4.7 22.3,5"/>
    <g fill="#ba9c0a">
        <path d="M5,25L5,25L5,25l0.1-0.2l0.1,0.1L5,25l0.4,0.3l-0.1,0.1L5,25z"/>
        <path d="M5.2,24.8l0.2-0.2l0.1,0.1l-0.1,0.1l0.1,0.1l0.1-0.1l0.1,0.1L5.4,25l0.1,0.1L5.7,25l0,0l-0.2,0.2L5.2,24.8z"/>
        <path d="M5.6,24.7l-0.3-0.1l0.1-0.1l0.2,0.1l-0.1-0.2l0.1-0.1L5.6,24.7L6,24.8l-0.1,0.1l-0.2-0.1L5.8,25l0,0L5.6,24.7z"/>
        <path d="M5.7,24.3L5.7,24.3L5.7,24.3l0.1-0.2l0.1,0.1L5.7,24.3l0.4,0.3L6,24.7L5.7,24.3z"/>
        <path d="M5.9,24.1L5.9,24.1C6,24,6,23.9,6.1,23.9s0.1,0,0.1,0.1l0.1,0.1v0.1l0,0l0.2,0.2l-0.1,0.1L5.9,24.1z M6.1,24.2L6.1,24.2c0.1-0.1,0-0.1,0-0.1S6,24,6,24.1l0,0L6.1,24.2z"/>
        <path d="M6.2,23.8L6.2,23.8L6.7,24l-0.1,0.1V24l-0.1,0.1l0.1,0.1l-0.1,0.1L6.2,23.8z M6.3,23.9L6.3,23.9L6.4,24h0.1L6.3,23.9z"/>
        <path d="M6.4,23.6L6.4,23.6L6.4,23.6l0.1-0.2l0.1,0.1L6.4,23.6l0.4,0.3V24L6.4,23.6z"/>
        <path d="M6.7,23.4L6.7,23.4L6.7,23.4l0.1-0.2l0.1,0.1L6.7,23.4l0.4,0.3L7,23.8L6.7,23.4z"/>
        <path d="M6.8,23.2L7,23l0,0l-0.1,0.1L7,23.3l0.1-0.1l0.1,0.1l-0.1,0.1l0.1,0.1l0.1-0.1l0.1,0.1l-0.2,0.2L6.8,23.2z"/>
        <path d="M7,22.9L7,22.9c0.2-0.2,0.2-0.2,0.3-0.1l0.1,0.1L7.6,23l-0.1,0.1L7.3,23l0,0l0.2,0.2l-0.1,0.1L7,22.9z M7.3,23L7.3,23c0.1-0.1,0.1-0.1,0-0.1c0,0-0.1-0.1-0.1,0l0,0L7.3,23z"/>
        <path d="M7.3,22.6L7.3,22.6l0.4,0.1l0,0l-0.2-0.2l0.1-0.1L8,22.8l-0.1,0.1l-0.3-0.2l0,0L7.8,23l-0.1,0.1L7.3,22.6z"/>
    </g>
    <g fill="#ecd74c">
        <path d="M5,25.1L5,25.1L5,25.1l0.1-0.2V25L5,25.1l0.4,0.3l-0.1,0.1L5,25.1z"/>
        <path d="M5.2,24.9l0.2-0.2l0.1,0.1l-0.1,0.1l0,0.1l0.1-0.1L5.6,25H5.4l0.1,0.1L5.7,25l0.1,0.1l-0.2,0.2L5.2,24.9z"/>
        <path d="M5.6,24.7l-0.3-0.1l0.1-0.1l0.2,0.1l-0.1-0.2l0.1-0.1L5.6,24.7L6,24.8l-0.1,0.1l-0.2-0.1L5.8,25l0,0L5.6,24.7z"/>
        <path d="M5.7,24.4L5.7,24.4L5.7,24.4l0.1-0.2l0.1,0.1L5.7,24.4l0.4,0.3L6,24.8L5.7,24.4z"/>
        <path d="M5.9,24.1L5.9,24.1C6,24,6,24,6.1,24s0.1,0,0.1,0.1l0.1,0.1v0.1l0,0l0.2,0.2l-0.1,0.1L5.9,24.1z M6.1,24.3L6.1,24.3c0.1-0.1,0-0.1,0-0.1S6,24.1,6,24.2l0,0L6.1,24.3z"/>
        <path d="M6.2,23.8L6.2,23.8l0.5,0.3l-0.1,0.1l-0.1-0.1l-0.1,0.1l0.1,0.1l-0.1,0.1L6.2,23.8z M6.3,23.9L6.3,23.9l0.1,0.2L6.5,24L6.3,23.9z"/>
        <path d="M6.4,23.7L6.4,23.7L6.4,23.7l0.1-0.2l0.1,0.1L6.4,23.7L6.8,24l0,0L6.4,23.7z"/>
        <path d="M6.7,23.5L6.7,23.5L6.7,23.5l0.1-0.2l0.1,0.1L6.7,23.5l0.4,0.3H7L6.7,23.5z"/>
        <path d="M6.8,23.2L7,23v0.1L6.8,23.2L7,23.3l0.1-0.1l0.1,0.1l-0.1,0.1l0.1,0.1l0.1-0.1l0.1,0.1l-0.2,0.2L6.8,23.2z"/>
        <path d="M7,23L7,23c0.2-0.2,0.2-0.2,0.3-0.1L7.4,23l0.2,0.1l-0.1,0.1l-0.2-0.1l0,0l0.2,0.2l-0.1,0.1L7,23z M7.3,23.1L7.3,23.1c0-0.1,0-0.1,0-0.1s-0.1-0.1-0.1,0l0,0L7.3,23.1z"/>
        <path d="M7.3,22.7L7.3,22.7l0.4,0.1l0,0l-0.2-0.2l0.1-0.1L8,22.9L7.9,23l-0.3-0.2l0,0L7.8,23l-0.1,0.1L7.3,22.7z"/>
    </g>
    <g fill="#fcc332">
        <path d="M5,25.1L5,25.1L5,25.1l0.1-0.2L5.2,25L5,25.1l0.4,0.3l-0.1,0.1L5,25.1z"/>
        <path d="M5.2,24.8l0.2-0.2l0.1,0.1l-0.1,0.1l0.1,0.1l0.1-0.1l0.1,0.1L5.4,25l0.1,0.1L5.7,25l0.1,0.1l-0.2,0.2L5.2,24.8z"/>
        <path d="M5.6,24.7l-0.3-0.1l0.1-0.1l0.2,0.1l-0.1-0.2l0.1-0.1L5.6,24.7L6,24.8l-0.1,0.1l-0.2-0.1L5.8,25l0,0L5.6,24.7z"/>
        <path d="M5.7,24.3L5.7,24.3L5.7,24.3l0.1-0.2l0.1,0.1L5.7,24.3l0.4,0.3L6,24.7L5.7,24.3z"/>
        <path d="M5.9,24.1L5.9,24.1C6,24,6,24,6.1,24s0.1,0,0.1,0.1l0.1,0.1v0.1l0,0l0.2,0.2l-0.1,0.1L5.9,24.1z M6.1,24.2L6.1,24.2c0.1-0.1,0-0.1,0-0.1S6,24,6,24.1l0,0L6.1,24.2z"/>
        <path d="M6.2,23.8L6.2,23.8l0.5,0.3l-0.1,0.1l-0.1-0.1l-0.1,0.1l0.1,0.1l-0.1,0.1L6.2,23.8z M6.3,23.9L6.3,23.9l0.1,0.2L6.5,24L6.3,23.9z"/>
        <path d="M6.4,23.6L6.4,23.6L6.4,23.6l0.1-0.2l0.1,0.1L6.4,23.6l0.4,0.3V24L6.4,23.6z"/>
        <path d="M6.7,23.4L6.7,23.4L6.7,23.4l0.1-0.2l0.1,0.1L6.7,23.4l0.4,0.3L7,23.8L6.7,23.4z"/>
        <path d="M6.8,23.2L7,23v0.1L6.8,23.2L7,23.3l0.1-0.1l0.1,0.1l-0.1,0.1l0.1,0.1l0.1-0.1l0.1,0.1l-0.2,0.2L6.8,23.2z"/>
        <path d="M7,22.9L7,22.9c0.2-0.2,0.2-0.2,0.3-0.1l0.1,0.1L7.6,23l-0.1,0.1L7.3,23l0,0l0.2,0.2l-0.1,0.1L7,22.9z M7.3,23.1L7.3,23.1C7.4,23,7.4,23,7.3,23c0,0-0.1-0.1-0.1,0l0,0L7.3,23.1z"/>
        <path d="M7.3,22.7L7.3,22.7l0.4,0.1l0,0l-0.2-0.2l0.1-0.1L8,22.9L7.9,23l-0.3-0.2l0,0L7.8,23l-0.1,0.1L7.3,22.7z"/>
    </g>
    <rect fill="#3d2812" x="3.9" y="27.7" transform="matrix(-0.7075 0.7067 -0.7067 -0.7075 27.0323 44.9872)" width="0.6" height="0.8"/>
    <rect fill="#e2d9ac" x="1.8" y="25.8" transform="matrix(0.7071 0.7071 -0.7071 0.7071 19.1251 6.0864)" width="0.8" height="0.6"/>
    <rect fill="#fcc332" x="2.9" y="26.1" transform="matrix(0.7071 -0.7071 0.7071 0.7071 -18.2236 10.1985)" width="0.6" height="2"/>
    <path fill="#473015" d="M19.4,12.9L19,12.5l-14,14c-0.5,0.5-0.8,1.2-0.8,1.2l0.5,0.5c0,0,0.2-0.7,0.7-1.2L19.4,12.9z"/>
    <path fill="#ede5b2" d="M17.4,10.9l-14,14c-0.5,0.5-1.2,0.7-1.2,0.7l0.5,0.5c0,0,0.6-0.3,1.2-0.8l14-14L17.4,10.9z"/>
    <path d="M44.8,13.4c0-0.2,0.1-0.5,0.1-0.8l0.1-0.9c0-0.3,0-0.6,0-0.9c0-0.3,0-0.5,0-0.8l0,0H34v0.2c0,0.2,0,0.4,0,0.7c0,0.3,0,0.6,0,0.9c0,0.3,0,0.6,0.1,0.9c0,0.3,0.1,0.5,0.1,0.8v0.1h0.7l1-2.4h2.6V21c-0.3,0-0.6,0.1-0.8,0.2c-0.3,0.1-0.6,0.1-0.8,0.2h-0.1V22h5.5v-0.7h-0.1c-0.3-0.1-0.5-0.2-0.8-0.2c-0.2,0-0.5-0.1-0.8-0.1v-9.8h2.6l1,2.4h0.7L44.8,13.4z"/>
    <path d="M51.4,13.5c-0.3-0.3-0.6-0.5-1-0.6s-0.8-0.2-1.2-0.2c-1.2,0-2.1,0.4-2.8,1.2s-1,2-1,3.5c0,0.7,0.1,1.4,0.3,1.9c0.2,0.6,0.4,1.1,0.8,1.5c0.3,0.4,0.8,0.7,1.3,1c0.5,0.2,1.1,0.3,1.7,0.3c0.3,0,0.6,0,0.9-0.1c0.3-0.1,0.6-0.2,0.8-0.3c0.2-0.1,0.5-0.3,0.7-0.5s0.3-0.4,0.4-0.6v-0.1l-0.4-0.4l-0.1,0.1c-0.2,0.2-0.5,0.3-0.8,0.4c-0.4,0.1-0.8,0.2-1.1,0.2c-0.5,0-0.8-0.1-1.2-0.3c-0.3-0.2-0.6-0.4-0.8-0.7s-0.4-0.7-0.5-1.1s-0.2-0.8-0.2-1.2h5.1v-0.1c0-0.2,0.1-0.5,0.1-0.7s0-0.4,0-0.6c0-0.6-0.1-1.2-0.3-1.6C51.9,14.1,51.7,13.8,51.4,13.5z M49.1,13.8c0.5,0,0.9,0.2,1.1,0.6c0.2,0.4,0.4,1,0.4,1.7c0,0.1,0,0.2,0,0.3c0,0.1,0,0.1,0,0.2h-3.4c0.1-1,0.3-1.8,0.6-2.2C48.1,14,48.5,13.8,49.1,13.8z"/>
    <path d="M62.2,21.1C62,21,61.8,21,61.7,20.9L59,17.2l2.4-3.1c0.4-0.1,0.8-0.3,1-0.4h0.1V13h-3.2v0.6l0,0c0.2,0.1,0.4,0.3,0.8,0.4l-1.6,2.3L56.8,14c0.1,0,0.2-0.1,0.3-0.1c0.1-0.1,0.3-0.2,0.4-0.3h0.1V13h-3.8v0.7h0.1c0.1,0.1,0.3,0.2,0.4,0.2c0.1,0.1,0.3,0.1,0.4,0.2l2.6,3.4l-2.6,3.4c-0.3,0.1-0.7,0.2-1,0.4h-0.1V22h3.3v-0.6h-0.1c-0.1-0.1-0.3-0.2-0.4-0.2c-0.1,0-0.2-0.1-0.3-0.1l1.8-2.6l1.8,2.6c-0.1,0-0.2,0.1-0.3,0.1c-0.1,0.1-0.3,0.2-0.5,0.3h-0.1V22h3.9v-0.6h-0.1C62.5,21.2,62.3,21.1,62.2,21.1z"/>
    <path d="M69,20.7c-0.2,0.1-0.5,0.1-0.8,0.2c-0.3,0-0.6,0-0.8,0c-0.4,0-0.7-0.1-0.9-0.4c-0.2-0.3-0.3-0.7-0.3-1.4v-4.8h2.7v-1.1h-2.7V11h-0.6l0,0c-0.2,0.1-0.4,0.2-0.6,0.3s-0.4,0.2-0.6,0.3l0,0V13c-0.5,0.1-0.9,0.3-1.4,0.6h-0.1v0.7h1.4v5.3c0,0.9,0.2,1.6,0.6,2s1,0.6,1.7,0.6c0.3,0,0.6,0,0.8-0.1c0.3-0.1,0.5-0.2,0.7-0.3c0.2-0.1,0.4-0.2,0.6-0.3c0.2-0.1,0.3-0.2,0.4-0.3l0.1-0.1L69,20.7L69,20.7z"/>
    <path d="M75.4,13.1c-0.7,0-1.3,0.2-1.8,0.6c-0.3,0.3-0.6,0.6-0.8,1v-1.6h-0.6c-0.4,0.1-0.8,0.1-1.2,0.2c-0.4,0.1-0.8,0.2-1.2,0.4h-0.1v0.7l1.2,0.1v10.3c-0.4,0.1-0.7,0.2-1.1,0.4h-0.1V26H74v-0.7h-0.1c-0.2-0.1-0.4-0.2-0.6-0.3c-0.2-0.1-0.3-0.1-0.5-0.1v-2.5c0.2,0.1,0.5,0.2,0.7,0.2c0.3,0.1,0.6,0.1,1.1,0.1c0.6,0,1.2-0.1,1.8-0.4c0.5-0.2,1-0.6,1.4-1s0.7-1,0.9-1.6c0.2-0.6,0.3-1.3,0.3-2.1c0-1.6-0.3-2.8-0.9-3.5C77.3,13.4,76.5,13.1,75.4,13.1z M76.9,17.7c0,0.6-0.1,1.1-0.2,1.6s-0.3,0.9-0.5,1.3s-0.5,0.6-0.8,0.8c-0.3,0.2-0.6,0.3-1,0.3s-0.8,0-1-0.1s-0.4-0.1-0.6-0.2v-4.9c0.1-0.6,0.4-1.1,0.7-1.4c0.3-0.3,0.8-0.5,1.3-0.5c0.4,0,0.7,0.1,1,0.2c0.3,0.2,0.5,0.4,0.6,0.7c0.2,0.3,0.3,0.6,0.4,1C76.9,16.7,76.9,17.2,76.9,17.7z"/>
    <path d="M86.9,20.3c0-0.2,0-0.4,0-0.7c0-0.6,0-1.2,0-1.9s0-1.3,0-2c0-0.3,0-0.7-0.1-1s-0.2-0.7-0.4-1c-0.2-0.3-0.5-0.5-0.9-0.7s-0.9-0.3-1.5-0.3c-0.7,0-1.3,0.1-1.9,0.2c-0.6,0.2-1.1,0.4-1.5,0.6h-0.1v0.1c0,0.4,0.1,0.8,0.2,1.1c0.1,0.4,0.2,0.7,0.3,1.1v0.1h0.6l0.9-2.1c0.2-0.1,0.4-0.1,0.5-0.1c0.2,0,0.4,0,0.6,0c0.3,0,0.6,0.1,0.8,0.2c0.2,0.1,0.4,0.3,0.5,0.6s0.2,0.6,0.2,1s0,0.8,0,1.2c-0.8,0-1.5,0.1-2.1,0.2c-0.6,0.1-1.2,0.2-1.6,0.4c-0.4,0.2-0.8,0.5-1,0.9c-0.2,0.4-0.4,1-0.4,1.6c0,0.7,0.2,1.3,0.7,1.8s1.1,0.7,1.9,0.7c0.4,0,0.8-0.1,1.1-0.2c0.3-0.1,0.6-0.3,0.8-0.5c0.2-0.2,0.4-0.4,0.6-0.7c0.1-0.1,0.1-0.2,0.2-0.3c0,0.2,0,0.4,0,0.6c0,0.3,0.1,0.7,0.2,0.9v0.1H86c0.3-0.1,0.7-0.1,1.1-0.3c0.4-0.1,0.7-0.3,1-0.4h0.1v-0.6L87,20.8C86.9,20.6,86.9,20.4,86.9,20.3z M84.6,20.3c-0.1,0.2-0.3,0.3-0.5,0.4s-0.5,0.2-0.7,0.2c-0.4,0-0.7-0.1-1-0.4c-0.2-0.2-0.4-0.6-0.4-1.1c0-0.3,0-0.5,0.1-0.7c0.1-0.2,0.2-0.4,0.5-0.5c0.2-0.1,0.6-0.3,1-0.3c0.4-0.1,0.9-0.1,1.6-0.1v1.7c0,0.1-0.1,0.2-0.2,0.4C84.9,20,84.8,20.2,84.6,20.3z"/>
    <path d="M94.7,20.7c-0.2,0.1-0.5,0.1-0.8,0.2c-0.3,0-0.6,0-0.8,0c-0.4,0-0.7-0.1-0.9-0.4c-0.2-0.3-0.3-0.7-0.3-1.4v-4.8h2.7v-1.1h-2.7V11h-0.6h-0.1c-0.2,0.1-0.4,0.2-0.6,0.3s-0.4,0.2-0.6,0.3l0,0V13c-0.5,0.1-0.9,0.3-1.4,0.6h-0.1v0.7h1.4v5.3c0,0.9,0.2,1.6,0.6,2s1,0.6,1.7,0.6c0.3,0,0.6,0,0.8-0.1c0.3-0.1,0.5-0.2,0.7-0.3c0.2-0.1,0.4-0.2,0.6-0.3c0.2-0.1,0.3-0.2,0.4-0.3l0.1-0.1l-0.2-0.4L94.7,20.7z"/>
    <path d="M101.3,20.7c-0.2,0.1-0.5,0.1-0.8,0.2c-0.3,0-0.6,0-0.8,0c-0.4,0-0.7-0.1-0.9-0.4c-0.2-0.3-0.3-0.7-0.3-1.4v-4.8h2.7v-1.1h-2.7V11H98h-0.1c-0.2,0.1-0.4,0.2-0.6,0.3s-0.4,0.2-0.6,0.3l0,0V13c-0.5,0.1-0.9,0.3-1.4,0.6h-0.1v0.7h1.4v5.3c0,0.9,0.2,1.6,0.6,2s1,0.6,1.7,0.6c0.3,0,0.6,0,0.8-0.1c0.3-0.1,0.5-0.2,0.7-0.3c0.2-0.1,0.4-0.2,0.6-0.3c0.2-0.1,0.3-0.2,0.4-0.3l0.1-0.1L101.3,20.7L101.3,20.7z"/>
    <path d="M108.9,13.5c-0.3-0.3-0.7-0.5-1.1-0.6s-0.8-0.2-1.3-0.2c-1.3,0-2.3,0.4-3.1,1.2c-0.7,0.8-1.1,2-1.1,3.5c0,0.7,0.1,1.4,0.3,1.9c0.2,0.6,0.5,1.1,0.8,1.5c0.4,0.4,0.8,0.7,1.4,1c0.5,0.2,1.2,0.3,1.9,0.3c0.3,0,0.7,0,1-0.1s0.6-0.2,0.9-0.3c0.3-0.1,0.5-0.3,0.7-0.5s0.4-0.4,0.5-0.6v-0.1l-0.4-0.4l-0.1,0.1c-0.2,0.2-0.5,0.3-0.9,0.4s-0.8,0.2-1.2,0.2c-0.5,0-0.9-0.1-1.3-0.3c-0.4-0.2-0.7-0.4-0.9-0.7c-0.2-0.3-0.4-0.7-0.5-1.1s-0.2-0.8-0.2-1.2h5.5v-0.1c0-0.2,0.1-0.5,0.1-0.7s0-0.4,0-0.6c0-0.6-0.1-1.2-0.3-1.6C109.5,14.1,109.2,13.8,108.9,13.5z M106.4,13.8c0.6,0,1,0.2,1.2,0.6c0.3,0.4,0.4,1,0.4,1.7c0,0.1,0,0.2,0,0.3c0,0.1,0,0.1,0,0.2h-3.7c0.1-1,0.3-1.8,0.6-2.2C105.3,14,105.8,13.8,106.4,13.8z"/>
    <path d="M117.3,13.6c-0.1-0.2-0.1-0.4-0.2-0.5V13H117c-0.3,0-0.7,0-1,0.1s-0.6,0.2-0.9,0.4s-0.5,0.4-0.7,0.6c-0.1,0.1-0.2,0.3-0.3,0.4V13h-0.6c-0.4,0.1-0.8,0.1-1.2,0.2c-0.4,0.1-0.8,0.2-1.2,0.4H111v0.6l1.2,0.1v6.5c-0.2,0-0.3,0.1-0.5,0.1c-0.2,0.1-0.4,0.1-0.6,0.3H111V22h4.5v-0.6h-0.1c-0.2-0.1-0.5-0.2-0.7-0.3c-0.2-0.1-0.4-0.1-0.6-0.1v-5c0.1-0.4,0.3-0.7,0.5-0.9s0.3-0.3,0.4-0.4h2.5v-0.6l0,0C117.4,13.9,117.4,13.8,117.3,13.6z"/>
    <path d="M127.9,21.3c-0.3-0.2-0.7-0.3-1.1-0.4v-4.2c0-0.7-0.1-1.3-0.2-1.8s-0.3-0.9-0.6-1.2c-0.3-0.3-0.6-0.5-1-0.6s-0.8-0.2-1.3-0.2c-0.7,0-1.3,0.2-1.8,0.6c-0.4,0.3-0.7,0.6-0.9,1V13h-0.6c-0.4,0.1-0.9,0.2-1.3,0.3s-0.8,0.2-1.1,0.3h-0.1v0.6l1.2,0.1v6.5c-0.5,0.1-0.8,0.3-1.1,0.4h-0.1V22h4.1v-0.6h-0.1c-0.3-0.2-0.7-0.3-1-0.4v-4.9c0.1-0.2,0.2-0.4,0.3-0.6c0.1-0.2,0.3-0.4,0.5-0.6c0.2-0.2,0.4-0.3,0.6-0.4c0.2-0.1,0.5-0.1,0.8-0.1c0.6,0,1.1,0.2,1.3,0.7c0.3,0.5,0.4,1.1,0.4,2v4c-0.4,0.1-0.7,0.2-1,0.4h-0.1V22h4.1L127.9,21.3L127.9,21.3z"/>
</g>
<g id="sprite-home" fill="#333333">
    <path d="M151,24h-14v-8l7-7l7,7V24z M146,17h-4v6h4V17z"/>
    <polygon points="144,7 139,12 139,10 137,10 137,14 135,16 136,16 144,8 152,16 153,16"/>
</g>
<g id="sprite-hamburger" fill="#333333">
    <rect x="164" y="6" width="24" height="4"/>
    <rect x="164" y="14" width="24" height="4"/>
    <rect x="164" y="22" width="24" height="4"/>
</g>
<g id="sprite-indicator">
    <polygon fill="#fef5d2" points="207,8 192,8 199.5,0"/>
    <polygon fill="#e1a61a" points="208,8 207,8 199.5,0 200.5,0"/>
</g>
</svg>
