<?xml version="1.0" encoding="utf-8"?>
<!DOCTYPE svg>
<svg version="1.1" baseProfile="full" xmlns="http://www.w3.org/2000/svg" xmlns:xlink="http://www.w3.org/1999/xlink" x="0px" y="0px" width="264px" height="54px" viewBox="0 0 264 54" enable-background="new 0 0 264 54" xml:space="preserve">
<linearGradient id="svg-txplogo-grad1" gradientUnits="userSpaceOnUse" x1="30.2319" y1="36.1724" x2="36.166" y2="30.2383">
    <stop offset="0.125" style="stop-color:#7b6c35"/>
    <stop offset="0.875" style="stop-color:#b9aa69"/>
</linearGradient>
<linearGradient id="svg-txplogo-grad2" gradientUnits="userSpaceOnUse" x1="30.2256" y1="36.166" x2="36.0613" y2="30.3303">
    <stop offset="0" style="stop-color:#2b2414"/>
    <stop offset="0.75" style="stop-color:#624e22"/>
</linearGradient>
<linearGradient id="svg-txplogo-grad3" gradientUnits="userSpaceOnUse" x1="34.8799" y1="31.4961" x2="30.7981" y2="35.5778">
    <stop offset="0.5" style="stop-color:#2d2400"/>
    <stop offset="0.875" style="stop-color:#211700"/>
</linearGradient>
<linearGradient id="svg-txplogo-grad4" gradientUnits="userSpaceOnUse" x1="8.5347" y1="8.5347" x2="15.7652" y2="15.7652">
    <stop offset="0" style="stop-color:#ffffff"/>
    <stop offset="1" style="stop-color:#666666"/>
</linearGradient>
<linearGradient id="svg-txplogo-grad5" gradientUnits="userSpaceOnUse" x1="4.0649" y1="20.2339" x2="20.1689" y2="4.1299">
    <stop offset="0" style="stop-color:#0a0a0a"/>
    <stop offset="0.5" style="stop-color:#0f0f0f"/>
    <stop offset="1" style="stop-color:#1a1a1a"/>
</linearGradient>
<linearGradient id="svg-txplogo-grad6" gradientUnits="userSpaceOnUse" x1="0.4907" y1="16.5786" x2="7.7213" y2="23.8092">
    <stop offset="0" style="stop-color:#999999"/>
    <stop offset="1" style="stop-color:#1a1a1a"/>
</linearGradient>
<linearGradient id="svg-txplogo-grad7" gradientUnits="userSpaceOnUse" x1="16.5781" y1="0.4912" x2="23.808" y2="7.7211">
    <stop offset="0" style="stop-color:#cccccc"/>
    <stop offset="1" style="stop-color:#333333"/>
</linearGradient>
<linearGradient id="svg-txplogo-grad8" gradientUnits="userSpaceOnUse" x1="37.001" y1="11.9238" x2="52.5498" y2="11.9238">
    <stop offset="0.125" style="stop-color:#cdcdcb"/>
    <stop offset="0.875" style="stop-color:#a09ea1"/>
</linearGradient>
<path d="M51.716,51.723c-1.878,1.88-3.834,2.764-4.603,1.995c-0.286-0.286,0,0,0,0c-0.137-0.136-5.042-5.549-10.617-11.125l0,0c-5.049-5.05-10.968-10.171-14.618-13.818c-3.644-3.644-9.705-10.451-9.711-10.456l0,0l-0.406-0.458l2.938-3.194l3.156-2.899l0.455,0.408c0.007,0.004,6.813,6.066,10.457,9.709c3.65,3.649,8.769,9.569,13.82,14.618l0,0c5.573,5.574,10.924,10.415,11.167,10.658C54.412,47.818,53.697,49.743,51.716,51.723z"/>
<path fill="url(#svg-txplogo-grad1)" d="M28.291,22.363c-3.617-3.618-10.428-9.685-10.428-9.685l-2.707,2.485l-2.484,2.706c0,0,6.068,6.81,9.685,10.429c3.617,3.616,9.544,8.747,14.618,13.819C42.55,47.692,47.5,53.154,47.589,53.242c0.087,0.084,1.132,0.525,3.652-1.996c2.519-2.519,2.077-3.568,2.017-3.627c-0.057-0.058-5.571-5.062-11.148-10.639C37.038,31.908,31.908,25.982,28.291,22.363z"/>
<path fill="url(#svg-txplogo-grad2)" d="M50.72,51.742c-0.171-0.021-0.358-0.166-0.586-0.392c-0.256-0.257-5.442-5.526-11.019-11.104c-2.071-2.071-6.166-5.847-6.74-6.351c-1-0.88-0.909-1.776-0.379-2.646c0.538-0.884,1.849-1.972,2.73-2.046c-0.854-0.925-1.684-1.825-2.48-2.688c-2.434,1.353-5.232,2.979-5.643,2.57c-1.949-1.951-6.876-6.874-8.963-8.957c-0.917-0.917-0.792-1.898-0.275-2.863c0.566-1.062,2.012-2.219,2.871-2.451l0,0c-1.403-1.271-2.374-2.136-2.374-2.136l-2.707,2.485l-2.484,2.706c0,0,6.068,6.81,9.685,10.429c3.617,3.616,9.544,8.747,14.618,13.819C42.55,47.692,47.5,53.154,47.589,53.242C47.669,53.32,48.577,53.7,50.72,51.742z"/>
<path fill="#6b5600" d="M40.857,37.894c0,0-0.7-0.844-1.539-1.682c-0.838-0.84-1.761-1.702-1.761-1.702s1.021,1.16,1.566,1.706C39.669,36.762,40.857,37.894,40.857,37.894z M28.125,24.652c-0.798-0.8-2.097-2.098-2.097-2.098s1.202,1.537,1.93,2.264C28.685,25.545,28.921,25.446,28.125,24.652z M26.32,27.799c-1.282-1.284-3.352-3.243-6.7-6.589c-2.59-2.592-4.661-4.526-5.31-5.125l-0.15,0.164c0.899,0.859,4.761,4.565,6.88,6.685c2.408,2.407,6.498,6.235,7.586,7.121c1.09,0.886,3.186,2.712,4.784,4.311c1.596,1.596,3.277,3.079,3.277,3.079s-2.732-2.813-3.936-4.019C31.545,32.223,27.803,29.281,26.32,27.799z M25.521,22.138c0,0-1.678-1.678-4.208-4.209c-1.936-1.935-3.869-3.868-4.389-4.389l-0.009,0.008c0.515,0.578,2.488,2.778,4.258,4.549C23.229,20.155,25.521,22.138,25.521,22.138z M20.369,19.104c0.335,0.334,1.251,1.231,1.923,1.9c0.67,0.671,2.076,2.199,2.426,2.548c1.395,1.396,2.354,2.264,4.004,3.912c1.649,1.651,5.705,5.866,6.515,6.677c1.373,1.373,3.258,3.346,4.222,4.312c0.965,0.964,3.146,3.054,4.25,4.16c1.105,1.104,2.571,2.521,3.55,3.501c0.979,0.979,3.629,3.227,3.629,3.227s-4.216-4.156-5.726-5.665c-1.509-1.511-3.424-3.208-4.363-4.144c-1.305-1.306-3.452-3.61-4.557-4.715c-1.103-1.104-1.439-1.298-1.676-1.535c-0.237-0.24-2.544-2.657-3.16-3.273c-0.615-0.615-5.998-6.082-6.991-7.075c-0.993-0.992-2.042-2.01-2.46-2.432c-0.42-0.42-1.146-1.287-1.594-1.735c-0.448-0.445-1.202-1.117-1.733-1.648c-0.504-0.503-1.866-1.815-2.711-2.655l-0.289,0.265c1.438,1.412,2.339,2.008,2.888,2.558C19.09,17.86,20.033,18.767,20.369,19.104z M23.651,24.767c1.026,1.027,5.313,4.891,5.313,4.891s-2.932-2.793-4.416-4.276c-1.482-1.483-3.306-3.387-5.081-5.162c-1.48-1.481-3.891-3.919-4.65-4.687l-0.222,0.241c0.998,0.947,4.274,4.061,5.227,5.015C20.951,21.915,22.624,23.741,23.651,24.767z M45.386,44.828c-1.062-1.062-2.111-1.994-3.046-2.931c-0.938-0.935-3.636-3.752-3.636-3.752s2.755,3.147,3.775,4.168c1.021,1.02,1.748,1.521,2.964,2.738c1.217,1.217,3.055,3.132,3.781,3.858c0.587,0.588,1.88,1.613,2.356,1.985c0.043-0.046,0.09-0.093,0.13-0.138c-0.605-0.529-2.517-2.207-3.358-3.048C47.343,46.7,46.449,45.889,45.386,44.828z M49.049,45.891c-0.658-0.657-2.516-2.523-2.908-2.915c-0.391-0.391-1.797-1.489-1.797-1.489s0.972,1.061,1.238,1.327c0.265,0.267,1.747,1.495,2.851,2.6c0.949,0.95,3.482,3.523,4.178,4.231c0.092-0.132,0.172-0.256,0.242-0.374C52.137,48.649,49.613,46.453,49.049,45.891z M22.571,22.195c-1.158-1.187-2.562-2.749-3.061-3.248c-1.146-1.148-3.406-3.109-4.218-3.911l-0.136,0.126l-0.02,0.021c0.828,0.801,3.307,3.138,4.861,4.691C21.003,20.88,22.571,22.195,22.571,22.195z M21.628,21.741c1.258,1.258,10.519,10.324,11.708,11.513c1.188,1.188,2.544,2.654,3.243,3.354s2.628,2.686,2.628,2.686s-2.6-2.939-4.109-4.448c-1.51-1.51-5.207-5.33-6.912-7.034C26.935,26.558,21.628,21.741,21.628,21.741z M23.199,23.224"/>
<path fill="url(#svg-txplogo-grad3)" d="M36.66,40.508c-1.715-1.716-5.04-4.86-6.483-6.304c-0.238-0.237-3.155-3.09-3.769-3.707c-0.616-0.613-5.993-5.493-6.986-6.487c-0.993-0.992-2.11-2.342-2.529-2.764c-0.42-0.418-1.214-1.353-1.661-1.799c-0.448-0.449-1.135-1.186-1.667-1.718c-0.184-0.182-0.318-0.283-0.396-0.318l-0.063,0.057c0.037,0.084,0.144,0.228,0.347,0.431c0.574,0.571,1.314,1.48,1.65,1.814c0.336,0.337,1.454,1.435,2.125,2.105c0.671,0.672,1.942,2.13,2.291,2.481c1.396,1.393,2.491,2.127,4.14,3.776c1.65,1.649,5.577,5.584,6.387,6.395c1.373,1.373,3.387,3.089,4.351,4.055c0.965,0.966,3.146,3.258,4.251,4.361c1.104,1.105,2.564,2.62,3.544,3.597c0.979,0.98,3.635,3.466,3.635,3.466c-4.056-4.133-3.929-4.253-5.339-5.664C38.979,42.775,37.597,41.445,36.66,40.508z M45.645,47.72c-1.38-1.381-2.415-2.484-3.875-3.935c-1.46-1.453-3.105-3-4.394-4.28c-1.288-1.279-5-4.853-5-4.853s3.665,3.841,5.067,5.234c1.404,1.396,2.528,2.539,4.201,4.203c1.675,1.663,4.203,4.279,5.202,5.273c0.844,0.838,3.195,2.959,3.195,2.959l0.371-0.304C50.411,52.019,47.711,49.787,45.645,47.72z M17.83,21.51c1.201,1.287,8.793,8.291,9.886,9.459c1.094,1.17,5.991,5.736,5.991,5.736s-3.307-3.293-4.885-4.986c-1.58-1.689-7.594-6.951-9.483-8.972c-1.89-2.022-5.208-5.316-5.208-5.316l-0.296,0.233C13.836,17.664,16.63,20.226,17.83,21.51z M48.032,52.082c-0.917-0.972-1.835-1.726-1.835-1.726s1.08,1.401,1.593,1.862c0.34,0.304,0.723,0.687,0.946,0.915c0.09-0.039,0.186-0.083,0.287-0.136C48.822,52.851,48.502,52.58,48.032,52.082z M28.151,28.882c-0.011,0.002-0.021,0.006-0.031,0.01c0.503,0.458,0.845,0.765,0.845,0.765S28.638,29.346,28.151,28.882z M31.633,32.671c-0.014-0.092-0.019-0.185-0.015-0.276c-1.137-0.985-2.698-2.268-3.935-3.347c-0.051,0.017-0.103,0.033-0.152,0.047c0.474,0.428,0.859,0.766,1.096,0.958C29.338,30.635,30.48,31.616,31.633,32.671z M31.843,31.533c-1.032-1.057-2.089-2.138-2.924-2.983c-0.086,0.039-0.167,0.075-0.25,0.113c1.157,1.134,2.25,2.207,3.1,3.042C31.792,31.648,31.815,31.589,31.843,31.533z M18.927,15.546c-0.949-0.951-1.708-1.71-2.003-2.006l-0.009,0.008c0.283,0.318,1.011,1.129,1.898,2.085C18.852,15.604,18.89,15.575,18.927,15.546z M32.256,30.882c-0.361-0.375-0.676-0.698-0.85-0.874c-0.198-0.197-0.894-0.901-1.775-1.796c-0.038,0.019-0.077,0.037-0.114,0.055c0.767,0.781,1.731,1.773,2.657,2.726C32.203,30.957,32.227,30.919,32.256,30.882z M17.111,17.851c-0.956-0.966-1.842-1.862-2.266-2.292c-0.072,0.09-0.14,0.177-0.203,0.258c0.484,0.461,1.426,1.355,2.396,2.282C17.059,18.015,17.083,17.932,17.111,17.851z M17.948,16.451c-0.624-0.611-1.448-1.409-2.03-1.987l-0.283,0.259l-0.006,0.006c0.927,0.911,1.629,1.481,2.159,1.919C17.842,16.583,17.89,16.516,17.948,16.451z M16.971,18.605c-1.233-1.19-2.15-2.046-2.587-2.452c-0.051,0.069-0.095,0.128-0.134,0.18c0.482,0.461,1.542,1.479,2.751,2.649C16.978,18.858,16.969,18.73,16.971,18.605z M17.366,17.265c0.035-0.067,0.084-0.136,0.128-0.205c-0.888-0.806-1.759-1.586-2.201-2.023L15.2,15.123c-0.019,0.024-0.037,0.044-0.056,0.067c0.424,0.412,1.271,1.215,2.205,2.109C17.355,17.287,17.359,17.276,17.366,17.265z"/>
<path d="M17.371,0c0,0,1.416,1.002,3.671,3.257l0,0C23.297,5.513,24.3,6.927,24.3,6.927v1.257L8.185,24.299H6.928l0,0c0,0-1.882-1.468-3.67-3.258l0,0C1.001,18.786,0,17.372,0,17.372v-1.26L16.113,0H17.371z"/>
<path fill="url(#svg-txplogo-grad4)" d="M17.157,0.676h-0.764L0.675,16.394v0.763c0,0,0.829,1.178,3.06,3.407c2.23,2.229,3.408,3.061,3.408,3.061h0.762l15.72-15.721V7.142c0,0-0.83-1.176-3.061-3.408C18.334,1.505,17.157,0.676,17.157,0.676z"/>
<path fill="url(#svg-txplogo-grad4)" d="M17.157,0.676h-0.764L0.675,16.394v0.763c0,0,0.829,1.178,3.06,3.407c2.23,2.229,3.408,3.061,3.408,3.061h0.762l15.72-15.721V7.142c0,0-0.83-1.176-3.061-3.408C18.334,1.505,17.157,0.676,17.157,0.676z"/>
<path fill="url(#svg-txplogo-grad5)" d="M23.046,7.702c0,0-4.415,4.699-7.53,7.814c-3.116,3.115-7.815,7.531-7.815,7.531s-1.724-0.901-3.635-2.812C2.153,18.322,1.253,16.6,1.253,16.6s4.415-4.7,7.53-7.817c3.115-3.113,7.816-7.529,7.816-7.529s1.657,0.964,3.57,2.876C22.082,6.044,23.046,7.702,23.046,7.702z"/>
<path fill="url(#svg-txplogo-grad6)" d="M7.701,23.047c0,0-1.724-0.901-3.635-2.812C2.153,18.322,1.253,16.6,1.253,16.6l-0.579-0.206v0.763c0,0,0.829,1.178,3.06,3.407c2.23,2.229,3.408,3.061,3.408,3.061h0.762L7.701,23.047z"/>
<path fill="url(#svg-txplogo-grad7)" d="M23.625,7.904V7.142c0,0-0.83-1.176-3.061-3.408c-2.229-2.229-3.407-3.058-3.407-3.058h-0.764l0.206,0.578c0,0,1.657,0.964,3.57,2.876c1.913,1.915,2.877,3.572,2.877,3.572L23.625,7.904z"/>
<g fill="#494949">
    <path d="M11.295,12.719l-0.183,0.185l-0.149-0.15l0.523-0.521l0.148,0.148l-0.182,0.183l0.952,0.951l-0.157,0.156L11.295,12.719z"/>
    <path d="M12.256,12.51l-0.729-0.319l0.167-0.166l0.445,0.207l-0.206-0.448l0.167-0.167l0.313,0.734l0.804,0.349l-0.167,0.168l-0.508-0.233l0.236,0.505l-0.169,0.168L12.256,12.51z"/>
    <path d="M12.188,11.531l0.238-0.237c0.086-0.085,0.17-0.13,0.281-0.126c0.111,0.002,0.198,0.055,0.329,0.187c0.097,0.096,0.154,0.168,0.176,0.266c0.028,0.114,0.002,0.227-0.114,0.343l-0.08,0.081l0.429,0.43l-0.157,0.156L12.188,11.531z M12.868,11.894l0.076-0.075c0.128-0.128,0.054-0.205-0.056-0.314c-0.103-0.104-0.188-0.189-0.312-0.067l-0.082,0.083L12.868,11.894z"/>
</g>
<g fill="#191919">
    <path d="M11.295,12.585l-0.183,0.183l-0.149-0.148l0.523-0.523l0.148,0.148l-0.182,0.183l0.952,0.951l-0.157,0.159L11.295,12.585z"/>
    <path d="M12.256,12.375l-0.729-0.319l0.167-0.166l0.445,0.207l-0.206-0.448l0.167-0.165l0.313,0.734l0.804,0.349l-0.167,0.167L12.542,12.5l0.236,0.507l-0.169,0.166L12.256,12.375z"/>
    <path d="M12.188,11.395l0.238-0.235c0.086-0.088,0.17-0.132,0.281-0.128c0.111,0.002,0.198,0.055,0.329,0.187c0.097,0.095,0.154,0.168,0.176,0.266c0.028,0.116,0.002,0.228-0.114,0.343l-0.08,0.081l0.429,0.43l-0.157,0.159L12.188,11.395z M12.868,11.76l0.076-0.077c0.128-0.128,0.054-0.205-0.056-0.314c-0.103-0.104-0.188-0.189-0.312-0.065l-0.082,0.081L12.868,11.76z"/>
</g>
<g fill="#2d2d2d">
    <path d="M11.295,12.652l-0.183,0.183l-0.149-0.148l0.523-0.521l0.148,0.146l-0.182,0.185l0.952,0.951l-0.157,0.156L11.295,12.652z"/>
    <path d="M12.256,12.443l-0.729-0.321l0.167-0.164l0.445,0.207l-0.206-0.448l0.167-0.167l0.313,0.734l0.804,0.349l-0.167,0.168l-0.508-0.235l0.236,0.507l-0.169,0.168L12.256,12.443z"/>
    <path d="M12.188,11.463l0.238-0.237c0.086-0.088,0.17-0.13,0.281-0.128c0.111,0.004,0.198,0.057,0.329,0.189c0.097,0.095,0.154,0.168,0.176,0.265c0.028,0.114,0.002,0.228-0.114,0.343l-0.08,0.081l0.429,0.428l-0.157,0.159L12.188,11.463z M12.868,11.827l0.076-0.075c0.128-0.128,0.054-0.205-0.056-0.314c-0.103-0.106-0.188-0.189-0.312-0.067l-0.082,0.083L12.868,11.827z"/>
</g>
<path d="M5.366,51.177L5.366,51.177c-1.491-1.491-2.659-3.347-2.659-3.347l1.453-1.452c0,0,1.524-0.418,2.448-1.34l0,0L36.62,15.023c1.911-1.909,3.906-6.117,3.906-6.117l5.277-5.279l1.374-0.93L54,9.521l-0.932,1.375l-5.274,5.275c0,0-4.208,1.998-6.118,3.909l0,0L11.664,50.092c-0.925,0.923-1.344,2.448-1.344,2.448L8.86,54C8.86,54,6.858,52.669,5.366,51.177z"/>
<path fill="url(#svg-txplogo-grad8)" d="M46.239,4.15L46.239,4.15l-5.086,5.086c0,0-1.199,5.251-3.132,7.187l-1.02,1.021l2.256,2.255l1.02-1.018c1.934-1.936,7.187-3.134,7.187-3.134l5.086-5.084l0,0L46.239,4.15z"/>
<path fill="#616161" d="M39.257,19.698l0.922,0.922l1.02-1.02c1.934-1.936,6.265-4.055,6.265-4.055s-5.253,1.199-7.187,3.134L39.257,19.698z"/>
<path fill="#ebe9e9" d="M36.08,16.52l0.921,0.923l1.02-1.021c1.934-1.936,3.132-7.187,3.132-7.187s-2.12,4.329-4.054,6.266L36.08,16.52z"/>
<path fill="#ffcc33" d="M37.068,17.374L8.008,46.435c-1.106,1.107-2.396,1.659-2.396,1.659l2.992,2.994h0.001c0,0,0.553-1.291,1.659-2.396l29.062-29.062L37.068,17.374z"/>
<path fill="#bfbfbf" d="M3.584,47.909c0,0,1.239,1.771,2.259,2.791c1.021,1.021,2.946,2.416,2.946,2.416L3.584,47.909z"/>
<polygon fill="#ebe9e9" points="52.55,10.462 53.13,9.604 47.096,3.57 46.239,4.15"/>
<g fill="#ba9c0a">
    <path d="M10.436,45.771l-0.139,0.139l-0.112-0.114l0.396-0.397l0.113,0.113l-0.138,0.141l0.722,0.722l-0.119,0.12L10.436,45.771z"/>
    <path d="M10.704,45.276l0.357-0.357l0.113,0.114l-0.237,0.237l0.245,0.246l0.207-0.208l0.113,0.112l-0.207,0.207l0.245,0.246l0.237-0.238l0.12,0.12l-0.357,0.357L10.704,45.276z"/>
    <path d="M11.717,45.059l-0.554-0.241l0.127-0.127l0.337,0.158l-0.156-0.338l0.127-0.128l0.238,0.558l0.609,0.266l-0.127,0.126l-0.385-0.177l0.177,0.384l-0.126,0.127L11.717,45.059z"/>
    <path d="M11.926,44.28l-0.138,0.139l-0.112-0.112l0.396-0.397l0.112,0.111l-0.139,0.139l0.724,0.724l-0.12,0.12L11.926,44.28z"/>
    <path d="M12.195,43.786l0.18-0.18c0.066-0.063,0.13-0.097,0.214-0.095s0.15,0.042,0.25,0.142c0.073,0.073,0.115,0.128,0.133,0.203c0.022,0.085,0.002,0.173-0.087,0.259l-0.061,0.061l0.327,0.327l-0.12,0.12L12.195,43.786z M12.711,44.062l0.058-0.057c0.097-0.098,0.04-0.154-0.043-0.239c-0.078-0.078-0.143-0.143-0.236-0.049l-0.063,0.063L12.711,44.062z"/>
    <path d="M12.832,43.149l0.101-0.1l1.021,0.649l-0.119,0.117l-0.215-0.142l-0.163,0.162l0.144,0.215l-0.119,0.12L12.832,43.149z M13.123,43.34l-0.002,0.002l0.243,0.361l0.12-0.12L13.123,43.34z"/>
    <path d="M13.374,42.833l-0.139,0.138l-0.112-0.111l0.396-0.398l0.113,0.112l-0.138,0.14l0.722,0.722l-0.12,0.12L13.374,42.833z"/>
    <path d="M13.834,42.375l-0.139,0.138l-0.113-0.114L13.979,42l0.112,0.114l-0.138,0.138l0.722,0.724l-0.12,0.12L13.834,42.375z"/>
    <path d="M14.102,41.879l0.357-0.356l0.112,0.113l-0.236,0.237l0.244,0.246l0.207-0.207l0.113,0.111l-0.206,0.207l0.244,0.246l0.237-0.237l0.12,0.119l-0.357,0.357L14.102,41.879z"/>
    <path d="M14.606,41.374l0.191-0.19c0.143-0.144,0.295-0.128,0.458,0.032c0.096,0.096,0.139,0.193,0.105,0.313l0.51,0.25l-0.127,0.128l-0.469-0.245l-0.071,0.071l0.356,0.357l-0.119,0.12L14.606,41.374z M15.1,41.628l0.068-0.067c0.083-0.083,0.049-0.145-0.035-0.227c-0.084-0.085-0.144-0.116-0.232-0.029l-0.062,0.063L15.1,41.628z"/>
    <path d="M15.171,40.811l0.114-0.116l0.685,0.322l0.002-0.002l-0.503-0.503l0.12-0.119l0.834,0.835l-0.112,0.112l-0.686-0.319l-0.002,0.002l0.502,0.504l-0.12,0.117L15.171,40.811z"/>
</g>
<g fill="#ecd74c">
    <path d="M10.436,45.879l-0.139,0.137l-0.112-0.111l0.396-0.398l0.113,0.114l-0.138,0.138l0.722,0.722l-0.119,0.12L10.436,45.879z"/>
    <path d="M10.704,45.387l0.357-0.357l0.113,0.113l-0.237,0.235l0.245,0.246l0.207-0.207l0.113,0.113l-0.207,0.206l0.245,0.246l0.237-0.237l0.12,0.119l-0.357,0.355L10.704,45.387z"/>
    <path d="M11.717,45.169l-0.554-0.242l0.127-0.128l0.337,0.158l-0.156-0.338l0.127-0.128l0.238,0.558l0.609,0.263l-0.127,0.128l-0.385-0.178l0.177,0.385l-0.126,0.128L11.717,45.169z"/>
    <path d="M11.926,44.39l-0.138,0.138l-0.112-0.113l0.396-0.396l0.112,0.112l-0.139,0.138l0.724,0.724l-0.12,0.12L11.926,44.39z"/>
    <path d="M12.195,43.896l0.18-0.181c0.066-0.065,0.13-0.098,0.214-0.096s0.15,0.042,0.25,0.142c0.073,0.074,0.115,0.128,0.133,0.204c0.022,0.084,0.002,0.172-0.087,0.26l-0.061,0.061l0.327,0.326l-0.12,0.119L12.195,43.896z M12.711,44.171l0.058-0.057c0.097-0.097,0.04-0.155-0.043-0.239c-0.078-0.077-0.143-0.142-0.236-0.049l-0.063,0.061L12.711,44.171z"/>
    <path d="M12.832,43.258l0.101-0.101l1.021,0.649l-0.119,0.12l-0.215-0.145l-0.163,0.162l0.144,0.215l-0.119,0.121L12.832,43.258z M13.123,43.447l-0.002,0.004l0.243,0.361l0.12-0.12L13.123,43.447z"/>
    <path d="M13.374,42.942l-0.139,0.139l-0.112-0.114l0.396-0.396l0.113,0.111l-0.138,0.141l0.722,0.722l-0.12,0.12L13.374,42.942z"/>
    <path d="M13.834,42.481l-0.139,0.138l-0.113-0.111l0.397-0.397l0.112,0.113l-0.138,0.137l0.722,0.725l-0.12,0.117L13.834,42.481z"/>
    <path d="M14.102,41.989l0.357-0.357l0.112,0.113l-0.236,0.236l0.244,0.245l0.207-0.207l0.113,0.113l-0.206,0.208l0.244,0.245l0.237-0.237l0.12,0.12l-0.357,0.355L14.102,41.989z"/>
    <path d="M14.606,41.483l0.191-0.193c0.143-0.142,0.295-0.128,0.458,0.035c0.096,0.095,0.139,0.192,0.105,0.312l0.51,0.252l-0.127,0.128l-0.469-0.246l-0.071,0.071l0.356,0.357l-0.119,0.12L14.606,41.483z M15.1,41.737l0.068-0.067c0.083-0.083,0.049-0.144-0.035-0.228c-0.084-0.085-0.144-0.115-0.232-0.028l-0.062,0.063L15.1,41.737z"/>
    <path d="M15.171,40.92l0.114-0.116l0.685,0.323l0.002-0.004l-0.503-0.502l0.12-0.118l0.834,0.834l-0.112,0.113l-0.686-0.319h-0.002l0.502,0.503l-0.12,0.12L15.171,40.92z"/>
</g>
<g fill="#fcc332">
    <path d="M10.436,45.824l-0.139,0.14l-0.112-0.113l0.396-0.396l0.113,0.111l-0.138,0.138l0.722,0.723l-0.119,0.121L10.436,45.824z"/>
    <path d="M10.704,45.332l0.357-0.357l0.113,0.111l-0.237,0.238l0.245,0.245l0.207-0.207l0.113,0.113l-0.207,0.206l0.245,0.245l0.237-0.235l0.12,0.12l-0.357,0.357L10.704,45.332z"/>
    <path d="M11.717,45.114l-0.554-0.241l0.127-0.128l0.337,0.159l-0.156-0.339l0.127-0.126l0.238,0.556l0.609,0.265l-0.127,0.128l-0.385-0.177l0.177,0.385l-0.126,0.126L11.717,45.114z"/>
    <path d="M11.926,44.333l-0.138,0.137l-0.112-0.111l0.396-0.396l0.112,0.111l-0.139,0.14l0.724,0.723l-0.12,0.117L11.926,44.333z"/>
    <path d="M12.195,43.841l0.18-0.179c0.066-0.067,0.13-0.099,0.214-0.097s0.15,0.043,0.25,0.143c0.073,0.073,0.115,0.127,0.133,0.2c0.022,0.088,0.002,0.172-0.087,0.262l-0.061,0.061l0.327,0.327l-0.12,0.12L12.195,43.841z M12.711,44.119l0.058-0.059c0.097-0.098,0.04-0.157-0.043-0.24c-0.078-0.079-0.143-0.144-0.236-0.048l-0.063,0.062L12.711,44.119z"/>
    <path d="M12.832,43.203l0.101-0.099l1.021,0.649l-0.119,0.12l-0.215-0.146l-0.163,0.164l0.144,0.215l-0.119,0.12L12.832,43.203z M13.123,43.394l-0.002,0.002l0.243,0.361l0.12-0.119L13.123,43.394z"/>
    <path d="M13.374,42.886l-0.139,0.14l-0.112-0.112l0.396-0.397l0.113,0.114l-0.138,0.138l0.722,0.722l-0.12,0.12L13.374,42.886z"/>
    <path d="M13.834,42.426l-0.139,0.141l-0.113-0.114l0.397-0.396l0.112,0.111l-0.138,0.139l0.722,0.722l-0.12,0.12L13.834,42.426z"/>
    <path d="M14.102,41.934l0.357-0.357l0.112,0.112l-0.236,0.237l0.244,0.246l0.207-0.208l0.113,0.114l-0.206,0.205l0.244,0.245l0.237-0.235l0.12,0.118l-0.357,0.359L14.102,41.934z"/>
    <path d="M14.606,41.429l0.191-0.193c0.143-0.143,0.295-0.127,0.458,0.035c0.096,0.097,0.139,0.195,0.105,0.312l0.51,0.252l-0.127,0.128l-0.469-0.245l-0.071,0.071l0.356,0.357l-0.119,0.119L14.606,41.429z M15.1,41.682l0.068-0.067c0.083-0.084,0.049-0.144-0.035-0.227c-0.084-0.085-0.144-0.115-0.232-0.029l-0.062,0.063L15.1,41.682z"/>
    <path d="M15.171,40.863l0.114-0.113l0.685,0.322l0.002-0.002l-0.503-0.505l0.12-0.12l0.834,0.836l-0.112,0.114l-0.686-0.321l-0.002,0.004l0.502,0.5l-0.12,0.122L15.171,40.863z"/>
</g>
<rect fill="#3d2812" x="8.046" y="51.319" transform="matrix(-0.7071 0.7071 -0.7071 -0.7071 51.6889 82.7929)" width="1.303" height="1.564"/>
<rect fill="#e2d9ac" x="3.816" y="47.35" transform="matrix(0.7071 0.7071 -0.7071 0.7071 35.2886 10.8082)" width="1.563" height="1.303"/>
<rect fill="#fcc332" x="5.996" y="47.934" transform="matrix(0.7067 -0.7075 0.7075 0.7067 -33.4605 19.3813)" width="1.302" height="4.234"/>
<path fill="#473015" d="M40.246,20.552l-0.92-0.92L10.264,48.692c-1.106,1.105-1.659,2.396-1.659,2.396l1.105,1.107c0,0,0.369-1.474,1.475-2.581L40.246,20.552z"/>
<path fill="#ede5b2" d="M36.146,16.453L7.086,45.513c-1.107,1.106-2.58,1.475-2.58,1.475l1.105,1.105c0,0,1.29-0.552,2.396-1.659l29.06-29.061L36.146,16.453z"/>
<path d="M92.26,19.092c0.079-0.494,0.137-1.04,0.176-1.635l0.117-1.801c0.037-0.612,0.07-1.21,0.097-1.789c0.026-0.581,0.038-1.104,0.038-1.568v-0.256L70,12v0.51c0,0.464,0.012,0.784,0.038,1.374c0.025,0.59,0.059,1.191,0.096,1.804c0.037,0.614,0.082,1.217,0.134,1.809c0.051,0.588,0.116,1.125,0.193,1.597l0.035,0.213h1.354l2.021-4.954h5.399l0.003,20.332c-0.584,0.091-1.139,0.195-1.653,0.319c-0.573,0.142-1.151,0.305-1.717,0.492l-0.178,0.061V37h11.243v-1.432L86.804,35.5c-0.546-0.212-1.117-0.378-1.703-0.498c-0.511-0.102-1.06-0.206-1.643-0.312l-0.002-20.337h5.358l2.006,4.954h1.406L92.26,19.092z"/>
<path d="M105.97,19.538c-0.615-0.547-1.329-0.945-2.121-1.187c-0.779-0.234-1.58-0.351-2.38-0.351c-2.479,0-4.428,0.844-5.791,2.511c-1.36,1.654-2.051,4.09-2.051,7.237c0,1.476,0.182,2.82,0.535,4c0.357,1.187,0.889,2.224,1.582,3.081c0.695,0.857,1.574,1.525,2.611,1.985c1.032,0.46,2.238,0.687,3.584,0.687c0.62,0,1.238-0.083,1.838-0.238c0.599-0.167,1.158-0.385,1.662-0.652c0.508-0.276,0.966-0.604,1.361-0.98c0.404-0.383,0.708-0.802,0.901-1.243l0.073-0.168l-0.73-0.898l-0.168,0.158c-0.375,0.363-0.956,0.663-1.728,0.894c-0.786,0.233-1.569,0.351-2.334,0.351c-0.929,0-1.747-0.182-2.431-0.539c-0.682-0.353-1.255-0.847-1.703-1.466c-0.449-0.619-0.791-1.361-1.016-2.205c-0.208-0.774-0.322-1.612-0.342-2.498h10.46l0.04-0.212c0.091-0.492,0.155-0.96,0.188-1.388c0.035-0.427,0.052-0.853,0.052-1.272c0-1.333-0.195-2.478-0.579-3.388C107.101,20.838,106.592,20.094,105.97,19.538z M101.334,20.128c1.073,0,1.837,0.409,2.335,1.257c0.511,0.869,0.769,2.059,0.769,3.542c0,0.19-0.005,0.383-0.017,0.575c-0.007,0.134-0.016,0.26-0.027,0.387h-6.952c0.145-2.121,0.529-3.625,1.14-4.464C99.216,20.55,100.116,20.128,101.334,20.128z"/>
<path d="M128.186,35.052c-0.312-0.126-0.629-0.248-0.951-0.365l-5.652-7.849l4.872-6.479c0.891-0.269,1.581-0.57,2.054-0.896l0.116-0.082V18h-6.658v1.364l0.101,0.087c0.363,0.297,0.883,0.561,1.583,0.813l-3.349,4.933l-3.413-4.931c0.227-0.083,0.44-0.18,0.64-0.295c0.292-0.161,0.589-0.351,0.881-0.543l0.12-0.084V18h-7.912v1.385l0.12,0.08c0.305,0.205,0.606,0.378,0.896,0.514c0.268,0.132,0.568,0.254,0.893,0.373l5.354,7.22l-5.309,7.103c-0.682,0.179-1.369,0.478-2.045,0.895l-0.128,0.076V37h6.805v-1.358l-0.132-0.074c-0.3-0.178-0.6-0.341-0.898-0.493c-0.206-0.101-0.426-0.202-0.659-0.295l3.721-5.454l3.686,5.454c-0.196,0.084-0.395,0.177-0.592,0.282c-0.297,0.163-0.618,0.343-0.964,0.542l-0.134,0.076V37h8.059v-1.344l-0.119-0.08C128.86,35.367,128.529,35.19,128.186,35.052z"/>
<path d="M142.252,34.344c-0.443,0.159-0.995,0.274-1.631,0.327c-0.655,0.061-1.205,0.09-1.64,0.09c-0.862,0-1.484-0.261-1.903-0.791c-0.428-0.543-0.643-1.503-0.643-2.858V21.064h5.526v-2.387h-5.526V14h-1.175l-0.103,0.023c-0.419,0.188-0.842,0.385-1.273,0.593c-0.446,0.206-0.842,0.455-1.176,0.726l-0.097,0.075v2.958c-0.983,0.257-1.933,0.672-2.826,1.238l-0.12,0.077v1.373h2.946v11.049c0,1.87,0.415,3.252,1.234,4.101c0.82,0.854,2.015,1.287,3.552,1.287c0.582,0,1.16-0.077,1.72-0.221c0.552-0.148,1.067-0.33,1.534-0.551c0.464-0.222,0.883-0.457,1.249-0.697c0.369-0.249,0.665-0.492,0.874-0.722l0.123-0.132l-0.437-0.908L142.252,34.344z"/>
<path d="M155.489,18c-1.475,0-2.695,0.399-3.619,1.193c-0.671,0.571-1.239,1.296-1.692,2.149V18l-1.211,0.002c-0.793,0.123-1.615,0.295-2.433,0.507c-0.834,0.212-1.659,0.498-2.453,0.846l-0.155,0.069v1.396l2.432,0.297v21.573c-0.737,0.2-1.505,0.491-2.28,0.857l-0.151,0.074V45h8.684v-1.359l-0.125-0.081c-0.455-0.281-0.895-0.491-1.302-0.636c-0.334-0.117-0.671-0.201-1.005-0.255v-5.27c0.498,0.202,0.963,0.351,1.394,0.443c0.53,0.111,1.266,0.174,2.186,0.174c1.329,0,2.558-0.245,3.651-0.73c1.098-0.478,2.045-1.175,2.816-2.067c0.771-0.895,1.371-1.999,1.786-3.292c0.413-1.288,0.623-2.744,0.623-4.326c0-3.349-0.631-5.811-1.872-7.318C159.516,18.766,157.741,18,155.489,18z M158.591,27.6c0,1.208-0.121,2.327-0.36,3.331c-0.237,0.995-0.582,1.875-1.018,2.61c-0.431,0.73-0.963,1.302-1.577,1.7c-0.605,0.389-1.301,0.592-2.062,0.592c-0.861,0-1.568-0.067-2.101-0.201c-0.471-0.115-0.906-0.282-1.295-0.502V24.921c0.284-1.268,0.768-2.276,1.437-2.997c0.66-0.711,1.566-1.072,2.696-1.072c0.788,0,1.459,0.163,1.996,0.485c0.536,0.322,0.978,0.78,1.308,1.367c0.338,0.605,0.588,1.321,0.743,2.146C158.513,25.681,158.591,26.608,158.591,27.6z"/>
<path d="M179.288,33.417c-0.023-0.375-0.036-0.834-0.036-1.357c0-1.227,0.03-2.52,0.091-3.842c0.062-1.345,0.093-2.758,0.093-4.193c0-0.69-0.062-1.39-0.188-2.079c-0.131-0.709-0.406-1.367-0.821-1.96c-0.417-0.587-1.027-1.068-1.813-1.437c-0.779-0.363-1.824-0.547-3.105-0.547c-1.414,0-2.719,0.16-3.877,0.481c-1.158,0.313-2.226,0.764-3.173,1.327l-0.141,0.084l0.012,0.165c0.049,0.762,0.169,1.543,0.356,2.333c0.188,0.777,0.405,1.538,0.653,2.267l0.058,0.174h1.306l1.752-4.4c0.362-0.136,0.733-0.221,1.104-0.254c0.423-0.034,0.805-0.049,1.14-0.049c0.681,0,1.234,0.147,1.644,0.441c0.411,0.292,0.729,0.713,0.942,1.258c0.222,0.564,0.351,1.249,0.387,2.041c0.032,0.751,0.008,1.604-0.072,2.542c-1.632,0.092-3.09,0.233-4.335,0.403c-1.316,0.187-2.445,0.491-3.348,0.908c-0.926,0.432-1.635,1.028-2.114,1.783c-0.483,0.753-0.726,1.721-0.726,2.877c0,1.522,0.504,2.769,1.503,3.713c0.987,0.932,2.278,1.405,3.835,1.405c0.81,0,1.547-0.125,2.188-0.379c0.637-0.253,1.198-0.578,1.672-0.984c0.478-0.403,0.87-0.873,1.164-1.39c0.125-0.219,0.233-0.437,0.322-0.651c0.022,0.441,0.046,0.862,0.076,1.258c0.053,0.692,0.208,1.339,0.466,1.922l0.066,0.149l1.124-0.004c0.694-0.119,1.43-0.307,2.188-0.552c0.757-0.238,1.454-0.523,2.082-0.843l0.141-0.074v-1.158l-2.554-0.366C179.329,34.078,179.307,33.74,179.288,33.417z M174.509,33.569c-0.298,0.315-0.671,0.592-1.109,0.82c-0.432,0.222-0.938,0.334-1.513,0.334c-0.872,0-1.537-0.25-2.032-0.771c-0.487-0.513-0.737-1.261-0.737-2.219c0-0.561,0.093-1.072,0.273-1.503c0.174-0.417,0.498-0.77,0.963-1.055c0.487-0.292,1.177-0.515,2.051-0.655c0.838-0.134,1.917-0.202,3.21-0.212v3.492c-0.07,0.215-0.195,0.477-0.37,0.792C175.059,32.919,174.811,33.248,174.509,33.569z"/>
<path d="M195.388,34.344c-0.445,0.159-0.997,0.274-1.634,0.327c-0.654,0.061-1.204,0.09-1.638,0.09c-0.863,0-1.484-0.261-1.905-0.791c-0.427-0.543-0.643-1.503-0.643-2.858V21.064h5.527v-2.387h-5.527V14h-1.172l-0.104,0.023c-0.417,0.188-0.842,0.385-1.273,0.593c-0.447,0.206-0.842,0.455-1.176,0.726l-0.097,0.075v2.958c-0.983,0.257-1.932,0.672-2.824,1.238l-0.123,0.077v1.373h2.947v11.049c0,1.87,0.415,3.252,1.236,4.101c0.818,0.854,2.015,1.287,3.549,1.287c0.584,0,1.162-0.077,1.721-0.221c0.552-0.148,1.067-0.33,1.534-0.551c0.464-0.222,0.885-0.457,1.249-0.697c0.368-0.249,0.663-0.492,0.874-0.722l0.123-0.132l-0.438-0.908L195.388,34.344z"/>
<path d="M209.021,34.344c-0.447,0.159-0.995,0.274-1.636,0.327c-0.652,0.061-1.202,0.09-1.636,0.09c-0.861,0-1.486-0.261-1.905-0.791c-0.427-0.543-0.645-1.503-0.645-2.858V21.064h5.529v-2.387H203.2V14h-1.172l-0.101,0.023c-0.419,0.188-0.846,0.385-1.273,0.593c-0.449,0.206-0.844,0.455-1.176,0.726l-0.097,0.075v2.958c-0.983,0.257-1.934,0.672-2.828,1.238l-0.121,0.077v1.373h2.949v11.049c0,1.87,0.415,3.252,1.232,4.101c0.822,0.854,2.015,1.287,3.551,1.287c0.582,0,1.162-0.077,1.723-0.221c0.548-0.148,1.065-0.33,1.532-0.551c0.464-0.222,0.885-0.457,1.247-0.697c0.37-0.249,0.665-0.492,0.876-0.722l0.123-0.132l-0.436-0.908L209.021,34.344z"/>
<path d="M224.566,19.538c-0.672-0.547-1.454-0.945-2.32-1.187c-0.852-0.234-1.729-0.351-2.605-0.351c-2.712,0-4.843,0.844-6.337,2.511c-1.486,1.654-2.242,4.09-2.242,7.237c0,1.475,0.195,2.82,0.587,4c0.387,1.187,0.971,2.225,1.728,3.081c0.762,0.857,1.723,1.525,2.86,1.985c1.128,0.46,2.447,0.687,3.92,0.687c0.681,0,1.355-0.083,2.01-0.238c0.656-0.167,1.269-0.385,1.82-0.652c0.557-0.276,1.056-0.604,1.491-0.98c0.442-0.383,0.773-0.804,0.984-1.243l0.079-0.168l-0.798-0.898l-0.182,0.159c-0.415,0.362-1.049,0.663-1.894,0.893c-0.857,0.233-1.718,0.351-2.554,0.351c-1.015,0-1.909-0.182-2.658-0.538c-0.749-0.353-1.374-0.847-1.865-1.466s-0.866-1.362-1.112-2.205c-0.226-0.776-0.35-1.611-0.372-2.498h11.446l0.042-0.212c0.099-0.492,0.17-0.96,0.208-1.388c0.036-0.425,0.057-0.851,0.057-1.272c0-1.333-0.214-2.478-0.635-3.388C225.804,20.838,225.245,20.094,224.566,19.538z M219.495,20.128c1.172,0,2.01,0.409,2.554,1.258c0.557,0.868,0.84,2.058,0.84,3.542c0,0.19-0.006,0.383-0.018,0.575c-0.008,0.134-0.017,0.261-0.028,0.387h-7.609c0.161-2.121,0.58-3.624,1.249-4.464C217.175,20.55,218.16,20.128,219.495,20.128z"/>
<path d="M241.904,19.222c-0.137-0.384-0.298-0.742-0.475-1.066l-0.064-0.114l-0.129-0.014c-0.693-0.074-1.378-0.004-2.035,0.212c-0.648,0.205-1.256,0.514-1.8,0.914c-0.544,0.398-1.029,0.846-1.446,1.343c-0.248,0.29-0.464,0.584-0.646,0.882v-3.352l-1.211,0.004c-0.771,0.12-1.583,0.289-2.415,0.487c-0.844,0.206-1.676,0.486-2.469,0.825l-0.157,0.066v1.354l2.431,0.286v13.708c-0.332,0.082-0.665,0.179-0.997,0.283c-0.408,0.119-0.844,0.311-1.299,0.559l-0.135,0.074V37h9.2v-1.327l-0.139-0.074c-0.508-0.275-1.02-0.483-1.526-0.615c-0.428-0.116-0.856-0.2-1.283-0.256V24.321c0.3-0.802,0.643-1.42,1.017-1.829c0.358-0.388,0.657-0.66,0.895-0.802h5.09v-1.197l-0.01-0.085C242.175,19.995,242.042,19.602,241.904,19.222z"/>
<path d="M263.879,35.608c-0.618-0.399-1.394-0.688-2.312-0.865v-8.902c0-1.509-0.139-2.777-0.414-3.771c-0.282-1.012-0.697-1.828-1.237-2.436c-0.546-0.611-1.234-1.04-2.05-1.28c-0.794-0.235-1.704-0.353-2.703-0.353c-1.426,0-2.663,0.419-3.674,1.246c-0.75,0.612-1.37,1.321-1.859,2.119V18l-1.219,0.004c-0.914,0.167-1.801,0.363-2.63,0.58c-0.847,0.216-1.6,0.463-2.244,0.733l-0.161,0.064v1.356l2.434,0.289v13.732c-0.936,0.254-1.704,0.536-2.291,0.833l-0.143,0.075V37h8.464v-1.321l-0.125-0.074c-0.669-0.411-1.37-0.697-2.085-0.857V24.481c0.163-0.466,0.385-0.93,0.658-1.363c0.282-0.445,0.621-0.855,1.008-1.205c0.381-0.353,0.825-0.636,1.325-0.838c0.495-0.204,1.041-0.309,1.619-0.309c1.338,0,2.229,0.474,2.728,1.452c0.518,1.013,0.781,2.426,0.781,4.197v8.354c-0.725,0.229-1.408,0.508-2.032,0.823l-0.144,0.073V37H264v-1.317L263.879,35.608z"/>
</svg>
